<svg width="29" height="29" viewBox="0 0 29 29" fill="none" xmlns="http://www.w3.org/2000/svg">
<path d="M9.30001 3.0001C9.30001 2.7614 9.20519 2.53248 9.03641 2.3637C8.86763 2.19492 8.63871 2.1001 8.40001 2.1001C8.16132 2.1001 7.9324 2.19492 7.76362 2.3637C7.59483 2.53248 7.50001 2.7614 7.50001 3.0001V4.8961C5.77201 5.0341 4.63921 5.3725 3.80641 6.2065C2.97241 7.0393 2.63401 8.1733 2.49481 9.9001H26.3052C26.166 8.1721 25.8276 7.0393 24.9936 6.2065C24.1608 5.3725 23.0268 5.0341 21.3 4.8949V3.0001C21.3 2.7614 21.2052 2.53248 21.0364 2.3637C20.8676 2.19492 20.6387 2.1001 20.4 2.1001C20.1613 2.1001 19.9324 2.19492 19.7636 2.3637C19.5948 2.53248 19.5 2.7614 19.5 3.0001V4.8157C18.702 4.8001 17.8068 4.8001 16.8 4.8001H12C10.9932 4.8001 10.098 4.8001 9.30001 4.8157V3.0001Z" fill="#403528"/>
<path fill-rule="evenodd" clip-rule="evenodd" d="M2.40002 14.3997C2.40002 13.3929 2.40002 12.4977 2.41562 11.6997H26.3844C26.4 12.4977 26.4 13.3929 26.4 14.3997V16.7997C26.4 21.3249 26.4 23.5881 24.9936 24.9933C23.5872 26.3985 21.3252 26.3997 16.8 26.3997H12C7.47482 26.3997 5.21162 26.3997 3.80642 24.9933C2.40122 23.5869 2.40002 21.3249 2.40002 16.7997V14.3997ZM20.4 16.7997C20.7183 16.7997 21.0235 16.6733 21.2486 16.4482C21.4736 16.2232 21.6 15.918 21.6 15.5997C21.6 15.2814 21.4736 14.9762 21.2486 14.7512C21.0235 14.5261 20.7183 14.3997 20.4 14.3997C20.0818 14.3997 19.7765 14.5261 19.5515 14.7512C19.3265 14.9762 19.2 15.2814 19.2 15.5997C19.2 15.918 19.3265 16.2232 19.5515 16.4482C19.7765 16.6733 20.0818 16.7997 20.4 16.7997ZM20.4 21.5997C20.7183 21.5997 21.0235 21.4733 21.2486 21.2482C21.4736 21.0232 21.6 20.718 21.6 20.3997C21.6 20.0814 21.4736 19.7762 21.2486 19.5512C21.0235 19.3261 20.7183 19.1997 20.4 19.1997C20.0818 19.1997 19.7765 19.3261 19.5515 19.5512C19.3265 19.7762 19.2 20.0814 19.2 20.3997C19.2 20.718 19.3265 21.0232 19.5515 21.2482C19.7765 21.4733 20.0818 21.5997 20.4 21.5997ZM15.6 15.5997C15.6 15.918 15.4736 16.2232 15.2486 16.4482C15.0235 16.6733 14.7183 16.7997 14.4 16.7997C14.0818 16.7997 13.7765 16.6733 13.5515 16.4482C13.3265 16.2232 13.2 15.918 13.2 15.5997C13.2 15.2814 13.3265 14.9762 13.5515 14.7512C13.7765 14.5261 14.0818 14.3997 14.4 14.3997C14.7183 14.3997 15.0235 14.5261 15.2486 14.7512C15.4736 14.9762 15.6 15.2814 15.6 15.5997ZM15.6 20.3997C15.6 20.718 15.4736 21.0232 15.2486 21.2482C15.0235 21.4733 14.7183 21.5997 14.4 21.5997C14.0818 21.5997 13.7765 21.4733 13.5515 21.2482C13.3265 21.0232 13.2 20.718 13.2 20.3997C13.2 20.0814 13.3265 19.7762 13.5515 19.5512C13.7765 19.3261 14.0818 19.1997 14.4 19.1997C14.7183 19.1997 15.0235 19.3261 15.2486 19.5512C15.4736 19.7762 15.6 20.0814 15.6 20.3997ZM8.40002 16.7997C8.71828 16.7997 9.02351 16.6733 9.24855 16.4482C9.4736 16.2232 9.60002 15.918 9.60002 15.5997C9.60002 15.2814 9.4736 14.9762 9.24855 14.7512C9.02351 14.5261 8.71828 14.3997 8.40002 14.3997C8.08176 14.3997 7.77654 14.5261 7.5515 14.7512C7.32645 14.9762 7.20002 15.2814 7.20002 15.5997C7.20002 15.918 7.32645 16.2232 7.5515 16.4482C7.77654 16.6733 8.08176 16.7997 8.40002 16.7997ZM8.40002 21.5997C8.71828 21.5997 9.02351 21.4733 9.24855 21.2482C9.4736 21.0232 9.60002 20.718 9.60002 20.3997C9.60002 20.0814 9.4736 19.7762 9.24855 19.5512C9.02351 19.3261 8.71828 19.1997 8.40002 19.1997C8.08176 19.1997 7.77654 19.3261 7.5515 19.5512C7.32645 19.7762 7.20002 20.0814 7.20002 20.3997C7.20002 20.718 7.32645 21.0232 7.5515 21.2482C7.77654 21.4733 8.08176 21.5997 8.40002 21.5997Z" fill="#403528"/>
</svg>
