<svg width="105" height="83" viewBox="0 0 105 83" fill="none" xmlns="http://www.w3.org/2000/svg">
<mask id="mask0_397_160" style="mask-type:luminance" maskUnits="userSpaceOnUse" x="1" y="20" width="70" height="63">
<path d="M12.1974 20L70.7493 33.5178L59.5519 82.0193L0.999933 68.5015L12.1974 20Z" fill="white"/>
</mask>
<g mask="url(#mask0_397_160)">
<path d="M61.399 73.2566C61.6208 71.5828 62.1396 67.663 66.3401 51.1544C66.554 50.3155 66.7721 49.5292 66.9653 48.8352C67.7961 45.8458 68.3455 43.8713 67.3096 42.2222C66.5637 41.0353 65.416 40.2075 64.0177 39.5869C64.2037 38.6353 64.3092 37.4361 64.3458 36.5383C64.3566 36.2908 64.2106 36.064 63.9815 35.9707C61.5355 34.9705 57.0245 33.9785 55.8944 33.9922C54.895 34.0032 54.4445 35.6271 54.2424 37.2156C52.9033 36.9251 51.6073 36.5877 50.4629 36.138C49.9258 35.9264 49.8695 35.5026 49.8473 34.3442C49.8051 32.1995 49.7428 28.962 42.5784 27.3079C42.5535 27.3022 42.5279 27.2963 42.5022 27.2911C41.6113 27.0884 40.8113 26.852 40.0375 26.6248C36.7018 25.6444 34.0671 24.8685 30.4441 29.2488C29.1608 30.8009 27.4922 31.066 25.6257 30.7877C25.8254 29.858 25.9425 28.6795 25.9277 27.9853C25.9168 27.4814 25.4552 27.1211 24.1632 26.6073C23.0158 26.1509 21.3567 25.6548 19.9368 25.345C17.1447 24.7356 16.7618 25.1238 16.5556 25.3329C15.9176 25.9796 15.6784 27.4114 15.6291 28.3766C14.7426 28.3919 13.8914 28.5651 13.0997 28.9765C11.5308 29.7914 10.3949 31.4218 9.62784 33.9597C5.41369 47.9021 3.48239 57.3306 3.72252 62.7831C3.93909 67.6764 5.94468 68.5062 7.2727 69.0552C10.9078 70.5575 18.9646 72.651 26.1959 74.3205C31.4349 75.53 36.2412 76.5169 38.6198 76.8947C41.0252 77.2764 43.9635 77.9398 46.8041 78.5821C52.0609 79.7696 56.6007 80.7959 58.2575 80.2513C58.6528 80.121 59.8571 79.7248 61.1639 74.6055C61.281 74.1468 61.3275 73.7931 61.399 73.2566ZM18.9814 58.342C18.6714 54.388 20.1365 50.3956 23.0016 47.3887C24.2203 46.1097 25.4638 45.1418 26.6995 44.4183C26.7483 44.3982 26.7926 44.3717 26.8337 44.3393C30.6425 42.1654 34.3755 42.317 37.121 42.995C42.9427 44.4266 47.4842 48.9946 48.5115 52.5836C50.2755 58.7449 48.2133 64.9029 43.2574 68.272C38.7702 71.3228 31.0716 72.3585 22.9226 66.1165C20.6703 64.3909 19.2336 61.5575 18.9814 58.342ZM43.9186 69.2426C49.3013 65.5836 51.5474 58.9181 49.6418 52.2616C49.2906 51.0341 48.6469 49.8123 47.7853 48.6533C48.374 48.7839 49.1738 48.9663 50.2778 49.228C60.6166 51.68 63.5389 52.1728 64.8296 52.3293C61.165 66.8311 60.5326 70.8864 60.2754 72.7914C58.084 72.3708 48.2521 70.3748 43.9054 69.2515C43.9099 69.2481 43.9143 69.2454 43.9186 69.2426ZM56.0053 35.168C56.9702 35.2156 60.7298 35.9938 63.1504 36.9059C63.1087 37.6019 63.0282 38.4432 62.9046 39.1503C61.1509 38.5426 59.1127 38.1589 57.0175 37.7657C56.4797 37.664 55.9382 37.5622 55.3986 37.4556C55.5527 36.2534 55.8273 35.4008 56.0053 35.168ZM17.3483 26.2074C17.7017 26.1318 19.0532 26.2777 21.1627 26.8583C23.1336 27.4009 24.3915 27.936 24.7528 28.1863C24.7433 28.7783 24.6441 29.7754 24.4738 30.5585C23.5025 30.3245 22.4912 29.9922 21.4632 29.6539C19.9032 29.1403 18.3148 28.6172 16.7987 28.4386C16.8383 27.5931 17.0543 26.5795 17.3483 26.2074ZM13.6419 30.0184C14.8713 29.3803 16.3387 29.4586 17.9337 29.8269C18.9455 30.0604 20.0095 30.4109 21.0958 30.7687C24.8117 31.9925 28.6543 33.2575 31.3505 29.9968C34.4795 26.2134 36.3358 26.7595 39.7065 27.7509C40.4597 27.9727 41.3121 28.2256 42.2417 28.4358C48.5785 29.8823 48.6333 32.3675 48.6725 34.3664C48.6938 35.4669 48.7181 36.7132 50.0332 37.2309C52.0633 38.0288 54.4718 38.4816 56.8007 38.919C59.0822 39.3477 61.2932 39.7639 63.069 40.4642C63.0985 40.4792 63.1296 40.4902 63.1617 40.5005C64.5418 41.0571 65.6514 41.7908 66.314 42.8462C67.0741 44.0559 66.5804 45.8315 65.8331 48.5207C65.6386 49.2204 65.4181 50.0136 65.2014 50.8646L65.1208 51.1812C63.9427 51.0492 61.2886 50.6333 50.5483 48.0856C48.5184 47.6042 47.5011 47.3881 46.9546 47.2724C46.7364 47.2257 46.6114 47.1999 46.5396 47.1803C44.1896 44.7145 40.8741 42.7091 37.4014 41.8549C33.5277 40.9 29.7456 41.4053 26.3871 43.2656C25.6253 43.1167 23.4701 42.6206 20.6288 41.8546L20.5936 41.845C18.2648 41.2161 12.5224 39.6389 9.50843 38.5838C9.50362 38.582 9.49777 38.5814 9.49225 38.5793C9.88791 37.1994 10.3073 35.7749 10.7527 34.2995C11.4238 32.0799 12.3689 30.6801 13.6419 30.0184ZM9.1715 39.7094C12.2342 40.7772 17.959 42.3495 20.2878 42.9785L20.3223 42.9879C22.1865 43.4902 23.7971 43.8882 24.9132 44.1459C24.9296 44.1496 24.9445 44.1531 24.9601 44.1567C23.9774 44.8413 23.0374 45.6488 22.1505 46.5793C19.0561 49.8274 17.4735 54.1474 17.81 58.4338C17.9516 60.2386 18.4374 61.9365 19.2111 63.4247C17.6085 63.021 15.272 62.3866 12.9927 61.7668C8.12037 60.4436 5.71475 59.8037 4.96776 59.7233C5.31945 55.0816 6.72647 48.381 9.1715 39.7094ZM60.0254 74.3149C58.9097 78.6844 57.99 79.1022 57.8894 79.1358C56.5419 79.579 51.5063 78.4412 47.0625 77.4369C44.2034 76.7903 41.2466 76.1227 38.8031 75.7344C33.3396 74.8682 13.7991 70.4811 7.72075 67.9703C6.54438 67.4839 5.07983 66.8779 4.89659 62.7317C4.87227 62.1693 4.87424 61.5546 4.89977 60.893C5.61184 60.9788 9.52218 62.0409 12.6847 62.8998C15.519 63.6701 18.4442 64.4645 19.9632 64.8151C20.0051 64.8248 20.0423 64.8326 20.082 64.8418C20.6877 65.6836 21.4002 66.4288 22.2084 67.0479C25.2574 69.384 28.2558 70.7528 31.0722 71.403C35.5084 72.4271 39.491 71.6658 42.5063 70.0862C43.3792 70.3409 44.7799 70.6852 46.4275 71.0656C51.2375 72.1761 58.1424 73.5898 60.1062 73.9519C60.0833 74.0709 60.0576 74.1884 60.0254 74.3149ZM14.8139 38.3876C16.7762 39.0868 19.0345 39.6748 20.908 40.1073C22.2522 40.4177 23.3987 40.6479 24.0959 40.7819C24.2499 40.8115 24.4104 40.7775 24.5395 40.6883C24.6694 40.5993 24.758 40.4618 24.7847 40.3071C25.639 35.4657 25.1182 33.8967 20.0295 32.8461C16.1681 32.0452 15.4094 34.5244 14.4491 37.6628C14.3573 37.9634 14.5178 38.2826 14.8139 38.3876ZM19.7912 33.9952C23.9443 34.8552 24.3524 35.7292 23.7287 39.5133C21.9324 39.1547 18.587 38.4265 15.7398 37.4661C16.6788 34.4717 17.2615 33.471 19.7912 33.9952ZM32.5473 38.035C33.3737 38.3612 36.2144 39.0777 39.0229 39.7261C41.8563 40.3802 44.6579 40.9649 45.3209 41.0102C46.0534 41.0596 46.3285 40.1173 46.4723 39.4037C46.5934 38.8015 46.9079 36.8102 45.8693 36.4566C44.3009 35.9209 39.2487 34.6865 33.5102 33.5464C33.1474 33.4747 32.478 33.5603 32.0731 34.9381C31.86 35.6635 31.5297 37.6324 32.5473 38.035ZM33.4226 34.7266C38.8543 35.8084 43.7719 37.0036 45.3823 37.5318C45.5375 37.9523 45.3647 39.2939 45.1478 39.8088C43.2747 39.5365 34.7489 37.5846 33.0719 36.9782C32.9002 36.5419 33.1269 35.1193 33.4226 34.7266ZM31.6428 68.1694C36.31 69.2469 40.8997 67.4763 43.3122 65.2501C45.8111 62.9451 47.4859 57.6354 45.8353 53.0771C44.3278 48.9132 40.8635 46.1101 36.0849 45.185C30.4833 44.0998 23.3083 47.425 21.4836 54.69C19.8128 61.35 24.9506 66.1424 30.7833 67.938C31.0696 68.0266 31.3565 68.1033 31.6428 68.1694ZM22.6231 54.9763C24.2806 48.3769 30.7857 45.3542 35.8614 46.3375C36.042 46.3724 36.2202 46.4106 36.3964 46.4512C40.4767 47.3933 43.4253 49.8723 44.7299 53.4759C46.2171 57.5819 44.7377 62.3366 42.5147 64.3873C40.1192 66.5979 35.4397 68.1412 31.1284 66.8159C25.826 65.1838 21.1403 60.8902 22.6231 54.9763ZM52.4615 45.6753C53.265 45.8608 54.0694 45.3588 54.2546 44.5567C54.4399 43.7538 53.937 42.95 53.1335 42.7645C52.3562 42.585 51.3422 43.0065 51.1498 43.8399C50.9576 44.6726 51.6842 45.4959 52.4615 45.6753ZM52.8694 43.9084C53.0413 43.9481 53.149 44.1203 53.1093 44.2923C53.0698 44.4635 52.8975 44.5711 52.7256 44.5314C52.4804 44.4749 52.2731 44.1995 52.2951 44.1043C52.3172 44.0084 52.6243 43.8518 52.8694 43.9084ZM55.8767 46.4638C56.654 46.6432 57.668 46.2218 57.8603 45.3891C58.0456 44.5863 57.5427 43.7824 56.7392 43.5969C55.9356 43.4114 55.1312 43.9134 54.9459 44.7163C54.745 45.5866 55.1194 46.2889 55.8767 46.4638ZM56.4751 44.7408C56.647 44.7805 56.7547 44.9528 56.715 45.1247C56.693 45.2199 56.3852 45.3763 56.1408 45.3199C56.101 45.3107 56.0878 45.3002 56.0878 45.3002C56.0774 45.2866 56.0436 45.1867 56.0912 44.9807C56.1309 44.8087 56.3031 44.7011 56.4751 44.7408ZM59.741 47.3559C60.5439 47.5413 61.3483 47.0393 61.5334 46.2371C61.7191 45.4329 61.3645 44.8653 60.5595 44.6795C59.6046 44.459 58.789 44.8312 58.6198 45.5645C58.4346 46.3666 58.9375 47.1704 59.741 47.3559ZM60.2953 45.8241C60.3478 45.8362 60.384 45.8483 60.4073 45.8574C60.4053 45.8824 60.4003 45.9201 60.3881 45.9727C60.3486 46.1439 60.1771 46.2518 60.0051 46.2121C59.8367 46.1732 59.7299 46.0071 59.7629 45.8381C59.825 45.7993 60.0381 45.7647 60.2953 45.8241ZM32.8271 64.4953C33.1552 64.4094 36.1189 63.4068 38.7833 61.7911C38.9464 61.6911 39.1099 61.5889 39.2692 61.4857C39.2798 61.4785 39.2905 61.4712 39.3004 61.4638C39.3099 61.4585 39.3194 61.4532 39.3283 61.447C41.6156 59.9575 42.8956 58.4166 43.1334 56.8678C43.2983 55.7968 42.9676 54.7498 42.1499 53.7566C41.5453 53.0206 40.8388 52.4923 40.0505 52.186C40.0191 52.1728 39.9888 52.1613 39.9584 52.1506L39.9293 52.1401C37.9911 51.4464 36.06 52.174 34.8864 53.1992C34.4954 52.0403 33.721 51.1192 32.6331 50.5447C30.7587 49.5552 28.39 49.8637 27.0013 51.2793C26.2186 52.0766 24.6658 54.4137 27.1503 58.8899L27.2199 59.01C27.7773 59.9926 28.5007 61.0246 29.3714 62.0795C29.4253 62.1444 29.4892 62.2242 29.561 62.3149C30.1724 63.0801 31.1192 64.2656 32.131 64.4992C32.3611 64.5523 32.5936 64.5566 32.8271 64.4953ZM30.4799 61.5826C30.4027 61.4862 30.3341 61.4008 30.2773 61.3323C29.4503 60.3309 28.7664 59.3551 28.2398 58.4268L28.1728 58.3118C26.6972 55.6535 26.5763 53.3895 27.8405 52.1016C28.6578 51.2681 29.9448 50.9575 31.1526 51.2364C31.4716 51.31 31.7855 51.4251 32.0837 51.5823C33.1697 52.1556 33.8417 53.2027 33.975 54.5311C34.0004 54.781 34.1824 54.9876 34.4276 55.0442L34.4339 55.0457C34.6826 55.1001 34.9372 54.989 35.0663 54.7703C35.7012 53.6926 37.7103 52.5917 39.5246 53.2418L39.5846 53.2639C39.5948 53.2685 39.6051 53.2723 39.6154 53.2762C40.2173 53.5087 40.7644 53.9201 41.2424 54.5012C41.8465 55.2364 42.0854 55.9516 41.972 56.6894C41.7899 57.8769 40.6533 59.1823 38.6857 60.4635C38.676 60.4702 38.6653 60.4775 38.6554 60.4849C38.6468 60.4897 38.6373 60.495 38.6284 60.5011C38.4779 60.5988 38.3231 60.6956 38.1706 60.7891C35.6655 62.3076 32.8219 63.2825 32.5288 63.3593C32.2906 63.4218 31.7424 63.1642 30.4799 61.5826Z" fill="black"/>
</g>
<mask id="mask1_397_160" style="mask-type:luminance" maskUnits="userSpaceOnUse" x="55" y="0" width="50" height="50">
<path d="M78.4697 0.922485L104.996 25.6589L82.4359 49.852L55.9093 25.1155L78.4697 0.922485Z" fill="white"/>
</mask>
<g mask="url(#mask1_397_160)">
<path d="M70.1385 24.3568C70.115 24.5223 70.0958 24.6879 70.0823 24.8539C69.0648 24.8806 68.0488 24.9169 67.0326 24.9652C66.3249 24.9987 65.6179 25.0371 64.9105 25.0619C64.1958 25.087 63.4822 25.1097 62.7677 25.1267C61.9616 25.1447 61.1552 25.1593 60.3495 25.1856C60.3504 25.0664 60.3521 24.9482 60.3565 24.8287C60.3605 24.6796 60.3664 24.5302 60.3745 24.3808C60.5131 24.3751 60.6521 24.3707 60.7914 24.3667C61.1185 24.3555 61.4453 24.3456 61.7728 24.3374C63.1713 24.3019 64.5702 24.2715 65.9684 24.2196C67.3725 24.1669 68.7764 24.1132 70.1815 24.0933C70.1654 24.1809 70.1512 24.2689 70.1385 24.3568ZM96.9546 24.6726C97.0513 24.6727 97.1484 24.6726 97.2455 24.6724C97.2409 24.5117 97.2333 24.3514 97.2231 24.1903C96.8322 24.1858 96.4407 24.1774 96.0489 24.1671C94.573 24.1264 93.0978 24.0752 91.6221 24.0248C90.9158 24.0008 90.2092 23.9871 89.5026 23.9787C88.7725 23.9703 88.0422 23.9593 87.3122 23.961L87.3119 23.9606C87.2961 23.961 87.2805 23.9607 87.2647 23.9611C87.2629 23.9608 87.2607 23.9607 87.2585 23.9606C87.2036 23.9601 87.149 23.9598 87.0944 23.9596C87.1282 24.1399 87.1563 24.3211 87.1806 24.5023C87.1851 24.5392 87.1898 24.5765 87.1937 24.6133C87.6843 24.6084 88.1748 24.6041 88.665 24.6032C88.7711 24.6037 88.8783 24.6028 88.9845 24.6027C88.9865 24.6024 88.9871 24.6025 88.9893 24.6025C88.9912 24.6023 88.993 24.6026 88.9947 24.6019C89.0066 24.6021 89.0177 24.6019 89.0296 24.6021C89.0446 24.6023 89.0603 24.6025 89.0751 24.6023C89.0791 24.6027 89.0833 24.6019 89.0873 24.6022C89.1012 24.6022 89.1144 24.602 89.1269 24.6023C89.1388 24.6025 89.1507 24.6012 89.1625 24.602C89.1844 24.6021 89.2064 24.6022 89.2285 24.6017C89.2756 24.6018 89.3234 24.6015 89.3712 24.6011C89.3901 24.6007 89.4092 24.6012 89.429 24.6012C89.446 24.6011 89.4641 24.6018 89.4817 24.6017C89.5203 24.6019 89.558 24.6017 89.5971 24.601C89.6856 24.6016 89.7743 24.6009 89.8629 24.6008C89.8648 24.6005 89.8653 24.6012 89.8667 24.6002C89.8765 24.6003 89.8854 24.601 89.8956 24.6003C91.2016 24.5997 92.5092 24.6128 93.8155 24.6349C94.8616 24.6529 95.908 24.6737 96.9546 24.6726ZM84.6341 19.433C84.6753 19.3881 84.7162 19.3429 84.757 19.2973C85.3187 18.6785 85.8797 18.0587 86.4399 17.4385C87.7525 15.9836 89.0783 14.5431 90.3826 13.0824C90.7244 12.6988 91.0655 12.3148 91.404 11.9287C91.4126 11.9189 91.4209 11.9094 91.4296 11.8996C91.3295 11.8063 91.2284 11.7131 91.1273 11.622C90.7434 12.0287 90.3584 12.4339 89.9719 12.8369C88.6327 14.234 87.2888 15.6258 85.9466 17.0201C85.3252 17.6657 84.7042 18.312 84.0843 18.9591C84.089 18.9628 84.0934 18.9667 84.0981 18.9703C84.2811 19.1188 84.4582 19.2741 84.6286 19.4389C84.6303 19.4367 84.6322 19.4349 84.6341 19.433ZM72.3759 18.5677C72.5071 18.6916 72.6392 18.8154 72.7711 18.9399C72.7706 18.9391 72.7704 18.9388 72.7695 18.9383C72.7711 18.9399 72.7728 18.9414 72.7744 18.9429C72.7741 18.9426 72.7736 18.9419 72.773 18.9418C72.775 18.943 72.7768 18.9449 72.7787 18.9468C72.7785 18.9465 72.7782 18.9461 72.778 18.9458C72.8365 19.002 72.8951 19.0566 72.9541 19.1119L72.9537 19.1122C73.0065 19.1623 73.0591 19.2115 73.1118 19.26C73.1131 19.2612 73.1139 19.2623 73.1152 19.2635C73.1156 19.2632 73.1156 19.2632 73.1159 19.263C73.1394 19.2423 73.162 19.2211 73.1858 19.2002C73.2576 19.1365 73.3305 19.0743 73.4043 19.0135C73.4793 18.9519 73.555 18.8915 73.6318 18.8318C73.6956 18.7834 73.7604 18.7348 73.8258 18.6879L73.8256 18.6876C73.8165 18.6784 73.8072 18.6705 73.7981 18.6614C73.8038 18.6665 73.8085 18.6723 73.8142 18.6774C73.8036 18.6677 73.7941 18.6578 73.7839 18.6479C73.7799 18.6453 73.7766 18.6412 73.773 18.6384C73.7727 18.638 73.7727 18.638 73.7725 18.6377C73.7709 18.6361 73.769 18.6342 73.7671 18.6323C73.1375 18.0291 72.5093 17.4232 71.8753 16.8267C71.7409 16.6997 71.607 16.574 71.4732 16.4455C70.6507 15.6659 69.815 14.9003 68.9753 14.1381C68.3413 13.5614 67.7083 12.984 67.079 12.4018C66.9465 12.2789 66.8143 12.1557 66.6823 12.0328C66.6827 12.0326 66.6827 12.0326 66.6827 12.0326C66.5723 11.9299 66.4621 11.8281 66.3521 11.7252C66.1174 11.9376 65.888 12.1569 65.6658 12.3819C65.6551 12.3926 65.6436 12.4044 65.6336 12.4152C65.7039 12.4776 65.7742 12.5405 65.8446 12.6029C65.8885 12.642 65.9325 12.6812 65.9765 12.7204L65.9769 12.7201C66.1371 12.8627 66.2976 13.0051 66.4576 13.1473C66.9997 13.6286 67.5382 14.1147 68.0772 14.6008C68.7515 15.2091 69.4259 15.819 70.0955 16.4344C70.7241 17.0111 71.3449 17.5987 71.9683 18.1823C72.1034 18.312 72.24 18.4391 72.3759 18.5677ZM76.7586 10.1841C76.775 10.3227 76.7917 10.4617 76.8089 10.5992C76.8236 10.7192 76.8383 10.8403 76.8539 10.9602C76.9011 11.3593 76.9603 11.7574 77.0184 12.1546C77.1972 13.4122 77.3941 14.6683 77.6057 15.92C77.6626 16.2599 77.72 16.5989 77.777 16.9382C77.7767 16.9384 77.7767 16.9384 77.7764 16.9381C77.7796 16.9572 77.7832 16.976 77.7862 16.9948C77.7943 17.0414 77.8018 17.088 77.8099 17.1346C77.8756 17.1271 77.9415 17.1205 78.0076 17.1142C78.0281 17.1122 78.0482 17.1104 78.0689 17.1087C78.1279 17.1037 78.1872 17.0991 78.2467 17.0948C78.2631 17.0939 78.2794 17.0927 78.2955 17.0921C78.4394 17.0832 78.5836 17.0779 78.7274 17.0765C78.7277 17.0763 78.7283 17.0764 78.7289 17.0765C78.5526 15.9086 78.3644 14.742 78.1803 13.5752C77.9801 12.3091 77.7931 11.0429 77.6154 9.77385C77.4967 8.9255 77.3711 8.07877 77.2436 7.23232C77.2313 7.14752 77.2185 7.06297 77.2054 6.97868C77.1963 6.97864 77.1883 6.97943 77.1799 6.98108C77.1764 6.9814 77.1728 6.98173 77.1693 6.98205C77.1161 6.98618 77.0625 6.99117 77.0103 6.99673C77.0087 6.99677 77.0074 6.99716 77.0062 6.99695C76.9992 6.99759 76.9924 6.9986 76.9854 6.99924C76.97 7.00093 76.9544 7.00226 76.939 7.00395C76.916 7.00617 76.8926 7.00865 76.8695 7.01148C76.8496 7.01363 76.83 7.01615 76.8105 7.01805C76.7766 7.02149 76.7426 7.02555 76.7093 7.0291C76.6201 7.03976 76.5311 7.05078 76.442 7.06301C76.4342 7.06416 76.427 7.06445 76.4195 7.06595C76.4637 7.45479 76.5077 7.84484 76.5487 8.23375C76.6191 8.88416 76.6798 9.53539 76.7586 10.1841ZM82.058 42.8204C81.8344 41.4265 81.6301 40.0287 81.4503 38.6277C81.4245 38.4283 81.3995 38.2295 81.373 38.0307C81.373 38.0254 81.372 38.0202 81.3713 38.0153C81.3704 38.0048 81.3695 37.9936 81.3679 37.983C81.3419 37.778 81.3175 37.5723 81.2906 37.3668C81.1459 36.1725 81.004 34.9767 80.8562 33.7823C80.8302 33.7888 80.805 33.7947 80.7789 33.8001C80.7303 33.8123 80.6815 33.8235 80.6324 33.8343C80.5844 33.845 80.5364 33.8551 80.4882 33.8648C80.4836 33.8659 80.4791 33.8669 80.4745 33.868C80.3484 33.8932 80.222 33.9155 80.095 33.9356C80.1037 34.0112 80.1125 34.0878 80.1211 34.1635C80.197 34.8287 80.2729 35.4939 80.3477 36.1599C80.445 37.0264 80.5408 37.894 80.6512 38.7588C80.6524 38.7665 80.6528 38.7748 80.6549 38.7824C80.6549 38.7824 80.6549 38.7824 80.6547 38.7836C80.6558 38.792 80.6575 38.8014 80.6586 38.8113C80.6605 38.8277 80.6623 38.844 80.6644 38.8607C80.668 38.8934 80.6725 38.925 80.6764 38.958C80.6869 39.0447 80.6981 39.1308 80.7091 39.2182C80.7083 39.2102 80.7071 39.2025 80.7071 39.194C80.7164 39.2745 80.7265 39.3545 80.7366 39.4345C80.8489 40.2943 80.9664 41.1525 81.0959 42.0093C81.1528 42.385 81.2112 42.7606 81.2708 43.1355C81.2961 43.2967 81.3217 43.4577 81.3474 43.6187C81.6218 43.5819 81.8946 43.5383 82.1664 43.4879C82.1413 43.3368 82.1168 43.1851 82.0926 43.0338C82.0806 42.9626 82.0693 42.8915 82.058 42.8204ZM92.1153 37.2384C92.1687 37.2849 92.2226 37.3315 92.2764 37.3777C92.3753 37.4633 92.4746 37.5487 92.5743 37.6338C92.5803 37.6279 92.5853 37.6213 92.5913 37.6154C92.607 37.5975 92.6224 37.5797 92.6382 37.5618C92.644 37.5556 92.6495 37.549 92.6547 37.5427C92.7211 37.4674 92.7866 37.3916 92.8516 37.3151C92.8812 37.2811 92.9108 37.2464 92.94 37.211C92.8594 37.1265 92.7782 37.0418 92.697 36.9571C92.3588 36.6053 92.0167 36.2563 91.671 35.912C90.9377 35.1837 90.1779 34.483 89.4399 33.7607C88.7042 33.0426 87.9669 32.3283 87.2289 31.6146C86.7631 31.1636 86.2905 30.719 85.8157 30.2782C85.8149 30.2787 85.8148 30.2793 85.8141 30.2798C85.7815 30.3277 85.7483 30.375 85.7142 30.4224C85.7054 30.4349 85.6966 30.4475 85.6875 30.4597C85.6519 30.5087 85.6166 30.5575 85.5804 30.6058C85.5775 30.61 85.5739 30.6141 85.5707 30.6179C85.5678 30.6221 85.5646 30.6259 85.5617 30.6301C85.562 30.6299 85.5631 30.6291 85.5636 30.6282C85.5021 30.7098 85.4393 30.7895 85.375 30.8692C85.3598 30.8879 85.3451 30.9067 85.3299 30.9254C85.3649 30.9601 85.4001 30.9943 85.4354 31.0288C85.6293 31.2194 85.8238 31.4095 86.0172 31.601C86.3824 31.9648 86.7426 32.3327 87.1113 32.693C87.8548 33.42 88.6172 34.1274 89.3854 34.8286C90.1608 35.5348 90.956 36.2204 91.7435 36.9134C91.8607 37.0166 91.978 37.1193 92.096 37.2215L92.0959 37.2221C92.1022 37.2273 92.1087 37.2328 92.1153 37.2384Z" fill="#1E1E1E"/>
</g>
</svg>
