<svg width="107" height="120" viewBox="0 0 107 120" fill="none" xmlns="http://www.w3.org/2000/svg">
<path d="M85.7604 61.2292C84.9022 63.6256 83.7523 66.9081 82.5387 70.1697C82.2158 71.0368 81.7603 71.8729 81.2625 72.6637C79.845 74.9129 77.4252 75.7461 74.9147 74.7065C73.0948 73.9541 71.4411 72.9779 70.1825 71.3328C67.4229 67.7288 65.4498 63.7062 63.4421 59.7108C62.7904 58.4101 62.5892 56.7888 62.5814 55.3076C62.5694 53.17 64.2371 52.1233 66.1206 53.1456C70.5548 55.556 75.0015 54.7395 79.5036 53.4232C80.7557 53.0576 81.9816 52.601 83.2303 52.2191C83.8103 52.0427 84.4138 51.8729 85.0127 51.8354C86.8528 51.722 88.0246 52.9396 87.6286 54.6964C87.1995 56.5955 86.568 58.4521 85.7617 61.2282L85.7604 61.2292ZM74.0389 61.5411C74.0427 61.3915 74.0463 61.243 74.0501 61.0935C73.9802 61.1366 73.8602 61.1709 73.8523 61.2233C73.8268 61.3689 73.8484 61.5218 73.8515 61.6722C73.9144 61.6282 73.9771 61.5853 74.04 61.5412L74.0389 61.5411ZM72.4816 70.2348C72.5934 70.3256 72.6984 70.4303 72.8248 70.5014C72.8617 70.5211 72.9581 70.4416 73.0264 70.4085C72.9161 70.3156 72.8138 70.209 72.6906 70.1394C72.6516 70.1184 72.5526 70.1997 72.4816 70.2348Z" fill="#B9CBD6"/>
<path d="M59.8133 52.1974C60.7299 55.7376 61.4968 59.3262 62.6144 62.8043C63.4085 65.2724 64.5884 67.6369 65.7655 69.9659C66.6593 71.7325 68.1784 73.0765 69.9549 73.9744C72.031 75.0229 73.481 76.4848 74.6176 78.4773C76.044 80.9808 77.7198 83.3322 77.826 86.4075C77.9254 85.5676 77.9593 84.7134 78.136 83.8882C78.7793 80.8999 79.7442 78.0174 81.3878 75.3737C82.596 73.4272 83.9028 71.5242 84.9567 69.5018C86.5799 66.3882 87.6229 63.0951 87.8882 59.5842C88.2282 55.0725 88.6884 50.5686 89.1122 45.9034C87.2487 46.9268 85.6924 47.9497 84.0011 48.6748C80.4379 50.1998 76.6455 50.5774 72.7974 50.5961C69.5117 50.6104 66.226 50.7483 62.9422 50.7413C61.9207 50.7399 60.87 50.544 59.8926 50.2569C57.9779 49.6958 57.6349 48.8318 58.4274 46.994C59.5002 44.5045 62.7686 42.5018 65.7687 42.4455C66.5241 42.4313 67.3173 42.3903 68.0288 42.1627C72.1943 40.8257 76.4795 40.2065 80.8203 39.8623C82.7654 39.7094 84.5626 40.0657 86.3 40.9211C88.844 42.1739 90.2776 44.1872 90.3006 46.9068C90.331 50.5087 90.0944 54.1164 89.9423 57.7204C89.8139 60.7865 88.8567 63.6881 87.9508 66.6056C87.4132 68.3317 86.6119 69.9018 85.4673 71.3088C83.1239 74.1873 81.3531 77.4052 80.1992 80.838C79.5168 82.8672 79.5284 85.1429 79.4294 87.3145C79.1056 94.3975 80.7308 101.169 82.9549 107.818C83.3124 108.888 84.0221 109.844 84.565 110.847C81.9992 110.577 81.3804 110.134 80.8425 107.849C80.4176 106.046 80.1438 104.21 79.7879 102.392C79.6157 101.503 79.4101 100.618 79.0855 99.7406C78.625 101.63 78.6142 103.526 78.8299 105.423C79.0942 107.734 77.9443 109.401 76.0102 111.274C76.0834 110.57 76.0203 110.252 76.1509 110.051C77.5665 107.852 77.7098 105.44 77.4689 102.981C76.8858 97.0448 76.2268 91.1157 75.6935 85.1747C75.6082 84.2277 75.4897 83.6178 75.0535 82.7608C74.5806 81.8287 74.1074 80.8989 73.6346 79.9668C73.4876 79.6787 73.3419 79.3896 73.1653 79.1191C72.4407 78.0054 71.6377 76.7453 70.3984 76.1186C64.9415 73.3637 62.6952 68.3615 61.1546 63.0221C60.3201 60.1313 60.0177 57.088 59.5311 54.1045C59.4284 53.483 59.5639 52.8225 59.5916 52.1808C59.6655 52.186 59.7393 52.1922 59.8131 52.1985L59.8133 52.1974ZM59.9217 48.5729C61.6049 49.2216 63.4242 48.958 65.2006 48.9088C67.1881 48.8545 69.19 48.4788 71.1572 48.6056C74.1412 48.7967 77.0432 48.4541 79.9346 47.8549C82.6887 47.2842 85.1982 46.1891 87.4562 44.2273C85.808 42.6237 84.1642 41.4335 81.7611 41.6816C76.1622 42.2621 70.5565 42.7861 64.9613 43.3887C63.3112 43.5679 62.1335 44.6745 61.0406 45.7764C60.3357 46.488 59.5661 47.257 59.923 48.5719L59.9217 48.5729ZM77.716 87.9459C77.7825 87.9001 77.8994 87.8599 77.9071 87.8088C77.9268 87.6548 77.9026 87.4974 77.8957 87.3411C77.8267 87.3887 77.7072 87.4298 77.7004 87.4833C77.6812 87.6339 77.7088 87.7918 77.7172 87.946L77.716 87.9459ZM79.072 98.27C79.006 98.3124 78.8909 98.3483 78.8819 98.4004C78.8559 98.5501 78.8722 98.7054 78.8727 98.8574C78.9411 98.8143 79.0612 98.7767 79.0703 98.7235C79.0949 98.5758 79.0736 98.4222 79.0707 98.2709L79.072 98.27ZM78.8527 95.6051L78.7529 95.4695L78.6804 95.6404L78.8524 95.6074L78.8527 95.6051ZM78.4723 94.4232L78.5473 94.5306L78.6068 94.4068L78.4722 94.4243L78.4723 94.4232Z" fill="#B9CBD6"/>
<path d="M85.7109 104.352C87.9451 103.292 90.1933 102.794 92.5812 102.828C94.478 102.855 95.7384 103.699 96.4631 105.276C97.1995 106.877 97.0062 108.45 95.6185 109.693C92.3842 112.589 89.1557 115.502 84.4283 115.871C83.3074 115.957 82.214 116.361 81.0963 116.56C77.1707 117.259 73.2758 117.037 69.4775 116.008C66.9704 115.33 65.5664 113.403 65.7092 111.167C65.7495 110.532 66.0043 109.83 66.3805 109.306C66.8743 108.624 67.5012 107.956 68.2198 107.513C70.5974 106.054 73.3005 105.407 75.9762 104.543C76.5331 105.768 75.5717 106.083 75.0028 106.405C73.8721 107.049 72.629 107.503 71.4603 108.088C70.6827 108.477 69.8897 108.883 69.213 109.414C67.7556 110.558 67.7599 112.106 69.0968 113.3C70.0486 114.149 71.1898 114.442 72.4401 114.511C73.9991 114.595 75.5782 114.914 77.1122 114.76C81.784 114.285 86.5165 113.891 90.4519 110.903C91.4878 110.116 92.5756 109.375 93.5054 108.481C95.1267 106.919 94.7547 105.535 92.5184 105.056C90.9253 104.714 89.2524 104.706 87.6154 104.546C86.9797 104.484 86.3452 104.415 85.7112 104.35L85.7109 104.352Z" fill="#B9CBD6"/>
<path d="M23.4039 69.3001C23.3762 71.2161 23.3972 73.134 23.3113 75.0481C23.1391 78.841 21.6673 82.2308 19.8146 85.5421C18.3254 88.2012 17.1344 91.014 15.7479 93.7286C14.8834 95.4202 13.7109 96.8751 11.487 97.7926C11.8783 97.1099 12.1019 96.6571 12.3841 96.2414C14.919 92.4886 17.2398 88.6442 18.5721 84.3023C19.1659 82.3676 20.1448 80.5367 20.6774 78.5894C21.1874 76.7298 21.4974 74.7862 21.6013 72.8688C21.6677 71.6511 21.3644 70.3507 20.9296 69.1943C20.1648 67.164 19.9862 65.1744 20.2932 63.0102C21.1976 56.6268 22.8621 50.4191 24.7688 44.2557C24.8702 43.931 24.9728 43.6063 25.0808 43.2847C25.3862 42.374 25.4564 41.1386 26.383 40.7815C27.6311 40.2997 29.0969 39.9861 30.4096 40.1153C32.7237 40.3453 34.9973 40.9387 37.2786 41.4254C40.9449 42.2061 44.366 43.6922 47.6745 45.2894C50.4984 46.6516 52.0879 49.2746 52.8148 52.2563C52.9675 52.88 52.6661 53.7492 52.2922 54.3389C50.6122 56.9922 48.7693 59.5481 47.1035 62.2078C44.3387 66.6191 40.6534 69.9248 35.6741 71.8671C33.493 72.7177 31.3845 73.7615 29.2823 74.7937C27.7583 75.541 26.728 76.6879 26.0813 78.3139C24.4244 82.4837 22.2263 86.4214 20.1971 90.4324C19.0318 92.7323 18.7257 95.4423 18.0698 97.9759C17.8409 98.8603 17.7212 99.7727 17.503 100.927C16.246 99.6051 16.1923 98.2536 16.5342 96.9756C17.1448 94.688 17.8169 92.3959 18.7306 90.207C20.4245 86.1486 22.3425 82.1776 24.1029 78.1438C25.2999 75.3999 27.3952 73.6055 30.1389 72.4487C31.4987 71.8761 32.8742 71.3317 34.2711 70.8547C39.5112 69.0669 43.4579 65.7627 46.3695 61.2152C47.5931 59.3041 48.8426 57.4066 50.1863 55.3422C48.7925 54.9755 47.571 54.4339 46.3174 54.3704C43.3027 54.214 40.5416 53.4205 37.9028 52.0632C36.6893 51.4376 35.3602 51.0215 34.1176 50.442C31.9141 49.4142 29.9487 48.0784 28.4868 46.1291C27.93 45.3877 27.3314 44.6749 26.7346 43.9272C25.3482 46.416 23.7691 53.2679 22.8082 62.0061C23.5848 59.3227 24.3056 56.6218 25.1675 53.9609C25.5007 52.9348 26.0296 51.9127 26.6952 51.0539C27.5293 49.9766 28.8866 49.786 29.9474 50.6106C33.4744 53.3574 37.6562 54.6494 41.9197 55.7945C42.4217 55.9296 42.9469 56.0269 43.4081 56.2474C44.6861 56.8553 45.0385 57.8297 44.415 59.1615C41.8417 64.6531 37.5415 68.4658 31.949 70.9187C29.294 72.0837 26.8549 70.9988 24.4846 69.8912C24.1046 69.7143 23.7366 69.5117 23.3648 69.3188C23.2368 69.1136 23.1091 68.9063 22.9822 68.7013C22.9798 68.6238 22.9919 68.5437 22.97 68.4716C22.9567 68.4279 22.8941 68.4015 22.8527 68.3655C22.9224 68.462 22.992 68.5585 23.0616 68.655C23.1731 68.8693 23.2844 69.0847 23.3968 69.3003L23.4039 69.3001ZM51.1681 53.1044C51.199 52.9451 51.3046 52.7559 51.2522 52.631C50.136 49.9453 48.37 47.905 45.3786 47.0813C44.7143 46.8988 44.0197 46.7622 43.4054 46.4728C40.9676 45.3246 38.3819 44.8025 35.6979 44.4673C33.398 44.1813 31.0699 43.8189 29.0659 42.4905C28.6601 42.2206 28.0367 42.2556 27.1135 42.0698C28.7222 44.6816 30.3616 46.7552 32.7611 47.9325C35.5122 49.2818 38.3935 50.4644 41.3446 51.3305C44.3785 52.2211 47.5644 52.645 50.6857 53.2578C50.8299 53.2858 51.0077 53.1605 51.1694 53.1034L51.1681 53.1044Z" fill="#F3EADB"/>
<path d="M20.3118 95.8782C22.3368 96.9529 24.3885 97.9833 26.3778 99.1161C27.894 99.9803 28.64 101.527 28.271 102.98C27.786 104.9 26.3804 106.104 24.4992 106.533C23.0802 106.858 21.4941 107.021 20.0939 106.745C17.363 106.206 14.6754 105.411 12.0412 104.527C10.2459 103.925 8.49893 103.111 6.86291 102.176C4.49887 100.824 2.51175 99.0832 1.93983 96.2618C1.57568 94.4649 1.87641 93.6065 3.47061 92.5778C4.04574 92.2072 4.69655 91.9116 5.35412 91.7115C7.058 91.1878 10.4908 91.7001 12.6367 92.8386C12.0651 92.9667 11.7205 93.0858 11.3677 93.1113C11.0244 93.1358 10.6762 93.0605 10.3304 93.039C9.55246 92.9928 8.77414 92.9021 7.99596 92.9197C5.16814 92.9866 4.70208 93.2883 3.30708 95.8434C4.12257 98.1628 6.09907 99.4742 8.23031 100.405C12.3639 102.211 16.6783 103.604 21.1498 104.444C22.2057 104.642 23.3973 104.446 24.4793 104.213C25.4435 104.006 26.1999 103.36 26.3891 102.305C26.603 101.11 25.6322 100.651 24.8581 100.181C21.648 98.2351 21.6351 98.2585 20.3134 95.883L20.3118 95.8782Z" fill="#B9CBD6"/>
<g opacity="0.8">
<path d="M48.9319 12.6428L52.1868 23.7682C52.6887 25.464 55.3639 24.7478 54.8572 23.0489L51.6047 11.925C51.0995 10.2137 48.444 10.9624 48.9319 12.6428Z" fill="#F3EADB"/>
<path d="M62.7125 7.57365C61.9623 12.7773 60.8666 17.9826 59.4667 23.0516C58.993 24.7603 61.6833 25.4362 62.1466 23.7378C63.5809 18.5666 64.6945 13.2523 65.4637 7.94353C65.7123 6.22816 62.9863 5.80049 62.7125 7.57365Z" fill="#F3EADB"/>
<path d="M64.5458 26.636C63.3728 28.1311 65.2724 29.7455 66.6198 28.4006L78.4675 16.698C79.9138 15.2969 78.0026 13.3108 76.539 14.7712C66.1748 25.0158 64.8075 26.3024 64.5458 26.636Z" fill="#F3EADB"/>
</g>
</svg>
