<svg width="318" height="140" viewBox="0 0 318 140" fill="none" xmlns="http://www.w3.org/2000/svg">
<path opacity="0.8" fill-rule="evenodd" clip-rule="evenodd" d="M18.7818 49.609C8.11543 59.0804 1.24521 69.8222 0.289826 80.3392C-0.892324 93.3696 6.98107 106.058 27.8587 115.619C30.4709 116.815 33.1843 117.927 35.9912 118.96C43.9398 124.25 54.4012 128.826 67.6815 132.329C101.094 141.147 144.508 141.866 184.787 136.515C193.503 135.36 202.069 133.918 210.347 132.213C274.066 122.874 325.717 97.9364 315.839 62.5985C314.635 58.2823 312.447 54.0645 309.437 49.9835C306.427 45.9153 302.596 41.9822 298.084 38.2395C292.727 33.7882 286.41 29.5239 279.235 25.6028C272.052 21.6674 264.006 18.0843 255.215 14.9951C238.85 9.25547 221.775 5.65354 204.609 3.84733C213.783 4.59279 223.003 5.78849 232.203 7.46309C232.816 7.57608 233.516 7.43258 233.78 7.14882C234.039 6.86333 233.763 6.5397 233.154 6.42664C216.094 3.30834 198.96 1.82166 182.202 1.74998C128.928 -2.36063 80.0635 8.15668 48.2204 25.5936C35.3493 32.6359 25.2591 40.8165 18.7818 49.609ZM44.0984 121.656C50.9309 125.342 59.2391 128.566 69.1627 131.181C101.954 139.816 144.562 140.47 184.065 135.202C184.514 135.142 184.963 135.08 185.419 135.019C175.901 135.78 166.274 136.197 156.671 136.261C156.352 136.328 156.006 136.369 155.639 136.38C145.514 136.637 135.344 136.296 125.396 135.466C115.471 134.636 105.772 133.324 96.5527 131.65C91.7926 130.783 87.1259 129.829 82.5799 128.776C68.7803 127.476 55.7619 125.145 44.0984 121.656ZM295.403 53.0508C301.131 78.1491 264.848 101.151 215.321 115.361C180.854 125.25 140.038 130.847 102.686 129.938C110.394 131.229 118.413 132.245 126.577 132.92C136.11 133.711 145.85 134.039 155.538 133.788C156.275 133.769 156.943 133.881 157.45 134.082C171.631 133.957 185.886 133.034 199.689 131.372C207.809 130.393 215.778 129.162 223.496 127.676C246.859 121.723 267.008 113.542 280.342 103.692C295.509 92.4858 301.768 79.6461 300.292 67.0594C299.744 62.3186 298.089 57.6187 295.403 53.0508ZM283.19 38.881C280.39 36.4786 277.269 34.1593 273.837 31.939C268.343 28.3893 262.033 25.1236 255.031 22.2106C248.032 19.3011 240.337 16.7442 232.077 14.6174C197.266 5.64414 157.117 5.44192 120.394 11.3134C117.995 11.6954 115.596 12.1066 113.213 12.5447C95.4989 16.8462 79.2236 22.7283 65.3687 29.627C55.6819 34.4464 47.1775 39.7655 40.1918 45.401C35.8946 49.1422 32.1441 53.0541 29.0028 57.1045C24.3839 63.0791 21.0876 69.4341 19.4247 75.8576C18.4453 83.1676 20.4934 90.4411 26.1282 97.361C26.974 98.2952 27.879 99.2318 28.8273 100.164C33.8526 105.071 40.0128 109.417 47.0836 113.211C48.7406 114.072 50.488 114.919 52.3141 115.755C58.8763 118.759 66.1499 121.346 73.9465 123.573C79.2763 125.1 84.848 126.456 90.587 127.661C130.331 130.311 175.735 124.655 213.358 113.836C270.82 97.3139 310.303 68.661 283.19 38.881ZM263.003 21.1522C267.356 23.0298 271.475 25.034 275.339 27.1435C282.323 30.9557 288.468 35.0979 293.682 39.423C298.061 43.052 301.789 46.8581 304.71 50.8026C307.623 54.7381 309.746 58.81 310.92 62.9758C318.362 89.3798 290.048 109.732 248.358 121.771C262.171 116.814 274.027 110.977 282.939 104.412C298.485 92.9524 304.937 79.8141 303.452 66.9256C302.455 58.2679 297.881 49.7235 290.068 41.8803C288.643 39.9192 286.938 37.9565 284.961 35.9957C281.587 32.6536 277.459 29.4779 272.723 26.5185C269.711 24.639 266.463 22.8461 263.003 21.1522ZM20.5149 97.7179C20.6051 97.9453 20.6991 98.1726 20.7972 98.4034C23.565 105.024 28.6303 111.302 36.342 116.833C46.2565 120.691 57.496 123.504 69.5929 125.38C61.9657 123.14 54.8302 120.559 48.3632 117.595C35.1473 111.531 26.0496 104.8 20.5149 97.7179ZM13.1493 59.5341C7.83203 66.267 4.52699 73.3572 3.91343 80.3487C2.81106 92.6461 10.0314 104.638 29.2271 113.784C23.9607 109.096 20.3088 104.001 18.0966 98.688C16.9027 95.8252 16.1297 92.8955 15.7387 89.9344C9.69608 79.719 9.16766 69.3798 13.1493 59.5341ZM71.0982 23.5733C54.7461 29.3206 40.4437 36.3594 29.4197 44.319C27.8165 45.4816 26.2649 46.6705 24.7729 47.8872C18.7978 55.1867 15.4006 62.9738 15.1087 70.9174C19.8703 55.4576 37.0271 40.1899 61.5515 28.0005C64.6278 26.473 67.8153 24.9941 71.0982 23.5733ZM155.04 2.86464C138.679 4.28395 122.952 7.01836 108.33 10.8472C103.967 11.9917 99.6954 13.229 95.5319 14.5641C72.0613 20.197 50.9572 28.2738 34.7866 38.0089C39.605 34.0533 45.2193 30.3198 51.5158 26.8615C77.0345 12.867 113.839 3.46083 155.04 2.86464ZM202.955 6.14622C183.736 4.17099 164.398 4.52692 145.867 6.70199C175.688 4.41218 206.355 6.18941 233.768 13.2765C240.754 15.0783 247.338 17.1849 253.449 19.5413C246.569 16.6293 238.997 14.09 230.921 11.9248C222.64 9.70017 213.843 7.86448 204.749 6.42604C204.149 6.32918 203.556 6.23762 202.955 6.14622Z" fill="#8B7D6B"/>
</svg>
