<svg xmlns="http://www.w3.org/2000/svg" width="195" height="72" fill="none" viewBox="0 0 195 72">
  <path fill="#FFFAF4" d="M1.96 38.69h152.698c7.005 0 14.084.698 21.082 0 .099-.01.199 0 .298 0 2.612 0 2.617-9.38 0-9.38h-152.7c-7.003 0-14.083-.697-21.082 0-.098.005-.2 0-.298 0-2.61 0-2.614 9.38 0 9.38Z"/>
  <path fill="#FFFAF4" d="M189.776 25.495c-28.901-3.318-59.13-7.151-83.463-24.49-1.214-.864-2.412-1.01-3.448-.687-3.12.958-4.813 6.104-1.209 8.672 20.021 14.265 43.881 19.817 67.865 23.224a443.693 443.693 0 0 0-65.859 30.661c-3.224 1.833-2.62 5.646-.454 7.526 1.302 1.13 3.167 1.563 5.11.458a432.453 432.453 0 0 1 82.687-36.286c5.209-1.662 3.802-8.505-1.229-9.078Z"/>
</svg>
