<svg xmlns="http://www.w3.org/2000/svg" width="214" height="138" fill="none" viewBox="0 0 214 138">
  <g opacity=".7">
    <path stroke="#1E1E1E" stroke-linecap="round" stroke-width="2" d="m116.4 54.2 3.2-1.6M62 79.8h-1.6M161.2 91v-1.6M95.6 78.2l1.6-1.6M198 107c-.528 0-1.056 0-1.592-1.056s-1.064-3.168-4.808-5.344m20.8-46.4V59m-89.6 9.6 4.8 1.6m76.8-12.8v-3.2M159.6 43v3.2M142 129.4h1.6m3.2-56h1.6m44.8-9.6 1.6 8M198 107h-3.2m-78.4 0h-1.6M76.4 44.6v3.2"/>
    <path stroke="#fff" stroke-linecap="round" stroke-width="2" d="m201.6 28.2 1.6 1.6"/>
    <path stroke="#000" stroke-linecap="round" stroke-width="2" d="m17.6 119.4 1.6 3.2"/>
    <path stroke="#000" stroke-linecap="round" d="M118.4 33h-1.6"/>
    <path stroke="#000" stroke-linecap="round" stroke-width="2" d="M28.8 79.4v-1.6M48 58.6c0-.528 0-1.056.264-.272s.792 2.896 1.336 5.072M1.6 105h1.6m73.6 32v-3.2m76.8-43.2-1.6 1.6m1.6-1.6h1.6m8 28.8-3.2-1.6m-4.8-17.6-1.6-1.6M128 116.2h-1.6m75.2-97.6v3.2m-48 44.8V65m-56-62.4V1m-40 112v-3.2"/>
  </g>
</svg>
