<svg width="312" height="292" viewBox="0 0 312 292" fill="none" xmlns="http://www.w3.org/2000/svg">
<path opacity="0.75" d="M151.663 281.685C152.553 282.706 152.125 283.513 151.233 283.907C150.132 284.267 149.088 284.545 147.963 284.703C144.703 285.566 141.471 286.631 138.106 287.24C132.826 288.182 128.271 291.394 122.803 291.484C121.808 291.624 120.785 291.568 119.751 291.44C119.193 291.318 118.817 290.556 118.404 290.009C122.997 289.5 127.454 288.464 131.755 286.849C138.112 284.399 144.721 282.324 151.663 281.685ZM195.335 40.8096C195.399 35.4622 195.667 30.1492 195.802 24.8602C195.84 23.7083 196.084 22.5222 196.306 20.7343C195.251 21.4243 194.466 21.603 194.321 22.0284C194.054 23.0126 193.863 24.0492 193.869 25.0635C193.586 31.7303 193.383 38.4489 193.167 45.1011C193.26 45.7664 193.42 46.4172 193.709 47.055C195.186 45.0224 195.251 44.0665 195.335 40.8096ZM123.266 261.545C123.518 261.915 124.532 261.909 125.054 261.767C125.691 261.478 126.247 261.126 126.799 260.712L126.107 260.131C125.994 259.81 125.828 259.565 125.646 259.249C124.629 257.772 123.673 256.286 122.597 254.881C122.25 254.319 121.774 253.85 121.245 253.451C120.743 253.248 120.202 253.255 119.699 253.531C119.329 253.783 119.045 254.638 119.158 254.959C120.489 257.207 121.819 259.45 123.266 261.545ZM223.279 232.415C222.285 232.082 221.32 231.949 220.296 231.888C218.082 231.999 216.026 231.815 214.15 230.522C213.263 229.973 212.392 230.027 212.096 231.284C215.382 234.945 220.323 232.563 224.326 235.04C224.643 233.444 224.264 232.687 223.279 232.415ZM225.164 248.713L225.097 248.722C223.848 248.966 223.078 250.221 223.322 251.47C223.723 252.902 225.145 253.854 226.675 253.702C227.948 253.591 228.933 252.438 228.747 251.113C228.552 249.725 226.681 248.431 225.164 248.713ZM2.79308 219.27C2.25242 219.278 1.75815 219.615 1.48388 220.059C0.913581 221.764 0.547976 223.504 0.258842 225.301C0.180557 225.717 0.832846 226.504 1.34415 226.774C1.90293 226.895 2.41605 226.692 2.76607 226.301C3.44292 224.38 3.91508 222.426 4.49661 220.314C3.83309 219.934 3.35187 219.391 2.79308 219.27ZM98.5428 141.468C98.2148 139.621 96.483 138.376 95.21 138.487C95.1481 138.495 95.014 138.514 94.947 138.524C93.9033 138.807 93.249 139.914 93.5943 140.949C93.9233 142.318 95.6551 143.563 96.9343 143.046C97.6478 142.809 98.1199 141.864 98.5428 141.468ZM162.416 143.984C162.104 142.739 160.84 141.907 159.577 142.084C158.327 142.323 157.49 143.592 157.734 144.842C157.978 146.091 159.242 146.928 160.497 146.683C160.564 146.674 160.625 146.665 160.693 146.656C161.88 146.421 162.659 145.233 162.416 143.984ZM172.432 118.514C172.45 118.643 172.459 118.71 172.478 118.844C172.81 119.744 173.755 120.216 174.665 119.957C175.91 119.645 176.963 118.008 176.587 116.305C175.942 116.059 175.036 115.376 174.098 115.439C172.873 115.406 172.107 117.139 172.432 118.514ZM115.337 124.781C115.404 124.772 115.404 124.772 115.471 124.762C116.743 124.647 117.662 123.508 117.551 122.235C117.469 121.168 116.554 120.418 115.482 120.501C115.482 120.501 115.482 120.501 115.415 120.51C114.128 120.486 113.129 121.573 113.105 122.86C113.115 122.927 113.124 122.994 113.133 123.061C113.283 124.123 114.28 124.93 115.337 124.781ZM36.1336 29.0496C34.8699 29.2272 33.901 30.0419 34.2119 31.2815C34.4671 32.124 35.44 32.7972 36.5547 33.9923C37.4403 32.5845 38.1994 31.7362 38.4085 30.8285C38.5944 29.7189 37.392 28.8728 36.1336 29.0496ZM148.366 84.9215C147.237 85.0803 146.487 85.9956 146.636 87.0581C146.661 88.2064 147.833 89.325 148.867 88.9745C149.701 88.6575 150.383 87.7464 150.792 87.2841C150.598 85.4179 149.548 84.687 148.366 84.9215ZM74.6554 106.3C73.4795 106.128 72.8063 107.101 72.8972 108.235C72.9889 109.374 73.6593 110.29 74.8472 110.059C75.6321 109.881 76.2615 109.046 77.4084 108.074C76.1389 107.238 75.4153 106.393 74.6554 106.3ZM18.602 157.027C17.9907 157.991 17.3287 158.557 17.3363 159.098C17.4744 160.567 18.7844 160.72 19.8606 160.705C20.9419 160.69 21.7674 159.827 21.3833 159.003C21.0034 158.246 19.795 157.806 18.602 157.027ZM201.872 204.267C200.584 204.721 200.339 205.902 200.632 207.013C200.783 207.596 201.575 207.958 202.591 208.899C203.19 207.395 203.734 206.44 203.799 205.484C203.838 205.274 203.734 205.02 203.639 204.828C203.283 204.205 202.495 203.911 201.872 204.267ZM200.12 199.511C200.709 199.36 201.147 198.625 202.169 197.74C200.856 197.041 200.089 196.407 199.257 196.256C198.918 196.235 198.105 197.228 198.06 197.844C198.021 198.049 198.049 198.251 198.144 198.437C198.403 199.347 199.277 199.766 200.12 199.511ZM188.569 275.215C189.212 275.934 190.029 276.43 190.879 276.715C191.227 276.798 191.848 275.901 192.799 274.957C191.347 274.283 190.526 273.72 189.561 273.587C189.35 273.548 188.483 275.09 188.569 275.215ZM176.655 257.355C176.901 258.131 177.669 258.764 178.506 259.935C179.233 258.818 179.991 257.965 179.82 257.72C179.244 256.991 178.61 256.334 177.867 255.833C177.458 256.296 176.538 256.967 176.655 257.355ZM255.66 2.66252C255.678 2.79146 255.697 2.92556 255.716 3.05966C255.98 3.96919 256.925 4.44127 257.835 4.18185C258.357 4.04014 259.079 2.92366 258.903 2.6117C258.523 1.84996 257.693 1.22493 256.665 0.154567C256.167 1.43949 255.585 2.13129 255.66 2.66252ZM199.683 179.565C198.709 179.366 197.76 179.836 197.909 180.898C198.078 181.616 198.559 182.158 199.204 182.404C199.888 182.445 200.55 181.879 201.82 181.295C200.809 180.354 200.319 179.749 199.683 179.565ZM116.8 6.1575C116.114 6.59051 115.514 7.14821 115.072 7.82043C115.015 7.8969 115.995 9.11079 116.187 9.01547C117.127 8.47844 117.99 7.88377 118.843 7.22206C117.746 6.63473 117.045 5.98643 116.8 6.1575ZM126.836 153.644C125.81 151.627 123.965 151.481 122.25 150.844C122.654 152.743 123.609 153.288 126.836 153.644ZM200.72 90.2023C201.255 90.6005 201.911 91.455 202.366 91.3227C203.013 91.1002 203.585 90.3414 204.478 89.4743C203.456 88.9394 202.689 88.3057 202.439 88.4775C201.768 88.9768 201.168 89.5345 200.72 90.2023ZM30.956 179.963C30.4342 180.105 29.8762 180.925 29.7592 181.551C29.7385 181.891 30.6108 182.783 31.0079 182.727C31.6156 182.71 32.1298 182.028 33.1701 181.272C32.1207 180.541 31.4778 179.821 30.956 179.963ZM309.246 129.765C308.959 129.673 308.396 130.494 307.988 130.957C308.554 131.619 309.17 132.142 309.843 132.589C310.063 132.695 310.773 131.985 311.694 131.314C310.644 130.583 310.02 129.998 309.246 129.765ZM275.209 187.943C275.275 188.407 276.114 189.104 276.511 189.048C277.11 188.964 277.557 188.291 278.526 187.477C277.37 186.966 276.688 186.452 276.08 186.469C275.683 186.525 275.145 187.484 275.209 187.943ZM276.917 253.536C276.973 253.933 277.803 254.564 278.267 254.498C278.732 254.433 279.098 253.635 279.742 252.939C278.882 252.587 278.258 251.996 277.803 252.128C277.29 252.337 276.967 252.919 276.917 253.536ZM179.341 193.648C179.872 193.573 180.262 192.977 181.049 192.325C180.113 191.914 179.583 191.515 179.043 191.523C178.774 191.561 178.208 192.319 178.263 192.716C178.319 193.113 179.006 193.695 179.341 193.648ZM25.4145 216.091C24.2473 215.981 23.5001 216.428 23.8386 217.864C24.9852 218.313 25.8465 218.192 26.2103 216.926C26.244 216.716 25.687 216.121 25.4145 216.091ZM187.657 147.395C187.821 148.113 188.125 148.817 188.481 149.441L189.07 149.295C189.254 148.659 189.366 148.033 189.408 147.354C189.352 146.957 188.898 146.61 188.574 146.251C188.224 146.642 187.61 147.065 187.657 147.395ZM105.261 187.36C105.129 186.911 104.345 186.611 103.796 186.556C103.586 186.518 102.97 187.414 103.083 187.735C103.22 188.257 103.807 188.58 104.441 189.237C104.927 188.354 105.384 187.753 105.261 187.36ZM147.927 228.61C147.879 228.754 147.983 229.007 148.058 229.539C149.76 229.636 150.093 228.642 150.137 227.49C150.108 227.289 149.741 227.072 149.503 226.837C148.979 227.447 148.384 228.004 147.927 228.61ZM25.9197 128.223L28.1508 126.284C25.933 125.922 25.933 125.922 25.9197 128.223ZM10.1384 166.6C10.3559 167.174 10.8183 167.582 11.3684 167.642C11.8808 167.433 12.2986 167.038 12.4199 166.479C12.4311 166.073 11.7495 165.563 11.1824 164.896C10.6827 165.645 10.0732 166.136 10.1384 166.6ZM1.28728 255.709C1.21081 255.652 0.754235 256.258 0.288235 256.796C0.88471 257.186 1.47176 257.508 2.11128 257.755C2.2548 257.803 2.80851 256.916 2.72262 256.791C2.31787 256.306 1.79786 255.974 1.28728 255.709ZM118.317 76.6427C118.666 76.7304 119.16 76.3876 119.984 76.0035C119.293 75.4222 118.955 74.928 118.616 74.9125C118.271 74.8925 117.796 75.3643 117.426 75.6161C117.675 75.9231 117.887 76.4981 118.317 76.6427ZM83.1816 242.038C83.161 242.378 83.2744 242.698 83.4987 242.872C84.5963 243.459 85.1293 242.911 85.5696 241.703C84.5383 241.101 83.6925 240.883 83.1816 242.038ZM58.9794 137.23C58.5486 138.506 57.9518 139.536 60.0242 140.323C60.4981 138.905 60.5688 137.948 58.9794 137.23ZM85.5797 210.002C85.9468 210.219 86.4092 210.627 86.6679 210.522C87.1665 210.252 87.66 209.909 88.0684 209.447C87.4813 209.125 86.9425 208.659 86.7559 208.753C86.2616 209.091 85.9203 209.544 85.5797 210.002ZM143.824 106.041C143.948 105.955 143.911 105.692 144.033 105.133L140.968 104.953C142.157 106.68 142.961 106.635 143.824 106.041ZM240.193 88.0365C240.853 86.9288 241.3 86.2558 241.672 85.5304C239.606 85.279 239.082 85.8943 240.193 88.0365ZM41.589 269.579C41.277 269.754 41.0611 270.127 41.0498 270.533C41.2252 270.845 41.5974 271.061 42.0134 271.139C42.4105 271.084 42.7613 270.698 43.5762 270.247C42.2913 269.749 41.8383 269.407 41.589 269.579Z" fill="#403528"/>
</svg>
