<svg xmlns="http://www.w3.org/2000/svg" width="346" height="325" fill="none" viewBox="0 0 346 325">
  <path fill="#F3EADB" d="M124.702 290.875c.341 1.371-.403 1.926-1.376 1.878-1.146-.178-2.205-.405-3.282-.781-3.303-.714-6.67-1.227-9.953-2.227-5.145-1.582-10.655-.703-15.588-3.17-.954-.334-1.844-.864-2.711-1.466-.446-.374-.442-1.263-.567-1.967 4.337 1.668 8.788 2.777 13.358 3.275 6.781.674 13.621 1.816 20.119 4.458ZM271.305 85.944c2.444-4.973 5.056-9.817 7.538-14.701.548-1.06 1.296-2.056 2.292-3.624-1.252.153-2.034-.046-2.354.284-.678.796-1.311 1.676-1.759 2.628-3.229 6.104-6.409 12.294-9.573 18.415a7.62 7.62 0 0 0-.386 2.08c2.228-1.212 2.713-2.075 4.242-5.082ZM108.281 258.786c.061.463.971.931 1.501 1.042a8.8 8.8 0 0 0 2.033-.173l-.36-.866c.042-.353.003-.66-.018-1.04-.252-1.856-.444-3.692-.779-5.509-.06-.687-.277-1.348-.572-1.968-.359-.424-.846-.669-1.419-.646-.443.063-1.08.73-1.121 1.083.187 2.724.376 5.443.735 8.077Zm102.499 19.42c-.74-.776-1.545-1.35-2.434-1.885-2.031-.929-3.788-2.061-4.889-4.146-.549-.927-1.352-1.283-2.179-.246 1.306 4.959 6.791 5.035 9.268 9.22.996-1.344.994-2.229.234-2.943Zm-5.588 16.124-.064-.023c-1.227-.354-2.476.46-2.815 1.742-.281 1.527.567 3.081 2.004 3.653 1.189.49 2.585-.129 3.01-1.456.445-1.389-.651-3.472-2.135-3.916ZM19.348 163.029c-.487-.245-1.08-.159-1.523.127-1.272 1.329-2.375 2.786-3.436 4.332-.256.353-.024 1.393.313 1.884a1.41 1.41 0 0 0 1.484.221c1.463-1.48 2.758-3.088 4.22-4.792-.423-.665-.612-1.397-1.057-1.772Zm120.411-28.096c.531-1.881-.463-3.853-1.651-4.344l-.252-.088a1.931 1.931 0 0 0-2.293 1.637c-.317 1.434.677 3.407 2.052 3.52.745.112 1.589-.552 2.144-.725Zm56.033 32.157c.277-1.31-.482-2.678-1.692-3.102-1.225-.36-2.541.437-2.88 1.72-.339 1.282.418 2.655 1.65 3.011l.187.066c1.168.334 2.396-.413 2.735-1.695Zm20.332-19.151-.105.331c-.105.996.529 1.879 1.459 2.061 1.254.289 2.927-.75 3.35-2.519-.467-.531-.972-1.593-1.84-1.971-1.081-.602-2.541.661-2.864 2.098Zm-53.888-20.778.128.045c1.191.485 2.521-.152 2.99-1.394a2 2 0 0 0-1.077-2.587l-.064-.023c-1.141-.623-2.52-.072-3.116 1.12l-.065.201c-.341 1.064.192 2.283 1.204 2.638ZM134.095.659c-1.21-.424-2.441-.114-2.716 1.19-.148.908.422 1.991.886 3.63 1.421-.904 2.479-1.343 3.072-2.095.661-.951-.037-2.304-1.242-2.725Zm75.49 104.63c-1.082-.379-2.161.127-2.502 1.191-.491 1.086.059 2.679 1.141 2.834.888.092 1.905-.442 2.476-.684.66-1.836.047-3.009-1.115-3.341Zm-75.503-14.398c-.975-.709-2.012-.113-2.437.99-.426 1.108-.235 2.277.931 2.617.782.199 1.718-.29 3.178-.662-.763-1.375-1.033-2.503-1.672-2.945ZM61.28 112.185c-.978.617-1.823.838-2.058 1.347-.532 1.438.572 2.192 1.542 2.681.974.49 2.098.068 2.122-.882-.002-.885-.887-1.861-1.606-3.146Zm142.909 129.702c-1.355-.175-2.101.815-2.334 1.991-.126.616.421 1.324.91 2.678 1.207-1.128 2.121-1.767 2.606-2.63.129-.179.149-.465.149-.689-.04-.749-.614-1.392-1.331-1.35Zm.556-5.265c.594.133 1.314-.35 2.624-.701-.863-1.266-1.267-2.217-1.943-2.747-.295-.178-1.465.372-1.78.927a.975.975 0 0 0-.19.594c-.174.973.421 1.772 1.289 1.927Zm-44.129 65.421a5.692 5.692 0 0 0 1.396 2.482c.275.239 1.231-.31 2.503-.749-.998-1.308-1.481-2.218-2.286-2.792-.171-.135-1.635.903-1.613 1.059Zm-2.689-22.264c-.127.84.277 1.791.504 3.277 1.149-.706 2.209-1.15 2.165-1.459-.19-.95-.464-1.861-.906-2.676-.572.242-1.695.44-1.763.858Zm184.388-201.37-.127.398a1.755 1.755 0 0 0 1.395 2.039c.53.11 1.674-.597 1.657-.97-.001-.89-.464-1.862-.907-3.343-1.019.97-1.848 1.345-2.018 1.877ZM213.258 217.762c-.784-.641-1.843-.645-2.183.419-.169.75.019 1.482.486 2.013.594.357 1.44.136 2.836.183-.484-1.352-.653-2.146-1.139-2.615Zm3.24-200.875a5.5 5.5 0 0 0-2.289.749c-.086.044.25 1.637.464 1.638a21.747 21.747 0 0 0 3.178-.438c-.72-1.062-1.059-1.995-1.353-1.95Zm-56.857 142.638c-.016-2.366-1.603-3.363-2.853-4.759-.486 1.965.125 2.92 2.853 4.759Zm94.435-24.867c.3.622.506 1.727.972 1.816.679.094 1.529-.349 2.716-.743-.676-.978-1.08-1.929-1.38-1.884-.823.154-1.609.395-2.308.811Zm-191.98 4.746c-.53-.111-1.395.396-1.78.928-.17.308.212 1.549.593 1.682.551.268 1.316-.13 2.584-.352-.613-1.174-.867-2.147-1.397-2.258Zm271.433 82.899c-.216-.219-1.086.286-1.658.528.211.883.528 1.66.931 2.392.15.202 1.102-.131 2.225-.329-.612-1.173-.909-2.012-1.498-2.591Zm-56.427 38.536c-.149.465.291 1.509.671 1.642.573.201 1.273-.22 2.504-.53-.806-1.017-1.187-1.816-1.738-2.084-.38-.133-1.29.513-1.437.972ZM249.35 322.99c-.128.397.334 1.374.779 1.53.444.155 1.128-.42 2.015-.77-.612-.731-.907-1.575-1.373-1.664-.552-.044-1.101.35-1.421.904Zm-60.582-101.548c.509.178 1.124-.198 2.119-.441-.655-.821-.95-1.441-1.437-1.686-.257-.09-1.103.355-1.23.752-.127.398.227 1.263.548 1.375ZM41.01 170.611c-.995-.647-1.863-.578-2.201.923.825.955 1.65 1.244 2.54.229.125-.18-.108-.997-.339-1.152Zm175.846 11.447c-.174.748-.216 1.549-.176 2.298l.593.139a9.158 9.158 0 0 0 1.168-1.658c.128-.398-.124-.934-.253-1.421-.488.202-1.226.311-1.332.642Zm-91.571-1.064c.083-.482-.485-1.128-.952-1.435-.171-.135-1.122.416-1.164.769-.111.553.271 1.128.544 2.039.83-.599 1.507-.948 1.572-1.373Zm19.766 58.493c-.107.112-.127.397-.298.929 1.48.885 2.222.112 2.775-.946.065-.202-.167-.576-.275-.906-.742.326-1.523.569-2.202.923ZM80.686 88.657l2.861-.772c-1.823-1.374-1.823-1.374-2.861.772ZM49.433 117.19c-.062.639.17 1.237.635 1.549.552.044 1.102-.131 1.46-.597.192-.375-.191-1.169-.4-2.058-.782.467-1.546.642-1.695 1.106ZM1.735 196.411c-.043-.089-.722.264-1.38.551.36.643.742 1.218 1.204 1.747.107.112.999-.46.978-.616-.146-.643-.463-1.196-.802-1.682ZM186.391 83.524c.274.245.868.154 1.777.18-.359-.867-.441-1.487-.737-1.66-.3-.179-.936.04-1.379.104.085.403.019 1.04.339 1.376ZM81.12 221.836c-.17.308-.212.661-.089.928.72 1.061 1.442.797 2.376-.128-.654-1.044-1.314-1.642-2.287-.8Zm25.128-109.328c-.955.992-1.949 1.678-.446 3.381 1.057-1.106 1.548-1.967.446-3.381Zm-8.681 80.481c.231.374.463.972.741.995.567-.02 1.161-.111 1.733-.353-.381-.575-.655-1.262-.865-1.261-.593.085-1.1.35-1.61.619Zm98.526-70.066c.15-.022.234-.285.592-.751l-2.663-1.598c.294 2.169 1.033 2.503 2.071 2.349Zm94.272 28.127c1.085-.729 1.785-1.15 2.441-1.655-1.736-1.199-2.479-.868-2.441 1.655ZM31.607 228.19c-.357.018-.716.266-.908.641.018.373.254.749.592 1.016.38.133.866-.064 1.797-.106-.928-1.065-1.18-1.596-1.48-1.551Z" opacity=".7"/>
</svg>
