<svg xmlns="http://www.w3.org/2000/svg" width="435" height="327" fill="none" viewBox="0 0 435 327">
  <path fill="#403528" d="M120.711 253.738c.031 1.626-.985 2.037-2.108 1.711-1.29-.518-2.465-1.068-3.62-1.79-3.663-1.721-7.456-3.236-11.019-5.271-5.58-3.207-12.245-3.768-17.34-7.903-1.024-.639-1.92-1.48-2.771-2.394-.42-.543-.177-1.533-.136-2.355 4.615 3.076 9.511 5.56 14.711 7.394 7.733 2.651 15.409 5.841 22.283 10.608ZM346.656 65.999c4.183-4.866 8.528-9.543 12.731-14.301.924-1.03 2.063-1.932 3.646-3.404-1.502-.18-2.361-.621-2.823-.342-1.004.699-1.979 1.505-2.756 2.442-5.403 5.91-10.772 11.93-16.102 17.877-.427.684-.782 1.406-1.008 2.215 2.925-.73 3.722-1.558 6.312-4.487ZM110.142 213.321c-.053.534.883 1.311 1.472 1.583.81.226 1.592.331 2.419.376l-.188-1.068c.143-.382.179-.735.257-1.166.204-2.143.471-4.245.566-6.367.114-.784.039-1.583-.14-2.358-.305-.574-.808-.984-1.483-1.118-.534-.054-1.456.513-1.599.895-.51 3.093-1.017 6.181-1.304 9.223Zm114.407 50.367c-.656-1.074-1.442-1.94-2.335-2.786-2.122-1.606-3.87-3.361-4.596-5.997-.392-1.188-1.234-1.81-2.477-.884.197 5.901 6.576 7.522 8.346 12.887 1.523-1.222 1.757-2.211 1.062-3.22Zm-10.838 16.435-.069-.043c-1.336-.739-3.012-.18-3.752 1.157-.736 1.625-.162 3.598 1.362 4.638 1.255.881 3.05.58 3.901-.783.891-1.425.17-4.057-1.442-4.969ZM32.006 81.533c-.503-.41-1.218-.48-1.812-.285-1.84 1.128-3.518 2.445-5.17 3.874-.393.323-.4 1.549-.138 2.191.42.543 1.049.752 1.672.662 2.104-1.243 4.045-2.675 6.209-4.168-.317-.862-.341-1.731-.761-2.274Zm148.03 2.337c1.124-1.952.492-4.432-.763-5.312l-.271-.169c-1.178-.544-2.633-.032-3.114 1.186-.753 1.512-.122 3.992 1.453 4.504.838.333 2.001-.171 2.695-.21Zm56.775 51.58c.674-1.385.154-3.125-1.144-3.936-1.333-.744-3.082-.223-3.821 1.113-.739 1.337-.223 3.082 1.119 3.824l.201.126c1.273.7 2.906.209 3.645-1.127Zm28.854-15.688-.212.34a2.148 2.148 0 0 0 1.152 2.709c1.384.674 3.615-.018 4.583-1.874-.403-.724-.709-2.05-1.62-2.715-1.1-.975-3.141.027-3.903 1.54Zm-57.319-38.278.138.086c1.259.875 2.981.537 3.861-.719.748-1.043.485-2.439-.564-3.19l-.069-.043c-1.164-1.015-2.921-.786-3.936.378l-.129.207c-.682 1.092-.388 2.602.699 3.281Zm1.034-149.095c-1.299-.811-2.818-.81-3.488.57-.415.97-.04 2.34.063 4.299 1.9-.611 3.252-.806 4.144-1.479 1.027-.876.574-2.582-.719-3.39Zm60.074 137.93c-1.161-.725-2.556-.461-3.239.63-.863 1.075-.648 3.008.573 3.483 1.011.352 2.341.04 3.073-.07 1.261-1.865.86-3.346-.407-4.042Zm-84.249-37.204c-.949-1.064-2.318-.69-3.109.423-.794 1.118-.884 2.477.385 3.181.859.442 2.082.16 3.886.151-.522-1.748-.535-3.083-1.162-3.755ZM94.549 36.51c-1.305.415-2.35.425-2.76.928-1.007 1.456.08 2.607 1.08 3.424 1.006.82 2.43.663 2.713-.39.235-.99-.537-2.326-1.032-3.962Zm132.033 184.789c-1.534-.575-2.669.322-3.257 1.569-.312.652.137 1.596.345 3.245 1.711-.921 2.948-1.379 3.745-2.207.198-.164.298-.477.359-.727.153-.848-.344-1.726-1.192-1.88Zm2.058-5.722c.658.315 1.628-.023 3.25-.048-.668-1.655-.884-2.83-1.532-3.61-.296-.281-1.808.005-2.325.537a1.088 1.088 0 0 0-.381.609c-.463 1.037.017 2.096.988 2.512Zm-69.011 60.681a6.475 6.475 0 0 0 .965 3.161c.257.344 1.519-.002 3.121-.136-.814-1.739-1.134-2.89-1.919-3.757-.164-.198-2.15.551-2.167.732Zm2.824-25.607c-.373.902-.156 2.077-.289 3.799 1.53-.466 2.885-.666 2.916-1.022.033-1.115-.042-2.208-.34-3.242-.732.11-2.096.017-2.287.465ZM431.534 77.464l-.255.408c-.458 1.04.046 2.203 1.083 2.666.589.272 2.113-.197 2.193-.62.237-.993-.043-2.208-.163-3.985-1.449.797-2.517.985-2.858 1.53Zm-187.91 119.441c-.742-.936-1.977-1.236-2.659-.144-.398.79-.374 1.66.029 2.384.597.565 1.643.555 3.26.998-.203-1.645-.187-2.579-.63-3.238Zm57.567-223.338c-.965-.13-1.947-.08-2.871.196-.112.026-.147 1.898.103 1.959 1.277.23 2.53.35 3.825.4-.556-1.387-.701-2.523-1.057-2.555ZM196.653 116.886c.614-2.646-.971-4.203-2.055-6.112-1.094 2.058-.637 3.295 2.055 6.112Zm116.854-1.329c.184.778.129 2.07.649 2.3.766.294 1.877.038 3.367-.07-.527-1.28-.743-2.455-1.105-2.489-1.003-.059-1.984-.009-2.911.259ZM88.214 67.123c-.589-.272-1.734.051-2.325.537-.28.296-.167 1.79.24 2.044.572.454 1.572.223 3.111.33-.4-1.481-.437-2.639-1.026-2.91Zm294.539 168.513c-.193-.305-1.343.015-2.075.125.01 1.046.171 2.002.445 2.932.121.267 1.321.162 2.685.255-.401-1.481-.523-2.501-1.055-3.312Zm-76.163 27.226c-.298.477-.064 1.766.344 2.021.614.384 1.545.11 3.064.109-.668-1.361-.899-2.36-1.471-2.813-.408-.255-1.643.212-1.937.683Zm-49.025 61.615c-.255.408.022 1.627.499 1.925.477.299 1.429-.153 2.557-.295-.518-.987-.636-2.012-1.156-2.241-.633-.204-1.378.082-1.9.611Zm-43.503-130.318c.546.341 1.364.094 2.59.101-.544-1.099-.723-1.874-1.226-2.284-.275-.173-1.381.087-1.636.495-.255.408-.073 1.473.272 1.688Zm-158.809-98.1c-.989-1-2.02-1.166-2.816.415.708 1.297 1.593 1.85 2.904.967.192-.167.14-1.144-.088-1.382Zm202.13 61.996c-.403.787-.667 1.669-.82 2.516l.654.321c.66-.443 1.246-.932 1.807-1.524.255-.408.106-1.077.085-1.657-.623.09-1.514.005-1.726.344Zm-106.57-26.817c.226-.515-.263-1.395-.726-1.869-.164-.198-1.421.151-1.564.533-.278.586.013 1.335.089 2.429 1.128-.437 2.012-.637 2.201-1.093Zm7.404 70.83c-.155.094-.255.408-.597.954 1.49 1.402 2.563.746 3.492-.28.129-.207-.041-.689-.079-1.089-.953.157-1.929.21-2.816.415ZM123.494 15.676l3.546-.061c-1.759-2.043-1.759-2.043-3.546.061ZM79.385 38.782c-.243.695-.133 1.427.327 1.906.632.203 1.321.162 1.864-.258.324-.365.09-1.358.083-2.41-1.037.304-1.976.284-2.274.762Zm-76.87 75.086c-.026-.112-.913.093-1.757.229.247.818.538 1.568.936 2.288.095.155 1.288-.234 1.306-.415.002-.758-.22-1.464-.485-2.102Zm245.702-74.337c.253.35.971.416 2.025.699-.187-1.068-.116-1.783-.416-2.059-.301-.284-1.102-.217-1.636-.27-.009.473-.257 1.165.027 1.63ZM88.341 164.47c-.28.296-.424.678-.351 1.011.556 1.387 1.469 1.294 2.805.522-.483-1.348-1.093-2.201-2.454-1.533Zm58.596-115.013c-1.38.84-2.724 1.327-1.426 3.649 1.53-.938 2.333-1.763 1.426-3.65Zm-31.68 87.413c.17.483.28 1.215.599 1.318.666.136 1.384.202 2.116.092-.29-.749-.426-1.593-.671-1.65-.715-.071-1.378.082-2.044.24Zm133.731-50.64c.181.017.35-.253.892-.674l-2.679-2.529c-.238 2.505.535 3.084 1.787 3.203Zm102.475 57.784c1.461-.51 2.391-.784 3.292-1.164-1.705-1.824-2.66-1.662-3.292 1.164Zm-322.6 13.691c-.421-.08-.907.096-1.231.461-.08.422.096.908.418 1.3.408.256 1.028.171 2.125.385-.797-1.449-.95-2.112-1.311-2.146Z"/>
</svg>
