<svg xmlns="http://www.w3.org/2000/svg" width="29" height="38" fill="none" viewBox="0 0 29 38">
  <path fill="#F3EADB" d="M28.61 9.2c.22-1.001.412-2.024.337-3.089.073-.898.022-1.843-.311-2.738-.19-.5-.451-.994-.815-1.402-.754-.82-1.784-1.374-2.81-1.634-.314-.197-.641-.1-.963-.108-2.445.055-5.036 2.596-6.411 4.393-1.44 1.806-1.981 3.213-2.38 5.511-.003.02-.008.039-.013.058-.3-.538-.638-1.056-1.024-1.545-1.309-1.609-3.018-2.968-4.945-3.566-.99-.325-1.932-.358-2.801-.176a8.478 8.478 0 0 0-1.206-.003c-1.782.07-3.57.954-4.13 2.698-.471 1.243-.39 2.66-.131 4.031.318 2.14 1.374 4.133 2.403 6.083 1.021 1.877 2.067 3.752 3.287 5.523 1.403 1.975 2.98 3.841 4.564 5.68 1.627 1.834 2.957 3.904 4.295 5.942.309.486.604.978.9 1.47.139.248.213.558.43.751.086.059.188.074.27.023.27-.2-.113-.629-.231-.878-.18-.338-.34-.685-.512-1.026.095.015.194-.025.233-.114a.577.577 0 0 0 .078-.214c.047.199.09.397.13.596-.064.208-.09.408.006.535a.43.43 0 0 0 .104.089c.032.118.144.21.26.21a.206.206 0 0 0 .185-.106c.174.078.388-.078.293-.36-.018-.192-.03-.385-.043-.578.052-.13.1-.248.146-.333.766-1.8 1.635-3.542 2.492-5.29 1.223-2.483 2.513-4.927 3.68-7.443 1.537-2.767 2.945-5.735 3.52-8.918a46.048 46.048 0 0 0 1.114-4.073Zm-.147-3.137a29.73 29.73 0 0 1-.696 3.922 15.337 15.337 0 0 0-.064-1.126c.356-1.734.423-3.526-.357-5.311a8.812 8.812 0 0 0-.36-.721c.87.878 1.42 2.062 1.477 3.236Zm-13.836 25.5c-.329-.493-.633-1-.928-1.514l.686.765c.552.795 1.073 1.61 1.575 2.434l.162.772c-.47-.834-.96-1.658-1.495-2.457ZM2.35 13.292a7.593 7.593 0 0 1-.307-1.764c.281 1.23.718 2.427 1.26 3.591.285.802.676 1.6 1.162 2.374.35.567.73 1.111 1.13 1.642.069.106.14.212.21.317.229.406.464.808.707 1.206a30.218 30.218 0 0 1-2.916-4.552c-.476-.915-.94-1.842-1.246-2.814Zm.953-7.119c-.02.087-.029.177-.04.267-.34.33-.417.843-.754 1.173h-.003c.18-.53.396-1.052.797-1.44Zm3.25-.77c.277.024.552.061.82.111.19.043.378.096.564.153a4.48 4.48 0 0 0-1.27.305 5.572 5.572 0 0 0-1.801.16 5.044 5.044 0 0 1 1.687-.73Zm11.418-.014c.262-.335.55-.657.86-.96-1.387 1.974-2.443 4.21-3.171 6.574l-.04-.079c.035-.206.07-.412.109-.616.444-1.792 1.188-3.474 2.242-4.92Zm9.501 1.318c-.004.15-.013.3-.024.448l-.025-.12.017-.098.032-.23ZM17.595 32.57c-.009-.627.001-1.252.003-1.878a.191.191 0 0 0 .148-.166c.076-.572.158-1.143.248-1.713.263.006.375-.209.446-.462a.497.497 0 0 0 .057.037c-.027.24-.055.479-.08.718-.128.566-.326 1.115-.334 1.716-.008.12.091.24.205.271.025.007.047.01.07.01-.26.486-.515.974-.763 1.467ZM5.07 6.603c.206-.046.415-.082.627-.107-.1.068-.198.14-.296.217a.625.625 0 0 0-.331-.11Zm2.606 2.383c.62.49.852 1.281 1.21 1.947-.317-.368-.525-.818-.879-1.152-.163-.15-.436-.162-.465.076l-.046-.066c-.06-.087-.12-.175-.182-.262.067-.222.236-.355.362-.543ZM7.75 6.83c.16.007.32.026.48.064 0 .04.008.082.028.122.036.074.074.148.108.222a5.266 5.266 0 0 1-.154-.049 4.29 4.29 0 0 0-.244-.078c-.062-.098-.129-.204-.218-.28Zm.914 2.261c.182.302.402.584.426.933l.04.228-.338-.607c-.224-.386-.409-.788-.595-1.19.193.185.334.407.467.636Zm-.315-1.365c.074.021.147.04.221.055.051.169.096.34.138.511l-.149-.237c-.069-.11-.139-.22-.21-.329Zm1.044-.374c.496.284.963.627 1.408.997.098.129.15.295.234.436-.342-.274-.73-.066-.946.194l-.355-.503c-.118-.168-.228-.343-.343-.514l-.165-.244a.375.375 0 0 0 .167-.366Zm1.367-.23.081.06c.686.775 1.288 1.616 1.889 2.455a14.008 14.008 0 0 0-1.535-1.551c-.146-.29-.275-.589-.403-.887l.013.03c-.016-.035-.03-.072-.045-.107Zm14.594-5.035c.092.157.147.345.177.547a3.324 3.324 0 0 0-.409-.054c.08-.158.201-.313.232-.493Zm-.493-.32c-.157.146-.274.333-.396.51a3.92 3.92 0 0 0-.326-.31c.231-.136.477-.223.722-.2Zm.7 1.366a6.765 6.765 0 0 1-.011.293 5.683 5.683 0 0 0-.389-.353c.144.012.276.032.4.06Zm1.598 5.171c.019.16.035.318.049.477-.047.226-.099.45-.152.675a.248.248 0 0 0-.183-.037c.1-.37.196-.741.286-1.115ZM18.39 26.898c.09-.535.184-1.07.278-1.604.058-.245.118-.49.181-.733-.01.242-.022.485-.039.727l-.127.46c-.1.357-.186.718-.267 1.082l-.026.068Zm-1.378 1.252c-.014-.495-.026-.99-.03-1.484l.057 1.062-.027.421Zm-.528-2.447-.066-.452c.018.027.037.053.057.08l.003.003c.002.123.005.245.006.369ZM6.28 12.277l.131.28a8.931 8.931 0 0 0-.31-.227.212.212 0 0 0 .179-.053Zm.4-3.671.02.25v.046a.35.35 0 0 0-.064-.022c.01-.093.025-.184.044-.274Zm.447-1.502c-.051.02-.104.043-.153.07l-.03-.103a1.363 1.363 0 0 0-.057-.163l.065-.014c.053-.01.106-.02.16-.028a.253.253 0 0 0 .012.131c.01.032.022.064.033.095l-.03.012Zm-.384 6.434c-.249.03-.21.29-.096.475-.12.047-.163.195-.1.322.306.61.627 1.214.94 1.82 1.061 2.019 2.128 4.033 3.18 6.055-.215-.329-.443-.65-.646-.986-1.304-2.082-2.598-4.178-3.597-6.406-.2-.457-.38-.928-.569-1.388.028-.236-.003-.48-.013-.72.342.223.643.505.9.828Zm3.308-3.05c.415.447.832.89 1.247 1.338a104.236 104.236 0 0 0 .114.914l-.29-.488c-.35-.59-.712-1.178-1.07-1.764Zm.067 1.489-.272-.471.012-.07c.044.095.088.19.134.283l.126.258Zm.079-2.006a.108.108 0 0 1 .004-.012l.063.085-.067-.073Zm.203-.55c.081-.119.19-.24.335-.277.508.322.658.982.828 1.508a.244.244 0 0 0-.225-.023.181.181 0 0 0-.05.029c-.297-.41-.594-.823-.888-1.237Zm2.556 2.927.15.805c-.06-.08-.118-.16-.177-.241l-.002-.301-.002-.433.031.17Zm.206-1.403c.037.051.072.103.108.155a.189.189 0 0 0-.062.048 8.083 8.083 0 0 0-.046-.203Zm.097 3.824c.06.506.097 1.012.185 1.517a102.67 102.67 0 0 1-.233-.415l-.244-.437c-.014-.58-.02-1.157-.029-1.736.122.166.242.332.362.499l.067.353a.217.217 0 0 0-.108.22Zm5.216-4.607c.167-.588.411-1.104.626-1.693.585-.888 1.172-1.774 1.76-2.66-.94 1.809-1.778 3.676-2.576 5.566l.14-.873c.018-.113.033-.227.05-.34Zm1.56-4.034c.058-.157.11-.317.152-.48.247-.391.555-.735.876-1.06-.35.507-.683 1.027-1.028 1.54Zm-1.3 5.921-.017.046-.232.698c.01-.075.017-.151.016-.228l.232-.516Zm4.762-8.791c.038.19.038.374.021.557-.262.441-.523.885-.78 1.331-.248.33-.48.673-.702 1.026a8.94 8.94 0 0 0 .115-.463c.097-.225.176-.457.154-.72a.482.482 0 0 0-.018-.08c.111-.295.16-.618.1-.952a.438.438 0 0 0 .432-.147c.162-.152.3-.352.473-.495.068-.02.136-.04.205-.057Zm-4.274 20.504a.285.285 0 0 0-.198-.207c-.012-.003-.024-.003-.037-.005.365-1.042.737-2.082 1.1-3.125a1.4 1.4 0 0 0 .14-.224c-.09.544-.278 1.053-.422 1.579-.193.67-.387 1.342-.577 2.014l-.006-.032Zm-2.005-2.358-.02-.13a.233.233 0 0 0 .118-.067l-.098.197Zm-.416.8c0 .003-.003.006-.005.01-.092.011-.16.081-.209.192.02-.156.04-.313.064-.467.028-.188.055-.378.08-.568.04.25.079.5.114.75-.015.027-.028.055-.044.082Zm-2.84 3.494c.082-.505-.037-1.026-.195-1.533-.143-.486-.275-.975-.41-1.462-.218-.778-.438-1.555-.655-2.333l.298.72c.036.086.11.153.193.175.157.296.318.591.49.88.115.686.237 1.373.356 2.06.188 1.109.395 2.217.597 3.325l-.224-.328-.528-1.339a.229.229 0 0 0 .078-.165Zm-3-1.116-.075-.087a50.856 50.856 0 0 1-1.103-1.747 233.83 233.83 0 0 0-.459-.938c.103.091.201.188.302.276.317.304.609.629.896.96.519.548.943 1.16 1.36 1.785.228.354.506.684.689 1.061.272.54.544 1.082.8 1.628a36.88 36.88 0 0 0-2.41-2.938ZM5.353 12.387l-.006.012a1.013 1.013 0 0 0-.038.07 8.14 8.14 0 0 1-.024-.252 23.09 23.09 0 0 1-.058-1.257l.022-.011c.042.48.083.96.104 1.438Zm.278-2.419c.047-.032.09-.099.158-.079.09.16.105.35.116.528a3.712 3.712 0 0 0-.274-.449Zm-.84-.149a.699.699 0 0 1 .073.023.362.362 0 0 0-.048.087c-.027.07-.045.143-.056.217-.004-.112.01-.22.031-.327Zm.578-1.733.067-.156c.055-.134.112-.268.149-.412l.045-.033c.05-.036.102-.07.154-.104-.117.35-.227.703-.341 1.054a2.71 2.71 0 0 0-.074-.349Zm-.453 1.277.03-.106a.533.533 0 0 1 .028.125l-.058-.02Zm-1.161.983c.013.383.03.765.064 1.15.028.268.066.536.11.805-.145-.293-.291-.587-.435-.882.032-.358.096-.755.261-1.073Zm.673 4.045c.257.75.71 2.604 1.241 3.07a.227.227 0 0 0 .288.006c.63 1.244 1.272 2.483 1.928 3.717a38.378 38.378 0 0 1-1.743-2.073c-1.283-2.28-2.373-4.7-2.615-6.578.298.62.599 1.24.9 1.858Zm6.372 5.517.384 1.226c-.467-.836-.907-1.683-1.356-2.527-.292-.613-.582-1.228-.875-1.841.62 1.044 1.269 2.076 1.847 3.142Zm-.588-3.787c.511.827 1.014 1.657 1.52 2.487.387 1.422.789 2.844 1.187 4.264a47.18 47.18 0 0 0-.693-1.34c-.138-.236-.211-.497-.31-.747-.581-1.55-1.138-3.11-1.704-4.664Zm2.809 9.103c.068.09.14.175.217.258l.12.306-.222-.283c-.06-.083-.075-.19-.115-.28Zm1.113-9.247c-.038-.18-.08-.359-.113-.539l-.061-.332c.13.43.181.881.273 1.32-.037-.15-.068-.3-.1-.449Zm1.464 1.341-.043.3c-.092.74-.191 1.479-.286 2.22-.114-.768-.232-1.537-.349-2.305-.012-.37.078-.736-.009-1.119.195.255.394.506.578.768.034.046.07.092.11.137Zm-.578 4.095-.32-.713c-.062-.353-.143-.707-.196-1.061.09.252.195.516.365.734l.043.297.108.743Zm-.082-5.73-.234-.323-.073-.317a87 87 0 0 1 .278.462l.028.178Zm2.307 4.955c-.156-.679.047-1.333.124-1.98.085-.528.167-1.051.379-1.529l.183-.502c.019.02.04.038.063.053a8.485 8.485 0 0 0-.203 2.96l-.007.014c-.16.336-.266.728-.54.984Zm1.638-5.157c.67-1.469 1.453-2.868 2.235-4.267l-.015.027.294-.491c.085.032.18.023.242-.047-1.107 2.347-2.087 4.766-3.095 7.166l-.318.752c.027-1.093.285-2.153.657-3.14Zm5.73-7.188c.037-.082.075-.165.116-.245a4.285 4.285 0 0 1-.121.645l-.001-.034a.29.29 0 0 0-.08-.195c.03-.056.058-.114.085-.17Zm-1.15 3.755a.258.258 0 0 0-.054-.17c.18-.556.36-1.11.537-1.666-.13.624-.292 1.236-.483 1.835Zm.196-5.305-.092.142-.18.12c.15-.382.306-.763.462-1.142a21.12 21.12 0 0 1-.19.88Zm-.35 1.49-.004.02c-.018.104.044.221.14.277a.28.28 0 0 0 .109.028c-.049.158-.099.315-.14.473l-.14.455a.7.7 0 0 0-.028-.1c.041-.167.075-.336.113-.503.032-.149-.12-.317-.268-.313l.218-.338Zm-2.643 12.38a.566.566 0 0 0 .124-.116l-.48 1.84c-.143.324-.285.647-.425.97.26-.898.528-1.793.78-2.693Zm3.568-16.365c.081-.065.165-.128.25-.188.095-.054.253-.205.398-.13-.015-.008-.02-.012-.028-.014.02.006.03.014.05.025a.017.017 0 0 1 .002.006c.025.493-.137.938-.316 1.374-.07.11-.141.22-.216.325.012-.166.013-.335.011-.504a.289.289 0 0 0-.204-.27.574.574 0 0 0-.24-.039c.096-.196.195-.39.293-.585Zm.433-.827a1.295 1.295 0 0 0 .043-.083l.05.08c-.031 0-.062 0-.093.003ZM22.583 7.87l-.008.01.006-.015c0 .002 0 .003.002.005Zm-1.76 1.891c.152-.264.267-.563.42-.818a79.926 79.926 0 0 1 1.585-2.924A85.68 85.68 0 0 0 21.55 9.07c-.107.32-.27.64-.33.982a57.12 57.12 0 0 0-1.29 2.25c.296-.847.596-1.693.893-2.541Zm-1.768 9.005c-.189.645-.375 1.292-.557 1.939a4.26 4.26 0 0 1-.137-.49c.23-.483.462-.966.694-1.449Zm1.565-3.311a176.991 176.991 0 0 0 1.953-4.297c-.076.517-.176 1.022-.365 1.497l-1.216 3.593c-.496 1.26-.976 2.533-1.328 3.858l-.37 1.06a.277.277 0 0 0-.133-.087c-.288-.07-.31.285-.36.485a556.94 556.94 0 0 0-.425 2.23c-.193.558-.386 1.115-.576 1.674.771-3.402 1.727-6.74 2.82-10.013Zm-2.894 11.803-.085.456.003-.308a1.28 1.28 0 0 0 .082-.148Zm1.907-2.084c-.109.455-.213.91-.316 1.367-.05.093-.102.186-.154.278.02-.224.043-.447.066-.672.131-.326.264-.651.404-.973ZM25.045 7.45a.487.487 0 0 0-.237-.085c.122-.29.244-.578.368-.867l-.131.952Zm-8.505 8.27c.05-.264.132-.516.22-.767l.028.059a4.387 4.387 0 0 1-.248.707Zm-.724-.884c.01.118.018.271.1.37-.016.093-.03.186-.044.279-.13-.387-.27-.772-.42-1.153l.01.003c.082.012.17-.02.21-.09.027-.042.053-.085.078-.128.03.232.053.472.066.719Zm-1.022-.896c.002.17.007.34.014.511l-.432-.72c-.126-.17-.15-.426-.207-.626.158.207.269.498.523.595l.102.24Zm-1.527 5.735c.04.274.091.545.14.82a85.663 85.663 0 0 0-.356-.595c-.142-.255-.216-.539-.33-.805.104.12.21.237.32.35.053.097.113.204.226.23Zm-.269-3.247.067.12c.026.046.05.093.074.14l-.023-.037c-.035-.074-.098-.146-.118-.223Zm-.528.469a57.602 57.602 0 0 1-.203-.314c-.472-.704-.784-1.49-1.178-2.234-.046-.175-.094-.351-.114-.53a1.4 1.4 0 0 0 .011-.013c.36.557.62 1.164.903 1.758.051.212.098.433.203.633.14.23.34.428.378.7Zm-.18-5.235a16.64 16.64 0 0 0-.245-1.011c.13.227.261.453.393.68.008.306.002.61.005.916-.112-.17-.092-.394-.153-.585Zm.188-1.177a11.974 11.974 0 0 0-.028-.049l-.588-1.084.03.032c.269.286.524.583.769.89-.08.05-.157.114-.184.211ZM9.8 15.72a.21.21 0 0 0-.142.14c-.155-.32-.311-.643-.47-.963l-.41-.828c.415.55.864 1.076 1.201 1.676a.234.234 0 0 0-.179-.025Zm-.133 1.35a41.328 41.328 0 0 0-1.617-2.545c-.447-.893-.691-1.873-.976-2.816.939 1.757 1.699 3.587 2.593 5.361Zm-.02 4.418c-.215-.202-.453-.383-.718-.484a504.245 504.245 0 0 0-1.95-3.907c-.296-.604-.619-1.196-.931-1.792-.272-.45-.44-1.017-.894-1.324-.09-.077-.21-.095-.296-.047a18.902 18.902 0 0 1-.49-2.593.18.18 0 0 0 .129-.087c.023-.04.044-.079.064-.122a.255.255 0 0 0 .19.02c.035.7.04 1.407.22 2.107.045.162.124.315.195.47.05.166.25.27.384.177 1.037 2.664 2.567 5.14 4.097 7.582Zm-3.823-9.357-.005-.005a35.795 35.795 0 0 0-.076-.983l.14.294c.01.242-.065.509.012.746l-.07-.052Zm.344-2.497a.514.514 0 0 0-.304-.216.636.636 0 0 0-.2-.023c.266-.766.437-1.585.801-2.3.05.161.086.323.106.487-.205.306-.34.67-.397 1.05-.057.331.019.666-.006 1.002Zm2.62 13.224a.95.95 0 0 0 .021.04l-.056-.079c.01.013.023.026.034.039Zm3.514 4.544-.194-.216-.223-.387c.138.202.278.403.417.604Zm2.967 2.935a.269.269 0 0 0 .086.035l.035.165-.121-.2Zm-1.84-2.741c.11.108.303.106.368-.025.179.242.357.484.547.717.155.389.312.777.468 1.165.064.168.138.331.214.494a39.567 39.567 0 0 0-1.598-2.351Zm2.99-3.917c.016-.005.03-.014.045-.023.006.338.02.643.005.785l-.067-.12a1.146 1.146 0 0 1-.086-.145c.041-.163.077-.328.102-.497Zm1.244-2.03c.133-.266.263-.535.393-.803.028.078.056.155.09.23.038.09.113.156.199.177a98.1 98.1 0 0 0-.547 2.059l.007-.145a.273.273 0 0 0-.367-.257c-.03-.214-.06-.428-.092-.642.111-.203.218-.408.317-.618Zm3.451 1.345a.232.232 0 0 0-.066-.006c.186-.536.373-1.072.55-1.612a.185.185 0 0 0 .11-.082c.41-.593.665-1.282.937-1.959l.84-2.083c-.162.457-.353.908-.418 1.403-.39.918-.8 1.824-1.206 2.733a180.34 180.34 0 0 1-.747 1.606Zm1.655-5.31c-.3.7-.555 1.427-.857 2.126a.277.277 0 0 0-.076-.06c.547-1.877 1.123-3.743 1.624-5.638.307-.28.41-.722.56-1.108.12-.305.23-.615.334-.926l.138-.299a.224.224 0 0 0 .32-.15c.14-.326.202-.685.26-1.043.312-.616.642-1.222 1.005-1.806-.085.85-.421 1.61-.7 2.383-.306.768-.607 1.54-.91 2.311-.559 1.406-1.135 2.806-1.698 4.21Zm2.658-8.81-.095.154a5.98 5.98 0 0 1 .128-.516c.185-.633.384-1.262.56-1.9.114.53.188 1.064.225 1.596-.443-.116-.644.364-.818.666Zm.823-3.238.007-.036a.256.256 0 0 0-.093-.239 10.57 10.57 0 0 0-.257-.69 1.42 1.42 0 0 0 .013-.097c.075.111.145.223.21.339a7.52 7.52 0 0 1 .805 2.078c-.069.387-.15.75-.223 1.058a11.664 11.664 0 0 0-.462-2.413Zm-4.343-1.209a3.22 3.22 0 0 1-.067.23.251.251 0 0 0-.168-.034l.139-.188a1.65 1.65 0 0 1 .119-.139 2.214 2.214 0 0 1-.023.131Zm-1.84.44c-.088-.032-.188-.015-.241.053-.177.229-.363.45-.519.695-.35.546-.7 1.092-1.046 1.642a.631.631 0 0 0-.176.007c.397-.657.756-1.342 1.197-1.967.595-.863 1.28-1.661 2.094-2.313a27.126 27.126 0 0 0-1.309 1.882Zm-3.096 9.482-.001-.002.017-.054-.016.056Zm-.674-1.33.014-.006a2.673 2.673 0 0 0-.005.024l-.01-.018Zm-1.333-1.407c-.043.287-.078.574-.107.858-.05-.124-.101-.246-.152-.365-.262-.616-.552-1.223-.939-1.78-.358-.507-.711-1.022-1.075-1.53a15.54 15.54 0 0 1 2.21 2.695c.021.041.043.081.063.122ZM9.827 9.471c-.009.023-.016.045-.024.07l-.216-.238-.174-.19a2.376 2.376 0 0 1-.04-.174c.171.16.304.354.454.532ZM9 12.806c.258.675.61 1.318.92 1.974-.458-.749-.945-1.481-1.43-2.214-.177-.287-.36-.583-.635-.788a.516.516 0 0 0-.192-.082c-.205-.471-.413-.943-.565-1.428-.01-.032-.018-.064-.026-.095l.037-.107c.663.892 1.285 1.81 1.89 2.74ZM7.193 8.47a.875.875 0 0 0-.045.017l-.01-.098a31.61 31.61 0 0 0-.06-.576l-.006-.047a.612.612 0 0 1 .193-.164c.067.166.131.332.202.497-.13.086-.211.227-.274.37Zm-3.055-.487V7.95c.177-.22.361-.44.58-.618a6.887 6.887 0 0 0-.58.65Zm.033-.85-.002-.054a.797.797 0 0 0-.025-.157c.128-.063.258-.117.393-.167a6.1 6.1 0 0 1 .24-.076 2.17 2.17 0 0 0-.606.455Zm12.774 26.785-.07-.227c-.184-.603-.43-1.19-.714-1.763-.276-1.315-.55-2.63-.81-3.947.038.051.094.09.154.108.144.585.278 1.172.404 1.758.04.322.086.644.152.963.054.169.058.381.202.507.161.129.399.007.366-.191a15.03 15.03 0 0 0-.249-1.322c-.126-1.09-.248-2.18-.341-3.268a.263.263 0 0 0 .025-.135l-.027-.485c.212 1.46.43 2.92.598 4.38.014.131.131.24.258.246-.006.328.024.686.218.844a90.11 90.11 0 0 0 .012 2.15c-.06.126-.118.255-.178.382Zm3.048-7.357c.085-.23.17-.462.257-.692l.18-.345c1.085-2.088 2.053-4.25 2.996-6.42.278-.278.372-.705.522-1.07.169-.441.341-.902.512-1.363l.824-1.983c-.393 1.332-.895 2.617-1.385 3.902l.002-.008c-1.27 3.309-2.767 6.494-4.172 9.73a13.5 13.5 0 0 0 .226-.895c.06-.27.185-.569.038-.856Zm6.671-13.977c.197-.66.414-1.34.613-2.031-.009.539-.046 1.07-.108 1.596-.503 1.628-1.095 3.217-1.714 4.79-.792 1.99-1.637 3.958-2.677 5.804 1.396-3.334 2.77-6.687 3.886-10.16Zm-.666-8.655c.02-.207.036-.417.04-.624.873.449 1.079 1.461 1.033 2.51a7.11 7.11 0 0 0-1.073-1.886Zm.603-.8a2.043 2.043 0 0 0-.476-.304 1.874 1.874 0 0 0-.103-.044c-.03-.328-.104-.632-.244-.885.048.027.095.053.142.083.258.389.517.779.73 1.192-.016-.014-.032-.029-.049-.042Zm-2.796-.843-.073-.026.019-.016.054.042Zm-.272.412a.695.695 0 0 0-.34.058c.04-.036.081-.077.125-.119.072.018.143.038.215.06Zm-1.11.133c-.046.109-.127.218-.184.333a6.05 6.05 0 0 0-.595.317c.24-.317.49-.625.746-.929.048-.003.098-.005.146-.006-.039.107-.073.216-.113.285ZM10.18 6.73c-.001.25.124.494.224.73-.836-.61-1.702-1.045-2.577-1.285a4.064 4.064 0 0 1 1.518.073c.284.147.563.307.835.481Zm11.53 18.38c.09-.198.179-.397.266-.596a.251.251 0 0 0 .072.013l-.338.583ZM28.3 3.84l-.06-.104a6.197 6.197 0 0 0-.964-1.266 5.85 5.85 0 0 0-1.042-.843 9.665 9.665 0 0 0-.372-.495c1.21.555 2.087 1.389 2.438 2.708ZM24.412.731c.154.008.31.036.464.064.159.104.324.27.456.419a2.919 2.919 0 0 0-.934-.115 4.06 4.06 0 0 0-.76.11c.228-.2.485-.37.774-.478Zm-1.126 1.225c-.057.05-.112.098-.163.147a3.637 3.637 0 0 0-.294-.034c.097-.07.206-.124.327-.165.044.016.087.033.13.052ZM23.283.834c-.1.086-.194.178-.287.272-.07.072-.14.144-.208.217a2.156 2.156 0 0 0-.83.065 5.542 5.542 0 0 1 1.325-.554Zm-1.249 1.062a7.31 7.31 0 0 0-.453.292l-.161.045a2.46 2.46 0 0 1 .614-.337Zm-1.65.592a20.79 20.79 0 0 0-.303.344 9.12 9.12 0 0 0-.23.14c-.024.014-.046.03-.068.044.196-.182.396-.358.601-.528ZM9.487 5.646c2.182.809 4.08 2.556 5.27 4.613.119.204.23.41.335.62 0 .006-.001.01-.003.015a24.723 24.723 0 0 0-.989-1.547C12.788 7.493 11.15 6.2 9.464 5.79a10.311 10.311 0 0 0-.896-.405c.3.06.607.144.92.26Zm-5.714.687c.03-.168.075-.353-.023-.523a.397.397 0 0 0-.059-.083 5.475 5.475 0 0 1 1.39-.32 6.308 6.308 0 0 0-1.308.926Zm-1.914.885c.16-.273.354-.51.571-.716l-.024.043c-.464.877-.675 1.905-.648 2.952-.277 1.026-.264 2.165-.026 3.266-.1-.395-.183-.793-.256-1.19-.29-1.53-.324-3.057.383-4.355ZM4.122 18.07c-.216-.4-.43-.8-.639-1.203a32.13 32.13 0 0 0 2.84 4.296 97.37 97.37 0 0 0 1.547 1.964c-.106-.059-.204-.072-.285-.006a.232.232 0 0 0-.058.26c.238.51.621.953.922 1.433-1.692-2.088-3.042-4.408-4.327-6.744Zm5.192 7.213c.69.74 1.382 1.477 2.07 2.218.243.318.525 1.304 1.005 1.122.487.889.954 1.786 1.501 2.645l.161.248a28.35 28.35 0 0 0-1.622-1.95c-1.07-1.406-2.153-2.804-3.115-4.283Zm10.318 4.523.122-.22-.185.372.063-.152Z"/>
</svg>
