<svg xmlns="http://www.w3.org/2000/svg" width="31" height="36" fill="none" viewBox="0 0 31 36">
  <path fill="#403528" d="M29.4 8.677c.376-.968.728-1.957.812-2.985.21-.867.301-1.78.095-2.642-.118-.482-.312-.956-.623-1.348C29.034.915 28.06.388 27.047.145c-.293-.187-.642-.09-.972-.097-2.516.071-5.559 2.544-7.241 4.29-1.75 1.755-2.518 3.117-3.275 5.34l-.022.055a8.891 8.891 0 0 0-.817-1.484c-1.1-1.544-2.646-2.844-4.533-3.407a5.668 5.668 0 0 0-2.847-.149 9.237 9.237 0 0 0-1.236.005c-1.839.082-3.807.948-4.645 2.637C.788 8.539.657 9.906.715 11.229c.003 2.064.784 3.981 1.544 5.856.764 1.805 1.553 3.608 2.537 5.309 1.14 1.897 2.475 3.688 3.822 5.452 1.391 1.76 2.442 3.748 3.507 5.706.243.467.472.94.7 1.414.105.237.135.536.329.721.078.056.18.07.272.02.308-.196-.02-.606-.104-.846-.133-.325-.244-.659-.37-.987a.264.264 0 0 0 .257-.111.644.644 0 0 0 .112-.208c.018.192.033.383.042.575-.096.201-.153.395-.074.516.03.038.063.066.094.085a.235.235 0 0 0 .234.202.26.26 0 0 0 .206-.104c.166.074.41-.079.355-.35.01-.186.027-.372.044-.558.072-.126.14-.24.2-.323 1.058-1.743 2.213-3.432 3.357-5.127 1.63-2.407 3.323-4.776 4.9-7.215 1.996-2.683 3.89-5.56 4.962-8.638A49.738 49.738 0 0 0 29.4 8.677Zm.323-3.028a30.683 30.683 0 0 1-1.308 3.793c.049-.36.084-.723.105-1.087.627-1.678.967-3.408.437-5.127a6.934 6.934 0 0 0-.26-.693 4.045 4.045 0 0 1 1.026 3.114ZM11.67 30.377c-.262-.473-.498-.96-.723-1.455l.589.733a37.97 37.97 0 0 1 1.247 2.34l.05.744a28.679 28.679 0 0 0-1.163-2.362ZM1.842 12.823a6.594 6.594 0 0 1-.048-1.701c.102 1.186.369 2.339.748 3.459a9.56 9.56 0 0 0 .833 2.284c.274.545.581 1.068.91 1.577l.169.305c.173.39.353.777.542 1.16-.085-.128-.17-.256-.253-.385a23.39 23.39 0 0 1-2.05-3.99c-.349-.88-.685-1.772-.851-2.709Zm2.055-6.881c-.033.084-.057.171-.082.258-.398.32-.556.817-.95 1.138H2.86c.265-.512.566-1.019 1.036-1.396Zm3.45-.769c.28.022.557.056.825.102.188.04.372.09.554.144a5.39 5.39 0 0 0-1.348.304 6.312 6.312 0 0 0-1.872.167 6.316 6.316 0 0 1 1.84-.717Zm11.715-.097c.32-.325.663-.639 1.028-.933a27.283 27.283 0 0 0-4.249 6.372l-.028-.076c.067-.2.133-.398.204-.596a16.262 16.262 0 0 1 3.045-4.767Zm9.547 1.203a8.802 8.802 0 0 1-.093.432 2.3 2.3 0 0 0-.008-.115l.033-.095.068-.222ZM14.563 31.326c.086-.605.19-1.208.287-1.813.08-.02.15-.072.176-.161a77.88 77.88 0 0 1 .514-1.657c.269.005.417-.204.528-.449a.422.422 0 0 0 .053.035c-.064.232-.129.463-.192.695-.216.547-.502 1.078-.602 1.66-.026.114.058.23.17.26a.29.29 0 0 0 .07.008c-.34.472-.675.945-1.004 1.422ZM5.644 6.345c.218-.046.438-.082.66-.109a6.791 6.791 0 0 0-.337.212.582.582 0 0 0-.323-.103Zm2.313 2.282c.56.468.68 1.23.946 1.871-.269-.353-.415-.786-.727-1.106-.145-.144-.422-.153-.489.077l-.037-.064c-.049-.083-.096-.167-.147-.251.103-.215.296-.345.454-.527Zm.402-2.083c.162.006.324.022.482.058a.23.23 0 0 0 .01.118c.027.071.054.142.078.214l-.15-.046a4 4 0 0 0-.239-.074c-.049-.094-.101-.196-.181-.27Zm.595 2.177c.141.29.324.56.296.897l.007.22c-.086-.194-.17-.389-.255-.583-.172-.37-.3-.758-.43-1.145.169.178.28.39.382.611Zm-.117-1.316c.073.02.146.037.22.051.026.163.046.328.063.493l-.116-.228c-.054-.105-.11-.211-.167-.316Zm1.129-.37c.465.272.892.6 1.293.953.081.124.11.284.174.42-.31-.262-.74-.058-1 .195-.096-.162-.191-.323-.288-.484-.096-.162-.182-.33-.274-.493-.043-.079-.088-.157-.132-.235a.43.43 0 0 0 .227-.355Zm1.437-.231.073.057c.587.744 1.077 1.55 1.566 2.357a10.883 10.883 0 0 0-1.339-1.486 13.14 13.14 0 0 1-.28-.854l.01.029c-.011-.034-.02-.07-.03-.103Zm15.732-4.97c.07.151.099.331.099.527a3.396 3.396 0 0 0-.411-.05c.105-.152.253-.303.312-.477Zm-.457-.305c-.184.141-.331.323-.483.496a3.066 3.066 0 0 0-.288-.298c.258-.133.523-.219.771-.198Zm.511 1.313a6.647 6.647 0 0 1-.056.283 4.477 4.477 0 0 0-.345-.338c.146.01.279.03.401.055Zm.857 4.982c-.005.154-.013.307-.022.46-.083.219-.17.436-.258.653a.256.256 0 0 0-.182-.035c.158-.358.314-.716.462-1.078Zm-11.81 18.021c.174-.517.35-1.035.529-1.55.096-.238.194-.475.296-.71-.046.234-.096.468-.15.702l-.2.446c-.156.345-.3.695-.437 1.046l-.038.066Zm-1.603 1.219c.06-.477.124-.956.193-1.432l-.1 1.024c-.03.137-.062.273-.093.408Zm-.17-2.359v-.435c.014.025.03.05.047.076l.002.003-.05.356Zm-8.437-12.89.093.27a7.314 7.314 0 0 0-.283-.217.256.256 0 0 0 .19-.052Zm.966-3.548c-.005.08-.01.161-.017.242l-.006.044a.13.13 0 0 0-.02-.009c-.013-.005-.028-.008-.042-.012.023-.09.052-.178.085-.265Zm.686-1.454c-.056.02-.113.043-.168.07a1.882 1.882 0 0 0-.048-.257l.068-.014c.056-.01.112-.02.168-.028a.229.229 0 0 0-.007.126l.02.091-.033.012ZM6.31 13.028c-.26.032-.258.282-.17.46a.245.245 0 0 0-.15.312c.22.586.458 1.167.688 1.75.783 1.942 1.572 3.88 2.346 5.825-.172-.317-.357-.625-.514-.949-1.023-2-2.033-4.015-2.72-6.16-.137-.439-.25-.892-.373-1.335.064-.229.069-.463.095-.696.317.213.583.484.798.793Zm3.856-2.97c.358.43.718.855 1.076 1.283l-.012.506-.009.376c-.073-.156-.148-.312-.223-.469-.271-.568-.553-1.132-.832-1.695Zm-.157 1.438-.207-.453.022-.067c.03.091.062.182.095.272l.09.248Zm.384-1.938a.139.139 0 0 1 .006-.011l.052.082-.058-.07Zm.292-.532c.101-.116.231-.234.385-.27.473.307.527.943.621 1.45a.253.253 0 0 0-.281.008c-.244-.395-.486-.791-.725-1.188Zm2.18 2.808.03.776-.144-.232.044-.29c.02-.14.042-.279.063-.418l.006.164Zm.423-1.357c.03.049.058.099.087.149a.244.244 0 0 0-.07.046 6.89 6.89 0 0 0-.017-.195Zm-.48 3.692c-.014.489-.053.976-.04 1.464a77.072 77.072 0 0 1-.175-.4l-.185-.419c.074-.56.156-1.118.234-1.677l.296.48.014.34a.25.25 0 0 0-.143.212Zm6.048-4.488c.261-.569.59-1.068.899-1.64a754.17 754.17 0 0 1 2.209-2.58c-1.24 1.753-2.38 3.562-3.486 5.393l.276-.843.102-.33Zm2.212-3.907c.083-.151.16-.306.228-.464a7.95 7.95 0 0 1 1.06-1.031c-.437.493-.858.998-1.288 1.495Zm-2.231 5.728-.023.044-.344.676a1.4 1.4 0 0 0 .05-.22l.317-.5Zm6.216-8.525c.01.184-.017.361-.062.538-.337.428-.67.858-1.002 1.291-.305.322-.596.654-.876.996.067-.147.13-.297.188-.448.134-.218.25-.443.267-.696.001-.026-.003-.051-.007-.077a1.78 1.78 0 0 0 .248-.92.539.539 0 0 0 .465-.145c.19-.148.36-.343.56-.482l.219-.057Zm-7.488 19.832c-.003-.093-.082-.174-.171-.197-.012-.004-.025-.004-.037-.005.532-1.01 1.071-2.016 1.6-3.027a1.54 1.54 0 0 0 .179-.217c-.174.526-.445 1.019-.672 1.528-.3.65-.6 1.3-.897 1.95l-.002-.032Zm-1.7-2.262v-.126a.294.294 0 0 0 .13-.064l-.13.19Zm-.546.775-.008.01c-.096.012-.176.08-.243.188.043-.152.088-.303.136-.452.057-.182.114-.366.169-.55.003.242.004.483.003.724-.02.026-.038.054-.057.08Zm-3.443 3.396c.16-.488.117-.99.031-1.479-.072-.468-.134-.94-.2-1.409-.105-.75-.212-1.498-.318-2.248.068.23.131.461.197.692a.24.24 0 0 0 .172.168c.116.285.237.57.37.846.013.663.034 1.325.053 1.987.025 1.07.07 2.139.11 3.207l-.182-.315-.338-1.29a.264.264 0 0 0 .105-.16Zm-2.909-1.055-.064-.084c-.3-.553-.592-1.111-.866-1.68l-.33-.902c.092.088.178.18.268.265.28.29.53.603.774.921.45.524.792 1.113 1.125 1.713.18.34.415.657.546 1.02a50.5 50.5 0 0 1 .575 1.566 28.494 28.494 0 0 0-2.028-2.819ZM5.059 11.928a1.184 1.184 0 0 0-.058.08c.004-.083.008-.163.014-.245.036-.406.071-.805.13-1.213l.025-.01c-.03.462-.06.926-.11 1.388Zm.651-2.339c.054-.03.107-.096.174-.077.067.155.055.338.04.509a2.835 2.835 0 0 0-.065-.153 1.626 1.626 0 0 0-.149-.279Zm-.839-.137a.656.656 0 0 1 .071.021.43.43 0 0 0-.062.085 1.109 1.109 0 0 0-.09.21c.013-.109.043-.213.081-.316Zm.855-1.678c.031-.05.062-.1.092-.152.078-.13.157-.26.216-.398l.05-.032c.058-.036.116-.07.175-.102-.174.338-.34.68-.51 1.02 0-.112-.007-.225-.023-.336ZM5.069 9.01l.045-.102c.01.04.012.08.011.12-.018-.007-.037-.012-.056-.018Zm-1.34.958c-.045.37-.086.74-.108 1.11a12.32 12.32 0 0 0-.01.777c-.104-.283-.21-.565-.313-.848.087-.346.213-.73.43-1.039Zm.077 3.902c.151.72.335 2.509.81 2.955.087.074.207.062.294.003.457 1.197.929 2.39 1.415 3.575a29.63 29.63 0 0 1-1.474-1.988c-.971-2.192-1.723-4.521-1.687-6.333.211.597.426 1.192.642 1.788Zm5.702 5.28.21 1.18c-.354-.802-.677-1.618-1.01-2.429-.207-.59-.411-1.181-.619-1.772.479 1.004.987 1.995 1.42 3.02Zm-.03-3.653c.4.795.79 1.593 1.183 2.39.182 1.371.379 2.741.572 4.11a38.8 38.8 0 0 0-.507-1.29c-.107-.226-.142-.477-.206-.718-.361-1.494-.697-2.995-1.042-4.492Zm1.504 8.77c.056.087.118.169.184.248l.076.294-.184-.271c-.05-.08-.05-.182-.076-.27Zm2.541-8.938c-.012-.173-.027-.346-.034-.52l-.013-.32c.069.415.053.85.081 1.272-.015-.143-.024-.288-.034-.432Zm1.3 1.285-.09.29c-.206.715-.42 1.43-.63 2.145 0-.74-.005-1.482-.008-2.223.043-.358.19-.711.16-1.08.16.244.326.486.476.737.028.044.058.088.091.13Zm-1.213 3.959-.222-.687c-.01-.34-.038-.682-.04-1.023.055.243.123.497.264.706v.287c-.002.239-.002.477-.002.717Zm.782-5.534-.19-.31-.027-.305.215.444.002.171Zm1.617 4.769c-.057-.655.25-1.288.427-1.915.167-.51.33-1.015.62-1.478l.264-.486a.25.25 0 0 0 .057.05 8.3 8.3 0 0 0-.657 2.86l-.009.014c-.216.326-.383.705-.702.955Zm2.461-4.993c.91-1.423 1.925-2.78 2.938-4.137l-.019.026.376-.476c.082.03.182.021.256-.047-1.491 2.274-2.863 4.618-4.26 6.943l-.44.728c.193-1.055.618-2.081 1.15-3.037Zm6.965-6.983c.051-.08.102-.16.157-.238a4.45 4.45 0 0 1-.222.624.382.382 0 0 0 .004-.034.234.234 0 0 0-.052-.187 5.08 5.08 0 0 0 .113-.165Zm-1.747 3.634a.214.214 0 0 0-.03-.164c.268-.538.537-1.074.803-1.613a19.914 19.914 0 0 1-.773 1.777Zm1.004-5.125-.116.138a9.544 9.544 0 0 0-.202.118c.212-.37.428-.74.646-1.107-.103.286-.213.57-.328.851Zm-.585 1.441-.007.02c-.034.1.012.214.102.266a.27.27 0 0 0 .107.027c-.074.153-.149.305-.214.458l-.214.44a.599.599 0 0 0-.013-.096c.068-.161.128-.325.192-.487.056-.144-.075-.305-.227-.3l.274-.328ZM19.522 19.76a.722.722 0 0 0 .145-.114l-.772 1.781-.582.939c.404-.87.813-1.736 1.209-2.606ZM25.66 3.93c.092-.065.187-.126.284-.184.105-.054.29-.2.428-.13l-.027-.013c.02.006.029.014.049.024v.007c-.05.475-.283.906-.531 1.328a9.52 9.52 0 0 1-.272.316c.037-.16.065-.323.088-.486a.231.231 0 0 0-.169-.26.58.58 0 0 0-.24-.036c.128-.19.259-.378.39-.567Zm.569-.803a1.393 1.393 0 0 0 .056-.08c.014.025.026.052.04.076-.033 0-.064 0-.096.004Zm-2.811 4.31-.01.01a.196.196 0 0 1 .009-.014v.005Zm-2.092 1.84c.195-.256.359-.546.554-.793a94.742 94.742 0 0 1 2.069-2.836 97.832 97.832 0 0 0-1.773 2.957c-.158.31-.374.62-.487.95a68.377 68.377 0 0 0-1.665 2.183l1.302-2.46Zm-3.176 8.71c-.292.623-.58 1.25-.865 1.876a3.542 3.542 0 0 1-.067-.45v-.022c.31-.468.62-.937.932-1.405Zm2.106-3.21a204.286 204.286 0 0 0 2.654-4.164c-.157.5-.336.989-.6 1.448-.598 1.16-1.194 2.32-1.793 3.48-.7 1.22-1.384 2.452-1.945 3.735l-.541 1.027a.231.231 0 0 0-.123-.084c-.285-.065-.36.278-.442.47-.26.719-.517 1.439-.774 2.158-.282.54-.565 1.08-.844 1.62a113.31 113.31 0 0 1 4.408-9.69Zm-4.755 11.42-.157.441.05-.297c.038-.045.073-.093.107-.144Zm2.272-2.027c-.18.44-.356.881-.531 1.323l-.2.27c.055-.217.112-.433.169-.65.184-.316.37-.631.562-.943Zm8.233-17.156a.45.45 0 0 0-.23-.08l.51-.84-.28.92Zm-9.975 8.048c.09-.255.213-.498.34-.741l.021.057a4.802 4.802 0 0 1-.361.684Zm-.61-.847c-.007.114-.022.262.047.357l-.088.269c-.074-.373-.16-.743-.256-1.11.004.001.007.003.011.003a.258.258 0 0 0 .229-.088c.034-.041.066-.083.098-.125a7.881 7.881 0 0 1-.04.694Zm-.912-.858a15.14 15.14 0 0 0-.063.494l-.334-.693c-.104-.163-.09-.41-.118-.602.131.198.2.478.447.57l.068.231Zm-2.434 5.55c-.001.265.01.526.02.79-.091-.19-.183-.381-.276-.57-.107-.246-.14-.52-.218-.776.09.115.18.227.277.335.04.093.085.196.197.22Zm.215-3.134.05.116c.02.044.038.09.055.135l-.018-.036c-.025-.072-.078-.14-.087-.215Zm-.612.457c-.055-.1-.108-.2-.162-.301-.377-.677-.579-1.434-.87-2.15-.02-.168-.044-.338-.037-.51l.014-.013c.284.535.46 1.12.66 1.69.02.206.035.419.113.61.109.221.283.412.282.674Zm.607-5.054a14 14 0 0 0-.098-.975c.099.219.2.436.3.654-.038.295-.09.59-.133.884-.09-.163-.035-.379-.069-.563Zm.37-1.138a7.892 7.892 0 0 1-.02-.047l-.44-1.043.027.03c.232.275.45.56.654.854a.473.473 0 0 0-.22.206Zm-3.539 5.076a.263.263 0 0 0-.167.137c-.11-.31-.222-.619-.336-.927l-.295-.797c.342.529.723 1.034.978 1.61a.237.237 0 0 0-.18-.023Zm-.34 1.305a31.956 31.956 0 0 0-1.274-2.446c-.324-.859-.426-1.804-.575-2.712.697 1.69 1.2 3.452 1.849 5.158Zm-.69 4.266c-.19-.193-.407-.366-.663-.462a394.792 394.792 0 0 0-1.409-3.759c-.213-.58-.454-1.15-.684-1.723-.21-.432-.297-.98-.717-1.271a.269.269 0 0 0-.297-.044c-.1-.824-.137-1.66-.109-2.5a.229.229 0 0 0 .145-.085c.03-.04.058-.077.084-.118.06.029.129.035.192.017-.07.675-.171 1.359-.094 2.033.022.156.08.304.13.452.027.16.215.26.367.169.66 2.565 1.856 4.944 3.056 7.291Zm-2.505-9.007-.005-.005a32.513 32.513 0 0 0 .072-.949l.098.283c-.026.233-.143.492-.1.72l-.065-.05Zm.73-2.415a.423.423 0 0 0-.278-.205.656.656 0 0 0-.202-.022c.388-.74.688-1.533 1.17-2.226.027.155.038.311.035.469-.257.297-.451.65-.567 1.016-.108.321-.081.644-.158.968Zm.686 12.751.016.039-.046-.075.03.036Zm2.918 4.363c-.055-.07-.111-.138-.167-.207-.055-.125-.113-.248-.17-.372l.337.58Zm2.599 2.812a.24.24 0 0 0 .084.033l.01.16-.094-.193Zm-1.473-2.633c.097.104.295.1.382-.027.147.233.293.465.453.689.1.373.202.747.304 1.12.04.163.09.32.145.477a30.57 30.57 0 0 0-1.284-2.26Zm3.66-3.805a.227.227 0 0 0 .05-.023c-.045.327-.076.621-.113.758l-.05-.115a.885.885 0 0 1-.067-.139c.067-.158.128-.317.18-.48Zm1.584-1.969c.177-.259.35-.518.524-.778.017.074.035.148.058.221a.24.24 0 0 0 .178.169 105.02 105.02 0 0 0-.847 1.93l-.026.063.03-.14c.032-.208-.182-.308-.338-.246l.002-.62c.145-.196.286-.395.42-.599Zm3.337 1.273a.242.242 0 0 0-.067-.005c.272-.52.544-1.038.809-1.56a.236.236 0 0 0 .124-.08c.51-.577.876-1.244 1.258-1.9l1.178-2.018c-.236.443-.5.88-.642 1.359-.539.889-1.098 1.767-1.65 2.647-.336.521-.672 1.04-1.01 1.557Zm2.501-5.14c-.415.678-.786 1.382-1.201 2.06a.223.223 0 0 0-.069-.059c.846-1.816 1.719-3.622 2.519-5.455.358-.274.53-.701.743-1.075.169-.295.328-.595.483-.897.061-.097.124-.193.187-.289.131.063.293-.014.35-.148.193-.315.31-.662.425-1.009a27.57 27.57 0 0 1 1.304-1.75c-.216.82-.676 1.557-1.08 2.306-.43.743-.854 1.491-1.282 2.238-.786 1.362-1.589 2.718-2.379 4.078Zm4.06-8.528-.121.15a6.91 6.91 0 0 1 .21-.5c.285-.612.585-1.221.861-1.838a9.886 9.886 0 0 1-.01 1.539c-.437-.108-.716.357-.94.65Zm1.334-3.133.012-.034a.21.21 0 0 0-.059-.23 8.557 8.557 0 0 0-.158-.664l.028-.094c.06.106.115.214.164.325.296.638.446 1.312.51 2-.128.375-.267.726-.388 1.024a10.05 10.05 0 0 0-.109-2.327Zm-4.273-1.135a3.537 3.537 0 0 1-.102.222.249.249 0 0 0-.168-.031l.171-.182c.046-.047.093-.093.143-.135a2.344 2.344 0 0 1-.044.126Zm-1.953.438a.251.251 0 0 0-.256.053c-.215.223-.44.437-.637.675-.442.53-.884 1.06-1.321 1.594a.7.7 0 0 0-.182.008c.506-.638.979-1.301 1.525-1.909.741-.837 1.566-1.613 2.499-2.249a33.314 33.314 0 0 0-1.628 1.828Zm-4.611 9.18v-.002l.025-.052-.025.054Zm-.49-1.28.015-.006-.009.024c-.001-.006-.004-.011-.006-.017Zm-1.155-1.348c-.087.278-.167.554-.239.83-.032-.12-.067-.238-.1-.352-.176-.593-.382-1.177-.694-1.712-.291-.487-.575-.982-.872-1.47.733.78 1.36 1.649 1.859 2.587.016.04.032.078.046.117Zm-4.945-2.03c-.013.022-.023.044-.035.067l-.186-.227-.15-.183a2.01 2.01 0 0 1-.014-.167c.151.153.258.34.385.51Zm-1.353 3.227c.163.65.428 1.268.645 1.9-.356-.72-.744-1.424-1.13-2.128-.14-.276-.283-.56-.534-.756a.464.464 0 0 0-.184-.078c-.139-.453-.28-.907-.364-1.375a3.172 3.172 0 0 1-.012-.092l.055-.103a41.784 41.784 0 0 1 1.524 2.632ZM7.54 8.13a.459.459 0 0 0-.048.017l.005-.095c.01-.185.018-.37.024-.555l.002-.046a.782.782 0 0 1 .223-.16c.044.16.084.32.131.479-.147.084-.25.22-.337.36Zm-3.06-.447a.378.378 0 0 0 .004-.032 5.19 5.19 0 0 1 .69-.6 8.69 8.69 0 0 0-.694.632Zm.162-.821a.696.696 0 0 0 .005-.204c.14-.062.282-.115.428-.165.085-.026.171-.05.257-.074-.253.11-.482.265-.69.443Zm9.05 25.77a9.365 9.365 0 0 0-.503-1.915 265.252 265.252 0 0 1-.232-3.806c.03.05.082.087.14.103.06.564.108 1.13.149 1.696-.008.31-.01.62.01.929.03.162.002.367.131.487.146.123.408.004.404-.187.003-.426-.016-.851-.055-1.274a98.78 98.78 0 0 1 .145-3.154.271.271 0 0 0 .046-.13c.014-.157.03-.313.046-.469-.004 1.409-.001 2.817-.05 4.226a.233.233 0 0 0 .227.236c-.055.317-.079.661.097.813-.112.69-.219 1.383-.313 2.075-.082.123-.16.248-.241.37Zm4.24-7.126.369-.67.236-.335c1.43-2.024 2.75-4.119 4.046-6.222.328-.27.489-.683.698-1.036.24-.428.486-.874.731-1.32l1.145-1.921c-.604 1.288-1.314 2.533-2.011 3.777l.004-.008c-1.803 3.205-3.822 6.292-5.753 9.427.13-.285.256-.572.367-.865.102-.261.276-.55.169-.827Zm8.96-13.547c.302-.64.627-1.297.936-1.966-.09.52-.21 1.034-.352 1.543-.763 1.575-1.611 3.114-2.484 4.638-1.113 1.927-2.278 3.834-3.625 5.624 1.938-3.23 3.854-6.478 5.525-9.84Zm.626-8.353c.053-.2.1-.403.136-.603.827.427.885 1.403.68 2.416a5.54 5.54 0 0 0-.816-1.813Zm.74-.778a1.698 1.698 0 0 0-.443-.29c-.032-.015-.065-.028-.098-.041.018-.316-.012-.61-.117-.852.045.025.09.05.134.078.206.374.412.749.567 1.146l-.043-.04Zm-2.741-.792-.071-.025.022-.015.049.04Zm-.34.4a.809.809 0 0 0-.359.058l.146-.116c.072.017.142.036.212.057Zm-1.16.136c-.064.105-.163.211-.239.323a7.316 7.316 0 0 0-.658.31c.294-.307.596-.607.905-.902.05-.004.101-.006.151-.007-.056.104-.107.209-.16.276ZM10.868 6.428c-.04.241.052.477.119.705A6.91 6.91 0 0 0 8.538 5.91a4.33 4.33 0 0 1 1.546.06c.269.139.53.291.784.458Zm9.046 17.665c.121-.192.243-.384.363-.577a.254.254 0 0 0 .072.012l-.435.565ZM29.89 3.504c-.014-.034-.03-.067-.045-.1a4.783 4.783 0 0 0-1.739-2.022A7.368 7.368 0 0 0 27.8.907c1.158.527 1.93 1.325 2.09 2.597ZM26.374.53c.157.007.313.032.466.058.148.1.292.26.404.402a3 3 0 0 0-.94-.104 4.71 4.71 0 0 0-.796.11c.264-.193.554-.359.866-.466Zm-1.34 1.192a7.264 7.264 0 0 0-.19.142 3.757 3.757 0 0 0-.296-.03c.11-.068.23-.12.36-.162.043.015.084.032.125.05ZM25.2.638a6.519 6.519 0 0 0-.337.265l-.245.21a2.47 2.47 0 0 0-.86.068A6.93 6.93 0 0 1 25.2.64Zm-1.443 1.035c-.172.09-.342.185-.508.285l-.173.045c.215-.135.44-.25.681-.33Zm-1.782.584c-.122.11-.243.222-.363.334l-.257.136-.076.044c.228-.177.46-.349.696-.514ZM10.32 5.387c2.115.765 3.798 2.438 4.707 4.416.092.195.175.395.25.597 0 .005-.002.01-.004.014a19.167 19.167 0 0 0-.781-1.488c-1.065-1.78-2.55-3.016-4.217-3.4a9.114 9.114 0 0 0-.858-.384c.3.055.6.134.903.245Zm-5.965.706c.056-.163.13-.341.055-.505a.306.306 0 0 0-.048-.08c.471-.164.97-.267 1.475-.318a7.976 7.976 0 0 0-1.482.903Zm-2.098.869c.206-.265.44-.495.694-.696l-.03.041a6.32 6.32 0 0 0-1.113 2.856c-.439.993-.598 2.093-.52 3.154-.044-.38-.068-.764-.083-1.147-.066-1.475.13-2.95 1.052-4.208Zm.679 10.462a74.7 74.7 0 0 1-.473-1.157 24.816 24.816 0 0 0 2.262 4.128 80.4 80.4 0 0 0 1.29 1.885c-.1-.056-.198-.068-.291-.003-.079.056-.124.16-.099.25.167.492.493.916.73 1.378-1.42-2.004-2.455-4.235-3.42-6.48Zm4.234 6.928c.596.71 1.194 1.416 1.788 2.126.201.305.342 1.255.862 1.076.365.855.708 1.718 1.14 2.543.041.08.085.159.127.238a21.88 21.88 0 0 0-1.37-1.87c-.883-1.35-1.783-2.692-2.547-4.113Zm9.9 4.291.16-.214c-.083.121-.166.24-.247.362l.088-.148Z"/>
</svg>
