<svg xmlns="http://www.w3.org/2000/svg" width="28" height="35" fill="none" viewBox="0 0 28 35">
  <path fill="#1E1E1E" d="M26.93 8.546c.297-.933.57-1.885.59-2.877.148-.837.18-1.717-.06-2.551-.137-.466-.345-.926-.658-1.306-.65-.765-1.586-1.28-2.545-1.522-.284-.183-.605-.093-.912-.101-2.343.051-5.042 2.418-6.513 4.092-1.533 1.683-2.173 2.994-2.754 5.135a1.389 1.389 0 0 1-.018.053 9.447 9.447 0 0 0-.845-1.44c-1.112-1.498-2.628-2.764-4.42-3.321a5.167 5.167 0 0 0-2.663-.163 8.317 8.317 0 0 0-1.153-.004c-1.71.066-3.498.889-4.184 2.514C.235 8.213.19 9.533.319 10.81c.119 1.994.956 3.85 1.77 5.666.814 1.75 1.652 3.496 2.665 5.145 1.17 1.84 2.516 3.579 3.872 5.292 1.396 1.709 2.489 3.636 3.592 5.535.253.452.493.911.732 1.37.112.23.157.519.348.7a.233.233 0 0 0 .254.02c.277-.187-.053-.585-.144-.817-.142-.315-.265-.639-.4-.956a.227.227 0 0 0 .233-.106.582.582 0 0 0 .093-.2c.028.186.052.37.071.556-.078.193-.12.38-.04.497a.361.361 0 0 0 .092.083.24.24 0 0 0 .23.197.223.223 0 0 0 .187-.1c.159.074.378-.072.311-.335 0-.179.004-.358.01-.538a3.44 3.44 0 0 1 .168-.31c.889-1.677 1.871-3.3 2.842-4.929 1.386-2.313 2.831-4.59 4.165-6.933 1.71-2.577 3.315-5.342 4.142-8.308a45.645 45.645 0 0 0 1.418-3.793Zm.131-2.922a28.749 28.749 0 0 1-1.006 3.653c.025-.347.038-.697.037-1.049.49-1.615.71-3.284.119-4.947a7.326 7.326 0 0 0-.281-.672c.755.818 1.18 1.921 1.131 3.015ZM11.615 29.379a21.93 21.93 0 0 1-.756-1.411l.59.713c.459.74.886 1.5 1.295 2.267.03.24.06.48.088.72a30.458 30.458 0 0 0-1.217-2.29ZM1.46 12.358a6.662 6.662 0 0 1-.14-1.644c.161 1.147.475 2.262.892 3.346.203.747.508 1.49.906 2.211.286.529.601 1.036.937 1.53.057.1.116.198.175.296.183.377.373.752.57 1.123a24.814 24.814 0 0 1-2.394-4.24c-.375-.853-.738-1.716-.946-2.622Zm1.53-6.632c-.027.082-.044.165-.062.25-.354.306-.473.784-.823 1.091l-.004.001c.219-.493.471-.98.888-1.342Zm3.174-.718c.262.023.523.058.775.105.178.04.353.088.525.142a4.654 4.654 0 0 0-1.24.284 5.595 5.595 0 0 0-1.737.148 5.392 5.392 0 0 1 1.677-.679Zm10.922-.012c.279-.312.582-.612.906-.894-1.499 1.839-2.702 3.921-3.605 6.124l-.03-.074c.05-.192.102-.383.157-.574.58-1.67 1.438-3.236 2.572-4.582Zm8.972 1.228c-.017.14-.039.279-.062.417l-.014-.111.025-.092.05-.214ZM14.367 30.316c.045-.584.11-1.166.166-1.75a.204.204 0 0 0 .155-.154 73.93 73.93 0 0 1 .386-1.596c.25.006.377-.195.466-.43a.431.431 0 0 0 .052.034l-.14.67c-.17.526-.407 1.037-.468 1.598-.017.11.068.222.174.252.023.007.044.01.065.01-.29.452-.576.907-.857 1.366ZM4.642 6.126c.2-.042.404-.075.609-.1a5.693 5.693 0 0 0-.302.203.561.561 0 0 0-.307-.102Zm2.285 2.22c.55.457.704 1.194.988 1.815-.27-.343-.431-.762-.74-1.074-.143-.14-.403-.15-.452.071l-.038-.061-.151-.244c.083-.207.256-.331.393-.506Zm.258-2.008c.152.007.304.024.453.06a.234.234 0 0 0 .017.114c.028.069.057.137.084.207a4.726 4.726 0 0 1-.144-.046A3.852 3.852 0 0 0 7.37 6.6a.992.992 0 0 0-.184-.262Zm.678 2.107c.148.28.334.543.326.868l.019.213-.27-.566c-.182-.359-.323-.734-.466-1.108.168.173.283.38.39.593ZM7.68 7.173a2.5 2.5 0 0 0 .207.051c.034.157.062.317.087.477l-.121-.221a15.863 15.863 0 0 0-.173-.307Zm1.031-.349c.45.265.867.585 1.26.93.083.12.118.274.186.405-.304-.254-.693-.06-.922.182l-.295-.47c-.099-.156-.189-.319-.284-.478-.044-.076-.09-.151-.136-.227a.383.383 0 0 0 .191-.342Zm1.328-.214.072.056c.588.722 1.091 1.505 1.593 2.288a11.49 11.49 0 0 0-1.333-1.446c-.114-.27-.212-.548-.309-.826l.01.028c-.012-.033-.022-.067-.033-.1Zm14.394-4.69c.075.147.11.32.122.51a3.143 3.143 0 0 0-.387-.051c.09-.147.22-.291.265-.459Zm-.443-.298c-.164.136-.291.31-.423.476a3.214 3.214 0 0 0-.286-.29c.234-.127.476-.207.709-.186Zm.55 1.272c-.01.09-.022.182-.036.273a4.707 4.707 0 0 0-.34-.328c.135.01.26.03.376.055Zm1.08 4.818c.004.148.005.296.005.444-.065.21-.134.42-.204.628a.236.236 0 0 0-.171-.035c.127-.344.252-.69.37-1.037Zm-10 17.32c.132-.498.268-.996.404-1.493.077-.229.155-.457.237-.684-.03.226-.063.453-.1.678l-.162.429c-.126.332-.24.669-.349 1.007l-.03.064ZM14.191 26.2c.03-.46.062-.922.1-1.382l-.037.989-.063.393Zm-.292-2.28a65.88 65.88 0 0 0-.024-.42l.048.074.003.003c-.01.114-.018.229-.027.344ZM5.306 11.414l.101.26a7.562 7.562 0 0 0-.276-.211.221.221 0 0 0 .175-.05Zm.701-3.42c0 .078 0 .155-.003.233l-.002.043a.128.128 0 0 0-.02-.009c-.012-.005-.026-.008-.04-.012a2.33 2.33 0 0 1 .065-.255Zm.558-1.4c-.05.02-.102.04-.153.066-.005-.032-.012-.064-.019-.096a1.15 1.15 0 0 0-.04-.152c.021-.004.042-.01.063-.013.051-.01.103-.018.155-.026a.227.227 0 0 0 0 .122l.024.088-.03.011Zm-.926 5.994c-.24.029-.225.27-.132.443a.225.225 0 0 0-.124.3c.24.568.494 1.13.741 1.695.84 1.88 1.685 3.757 2.516 5.641-.178-.306-.368-.606-.533-.92-1.066-1.938-2.122-3.891-2.883-5.967-.153-.425-.283-.863-.424-1.293.047-.22.039-.446.05-.671.307.208.57.472.79.772Zm3.43-2.841c.357.416.718.83 1.075 1.246l.017.489.014.363-.235-.455c-.285-.55-.58-1.097-.872-1.643Zm-.066 1.387c-.073-.147-.147-.292-.219-.439l.017-.064c.034.088.068.176.104.263l.098.24Zm.25-1.869a.135.135 0 0 1 .004-.01l.053.079-.058-.069Zm.242-.512c.088-.11.202-.224.344-.258.458.3.544.915.66 1.405a.233.233 0 0 0-.262.005c-.249-.382-.497-.767-.742-1.152Zm2.19 2.727.073.75-.148-.225.024-.28.036-.403.015.158Zm.319-1.307.09.144a.205.205 0 0 0-.064.045 7.146 7.146 0 0 0-.026-.19Zm-.24 3.562c.015.472.006.943.046 1.413a80.523 80.523 0 0 1-.187-.387l-.195-.406c.037-.54.082-1.079.123-1.618l.303.465.033.33a.223.223 0 0 0-.122.203Zm5.389-4.292c.211-.548.49-1.028.746-1.577.636-.827 1.275-1.653 1.915-2.477-1.058 1.684-2.02 3.423-2.948 5.184l.21-.812c.027-.106.05-.212.077-.318Zm1.843-3.758a4.84 4.84 0 0 0 .186-.447c.27-.364.595-.684.93-.988-.378.473-.743.958-1.116 1.435Zm-1.76 5.515-.019.043-.283.65c.017-.07.03-.14.035-.213l.267-.48Zm5.318-8.19c.02.178.004.35-.027.52-.29.41-.578.824-.862 1.24a15.24 15.24 0 0 0-.76.956c.053-.143.103-.287.149-.432.113-.21.209-.426.21-.67a.425.425 0 0 0-.01-.074 1.71 1.71 0 0 0 .179-.888.463.463 0 0 0 .426-.137c.167-.141.316-.328.494-.461l.201-.054Zm-5.867 19.101c-.008-.09-.087-.168-.172-.192-.01-.003-.023-.003-.035-.005.44-.971.886-1.94 1.323-2.911.059-.065.11-.135.155-.209-.133.507-.358.98-.541 1.47-.243.626-.487 1.251-.727 1.877l-.003-.03Zm-1.713-2.197-.008-.12a.25.25 0 0 0 .118-.063l-.11.183Zm-.467.745c-.001.004-.004.006-.006.01-.089.01-.16.076-.216.18.031-.146.065-.292.101-.436.044-.175.085-.352.127-.53.016.234.031.466.043.7l-.049.076Zm-3.02 3.256c.123-.47.054-.955-.054-1.428-.093-.453-.177-.908-.265-1.362-.14-.725-.283-1.448-.424-2.173.076.222.148.446.223.67a.249.249 0 0 0 .17.163c.124.276.252.551.392.82.05.64.107 1.28.161 1.919.084 1.033.186 2.065.283 3.097l-.186-.305-.389-1.247a.235.235 0 0 0 .09-.154Zm-2.772-1.04-.065-.08a41.703 41.703 0 0 1-.902-1.629l-.358-.873c.09.085.176.175.265.257.276.283.527.586.773.895.45.51.802 1.08 1.146 1.662.188.33.424.637.567.989.214.503.426 1.007.624 1.516a30.167 30.167 0 0 0-2.05-2.736ZM4.41 11.516a1.035 1.035 0 0 0-.05.076 7.267 7.267 0 0 1 0-.235c.01-.392.021-.777.054-1.17l.021-.01c0 .446-.004.894-.025 1.34Zm.476-2.253c.048-.03.094-.093.158-.074.071.15.07.327.065.492-.022-.05-.045-.1-.069-.148a1.725 1.725 0 0 0-.14-.252c-.005-.006-.01-.011-.014-.018Zm-.79-.14a.63.63 0 0 1 .067.022.378.378 0 0 0-.053.081 1.022 1.022 0 0 0-.073.203 1.31 1.31 0 0 1 .059-.305Zm.703-1.614.077-.145c.065-.125.131-.25.179-.384l.045-.03a5.13 5.13 0 0 1 .157-.098c-.143.326-.278.656-.418.983a2.356 2.356 0 0 0-.04-.326Zm-.544 1.19.037-.098a.462.462 0 0 1 .017.116c-.017-.007-.036-.012-.054-.018Zm-1.196.916c-.021.356-.039.713-.038 1.07.003.25.016.5.035.75-.114-.272-.228-.546-.34-.82.062-.334.157-.704.343-1Zm.292 3.768c.181.698.453 2.426.921 2.86a.22.22 0 0 0 .275.005 166.787 166.787 0 0 0 1.521 3.462 31.376 31.376 0 0 1-1.487-1.93c-1.029-2.126-1.861-4.38-1.93-6.13.231.578.465 1.155.7 1.731Zm5.616 5.139.261 1.142c-.374-.778-.722-1.568-1.078-2.354-.226-.571-.45-1.143-.677-1.715.503.973 1.033 1.934 1.494 2.927Zm-.234-3.528c.417.77.826 1.544 1.237 2.317.248 1.325.508 2.65.766 3.973-.174-.42-.359-.835-.546-1.25-.112-.219-.16-.462-.233-.694-.42-1.445-.818-2.897-1.224-4.346Zm1.896 8.48c.057.084.12.164.186.24l.088.285-.188-.263c-.05-.077-.056-.176-.086-.261Zm1.867-8.614c-.02-.167-.044-.334-.06-.502l-.03-.309c.087.4.096.82.147 1.229-.023-.14-.04-.279-.057-.418Zm1.285 1.25-.068.28c-.152.689-.311 1.377-.466 2.067-.043-.716-.089-1.432-.133-2.147.02-.346.138-.686.088-1.042.164.237.332.471.486.715.028.042.06.085.093.127Zm-.909 3.815-.245-.665c-.028-.33-.074-.659-.095-.989.065.236.143.481.286.684l.016.277.038.693Zm.419-5.339-.195-.3-.043-.296a73 73 0 0 1 .226.431l.012.165Zm1.776 4.617c-.09-.633.161-1.242.291-1.846.127-.491.25-.979.495-1.423l.219-.468a.241.241 0 0 0 .056.049 7.957 7.957 0 0 0-.452 2.757l-.008.014c-.183.313-.317.678-.6.917Zm2.015-4.805c.768-1.368 1.639-2.672 2.507-3.975l-.016.025.324-.457c.078.03.17.022.236-.043-1.263 2.186-2.41 4.44-3.583 6.675l-.37.7c.122-1.017.46-2.005.902-2.925Zm6.103-6.696c.043-.077.086-.154.133-.228a4.157 4.157 0 0 1-.172.601.386.386 0 0 0 .002-.032.244.244 0 0 0-.059-.181c.033-.053.065-.106.096-.16ZM21.76 11.2a.22.22 0 0 0-.037-.159c.22-.517.44-1.033.658-1.551a18.354 18.354 0 0 1-.621 1.71Zm.647-4.942-.1.132a7.99 7.99 0 0 0-.181.113c.176-.357.357-.711.54-1.064-.08.275-.167.548-.259.82Zm-.463 1.388-.005.02a.236.236 0 0 0 .11.257.257.257 0 0 0 .1.026c-.06.147-.121.294-.173.44l-.175.425a.608.608 0 0 0-.017-.094c.053-.155.1-.312.15-.468.045-.139-.086-.296-.228-.291l.238-.315ZM18.34 19.179a.618.618 0 0 0 .129-.11c-.207.573-.412 1.144-.62 1.716l-.49.902c.328-.836.66-1.67.981-2.508Zm4.834-15.246a4.79 4.79 0 0 1 .255-.175c.095-.05.26-.191.392-.122l-.026-.013c.018.006.027.014.046.024l.001.006c-.019.459-.213.874-.421 1.28a8.354 8.354 0 0 1-.235.302 5.76 5.76 0 0 0 .054-.469.241.241 0 0 0-.172-.252.539.539 0 0 0-.226-.036c.11-.182.22-.364.332-.545Zm.485-.77.028-.043a.772.772 0 0 0 .02-.034c.015.024.028.05.041.073-.03 0-.06 0-.089.004Zm-2.38 4.143-.007.01a.136.136 0 0 1 .007-.014v.004Zm-1.847 1.762c.169-.247.305-.525.473-.762a83.348 83.348 0 0 1 1.77-2.724 87.54 87.54 0 0 0-1.487 2.842c-.13.298-.314.596-.4.915-.49.69-.971 1.386-1.43 2.097.356-.79.717-1.578 1.074-2.368Zm-2.472 8.389c-.237.6-.471 1.203-.701 1.805a3.65 3.65 0 0 1-.089-.456l.79-1.35Zm1.784-3.085a182.642 182.642 0 0 0 2.241-4.003c-.118.482-.257.953-.479 1.394-.492 1.116-.982 2.233-1.475 3.348-.584 1.174-1.153 2.36-1.605 3.594l-.446.988a.235.235 0 0 0-.12-.082c-.269-.065-.32.266-.385.451-.202.692-.401 1.386-.6 2.079-.233.519-.467 1.038-.697 1.559a103.879 103.879 0 0 1 3.566-9.328Zm-3.792 10.995-.121.425.03-.287c.032-.042.062-.089.09-.138Zm2.005-1.94a90.14 90.14 0 0 0-.421 1.272l-.171.26c.039-.209.08-.417.12-.626.154-.304.31-.607.472-.907Zm6.714-16.512a.435.435 0 0 0-.219-.079c.142-.27.284-.54.427-.808l-.208.887Zm-8.852 7.703c.07-.245.17-.48.276-.714l.023.056a4.43 4.43 0 0 1-.299.658Zm-.616-.823c0 .11-.006.253.064.346l-.067.259c-.09-.361-.191-.72-.301-1.074l.01.003a.222.222 0 0 0 .208-.083c.03-.04.058-.08.085-.12.01.216.01.439.001.67Zm-.9-.835a14.79 14.79 0 0 0-.03.477l-.35-.671c-.106-.159-.107-.396-.144-.583.133.193.213.463.448.554l.077.223Zm-1.957 5.343c.014.256.04.508.063.764-.096-.185-.192-.37-.29-.554-.113-.238-.16-.502-.246-.75.09.112.18.221.277.326.042.09.09.19.196.214Zm.024-3.025.053.113c.021.042.04.086.059.13l-.018-.034c-.028-.07-.082-.137-.094-.209Zm-.545.437a48.406 48.406 0 0 1-.168-.292c-.39-.656-.62-1.388-.932-2.082-.029-.162-.06-.326-.064-.492l.013-.013c.295.519.492 1.085.71 1.637.031.198.056.404.14.59.114.214.287.4.3.652Zm.282-4.876c-.04-.315-.086-.63-.147-.942l.316.633c-.018.285-.05.569-.073.853-.094-.158-.054-.366-.096-.544Zm.281-1.096-.022-.046-.469-1.01.027.03c.232.266.45.543.658.828-.08.047-.16.107-.194.198ZM8.374 14.62a.226.226 0 0 0-.148.131c-.12-.3-.242-.6-.366-.897l-.32-.772c.348.513.732 1.003 1.003 1.561a.22.22 0 0 0-.17-.023Zm-.244 1.258a33.928 33.928 0 0 0-1.326-2.371c-.35-.832-.499-1.745-.689-2.623.745 1.636 1.313 3.341 2.015 4.994Zm-.403 4.115c-.189-.188-.4-.356-.645-.451a417.242 417.242 0 0 0-1.526-3.64c-.23-.562-.488-1.114-.735-1.67-.22-.417-.332-.946-.74-1.232a.25.25 0 0 0-.28-.044 16.526 16.526 0 0 1-.242-2.415.195.195 0 0 0 .13-.081c.026-.038.05-.074.072-.114a.244.244 0 0 0 .18.018c-.026.652-.083 1.311.027 1.963.03.15.092.294.146.438.035.155.216.251.353.165.76 2.482 2.009 4.788 3.26 7.063Zm-2.844-8.716-.005-.005c.005-.166.007-.332.01-.5l.004-.416.107.274c-.011.225-.106.474-.052.695l-.064-.048Zm.545-2.327a.433.433 0 0 0-.271-.2.605.605 0 0 0-.19-.022c.321-.713.556-1.477.966-2.142.035.15.054.3.06.453a2.608 2.608 0 0 0-.472.977c-.083.31-.04.622-.093.934Zm1.358 12.32a.73.73 0 0 0 .017.037l-.047-.073.03.036Zm2.967 4.234-.167-.202-.18-.36.347.562Zm2.582 2.733a.236.236 0 0 0 .08.033l.02.154-.1-.187Zm-1.522-2.553c.097.1.281.1.355-.024.15.226.299.452.46.67l.348 1.084c.046.156.102.309.161.46a32.39 32.39 0 0 0-1.324-2.19Zm3.2-3.649c.016-.005.03-.013.046-.022-.024.316-.036.6-.064.732l-.053-.112a.94.94 0 0 1-.07-.135 5.07 5.07 0 0 0 .14-.463Zm1.367-1.89c.15-.25.297-.499.444-.749.02.072.042.144.067.215a.251.251 0 0 0 .175.164c-.233.617-.46 1.236-.681 1.857l-.021.061.02-.134c.019-.201-.187-.3-.329-.24l-.032-.599c.123-.188.243-.38.357-.575Zm3.183 1.252a.224.224 0 0 0-.063-.005c.225-.5.45-1 .667-1.502a.201.201 0 0 0 .111-.076c.445-.553.748-1.195 1.067-1.825l.985-1.94c-.195.425-.417.845-.522 1.306-.453.855-.924 1.7-1.39 2.546-.284.5-.568.999-.855 1.496Zm2.044-4.947c-.348.652-.655 1.33-1.005 1.981a.232.232 0 0 0-.067-.056c.686-1.749 1.4-3.487 2.042-5.252.32-.261.455-.673.633-1.033.14-.283.272-.572.4-.862.052-.094.105-.186.158-.278.126.062.273-.012.318-.14.162-.304.253-.638.34-.972.352-.574.72-1.138 1.117-1.682-.154.79-.542 1.5-.876 2.22-.36.715-.714 1.435-1.07 2.153-.657 1.31-1.33 2.613-1.99 3.921Zm3.307-8.207-.105.143a6.39 6.39 0 0 1 .167-.48c.233-.59.477-1.175.701-1.769.063.494.088.99.077 1.486-.414-.108-.648.34-.84.62Zm1.068-3.016.01-.033a.218.218 0 0 0-.069-.223 8.94 8.94 0 0 0-.185-.642l.02-.09c.063.102.12.207.172.314.312.619.49 1.27.59 1.936-.1.36-.21.699-.305.986a10.19 10.19 0 0 0-.233-2.248ZM20.932 4.1a3.256 3.256 0 0 1-.082.213.234.234 0 0 0-.159-.03c.05-.06.1-.118.15-.175.04-.045.08-.09.125-.13l-.033.122Zm-1.796.409c-.082-.029-.18-.014-.236.05-.189.213-.386.419-.556.648-.383.508-.766 1.017-1.143 1.53a.626.626 0 0 0-.17.005c.437-.612.84-1.25 1.316-1.832.644-.803 1.37-1.547 2.204-2.154a28.907 28.907 0 0 0-1.415 1.753Zm-3.785 8.833v-.001l.02-.05-.02.051Zm-.53-1.238.015-.006-.007.023-.007-.017Zm-1.152-1.31c-.066.267-.124.533-.176.798-.037-.116-.076-.229-.114-.34-.197-.573-.422-1.139-.743-1.658-.3-.472-.592-.952-.896-1.425a12.714 12.714 0 0 1 1.88 2.51c.016.039.034.076.05.114ZM8.942 8.798c-.01.02-.019.042-.028.064l-.187-.221-.15-.178a2.053 2.053 0 0 1-.022-.16c.15.148.259.329.387.495Zm-1.08 3.107c.189.628.47 1.227.709 1.838-.373-.697-.775-1.38-1.175-2.062-.144-.267-.295-.543-.54-.734a.456.456 0 0 0-.175-.077c-.156-.438-.314-.878-.418-1.33a3.257 3.257 0 0 1-.016-.089l.045-.099a44.43 44.43 0 0 1 1.57 2.553ZM6.51 7.865a.918.918 0 0 0-.045.016V7.79a28.332 28.332 0 0 0-.01-.58.665.665 0 0 1 .2-.154c.05.155.096.31.149.463-.132.08-.221.212-.294.346Zm-2.88-.453.002-.03c.19-.205.385-.41.61-.576-.22.194-.425.397-.612.606Zm.106-.792.002-.05a.7.7 0 0 0-.01-.147c.128-.058.257-.11.39-.156.078-.024.157-.048.236-.07a2.36 2.36 0 0 0-.618.423Zm9.892 24.951-.047-.21a9.81 9.81 0 0 0-.53-1.643c-.15-1.225-.298-2.45-.432-3.678a.246.246 0 0 0 .137.101c.088.545.164 1.092.234 1.638.01.3.026.6.062.898.037.156.022.354.15.471.142.12.38.007.366-.178a13.102 13.102 0 0 0-.124-1.23 98.5 98.5 0 0 1-.042-3.045.254.254 0 0 0 .036-.126c.004-.152.01-.301.016-.452.076 1.36.158 2.72.191 4.08a.24.24 0 0 0 .226.23c-.034.306-.037.638.136.785a82.219 82.219 0 0 0-.175 2.003c-.07.118-.136.238-.204.356Zm3.553-6.853c.102-.215.203-.43.306-.644l.202-.322c1.22-1.945 2.333-3.959 3.423-5.981.29-.258.417-.656.592-.996.2-.411.405-.84.608-1.27l.96-1.847c-.491 1.24-1.083 2.437-1.663 3.635 0-.003.002-.006.003-.008-1.502 3.082-3.21 6.05-4.835 9.064a14.2 14.2 0 0 0 .294-.834c.08-.251.226-.53.11-.797Zm7.594-13.02c.246-.616.512-1.248.763-1.893-.055.502-.137.998-.242 1.488-.622 1.516-1.327 2.996-2.055 4.462-.93 1.853-1.91 3.687-3.065 5.406 1.625-3.106 3.23-6.229 4.599-9.464Zm.114-8.063c.038-.193.07-.388.093-.581.795.418.905 1.361.77 2.338a5.864 5.864 0 0 0-.863-1.757Zm.646-.746a1.729 1.729 0 0 0-.429-.282c-.03-.016-.062-.028-.094-.042 0-.305-.045-.588-.157-.824.044.025.087.05.13.077.212.363.426.726.593 1.111a.975.975 0 0 0-.043-.04Zm-2.6-.784-.069-.025.02-.014a.584.584 0 0 1 .048.039Zm-.296.383a.709.709 0 0 0-.33.054l.129-.11c.067.016.134.035.2.056Zm-1.074.125c-.053.1-.14.202-.204.31a6.205 6.205 0 0 0-.597.295c.257-.296.522-.583.794-.865.046-.004.094-.005.14-.006-.047.1-.088.2-.133.266ZM9.52 6.244c-.023.233.075.462.15.682-.746-.57-1.536-.974-2.352-1.198a3.93 3.93 0 0 1 1.445.069c.258.136.511.285.757.447Zm9.432 17.124c.102-.185.205-.37.306-.556a.235.235 0 0 0 .068.012l-.374.544Zm8.146-19.815c-.015-.033-.032-.065-.048-.097a5.07 5.07 0 0 0-1.735-1.964A7.839 7.839 0 0 0 25 1.03c1.11.518 1.875 1.294 2.096 2.523ZM23.65.657c.147.008.293.033.438.06.143.097.287.252.4.39A2.77 2.77 0 0 0 23.604 1a4.136 4.136 0 0 0-.736.101c.235-.185.496-.343.782-.444Zm-1.184 1.141a6.303 6.303 0 0 0-.168.136 3.454 3.454 0 0 0-.278-.03 1.35 1.35 0 0 1 .327-.155c.04.015.08.031.12.05Zm.095-1.045c-.102.08-.201.166-.298.254-.073.066-.146.133-.218.201a2.18 2.18 0 0 0-.799.06 5.92 5.92 0 0 1 1.315-.515Zm-1.287.99a7.914 7.914 0 0 0-.458.271 5.428 5.428 0 0 0-.159.042c.193-.128.397-.238.617-.314Zm-1.629.55c-.108.106-.214.214-.32.321a10.19 10.19 0 0 0-.232.13c-.024.013-.046.028-.068.041.203-.169.41-.333.62-.492ZM8.95 5.235c2.016.754 3.68 2.382 4.64 4.298.096.19.185.382.266.578 0 .005-.002.01-.004.013a20.268 20.268 0 0 0-.811-1.441c-1.094-1.727-2.548-2.931-4.125-3.314a9.002 9.002 0 0 0-.822-.377c.282.055.568.134.856.243Zm-5.524.64c.043-.156.101-.328.023-.486a.325.325 0 0 0-.05-.078 5.7 5.7 0 0 1 1.358-.297c-.473.23-.918.522-1.331.861ZM1.517 6.7a3.52 3.52 0 0 1 .609-.667c-.01.013-.018.026-.027.04-.52.817-.81 1.774-.877 2.75-.353.956-.44 2.017-.308 3.042a16.35 16.35 0 0 1-.142-1.108C.628 9.332.73 7.909 1.517 6.7ZM2.74 16.81a79.275 79.275 0 0 1-.506-1.122 26.34 26.34 0 0 0 2.342 4.002c.43.615.864 1.227 1.31 1.83-.096-.055-.189-.067-.272-.005a.226.226 0 0 0-.078.24c.183.477.511.889.758 1.337-1.437-1.946-2.528-4.107-3.554-6.283Zm4.34 6.719c.595.689 1.193 1.375 1.787 2.065.205.296.39 1.215.864 1.046.389.828.757 1.663 1.206 2.463l.133.231a23.195 23.195 0 0 0-1.383-1.816c-.9-1.31-1.815-2.612-2.607-3.99Zm9.476 4.213.136-.206-.21.347.074-.141Z"/>
</svg>
