<svg width="286" height="77" viewBox="0 0 286 77" fill="none" xmlns="http://www.w3.org/2000/svg">
<path d="M35.6358 13.3379C35.6358 15.8864 35.1144 18.0483 34.0754 19.8275C33.0436 21.5994 31.7019 23.0614 30.0504 24.2171C28.3952 25.3655 26.6306 26.2806 24.7566 26.9587C22.8899 27.6296 21.0962 28.1546 19.3754 28.5338C17.6618 28.9129 16.2327 29.2046 15.0879 29.4088V38.7275C15.0879 39.7192 15.4415 40.565 16.1524 41.265C16.8707 41.9577 17.7274 42.3004 18.7191 42.3004V42.665H0.985779V42.3004C1.97745 42.3004 2.82328 41.9577 3.52328 41.265C4.22328 40.565 4.57328 39.7192 4.57328 38.7275V4.79208C4.57328 3.80042 4.22328 2.95458 3.52328 2.25458C2.82328 1.55458 1.97745 1.20458 0.985779 1.20458V0.854584H23.7358C25.9306 0.854584 27.9248 1.41604 29.7149 2.53167C31.5014 3.64 32.9379 5.14208 34.017 7.03792C35.0962 8.92646 35.6358 11.0265 35.6358 13.3379ZM17.6545 1.20458H15.0879V28.8108C18.5077 27.2942 20.9248 25.216 22.3358 22.5692C23.754 19.915 24.4649 16.8379 24.4649 13.3379C24.4649 11.103 24.1514 9.07229 23.5316 7.24208C22.9191 5.41552 22.1024 3.95354 21.0816 2.8525C20.0681 1.7551 18.9269 1.20458 17.6545 1.20458Z" fill="#403528"/>
<path d="M37.9517 39.3838V18.1213C37.9517 17.3629 37.7111 16.7176 37.2371 16.1817C36.7595 15.6384 36.1798 15.3067 35.5017 15.19V14.8254L45.7246 13.3379C45.7611 13.3379 45.7903 13.3379 45.8121 13.3379C45.8304 13.3379 45.8595 13.3379 45.8996 13.3379C46.5778 13.3379 46.9205 13.6733 46.9205 14.3442V39.3838C46.9205 40.0947 47.1574 40.7327 47.635 41.2942C48.109 41.8483 48.6887 42.1838 49.3705 42.3004V42.665H35.5017V42.3004C36.1798 42.1838 36.7595 41.8483 37.2371 41.2942C37.7111 40.7327 37.9517 40.0947 37.9517 39.3838ZM47.0955 5.50667C47.0955 6.7426 46.6361 7.82177 45.7246 8.74417C44.8095 9.65927 43.7158 10.115 42.4434 10.115C41.16 10.115 40.0699 9.65927 39.1767 8.74417C38.2798 7.82177 37.835 6.7426 37.835 5.50667C37.835 4.23427 38.2798 3.14052 39.1767 2.22542C40.0699 1.31396 41.16 0.854584 42.4434 0.854584C43.7158 0.854584 44.8095 1.31396 45.7246 2.22542C46.6361 3.14052 47.0955 4.23427 47.0955 5.50667Z" fill="#403528"/>
<path d="M68.0012 21.8838C68.5152 22.2848 69.0512 23.0614 69.6053 24.2171C70.1668 25.3655 70.7355 26.7254 71.3116 28.3004C71.8949 29.8754 72.4928 31.4796 73.1053 33.1129C73.7251 34.7463 74.3741 36.2702 75.0449 37.6775C75.723 39.0884 76.4449 40.1931 77.2032 40.9879C77.998 41.8629 78.9532 42.3004 80.0616 42.3004V42.665H69.197C68.7194 42.665 68.2819 42.4864 67.8845 42.1254C67.4834 41.7681 67.0678 41.1483 66.6303 40.2733C66.1126 39.2051 65.584 37.9473 65.0407 36.4963C64.5048 35.0379 63.9652 33.5869 63.422 32.1358C62.886 30.6775 62.361 29.3905 61.847 28.2712C61.3293 27.1556 60.8334 26.3973 60.3595 25.9963C60.3595 26.2405 60.3595 26.9405 60.3595 28.0963C60.3595 29.2447 60.3595 30.5754 60.3595 32.0921C60.3595 33.6087 60.3595 35.0343 60.3595 36.365C60.3595 37.6994 60.3595 38.7056 60.3595 39.3838C60.3595 40.0947 60.5965 40.7327 61.0741 41.2942C61.548 41.8483 62.1277 42.1838 62.8095 42.3004V42.665H48.9407V42.3004C49.6189 42.1838 50.1985 41.8483 50.6762 41.2942C51.1501 40.7327 51.3907 40.0947 51.3907 39.3838V5.62333C51.3907 4.91604 51.1501 4.28167 50.6762 3.7275C50.1985 3.16604 49.6189 2.82333 48.9407 2.70667V2.34208L59.1637 0.854584C59.2001 0.854584 59.2293 0.854584 59.2512 0.854584C59.2694 0.854584 59.2985 0.854584 59.3387 0.854584C60.0168 0.854584 60.3595 1.21552 60.3595 1.93375C60.3595 7.22386 60.3595 11.8905 60.3595 15.9338C60.3595 19.9806 60.3595 23.2181 60.3595 25.6462C61.311 25.6462 62.3756 25.3072 63.5532 24.6254C64.7272 23.9473 65.8501 23.1671 66.922 22.2921C68.0012 21.4171 68.8543 20.6843 69.4887 20.09C70.2834 19.2952 70.6845 18.3765 70.6845 17.3337C70.6845 16.3822 70.3637 15.5619 69.722 14.8692C69.0876 14.1692 68.3147 13.7754 67.4032 13.6879V13.3379H80.0616C80.0616 13.3379 80.0616 13.378 80.0616 13.4546C80.0616 13.5348 80.0616 13.6114 80.0616 13.6879C78.6324 13.8155 77.236 14.3259 75.8762 15.2192C74.5235 16.116 73.2001 17.1697 71.9095 18.3838C70.6152 19.6015 69.3137 20.7681 68.0012 21.8838Z" fill="#403528"/>
<path d="M102.771 34.6004C102.887 36.1572 102.424 37.5718 101.385 38.8442C100.354 40.1202 98.9572 41.1265 97.1999 41.8629C95.4499 42.5921 93.5395 42.9567 91.4687 42.9567C89.4452 42.9567 87.5822 42.6213 85.8833 41.9504C84.1916 41.2723 82.8244 40.3463 81.7853 39.1796C80.7536 38.0056 80.2395 36.6785 80.2395 35.1983C80.2395 33.9259 80.6952 32.8431 81.6103 31.9463C82.5327 31.053 83.6119 30.6046 84.8478 30.6046C86.1202 30.6046 87.214 31.053 88.1291 31.9463C89.0405 32.8431 89.4999 33.9259 89.4999 35.1983C89.4999 36.2775 89.2702 37.1051 88.8145 37.6775C88.3551 38.2535 87.8885 38.7275 87.4145 39.1067C86.9369 39.4858 86.6999 39.9343 86.6999 40.4483C86.6999 40.8968 86.9187 41.3197 87.3562 41.7171C87.7937 42.1072 88.3077 42.3442 88.902 42.4317C89.2994 42.4718 89.6786 42.5119 90.0395 42.5483C90.3968 42.5884 90.8744 42.6067 91.4687 42.6067C92.5478 42.6067 93.4666 42.2275 94.2249 41.4692C94.9833 40.7108 95.3624 39.7994 95.3624 38.7275C95.3624 37.7285 94.9905 36.7588 94.2541 35.8254C93.514 34.8921 92.577 33.9588 91.4395 33.0254C90.3093 32.0848 89.0952 31.115 87.7937 30.1233C86.4994 29.1244 85.2853 28.0963 84.1478 27.0463C83.0176 25.989 82.0843 24.8515 81.3478 23.6338C80.6077 22.4197 80.2395 21.1181 80.2395 19.7254C80.2395 18.1322 80.7791 16.8197 81.8583 15.7879C82.9374 14.7489 84.2499 13.9796 85.7958 13.4838C87.3489 12.9879 88.8655 12.74 90.3458 12.74C91.7749 12.74 92.9744 12.8822 93.9478 13.1629C94.9286 13.4364 95.8036 13.6952 96.5728 13.9358C97.3494 14.1692 98.1624 14.2676 99.0083 14.2275C99.3181 14.191 99.6062 14.1108 99.8687 13.9942C100.131 13.8775 100.339 13.739 100.496 13.5713H100.787V23.2546C100.787 23.2546 100.758 23.2546 100.7 23.2546C100.642 23.2546 100.572 23.2546 100.496 23.2546C100.251 22.0588 99.8541 20.728 99.2999 19.2588C98.7458 17.7822 97.9181 16.466 96.8208 15.3067C95.7197 14.1509 94.1994 13.4546 92.2562 13.2213C91.2135 13.0572 90.3166 13.2577 89.5583 13.8192C88.8072 14.3733 88.3916 15.2884 88.3041 16.5608C88.2239 17.8369 88.6322 19.0108 89.5291 20.09C90.4223 21.1619 91.5635 22.2265 92.9562 23.2838C94.3562 24.3338 95.778 25.4202 97.2291 26.5358C98.6874 27.6551 99.9306 28.8692 100.962 30.1817C102.001 31.4942 102.603 32.9671 102.771 34.6004Z" fill="#403528"/>
<path d="M141.763 21.5775C143.87 21.6577 145.774 22.1864 147.465 23.1671C149.164 24.1405 150.52 25.4056 151.534 26.9587C152.544 28.5046 153.051 30.2364 153.051 32.1504C153.051 34.1046 152.511 35.8692 151.432 37.4442C150.36 39.0119 148.931 40.2733 147.144 41.2358C145.354 42.191 143.36 42.665 141.165 42.665H116.621V42.3004C117.613 42.3004 118.459 41.9577 119.159 41.265C119.859 40.565 120.209 39.7192 120.209 38.7275V4.79208C120.209 3.80042 119.859 2.95458 119.159 2.25458C118.459 1.55458 117.613 1.20458 116.621 1.20458V0.854584H139.08C141.034 0.854584 142.791 1.33219 144.359 2.28375C145.934 3.23896 147.188 4.51135 148.121 6.10458C149.062 7.70146 149.536 9.47333 149.536 11.4275C149.536 13.8593 148.796 16.014 147.319 17.8879C145.85 19.7546 143.998 20.9869 141.763 21.5775ZM130.724 1.20458V21.5775H132.926C134.041 21.5775 135.058 21.1218 135.974 20.2067C136.885 19.2952 137.611 18.0702 138.146 16.5317C138.69 14.9968 138.963 13.2942 138.963 11.4275C138.963 9.51344 138.69 7.7926 138.146 6.265C137.611 4.7301 136.885 3.5051 135.974 2.59C135.058 1.6676 134.041 1.20458 132.926 1.20458H130.724ZM134.121 42.3004C135.394 42.3004 136.557 41.8447 137.607 40.9296C138.664 40.0181 139.503 38.7858 140.115 37.24C140.735 35.6869 141.049 33.9697 141.049 32.0921C141.049 30.2181 140.735 28.5155 140.115 26.9879C139.503 25.453 138.664 24.228 137.607 23.3129C136.557 22.4015 135.394 21.9421 134.121 21.9421H130.724V42.3004H134.121Z" fill="#403528"/>
<path d="M175.927 13.3379H187.287V13.6879C186.208 13.8155 185.129 14.2093 184.049 14.8692C182.978 15.5218 182.008 16.3129 181.133 17.2463C180.258 18.1796 179.576 19.1494 179.091 20.1483L166.433 46.6608C165.879 47.8931 165.631 49.1473 165.689 50.4233C165.747 51.7067 166.09 52.8515 166.724 53.865C167.366 54.8749 168.227 55.6624 169.306 56.2275C170.101 56.5848 170.957 56.7671 171.872 56.7671C172.551 56.7671 172.893 56.4062 172.893 55.6879C172.893 55.1702 172.66 54.6817 172.193 54.215C171.734 53.7556 171.267 53.2306 170.793 52.64C170.316 52.0457 170.079 51.2874 170.079 50.365C170.079 49.089 170.534 47.9952 171.449 47.0838C172.361 46.1686 173.436 45.7129 174.672 45.7129C175.945 45.7129 177.039 46.1686 177.954 47.0838C178.876 47.9952 179.339 49.089 179.339 50.365C179.339 51.4806 179.018 52.527 178.377 53.5004C177.742 54.4811 176.907 55.2869 175.868 55.9213C174.836 56.5629 173.724 56.9494 172.529 57.0879C171.333 57.2338 170.195 57.0442 169.116 56.5192C167.968 55.965 167.064 55.1374 166.404 54.04C165.751 52.9499 165.39 51.7431 165.324 50.4233C165.266 49.1108 165.536 47.8166 166.141 46.5442L167.993 42.665L155.262 15.9629C154.989 15.4088 154.569 14.9056 154.008 14.4463C153.454 13.9905 152.892 13.739 152.331 13.6879V13.3379H162.554C163.582 13.3379 164.296 13.739 164.697 14.5338L173.068 32.0338L179.091 19.3754C179.332 18.814 179.456 18.2343 179.456 17.64C179.456 16.6009 179.113 15.7077 178.435 14.9567C177.764 14.1983 176.926 13.7754 175.927 13.6879V13.3379Z" fill="#403528"/>
<path d="M232.858 4.50042C233.332 5.45563 233.63 6.5275 233.747 7.72333C233.871 8.91917 233.937 10.0129 233.937 11.0046C233.937 14.3515 233.547 17.589 232.77 20.7171C231.99 23.8379 230.903 26.7364 229.503 29.4088C228.111 32.0739 226.507 34.3926 224.691 36.365C222.883 38.341 220.932 39.8869 218.843 41.0025C216.75 42.1108 214.632 42.665 212.485 42.665C209.655 42.665 207.344 41.6952 205.558 39.7483C203.767 37.7942 202.874 34.8848 202.874 31.0129V4.79208C202.874 3.80042 202.524 2.95458 201.824 2.25458C201.124 1.55458 200.278 1.20458 199.287 1.20458V0.854584H212.31C213.028 0.854584 213.389 1.23375 213.389 1.99208V38.6692C213.389 39.4202 213.673 40.0838 214.249 40.6671C214.822 41.2431 215.489 41.5275 216.247 41.5275C216.568 41.5275 216.925 41.4509 217.326 41.2942C220.914 39.8176 224.115 37.0285 226.937 32.9233C228.453 30.7358 229.726 28.3405 230.758 25.7338C231.797 23.1197 232.537 20.4218 232.974 17.64C233.215 16.291 233.197 15.1864 232.916 14.3296C232.632 13.4655 231.939 13.0317 230.83 13.0317C230.149 13.0317 229.562 13.1338 229.066 13.3379C228.57 13.5348 227.921 13.6296 227.126 13.6296C225.365 13.6296 223.86 13.0025 222.605 11.7483C221.351 10.4942 220.724 8.99208 220.724 7.24208C220.724 5.49208 221.351 3.99 222.605 2.73583C223.86 1.48167 225.365 0.854584 227.126 0.854584C228.399 0.854584 229.54 1.19729 230.553 1.87542C231.574 2.54625 232.34 3.42125 232.858 4.50042Z" fill="#8B7D6B"/>
<path d="M236.253 39.3838V18.1213C236.253 17.3629 236.012 16.7176 235.538 16.1817C235.06 15.6384 234.481 15.3067 233.803 15.19V14.8254L244.026 13.3379C244.062 13.3379 244.091 13.3379 244.113 13.3379C244.131 13.3379 244.16 13.3379 244.201 13.3379C244.879 13.3379 245.221 13.6733 245.221 14.3442V39.3838C245.221 40.0947 245.458 40.7327 245.936 41.2942C246.41 41.8483 246.99 42.1838 247.671 42.3004V42.665H233.803V42.3004C234.481 42.1838 235.06 41.8483 235.538 41.2942C236.012 40.7327 236.253 40.0947 236.253 39.3838ZM245.396 5.50667C245.396 6.7426 244.937 7.82177 244.026 8.74417C243.11 9.65927 242.017 10.115 240.744 10.115C239.461 10.115 238.371 9.65927 237.478 8.74417C236.581 7.82177 236.136 6.7426 236.136 5.50667C236.136 4.23427 236.581 3.14052 237.478 2.22542C238.371 1.31396 239.461 0.854584 240.744 0.854584C242.017 0.854584 243.11 1.31396 244.026 2.22542C244.937 3.14052 245.396 4.23427 245.396 5.50667Z" fill="#8B7D6B"/>
<path d="M266.302 21.8838C266.816 22.2848 267.352 23.0614 267.906 24.2171C268.468 25.3655 269.036 26.7254 269.612 28.3004C270.196 29.8754 270.794 31.4796 271.406 33.1129C272.026 34.7463 272.675 36.2702 273.346 37.6775C274.024 39.0884 274.746 40.1931 275.504 40.9879C276.299 41.8629 277.254 42.3004 278.362 42.3004V42.665H267.498C267.02 42.665 266.583 42.4864 266.185 42.1254C265.784 41.7681 265.369 41.1483 264.931 40.2733C264.414 39.2051 263.885 37.9473 263.342 36.4963C262.806 35.0379 262.266 33.5869 261.723 32.1358C261.187 30.6775 260.662 29.3905 260.148 28.2712C259.63 27.1556 259.134 26.3973 258.66 25.9963C258.66 26.2405 258.66 26.9405 258.66 28.0963C258.66 29.2447 258.66 30.5754 258.66 32.0921C258.66 33.6087 258.66 35.0343 258.66 36.365C258.66 37.6994 258.66 38.7056 258.66 39.3838C258.66 40.0947 258.897 40.7327 259.375 41.2942C259.849 41.8483 260.429 42.1838 261.11 42.3004V42.665H247.242V42.3004C247.92 42.1838 248.499 41.8483 248.977 41.2942C249.451 40.7327 249.692 40.0947 249.692 39.3838V5.62333C249.692 4.91604 249.451 4.28167 248.977 3.7275C248.499 3.16604 247.92 2.82333 247.242 2.70667V2.34208L257.465 0.854584C257.501 0.854584 257.53 0.854584 257.552 0.854584C257.57 0.854584 257.599 0.854584 257.64 0.854584C258.318 0.854584 258.66 1.21552 258.66 1.93375C258.66 7.22386 258.66 11.8905 258.66 15.9338C258.66 19.9806 258.66 23.2181 258.66 25.6462C259.612 25.6462 260.677 25.3072 261.854 24.6254C263.028 23.9473 264.151 23.1671 265.223 22.2921C266.302 21.4171 267.155 20.6843 267.79 20.09C268.584 19.2952 268.985 18.3765 268.985 17.3337C268.985 16.3822 268.665 15.5619 268.023 14.8692C267.389 14.1692 266.616 13.7754 265.704 13.6879V13.3379H278.362C278.362 13.3379 278.362 13.378 278.362 13.4546C278.362 13.5348 278.362 13.6114 278.362 13.6879C276.933 13.8155 275.537 14.3259 274.177 15.2192C272.824 16.116 271.501 17.1697 270.21 18.3838C268.916 19.6015 267.615 20.7681 266.302 21.8838Z" fill="#8B7D6B"/>
<path d="M282.245 42.9567C281.213 42.9567 280.338 42.603 279.62 41.8921C278.898 41.1739 278.54 40.2989 278.54 39.2671C278.54 38.228 278.898 37.3384 279.62 36.5983C280.338 35.8619 281.213 35.49 282.245 35.49C283.284 35.49 284.17 35.8619 284.899 36.5983C285.635 37.3384 286.007 38.228 286.007 39.2671C286.007 40.2989 285.635 41.1739 284.899 41.8921C284.17 42.603 283.284 42.9567 282.245 42.9567Z" fill="#8B7D6B"/>
<path d="M5.77618 66.8413C6.58191 66.8413 7.28191 66.9798 7.87618 67.2496C8.47774 67.5121 8.94076 67.8913 9.26159 68.3871C9.58243 68.8829 9.74284 69.4735 9.74284 70.1517C9.74284 70.8225 9.58243 71.4131 9.26159 71.9163C8.94076 72.4121 8.47774 72.7985 7.87618 73.0683C7.28191 73.3308 6.58191 73.4621 5.77618 73.4621H3.93868V75.985H1.80951V66.8413H5.77618ZM5.65951 71.7413C6.29024 71.7413 6.77149 71.6064 7.10326 71.3329C7.43139 71.0522 7.59909 70.6584 7.59909 70.1517C7.59909 69.6485 7.43139 69.2584 7.10326 68.985C6.77149 68.7043 6.29024 68.5621 5.65951 68.5621H3.93868V71.7413H5.65951Z" fill="#403528"/>
<path d="M24.7605 66.8413V75.985H22.6313V72.2371H18.4896V75.985H16.3605V66.8413H18.4896V70.4433H22.6313V66.8413H24.7605Z" fill="#403528"/>
<path d="M36.3372 76.1454C35.382 76.1454 34.5289 75.9413 33.7706 75.5329C33.0122 75.1246 32.4143 74.5631 31.9768 73.8413C31.5466 73.123 31.3351 72.31 31.3351 71.4058C31.3351 70.5126 31.5466 69.7069 31.9768 68.985C32.4143 68.2668 33.0122 67.7017 33.7706 67.2933C34.5289 66.885 35.382 66.6808 36.3372 66.6808C37.2888 66.6808 38.1456 66.885 38.9039 67.2933C39.6622 67.7017 40.2529 68.2668 40.6831 68.985C41.1206 69.7069 41.3393 70.5126 41.3393 71.4058C41.3393 72.31 41.1206 73.123 40.6831 73.8413C40.2529 74.5631 39.6622 75.1246 38.9039 75.5329C38.1456 75.9413 37.2888 76.1454 36.3372 76.1454ZM36.3372 74.3371C36.8805 74.3371 37.3654 74.2168 37.7956 73.9725C38.2331 73.721 38.5721 73.3746 38.8164 72.9371C39.068 72.4923 39.1956 71.9819 39.1956 71.4058C39.1956 70.8444 39.068 70.3413 38.8164 69.9038C38.5721 69.459 38.2331 69.1126 37.7956 68.8683C37.3654 68.6168 36.8805 68.4892 36.3372 68.4892C35.8013 68.4892 35.3164 68.6168 34.8789 68.8683C34.4414 69.1126 34.095 69.459 33.8435 69.9038C33.5992 70.3413 33.4789 70.8444 33.4789 71.4058C33.4789 71.9819 33.5992 72.4923 33.8435 72.9371C34.095 73.3746 34.4414 73.721 34.8789 73.9725C35.3164 74.2168 35.8013 74.3371 36.3372 74.3371Z" fill="#403528"/>
<path d="M49.8133 68.5621H46.8967V66.8413H54.8592V68.5621H51.9279V75.985H49.8133V68.5621Z" fill="#403528"/>
<path d="M65.413 76.1454C64.4578 76.1454 63.6047 75.9413 62.8464 75.5329C62.088 75.1246 61.4901 74.5631 61.0526 73.8413C60.6224 73.123 60.4109 72.31 60.4109 71.4058C60.4109 70.5126 60.6224 69.7069 61.0526 68.985C61.4901 68.2668 62.088 67.7017 62.8464 67.2933C63.6047 66.885 64.4578 66.6808 65.413 66.6808C66.3646 66.6808 67.2214 66.885 67.9797 67.2933C68.738 67.7017 69.3287 68.2668 69.7589 68.985C70.1964 69.7069 70.4151 70.5126 70.4151 71.4058C70.4151 72.31 70.1964 73.123 69.7589 73.8413C69.3287 74.5631 68.738 75.1246 67.9797 75.5329C67.2214 75.9413 66.3646 76.1454 65.413 76.1454ZM65.413 74.3371C65.9563 74.3371 66.4412 74.2168 66.8714 73.9725C67.3089 73.721 67.6479 73.3746 67.8922 72.9371C68.1438 72.4923 68.2714 71.9819 68.2714 71.4058C68.2714 70.8444 68.1438 70.3413 67.8922 69.9038C67.6479 69.459 67.3089 69.1126 66.8714 68.8683C66.4412 68.6168 65.9563 68.4892 65.413 68.4892C64.8771 68.4892 64.3922 68.6168 63.9547 68.8683C63.5172 69.1126 63.1708 69.459 62.9193 69.9038C62.675 70.3413 62.5547 70.8444 62.5547 71.4058C62.5547 71.9819 62.675 72.4923 62.9193 72.9371C63.1708 73.3746 63.5172 73.721 63.9547 73.9725C64.3922 74.2168 64.8771 74.3371 65.413 74.3371Z" fill="#403528"/>
<path d="M83.1766 71.2746H85.1162V74.9788C84.6204 75.3579 84.0407 75.6496 83.3808 75.8538C82.7282 76.047 82.072 76.1454 81.4121 76.1454C80.4678 76.1454 79.6183 75.9413 78.86 75.5329C78.1016 75.1246 77.5037 74.5668 77.0662 73.8558C76.636 73.1376 76.4246 72.321 76.4246 71.4058C76.4246 70.5017 76.636 69.6923 77.0662 68.9704C77.5037 68.2522 78.1016 67.6944 78.86 67.2933C79.6256 66.885 80.4933 66.6808 81.4558 66.6808C82.2506 66.6808 82.9761 66.8194 83.6287 67.0892C84.2886 67.3626 84.8391 67.7527 85.2766 68.2558L83.9204 69.51C83.2678 68.8319 82.4803 68.4892 81.5579 68.4892C80.9746 68.4892 80.4532 68.6131 79.9975 68.8538C79.549 69.098 79.199 69.4444 78.9475 69.8892C78.6923 70.3267 78.5683 70.8335 78.5683 71.4058C78.5683 71.9819 78.6923 72.4923 78.9475 72.9371C79.199 73.3746 79.549 73.721 79.9975 73.9725C80.4423 74.2168 80.9527 74.3371 81.5287 74.3371C82.1412 74.3371 82.6881 74.2058 83.1766 73.9433V71.2746Z" fill="#403528"/>
<path d="M97.8869 75.985L96.1223 73.4329H94.1827V75.985H92.0535V66.8413H96.0202C96.8259 66.8413 97.5259 66.9798 98.1202 67.2496C98.7218 67.5121 99.1848 67.8913 99.5056 68.3871C99.8264 68.8829 99.9869 69.4735 99.9869 70.1517C99.9869 70.8334 99.8192 71.4204 99.491 71.9163C99.1702 72.4121 98.7072 72.7876 98.1056 73.0392L100.162 75.985H97.8869ZM97.8431 70.1517C97.8431 69.6485 97.6754 69.2584 97.3473 68.985C97.0155 68.7043 96.5343 68.5621 95.9035 68.5621H94.1827V71.7558H95.9035C96.5343 71.7558 97.0155 71.6173 97.3473 71.3329C97.6754 71.0522 97.8431 70.6584 97.8431 70.1517Z" fill="#403528"/>
<path d="M112.667 74.0308H108.423L107.621 75.985H105.448L109.517 66.8413H111.617L115.7 75.985H113.483L112.667 74.0308ZM112.01 72.4121L110.552 68.9121L109.108 72.4121H112.01Z" fill="#403528"/>
<path d="M125.605 66.8413C126.411 66.8413 127.111 66.9798 127.705 67.2496C128.307 67.5121 128.77 67.8913 129.091 68.3871C129.412 68.8829 129.572 69.4735 129.572 70.1517C129.572 70.8225 129.412 71.4131 129.091 71.9163C128.77 72.4121 128.307 72.7985 127.705 73.0683C127.111 73.3308 126.411 73.4621 125.605 73.4621H123.768V75.985H121.639V66.8413H125.605ZM125.489 71.7413C126.119 71.7413 126.601 71.6064 126.932 71.3329C127.26 71.0522 127.428 70.6584 127.428 70.1517C127.428 69.6485 127.26 69.2584 126.932 68.985C126.601 68.7043 126.119 68.5621 125.489 68.5621H123.768V71.7413H125.489Z" fill="#403528"/>
<path d="M144.59 66.8413V75.985H142.46V72.2371H138.319V75.985H136.19V66.8413H138.319V70.4433H142.46V66.8413H144.59Z" fill="#403528"/>
<path d="M156.123 72.7475V75.985H154.008V72.7183L150.464 66.8413H152.725L155.16 70.8954L157.61 66.8413H159.681L156.123 72.7475Z" fill="#403528"/>
</svg>
