<svg width="569" height="134" viewBox="0 0 569 134" fill="none" xmlns="http://www.w3.org/2000/svg">
<path d="M69.3 25.7954C69.3 30.9562 68.2573 35.3345 66.1792 38.9375C64.1156 42.5258 61.4323 45.4865 58.1292 47.827C54.8188 50.1527 51.2896 52.0059 47.5417 53.3792C43.8083 54.7377 40.2208 55.8009 36.7792 56.5687C33.3521 57.3366 30.4938 57.9272 28.2042 58.3407V77.2123C28.2042 79.2205 28.9115 80.9334 30.3333 82.351C31.7698 83.7538 33.4833 84.4478 35.4667 84.4478V85.1862H0V84.4478C1.98333 84.4478 3.675 83.7538 5.075 82.351C6.475 80.9334 7.175 79.2205 7.175 77.2123V8.48904C7.175 6.4808 6.475 4.76788 5.075 3.3503C3.675 1.93272 1.98333 1.22393 0 1.22393V0.515137H45.5C49.8896 0.515137 53.8781 1.65216 57.4583 3.91143C61.0313 6.15593 63.9042 9.19783 66.0625 13.0371C68.2208 16.8616 69.3 21.1144 69.3 25.7954ZM33.3375 1.22393H28.2042V57.1298C35.0438 54.0584 39.8781 49.85 42.7 44.4897C45.5365 39.1147 46.9583 32.8833 46.9583 25.7954C46.9583 21.2694 46.3313 17.157 45.0917 13.4506C43.8667 9.75157 42.2333 6.79089 40.1917 4.56115C38.1646 2.3388 35.8823 1.22393 33.3375 1.22393Z" fill="#403528"/>
<path d="M73.932 78.5412V35.4822C73.932 33.9465 73.4507 32.6396 72.5028 31.5543C71.5476 30.4542 70.3882 29.7823 69.032 29.546V28.8077L89.4778 25.7954C89.5507 25.7954 89.6091 25.7954 89.6528 25.7954C89.6893 25.7954 89.7476 25.7954 89.8278 25.7954C91.1841 25.7954 91.8695 26.4746 91.8695 27.8331V78.5412C91.8695 79.981 92.3434 81.273 93.2986 82.4101C94.2466 83.5323 95.4059 84.2116 96.7695 84.4478V85.1862H69.032V84.4478C70.3882 84.2116 71.5476 83.5323 72.5028 82.4101C73.4507 81.273 73.932 79.981 73.932 78.5412ZM92.2195 9.93615C92.2195 12.4391 91.3007 14.6245 89.4778 16.4925C87.6476 18.3457 85.4601 19.2686 82.9153 19.2686C80.3486 19.2686 78.1684 18.3457 76.382 16.4925C74.5882 14.6245 73.6986 12.4391 73.6986 9.93615C73.6986 7.3594 74.5882 5.14443 76.382 3.29124C78.1684 1.44542 80.3486 0.515137 82.9153 0.515137C85.4601 0.515137 87.6476 1.44542 89.4778 3.29124C91.3007 5.14443 92.2195 7.3594 92.2195 9.93615Z" fill="#403528"/>
<path d="M134.031 43.1017C135.059 43.9138 136.131 45.4865 137.239 47.827C138.362 50.1527 139.499 52.9066 140.652 56.0962C141.818 59.2857 143.014 62.5344 144.239 65.8421C145.479 69.1498 146.777 72.236 148.118 75.0859C149.474 77.9432 150.918 80.1803 152.435 81.7899C154.024 83.5618 155.935 84.4478 158.152 84.4478V85.1862H136.422C135.467 85.1862 134.592 84.8244 133.797 84.0934C132.995 83.3699 132.164 82.1147 131.289 80.3428C130.254 78.1795 129.196 75.6322 128.11 72.6937C127.038 69.7404 125.959 66.8019 124.872 63.8634C123.801 60.9101 122.751 58.3038 121.722 56.0371C120.687 53.7778 119.695 52.2421 118.747 51.43C118.747 51.9247 118.747 53.3422 118.747 55.6827C118.747 58.0084 118.747 60.7033 118.747 63.7748C118.747 66.8462 118.747 69.733 118.747 72.4279C118.747 75.1302 118.747 77.168 118.747 78.5412C118.747 79.981 119.221 81.273 120.177 82.4101C121.124 83.5323 122.284 84.2116 123.647 84.4478V85.1862H95.9099V84.4478C97.2662 84.2116 98.4255 83.5323 99.3807 82.4101C100.329 81.273 100.81 79.981 100.81 78.5412V10.1724C100.81 8.74007 100.329 7.45538 99.3807 6.33313C98.4255 5.19611 97.2662 4.50209 95.9099 4.26582V3.5275L116.356 0.515137C116.429 0.515137 116.487 0.515137 116.531 0.515137C116.567 0.515137 116.626 0.515137 116.706 0.515137C118.062 0.515137 118.747 1.24608 118.747 2.70058C118.747 13.4137 118.747 22.8642 118.747 31.0522C118.747 39.2476 118.747 45.8039 118.747 50.7212C120.651 50.7212 122.78 50.0345 125.135 48.6539C127.483 47.2806 129.729 45.7006 131.872 43.9286C134.031 42.1566 135.737 40.6726 137.006 39.4691C138.595 37.8596 139.397 35.999 139.397 33.8874C139.397 31.9604 138.756 30.2991 137.472 28.8963C136.204 27.4787 134.658 26.6813 132.835 26.5042V25.7954H158.152C158.152 25.7954 158.152 25.8766 158.152 26.0316C158.152 26.1941 158.152 26.3491 158.152 26.5042C155.293 26.7626 152.501 27.7962 149.781 29.6051C147.076 31.4214 144.429 33.5551 141.847 36.0138C139.259 38.4798 136.656 40.8424 134.031 43.1017Z" fill="#403528"/>
<path d="M203.57 68.8539C203.803 72.0065 202.877 74.8712 200.799 77.448C198.736 80.0321 195.943 82.0699 192.428 83.5613C188.928 85.038 185.108 85.7763 180.966 85.7763C176.919 85.7763 173.193 85.097 169.795 83.7385C166.412 82.3652 163.677 80.4899 161.599 78.1273C159.536 75.7499 158.508 73.0624 158.508 70.0648C158.508 67.488 159.419 65.2952 161.249 63.4789C163.094 61.67 165.252 60.7619 167.724 60.7619C170.269 60.7619 172.457 61.67 174.287 63.4789C176.11 65.2952 177.028 67.488 177.028 70.0648C177.028 72.2502 176.569 73.9262 175.658 75.0854C174.739 76.2519 173.805 77.2117 172.858 77.9796C171.902 78.7474 171.428 79.6556 171.428 80.6966C171.428 81.6048 171.866 82.4612 172.741 83.266C173.616 84.056 174.644 84.5359 175.833 84.7131C176.627 84.7943 177.386 84.8755 178.108 84.9494C178.822 85.0306 179.777 85.0675 180.966 85.0675C183.124 85.0675 184.962 84.2996 186.478 82.7639C187.995 81.2282 188.753 79.3824 188.753 77.2117C188.753 75.1887 188.01 73.2248 186.537 71.3347C185.057 69.4446 183.183 67.5545 180.908 65.6643C178.647 63.7595 176.219 61.7955 173.616 59.7873C171.027 57.7643 168.599 55.6822 166.324 53.5558C164.064 51.4147 162.197 49.1111 160.724 46.6451C159.244 44.1865 158.508 41.5507 158.508 38.7303C158.508 35.5038 159.587 32.8458 161.745 30.7564C163.903 28.6522 166.528 27.0943 169.62 26.0902C172.726 25.086 175.76 24.584 178.72 24.584C181.578 24.584 183.977 24.8719 185.924 25.4404C187.886 25.9942 189.636 26.5184 191.174 27.0057C192.727 27.4782 194.353 27.6776 196.045 27.5963C196.665 27.5225 197.241 27.3601 197.766 27.1238C198.291 26.8876 198.707 26.607 199.02 26.2674H199.603V45.8773C199.603 45.8773 199.545 45.8773 199.428 45.8773C199.312 45.8773 199.173 45.8773 199.02 45.8773C198.532 43.4556 197.737 40.7607 196.628 37.7852C195.52 34.795 193.865 32.1297 191.67 29.7818C189.468 27.4413 186.427 26.0311 182.541 25.5586C180.455 25.2263 178.662 25.6324 177.145 26.7694C175.643 27.8917 174.812 29.7449 174.637 32.3216C174.476 34.9058 175.293 37.2832 177.087 39.4686C178.873 41.6393 181.155 43.7952 183.941 45.9363C186.741 48.0627 189.585 50.2629 192.487 52.5222C195.403 54.7888 197.89 57.2474 199.953 59.9054C202.032 62.5634 203.235 65.5462 203.57 68.8539Z" fill="#403528"/>
<path d="M280.283 41.9664C284.498 42.1288 288.304 43.1994 291.688 45.1854C295.085 47.1568 297.798 49.7188 299.825 52.864C301.845 55.9945 302.858 59.5015 302.858 63.3778C302.858 67.3352 301.779 70.9087 299.621 74.0982C297.477 77.273 294.619 79.8276 291.046 81.7768C287.466 83.7112 283.477 84.671 279.088 84.671H230V83.9327C231.983 83.9327 233.675 83.2387 235.075 81.8359C236.475 80.4183 237.175 78.7054 237.175 76.6971V7.9739C237.175 5.96566 236.475 4.25275 235.075 2.83517C233.675 1.41758 231.983 0.708791 230 0.708791V0H274.917C278.825 0 282.34 0.967205 285.475 2.89423C288.625 4.82864 291.133 7.40539 293 10.6319C294.881 13.8657 295.829 17.454 295.829 21.4114C295.829 26.336 294.349 30.6995 291.396 34.4945C288.457 38.2747 284.753 40.7703 280.283 41.9664ZM258.204 0.708791V41.9664H262.608C264.84 41.9664 266.874 41.0434 268.704 39.1903C270.527 37.3444 271.978 34.8637 273.05 31.7479C274.136 28.6396 274.683 25.1916 274.683 21.4114C274.683 17.5352 274.136 14.0503 273.05 10.9567C271.978 7.84839 270.527 5.36762 268.704 3.51442C266.874 1.64646 264.84 0.708791 262.608 0.708791H258.204ZM265 83.9327C267.545 83.9327 269.871 83.0098 271.971 81.1566C274.085 79.3108 275.763 76.8153 276.988 73.6848C278.227 70.5395 278.854 67.062 278.854 63.2596C278.854 59.4646 278.227 56.0167 276.988 52.9231C275.763 49.8147 274.085 47.334 271.971 45.4808C269.871 43.635 267.545 42.7047 265 42.7047H258.204V83.9327H265Z" fill="#403528"/>
<path d="M348.61 25.2803H371.331V25.9891C369.173 26.2475 367.014 27.0449 364.856 28.3812C362.712 29.7028 360.773 31.305 359.023 33.1951C357.273 35.0852 355.909 37.0492 354.939 39.0722L329.623 92.7631C328.514 95.2586 328.018 97.7985 328.135 100.383C328.252 102.982 328.937 105.3 330.206 107.352C331.489 109.398 333.21 110.992 335.368 112.137C336.958 112.86 338.672 113.229 340.502 113.229C341.858 113.229 342.543 112.499 342.543 111.044C342.543 109.996 342.077 109.006 341.143 108.061C340.225 107.131 339.291 106.068 338.343 104.872C337.388 103.668 336.914 102.132 336.914 100.264C336.914 97.6803 337.826 95.4654 339.656 93.6196C341.479 91.7664 343.63 90.8435 346.102 90.8435C348.647 90.8435 350.834 91.7664 352.664 93.6196C354.509 95.4654 355.435 97.6803 355.435 100.264C355.435 102.524 354.793 104.643 353.51 106.614C352.241 108.6 350.572 110.232 348.493 111.517C346.43 112.816 344.206 113.599 341.814 113.879C339.423 114.175 337.148 113.791 334.989 112.727C332.692 111.605 330.884 109.929 329.564 107.707C328.259 105.499 327.537 103.055 327.406 100.383C327.289 97.7246 327.829 95.1036 329.039 92.5268L332.743 84.6711L307.281 30.5962C306.734 29.474 305.896 28.4551 304.773 27.5248C303.664 26.6019 302.541 26.0924 301.418 25.9891V25.2803H321.864C323.921 25.2803 325.35 26.0924 326.152 27.702L342.893 63.1415L354.939 37.5069C355.421 36.3699 355.668 35.196 355.668 33.9925C355.668 31.8883 354.983 30.0794 353.627 28.5584C352.285 27.0227 350.608 26.1663 348.61 25.9891V25.2803Z" fill="#403528"/>
<path d="M457.142 14.3832C458.09 16.3177 458.688 18.4883 458.921 20.91C459.169 23.3317 459.3 25.5467 459.3 27.5549C459.3 34.3328 458.52 40.8891 456.967 47.2239C455.406 53.544 453.233 59.4136 450.433 64.8256C447.648 70.2227 444.44 74.9184 440.808 78.9128C437.192 82.9145 433.291 86.045 429.113 88.3043C424.927 90.5488 420.691 91.671 416.396 91.671C410.738 91.671 406.115 89.7071 402.542 85.7644C398.961 81.807 397.175 75.9152 397.175 68.0742V14.9739C397.175 12.9657 396.475 11.2527 395.075 9.83517C393.675 8.41758 391.983 7.70879 390 7.70879V7H416.046C417.482 7 418.204 7.76786 418.204 9.30357V83.579C418.204 85.0999 418.773 86.4437 419.925 87.625C421.07 88.7916 422.404 89.3674 423.921 89.3674C424.563 89.3674 425.277 89.2124 426.079 88.8949C433.254 85.9047 439.656 80.2565 445.3 71.943C448.333 67.5131 450.878 62.6623 452.942 57.3832C455.02 52.0895 456.5 46.6259 457.375 40.9924C457.856 38.2606 457.82 36.0235 457.258 34.2885C456.69 32.5386 455.304 31.66 453.088 31.66C451.724 31.66 450.55 31.8668 449.558 32.2802C448.567 32.6789 447.269 32.8709 445.679 32.8709C442.157 32.8709 439.146 31.601 436.638 29.0611C434.129 26.5213 432.875 23.4794 432.875 19.9354C432.875 16.3915 434.129 13.3496 436.638 10.8098C439.146 8.26992 442.157 7 445.679 7C448.224 7 450.506 7.69402 452.533 9.06731C454.575 10.4258 456.106 12.1978 457.142 14.3832Z" fill="#403528"/>
<path d="M463.932 85.0261V41.967C463.932 40.4313 463.451 39.1245 462.503 38.0392C461.548 36.939 460.388 36.2672 459.032 36.0309V35.2926L479.478 32.2802C479.551 32.2802 479.609 32.2802 479.653 32.2802C479.689 32.2802 479.748 32.2802 479.828 32.2802C481.184 32.2802 481.869 32.9595 481.869 34.318V85.0261C481.869 86.4658 482.343 87.7579 483.299 88.8949C484.247 90.0172 485.406 90.6964 486.769 90.9327V91.671H459.032V90.9327C460.388 90.6964 461.548 90.0172 462.503 88.8949C463.451 87.7579 463.932 86.4658 463.932 85.0261ZM482.219 16.421C482.219 18.9239 481.301 21.1094 479.478 22.9773C477.648 24.8305 475.46 25.7534 472.915 25.7534C470.349 25.7534 468.168 24.8305 466.382 22.9773C464.588 21.1094 463.699 18.9239 463.699 16.421C463.699 13.8443 464.588 11.6293 466.382 9.7761C468.168 7.93029 470.349 7 472.915 7C475.46 7 477.648 7.93029 479.478 9.7761C481.301 11.6293 482.219 13.8443 482.219 16.421Z" fill="#403528"/>
<path d="M524.031 49.5865C525.059 50.3987 526.131 51.9713 527.239 54.3118C528.362 56.6375 529.499 59.3915 530.652 62.581C531.818 65.7706 533.014 69.0192 534.239 72.3269C535.479 75.6346 536.777 78.7208 538.118 81.5707C539.474 84.4281 540.918 86.6652 542.435 88.2747C544.024 90.0467 545.935 90.9327 548.152 90.9327V91.671H526.422C525.467 91.671 524.592 91.3092 523.797 90.5783C522.995 89.8547 522.164 88.5996 521.289 86.8276C520.254 84.6643 519.196 82.1171 518.11 79.1786C517.038 76.2253 515.959 73.2868 514.872 70.3482C513.801 67.3949 512.751 64.7886 511.722 62.522C510.687 60.2627 509.695 58.727 508.747 57.9148C508.747 58.4095 508.747 59.8271 508.747 62.1676C508.747 64.4933 508.747 67.1882 508.747 70.2596C508.747 73.331 508.747 76.2179 508.747 78.9128C508.747 81.615 508.747 83.6528 508.747 85.0261C508.747 86.4658 509.221 87.7579 510.177 88.8949C511.124 90.0172 512.284 90.6964 513.647 90.9327V91.671H485.91V90.9327C487.266 90.6964 488.426 90.0172 489.381 88.8949C490.329 87.7579 490.81 86.4658 490.81 85.0261V16.6573C490.81 15.2249 490.329 13.9402 489.381 12.818C488.426 11.681 487.266 10.987 485.91 10.7507V10.0124L506.356 7C506.429 7 506.487 7 506.531 7C506.567 7 506.626 7 506.706 7C508.062 7 508.747 7.73094 508.747 9.18544C508.747 19.8985 508.747 29.3491 508.747 37.5371C508.747 45.7325 508.747 52.2888 508.747 57.206C510.651 57.206 512.78 56.5194 515.135 55.1387C517.483 53.7655 519.729 52.1854 521.872 50.4135C524.031 48.6415 525.737 47.1575 527.006 45.954C528.595 44.3444 529.397 42.4839 529.397 40.3723C529.397 38.4452 528.756 36.784 527.472 35.3812C526.204 33.9636 524.658 33.1662 522.835 32.989V32.2802H548.152C548.152 32.2802 548.152 32.3614 548.152 32.5165C548.152 32.6789 548.152 32.834 548.152 32.989C545.293 33.2474 542.501 34.2811 539.781 36.09C537.076 37.9063 534.429 40.04 531.847 42.4986C529.259 44.9646 526.656 47.3273 524.031 49.5865Z" fill="#403528"/>
<path d="M561.408 92.1209C559.345 92.1209 557.595 91.4047 556.158 89.965C554.715 88.5105 554 86.7385 554 84.649C554 82.5448 554.715 80.7433 556.158 79.2445C557.595 77.7531 559.345 77 561.408 77C563.486 77 565.258 77.7531 566.717 79.2445C568.19 80.7433 568.933 82.5448 568.933 84.649C568.933 86.7385 568.19 88.5105 566.717 89.965C565.258 91.4047 563.486 92.1209 561.408 92.1209Z" fill="#403528"/>
<path d="M8.28833 118.26C9.57167 118.26 10.6785 118.479 11.625 118.909C12.5875 119.348 13.3094 119.965 13.8067 120.761C14.32 121.565 14.5767 122.507 14.5767 123.588C14.5767 124.676 14.32 125.626 13.8067 126.446C13.3094 127.25 12.5875 127.868 11.625 128.298C10.6785 128.712 9.57167 128.915 8.28833 128.915H5.36875V132.976H2V118.26H8.28833ZM8.09583 126.154C9.09844 126.154 9.86042 125.943 10.3737 125.504C10.9031 125.049 11.1758 124.416 11.1758 123.588C11.1758 122.767 10.9031 122.142 10.3737 121.703C9.86042 121.273 9.09844 121.054 8.09583 121.054H5.36875V126.154H8.09583Z" fill="#403528"/>
<path d="M38.4301 118.26V132.976H35.0613V126.934H28.4842V132.976H25.1155V118.26H28.4842V124.075H35.0613V118.26H38.4301Z" fill="#403528"/>
<path d="M56.8339 133.236C55.334 133.236 53.9784 132.911 52.7593 132.261C51.5401 131.596 50.5856 130.686 49.9039 129.533C49.2141 128.363 48.8772 127.064 48.8772 125.634C48.8772 124.189 49.2141 122.889 49.9039 121.736C50.5856 120.566 51.5401 119.657 52.7593 119.007C53.9784 118.341 55.334 118 56.8339 118C58.3498 118 59.7053 118.341 60.9084 119.007C62.1036 119.657 63.042 120.566 63.7318 121.736C64.4376 122.889 64.7905 124.189 64.7905 125.634C64.7905 127.064 64.4376 128.363 63.7318 129.533C63.042 130.686 62.1036 131.596 60.9084 132.261C59.7053 132.911 58.3498 133.236 56.8339 133.236ZM56.8339 130.312C57.6841 130.312 58.4541 130.117 59.1439 129.728C59.8497 129.338 60.3951 128.785 60.7801 128.071C61.1812 127.356 61.3897 126.544 61.3897 125.634C61.3897 124.708 61.1812 123.88 60.7801 123.165C60.3951 122.451 59.8497 121.898 59.1439 121.509C58.4541 121.119 57.6841 120.924 56.8339 120.924C55.9756 120.924 55.1976 121.119 54.4918 121.509C53.802 121.898 53.2566 122.451 52.8555 123.165C52.4705 123.88 52.278 124.708 52.278 125.634C52.278 126.544 52.4705 127.356 52.8555 128.071C53.2566 128.785 53.802 129.338 54.4918 129.728C55.1976 130.117 55.9756 130.312 56.8339 130.312Z" fill="#403528"/>
<path d="M78.2624 121.054H73.6104V118.26H86.2512V121.054H81.5991V132.976H78.2624V121.054Z" fill="#403528"/>
<path d="M103.024 133.236C101.524 133.236 100.168 132.911 98.9492 132.261C97.7301 131.596 96.7756 130.686 96.0938 129.533C95.404 128.363 95.0671 127.064 95.0671 125.634C95.0671 124.189 95.404 122.889 96.0938 121.736C96.7756 120.566 97.7301 119.657 98.9492 119.007C100.168 118.341 101.524 118 103.024 118C104.54 118 105.895 118.341 107.098 119.007C108.293 119.657 109.232 120.566 109.922 121.736C110.628 122.889 110.98 124.189 110.98 125.634C110.98 127.064 110.628 128.363 109.922 129.533C109.232 130.686 108.293 131.596 107.098 132.261C105.895 132.911 104.54 133.236 103.024 133.236ZM103.024 130.312C103.874 130.312 104.644 130.117 105.334 129.728C106.04 129.338 106.585 128.785 106.97 128.071C107.371 127.356 107.58 126.544 107.58 125.634C107.58 124.708 107.371 123.88 106.97 123.165C106.585 122.451 106.04 121.898 105.334 121.509C104.644 121.119 103.874 120.924 103.024 120.924C102.166 120.924 101.388 121.119 100.682 121.509C99.9919 121.898 99.4465 122.451 99.0455 123.165C98.6605 123.88 98.468 124.708 98.468 125.634C98.468 126.544 98.6605 127.356 99.0455 128.071C99.4465 128.785 99.9919 129.338 100.682 129.728C101.388 130.117 102.166 130.312 103.024 130.312Z" fill="#403528"/>
<path d="M131.254 125.374H134.302V131.352C133.532 131.961 132.617 132.424 131.575 132.749C130.548 133.074 129.497 133.236 128.43 133.236C126.931 133.236 125.575 132.911 124.356 132.261C123.153 131.612 122.214 130.718 121.533 129.565C120.843 128.396 120.506 127.088 120.506 125.634C120.506 124.164 120.843 122.857 121.533 121.703C122.214 120.558 123.169 119.657 124.388 119.007C125.607 118.341 126.971 118 128.495 118C129.778 118 130.933 118.219 131.96 118.65C133.002 119.088 133.885 119.722 134.59 120.566L132.441 122.581C131.39 121.476 130.139 120.924 128.687 120.924C127.741 120.924 126.906 121.119 126.185 121.509C125.479 121.898 124.917 122.451 124.516 123.165C124.107 123.88 123.907 124.708 123.907 125.634C123.907 126.544 124.107 127.356 124.516 128.071C124.917 128.785 125.479 129.338 126.185 129.728C126.906 130.117 127.725 130.312 128.623 130.312C129.601 130.312 130.484 130.109 131.254 129.695V125.374Z" fill="#403528"/>
<path d="M154.601 132.976L151.81 128.883H148.73V132.976H145.361V118.26H151.649C152.933 118.26 154.04 118.479 154.986 118.909C155.949 119.348 156.67 119.965 157.168 120.761C157.681 121.565 157.938 122.507 157.938 123.588C157.938 124.692 157.681 125.65 157.168 126.446C156.654 127.226 155.917 127.827 154.954 128.233L158.227 132.976H154.601ZM154.537 123.588C154.537 122.767 154.264 122.142 153.735 121.703C153.222 121.273 152.46 121.054 151.457 121.054H148.73V126.154H151.457C152.46 126.154 153.222 125.943 153.735 125.504C154.264 125.049 154.537 124.416 154.537 123.588Z" fill="#403528"/>
<path d="M178.1 129.825H171.362L170.079 132.976H166.614L173.095 118.26H176.432L182.912 132.976H179.383L178.1 129.825ZM177.041 127.226L174.731 121.606L172.421 127.226H177.041Z" fill="#403528"/>
<path d="M198.648 118.26C199.932 118.26 201.038 118.479 201.985 118.909C202.947 119.348 203.669 119.965 204.167 120.761C204.68 121.565 204.937 122.507 204.937 123.588C204.937 124.676 204.68 125.626 204.167 126.446C203.669 127.25 202.947 127.868 201.985 128.298C201.038 128.712 199.932 128.915 198.648 128.915H195.729V132.976H192.36V118.26H198.648ZM198.456 126.154C199.458 126.154 200.22 125.943 200.734 125.504C201.263 125.049 201.536 124.416 201.536 123.588C201.536 122.767 201.263 122.142 200.734 121.703C200.22 121.273 199.458 121.054 198.456 121.054H195.729V126.154H198.456Z" fill="#403528"/>
<path d="M228.79 118.26V132.976H225.421V126.934H218.844V132.976H215.476V118.26H218.844V124.075H225.421V118.26H228.79Z" fill="#403528"/>
<path d="M247.13 127.778V132.976H243.761V127.713L238.146 118.26H241.708L245.59 124.79L249.472 118.26H252.776L247.13 127.778Z" fill="#403528"/>
</svg>
