<svg width="185" height="105" viewBox="0 0 185 105" fill="none" xmlns="http://www.w3.org/2000/svg">
<mask id="mask0_315_36" style="mask-type:luminance" maskUnits="userSpaceOnUse" x="22" y="0" width="143" height="104">
<path d="M26.3305 0.799805L164.566 5.6271L161.138 103.799L22.9022 98.9718L26.3305 0.799805Z" fill="white"/>
</mask>
<g mask="url(#mask0_315_36)">
<path d="M159.318 25.3033C156.477 23.6084 151.511 21.8984 145.311 20.2876C122.739 14.4257 83.3347 9.43808 74.7371 7.55532C71.6351 6.8779 55.329 2.28103 45.8769 1.61168C42.9642 1.40491 40.639 1.61263 39.3495 2.24833C38.3872 2.72691 37.831 3.42105 37.6392 4.27675C37.5693 4.58513 37.6067 4.89506 37.7244 5.15964C35.8768 11.3705 30.7464 33.802 27.4324 50.8555C25.8421 59.0387 24.6691 65.9911 24.4534 69.3456C24.3449 71.0119 24.6076 72.0761 24.8419 72.4498C25.9944 74.2958 27.3783 75.9092 28.9899 77.2722C30.582 78.6258 32.3973 79.7332 34.4429 80.5751C40.996 83.2795 48.1483 85.2432 55.4823 86.771C66.2605 89.0166 77.4322 90.3348 87.6271 91.7962C93.7952 92.6748 99.9478 93.8724 106.085 95.2096C115.341 97.2248 124.56 99.5539 133.719 101.642C135.118 101.958 139.135 103.022 142.198 103.101C144.53 103.158 146.387 102.494 147.272 101.413C151.308 96.4693 153.897 90.2843 155.619 83.651C158.044 74.3127 158.767 64.0833 159.807 55.4672C160.443 50.1267 162.486 43.5768 163.107 37.5771C163.42 34.563 163.383 31.6725 162.738 29.0956C162.432 27.8832 161.346 26.5079 159.318 25.2989L159.318 25.3033ZM52.7309 5.6005C61.5236 7.28871 71.64 10.2467 74.0044 10.7977C81.5454 12.5385 112.913 16.9521 135.647 22.1215C144.192 24.0593 151.496 26.0917 155.751 28.1533C155.938 28.2452 156.121 28.3348 156.297 28.4285C154.2 28.8302 151.263 29.8615 148.024 31.2237C144.77 32.5963 141.192 34.2749 137.895 35.9218C133.838 37.9427 130.213 39.902 128.09 40.9114C125.335 42.3058 121.459 43.7464 117.374 45.346C115.7 46.0011 113.991 46.6813 112.305 47.3798C112.678 45.7402 112.683 44.1644 112.183 42.733C111.118 39.6927 107.495 38.034 104.652 39.8324C101.742 41.6767 100.044 44.0448 99.0698 47.7471C98.9155 48.3437 98.8773 47.8083 98.9081 46.9885C99.105 42.2259 96.437 34.137 90.4226 34.5595C84.665 34.9647 82.6686 38.8546 82.5646 43.5898C81.2888 42.3896 80.0243 41.1788 78.7711 39.9618C75.1631 36.4737 71.6676 32.8977 68.1252 29.3507C64.5701 25.79 60.9447 22.2992 57.3026 18.7859C53.7085 15.4034 50.2528 11.6274 46.5903 8.19872C45.1977 6.89589 43.7793 5.6425 42.314 4.4794C44.8139 4.28434 48.6149 4.81544 52.7308 5.60488L52.7309 5.6005ZM29.1518 68.8727C28.7829 69.1575 28.4123 69.4291 28.0336 69.6807C28.0486 69.2501 28.0704 68.7518 28.1158 68.2674C28.6707 62.4667 30.8921 50.2518 33.3431 38.0449C35.9984 24.812 38.9048 11.5966 40.2574 6.64676C41.6329 7.87676 42.9547 9.19901 44.2555 10.5599C47.7271 14.192 51.0064 18.1283 54.4301 21.6909C58.0743 25.3947 61.6065 29.1734 65.25 32.8334C67.3033 34.8969 69.3909 36.9201 71.5123 38.9116C70.1368 39.4392 68.6908 40.1679 67.225 41.0251C62.5748 43.752 57.7077 47.8021 54.2031 50.0677C52.6986 51.0921 51.1692 52.0784 49.6563 53.0937C47.3723 54.6271 45.0943 56.1782 42.8413 57.7653C40.3166 59.5485 37.8422 61.3927 35.4179 63.3108C33.3685 64.9575 31.3633 67.1595 29.1518 68.8727ZM143.218 98.6076C142.35 98.6868 141.298 98.5953 140.244 98.449C137.964 98.1265 135.661 97.5141 134.701 97.2989C125.518 95.2578 116.276 92.9608 106.991 90.9949C100.742 89.6735 94.4792 88.5071 88.2051 87.6576C78.077 86.2883 66.9828 85.0669 56.2685 82.9351C49.1562 81.5179 42.2087 79.7015 35.8431 77.146C34.1572 76.472 32.6584 75.5792 31.3373 74.4846C30.5929 73.8654 29.9075 73.1826 29.277 72.4339C29.8523 72.1301 30.4181 71.7865 30.9738 71.4185C33.313 69.8695 35.482 67.8067 37.6533 66.3022C40.6244 64.2106 43.6971 62.2779 46.7598 60.3208C48.8195 59.005 50.8856 57.6916 52.9161 56.3354C54.2001 55.4806 55.4546 54.5942 56.7135 53.7079C60.05 51.2437 64.6557 46.97 69.0694 43.9306C70.7739 42.7578 72.4221 41.7538 73.9697 41.1884C76.9352 43.8945 79.9824 46.5159 83.1311 49.0532C83.9877 53.1697 85.6592 57.203 87.105 59.6743C88.5096 62.0742 90.0694 64.3569 91.5523 66.7069C92.0045 67.4232 92.7054 68.599 93.3146 69.0799C94.289 68.6937 96.5979 66.9488 97.191 66.5121C100.785 63.8884 107.005 58.0819 110.326 52.2136C113.085 51.1827 115.998 50.2053 118.798 49.2437C119.179 49.1126 119.556 48.9835 119.93 48.8521C120.299 49.7711 120.757 50.7546 120.892 51.0789C122.188 54.16 123.274 57.3893 124.533 60.5239C125.093 61.918 125.693 63.2895 126.342 64.6276C126.774 65.492 128.789 69.8919 131.446 75.2422C132.554 77.4763 133.793 79.8638 135.045 82.2408C138.393 88.6003 141.835 94.8821 143.395 97.8565C143.512 98.0772 143.605 98.3103 143.687 98.5255C143.541 98.5598 143.358 98.5972 143.218 98.612L143.218 98.6076ZM158.85 37.1263C158.192 43.1095 156.111 49.6187 155.444 54.9405C154.401 63.3727 153.659 73.3804 151.274 82.5252C150.021 87.3231 148.314 91.882 145.813 95.8002C144.384 92.4693 141.701 86.3869 138.885 80.3328C137.749 77.8898 136.593 75.4614 135.476 73.2269C132.79 67.8471 130.459 63.5697 129.996 62.7153C129.31 61.4918 128.682 60.2376 128.074 58.9643C126.61 55.897 125.273 52.7465 123.751 49.7472C123.612 49.4775 123.083 48.6295 122.689 47.8803C125.498 46.873 128.049 45.8939 130.056 44.9528C132.186 43.8846 135.843 41.9001 139.866 39.7029C143.039 37.9663 146.443 36.0955 149.55 34.5514C152.987 32.846 156 31.4803 157.852 31.2254C158 31.2065 158.406 31.0872 158.805 30.9588C159.141 32.8726 159.09 34.9612 158.85 37.1351L158.85 37.1263Z" fill="#8B7D6B"/>
</g>
<mask id="mask1_315_36" style="mask-type:luminance" maskUnits="userSpaceOnUse" x="172" y="51" width="12" height="8">
<path d="M173.045 51.6694L183.075 52.0197L182.86 58.1759L172.83 57.8257L173.045 51.6694Z" fill="white"/>
</mask>
<g mask="url(#mask1_315_36)">
<path d="M174.197 57.4728C174.547 57.531 174.893 57.4709 175.191 57.3215C176.034 57.0073 180.193 55.6335 181.211 55.3648L181.251 55.3552C182.019 55.242 182.628 54.5956 182.655 53.8152C182.686 52.9451 181.999 52.236 181.111 52.2269C181.017 52.2236 180.581 52.2894 179.948 52.4774C178.422 52.9319 174.89 54.1022 174.116 54.3903C173.078 54.7765 172.937 55.6209 172.924 55.6817C172.83 56.1862 172.957 56.6175 173.288 56.9836C173.452 57.1645 173.718 57.3948 174.195 57.4728L174.197 57.4728ZM175.652 54.7898L175.667 54.8056L175.641 54.7807L175.652 54.7876L175.652 54.7898Z" fill="#8B7D6B"/>
</g>
<mask id="mask2_315_36" style="mask-type:luminance" maskUnits="userSpaceOnUse" x="172" y="65" width="11" height="8">
<path d="M172.575 65.1016L182.606 65.4518L182.371 72.1677L172.341 71.8175L172.575 65.1016Z" fill="white"/>
</mask>
<g mask="url(#mask2_315_36)">
<path d="M182.049 69.7436C181.84 69.327 181.458 69.051 181.03 68.9463C180.699 68.7859 176.788 66.8895 175.861 66.2268L175.818 66.1946C175.25 65.6166 174.295 65.5745 173.639 66.1163C172.954 66.6834 172.849 67.6757 173.406 68.3321C173.545 68.4923 173.904 68.796 174.442 69.13C175.878 70.014 178.967 71.56 179.785 71.8819C180.612 72.2084 181.198 71.9246 181.313 71.8652C182.109 71.4596 182.436 70.5101 182.046 69.7435L182.049 69.7436ZM180.222 68.9619L180.244 68.9561L180.264 68.9568L180.222 68.9619Z" fill="#8B7D6B"/>
</g>
<path d="M168.946 76.0761C168.916 76.0094 168.883 75.9513 168.843 75.8887C168.469 75.3131 168.038 75.2433 168.002 75.2311C167.48 75.064 167.058 75.1762 166.737 75.3467C166.353 75.5478 165.885 75.9254 165.861 76.7257C165.86 76.7629 165.816 77.0875 166.067 77.545C166.32 78.0025 168.73 82.0878 169.388 83.3606C169.784 84.1231 170.743 84.4105 171.537 84.0048C172.33 83.5925 172.652 82.6407 172.255 81.876C171.641 80.6924 169.308 76.6929 168.946 76.0805L168.946 76.0761Z" fill="#8B7D6B"/>
<path d="M11.3648 41.622C11.0137 41.5857 10.6717 41.6635 10.3837 41.8264C9.55894 42.1894 5.48429 43.7916 4.48136 44.1177L4.44147 44.1316C3.68317 44.2846 3.10783 44.965 3.12422 45.7492C3.13997 46.6143 3.87168 47.2855 4.75523 47.2442C4.84954 47.2387 5.27935 47.153 5.90448 46.9275C7.39849 46.3909 10.8609 45.0212 11.6189 44.6887C12.6326 44.2426 12.7279 43.3944 12.7344 43.3334C12.7981 42.8256 12.6509 42.4024 12.2976 42.053C12.1261 41.885 11.8448 41.6673 11.3651 41.6155L11.3648 41.622ZM10.0624 44.3826L10.0476 44.3668L10.0731 44.3896L10.0624 44.3826Z" fill="#8B7D6B"/>
<mask id="mask3_315_36" style="mask-type:luminance" maskUnits="userSpaceOnUse" x="2" y="27" width="11" height="7">
<path d="M2.47757 27.2222L12.5077 27.5724L12.2927 33.7287L2.26259 33.3784L2.47757 27.2222Z" fill="white"/>
</mask>
<g mask="url(#mask3_315_36)">
<path d="M9.21532 32.9736L9.25798 33.0057C9.85616 33.5519 10.813 33.5416 11.4374 32.9614C12.0932 32.3583 12.1391 31.3596 11.5459 30.7326C11.398 30.5786 11.0204 30.2984 10.4619 29.9965C8.98177 29.1941 5.80989 27.8225 4.97677 27.5483C4.12857 27.267 3.56371 27.5843 3.45196 27.6504C2.67898 28.0984 2.40656 29.0673 2.83797 29.8135C3.06908 30.2155 3.46505 30.4723 3.89796 30.5487C4.23661 30.6919 8.24725 32.3641 9.21095 32.9734L9.21532 32.9736ZM4.70326 30.4915L4.68117 30.4973L4.66368 30.4967L4.70326 30.4915Z" fill="#8B7D6B"/>
</g>
<path d="M14.7152 15.5057C14.2792 14.766 13.3023 14.5327 12.5337 14.983C11.7648 15.4399 11.4989 16.409 11.9371 17.1488C12.6171 18.2976 15.1681 22.1559 15.5632 22.7497C15.5982 22.8122 15.6355 22.8726 15.6773 22.931C16.0803 23.4857 16.5166 23.5294 16.5579 23.5374C17.0871 23.6763 17.5013 23.5375 17.8119 23.3535C18.1853 23.1302 18.6305 22.7299 18.6125 21.9281C18.6137 21.8931 18.636 21.5678 18.3583 21.1225C18.0827 20.6773 15.4448 16.7372 14.7153 15.5013L14.7152 15.5057Z" fill="#8B7D6B"/>
</svg>
