<svg width="109" height="65" viewBox="0 0 109 65" fill="none" xmlns="http://www.w3.org/2000/svg">
<mask id="mask0_863_1442" style="mask-type:luminance" maskUnits="userSpaceOnUse" x="52" y="0" width="57" height="59">
<path d="M55.1966 3.39526L108.921 0.845107L106.23 55.5812L52.5057 58.1314L55.1966 3.39526Z" fill="white"/>
</mask>
<g mask="url(#mask0_863_1442)">
<path d="M107.558 28.1918C106.817 43.2741 94.2334 56.07 79.4529 56.7716C64.6723 57.4732 53.2913 45.815 54.0328 30.7326C54.7744 15.6489 67.3576 2.85309 82.1381 2.15146C96.9186 1.44983 108.3 13.1081 107.558 28.1918ZM105.8 28.2752C106.493 14.1824 95.8594 3.28983 82.0499 3.94536C68.2405 4.60089 56.4825 16.5564 55.7897 30.6492C55.0968 44.7421 65.7315 55.6346 79.541 54.979C93.3504 54.3235 105.107 42.3681 105.8 28.2752Z" fill="#F3EADB"/>
</g>
<path d="M84.8108 30.3261C84.7252 32.5293 83.0512 34.4592 80.973 34.5268C78.8948 34.5943 77.3668 32.7685 77.4525 30.5653C77.5381 28.3608 79.2121 26.4309 81.2903 26.3633C83.3685 26.2958 84.8965 28.1216 84.8108 30.3261ZM83.0841 30.3823C83.1344 29.0881 82.2505 28.1614 81.2191 28.195C80.1877 28.2285 79.2294 29.2151 79.1791 30.5092C79.1289 31.802 80.0128 32.7287 81.0442 32.6951C82.0756 32.6616 83.0339 31.675 83.0841 30.3823Z" fill="#F3EADB"/>
<path d="M88.8219 11.7082L88.7325 12.5898C88.3983 14.3718 87.5688 15.8153 86.2442 16.9204C84.9107 18.0245 83.3722 18.5051 81.6288 18.3607C79.9679 18.1349 78.664 17.3569 77.7144 16.0269C77.411 15.5981 77.1643 15.1267 76.9768 14.6139L76.7463 13.8228C76.6229 13.2768 76.5734 12.7039 76.5941 12.1056C76.7091 10.267 77.3659 8.71902 78.5633 7.46046C79.7607 6.20326 81.2263 5.52408 82.9601 5.42019C84.6902 5.4115 86.1066 5.99702 87.2092 7.17947C88.3117 8.36328 88.8497 9.87238 88.8219 11.7082Z" fill="#B9CCE0"/>
<path d="M102.397 23.2429L102.306 24.1246C101.973 25.9065 101.144 27.35 99.8193 28.4552C98.4858 29.5593 96.9473 30.0398 95.2039 29.8955C93.543 29.6697 92.2378 28.8917 91.2895 27.563C90.9848 27.1329 90.7394 26.6614 90.5519 26.15L90.3202 25.3576C90.198 24.8115 90.1473 24.2387 90.1693 23.6404C90.2842 21.8017 90.9411 20.2538 92.1384 18.9966C93.3358 17.738 94.8014 17.0589 96.5352 16.9563C98.2653 16.9463 99.6817 17.5318 100.784 18.7156C101.887 19.898 102.424 21.4072 102.397 23.2429Z" fill="#B9CCE0"/>
<path d="M99.173 41.5927L99.0824 42.4744C98.7494 44.2563 97.9199 45.6998 96.5954 46.8036C95.2618 47.909 93.7233 48.3882 91.9799 48.2452C90.3191 48.0181 89.0139 47.2401 88.0655 45.9114C87.7608 45.4826 87.5154 45.0112 87.3279 44.4984L87.0962 43.7074C86.974 43.1613 86.9233 42.5884 86.9452 41.9901C87.0602 40.1515 87.7171 38.6022 88.9145 37.345C90.1118 36.0878 91.5774 35.4072 93.3112 35.3047C95.0414 35.2947 96.4577 35.8815 97.5603 37.064C98.6628 38.2464 99.2008 39.7569 99.173 41.5927Z" fill="#B9CCE0"/>
<path d="M82.6411 46.8577L82.5517 47.7394C82.2187 49.5213 81.3893 50.9648 80.0647 52.07C78.7311 53.174 77.1926 53.6546 75.4493 53.5102C73.7884 53.2844 72.4832 52.5065 71.5336 51.1778C71.2302 50.7476 70.9848 50.2762 70.7972 49.7648L70.5655 48.9724C70.4434 48.4263 70.3926 47.8548 70.4146 47.2551C70.5296 45.4165 71.1851 43.8686 72.3838 42.6113C73.5811 41.3541 75.0467 40.6736 76.7805 40.5711C78.5107 40.561 79.9271 41.1479 81.0296 42.3303C82.1322 43.5128 82.6689 45.0219 82.6411 46.8577Z" fill="#B9CCE0"/>
<path d="M70.7316 34.5225L70.6423 35.4042C70.3093 37.1861 69.4798 38.6296 68.1552 39.7347C66.8217 40.8388 65.2832 41.3194 63.5385 41.1751C61.879 40.9492 60.5737 40.1713 59.6241 38.8426C59.3207 38.4124 59.0753 37.941 58.8865 37.4296L58.6561 36.6372C58.5339 36.0911 58.4832 35.5182 58.5052 34.9199C58.6201 33.0813 59.2757 31.5334 60.473 30.2762C61.6717 29.0176 63.1373 28.3384 64.8711 28.2359C66.6013 28.2258 68.0177 28.8113 69.1202 29.9951C70.2227 31.1776 70.7594 32.6867 70.7316 34.5225Z" fill="#B9CCE0"/>
<path d="M74.4155 18.331L74.3249 19.2127C73.9918 20.9945 73.1624 22.4381 71.8378 23.5419C70.5042 24.6473 68.9658 25.1265 67.2224 24.9835C65.5616 24.7563 64.2564 23.9784 63.308 22.6497C63.0033 22.2209 62.7579 21.7495 62.5704 21.2367L62.3386 20.4457C62.2165 19.8996 62.1657 19.3267 62.1877 18.7284C62.3027 16.8898 62.9596 15.3405 64.1569 14.0833C65.3543 12.8261 66.8199 12.1455 68.5537 12.043C70.2839 12.0329 71.7002 12.6198 72.8028 13.8023C73.9053 14.9847 74.442 16.4952 74.4155 18.331Z" fill="#B9CCE0"/>
<path d="M83.7301 23.5585C83.6911 24.5621 82.8916 25.4003 81.9455 25.431C81.0006 25.4617 80.2643 24.6735 80.3033 23.6699C80.3423 22.6662 81.1418 21.8281 82.0867 21.7974C83.0328 21.7666 83.7691 22.5549 83.7301 23.5585ZM82.5789 23.5959C82.5917 23.2668 82.3508 23.0071 82.0393 23.0172C81.729 23.0273 81.4673 23.3033 81.4546 23.6324C81.4418 23.9615 81.6826 24.2213 81.9929 24.2112C82.3044 24.2011 82.5661 23.925 82.5789 23.5959Z" fill="#F3EADB"/>
<path d="M88.7239 28.5097C88.6849 29.5133 87.8867 30.3514 86.9405 30.3821C85.9944 30.4129 85.2581 29.6246 85.2971 28.621C85.3361 27.6174 86.1356 26.7792 87.0818 26.7485C88.0279 26.7177 88.7629 27.506 88.7239 28.5097ZM87.5727 28.5471C87.5855 28.218 87.3446 27.9582 87.0343 27.9683C86.7228 27.9784 86.4611 28.2545 86.4483 28.5836C86.4356 28.9127 86.6764 29.1724 86.9879 29.1623C87.2982 29.1522 87.5599 28.8762 87.5727 28.5471Z" fill="#F3EADB"/>
<path d="M87.3266 34.5336C87.2876 35.5372 86.4893 36.3754 85.5432 36.4061C84.5971 36.4369 83.862 35.6486 83.901 34.645C83.94 33.6414 84.7383 32.8032 85.6844 32.7725C86.6305 32.7417 87.3656 33.53 87.3266 34.5336ZM86.1766 34.571C86.1894 34.2419 85.9472 33.9822 85.637 33.9923C85.3268 34.0024 85.0638 34.2785 85.051 34.6076C85.0382 34.9367 85.2803 35.1964 85.5906 35.1863C85.9008 35.1762 86.1638 34.9001 86.1766 34.571Z" fill="#F3EADB"/>
<path d="M80.9508 36.7436C80.9118 37.7472 80.1135 38.5853 79.1674 38.6161C78.2213 38.6468 77.4862 37.8585 77.5252 36.8549C77.5642 35.8513 78.3625 35.0132 79.3086 34.9824C80.2547 34.9517 80.9898 35.74 80.9508 36.7436ZM79.8008 36.781C79.8136 36.4519 79.5727 36.1921 79.2612 36.2023C78.951 36.2123 78.6893 36.4884 78.6765 36.8175C78.6637 37.1466 78.9046 37.4063 79.2148 37.3963C79.525 37.3862 79.788 37.1101 79.8008 36.781Z" fill="#F3EADB"/>
<path d="M77.2256 32.0133C77.1866 33.0169 76.3883 33.855 75.4422 33.8858C74.4961 33.9165 73.761 33.1282 73.8 32.1246C73.839 31.121 74.6373 30.2815 75.5835 30.2507C76.5296 30.22 77.2646 31.0097 77.2256 32.0133ZM76.0756 32.0506C76.0885 31.7202 75.8463 31.4619 75.536 31.4719C75.2258 31.482 74.9628 31.7568 74.95 32.0872C74.9372 32.4163 75.1794 32.6747 75.4897 32.6646C75.7999 32.6545 76.0628 32.3797 76.0756 32.0506Z" fill="#F3EADB"/>
<path d="M78.4574 25.8907C78.4184 26.8943 77.6201 27.7325 76.674 27.7632C75.7278 27.794 74.9928 27.0057 75.0318 26.002C75.0709 24.9971 75.8691 24.1589 76.8152 24.1282C77.7614 24.0974 78.4964 24.8857 78.4574 25.8907ZM77.3074 25.9281C77.3202 25.5976 77.078 25.3393 76.7678 25.3494C76.4575 25.3595 76.1946 25.6342 76.1818 25.9647C76.169 26.2938 76.4112 26.5521 76.7214 26.542C77.0317 26.5319 77.2946 26.2572 77.3074 25.9281Z" fill="#F3EADB"/>
<path d="M95.692 29.0688C95.333 38.3081 87.9818 46.0279 79.2731 46.311C70.5643 46.594 63.7941 39.3331 64.1531 30.0939C64.5122 20.8546 71.8647 13.1348 80.5734 12.8517C89.2822 12.5687 96.0511 19.8296 95.692 29.0688ZM94.5421 29.1062C94.8749 20.5415 88.6001 13.8105 80.526 14.0729C72.4518 14.3353 65.6372 21.4917 65.3044 30.0565C64.9715 38.6225 71.2464 45.3522 79.3205 45.0898C87.3947 44.8273 94.2092 37.6709 94.5421 29.1062Z" fill="#F3EADB"/>
<mask id="mask1_863_1442" style="mask-type:luminance" maskUnits="userSpaceOnUse" x="0" y="30" width="82" height="35">
<path d="M1.94441 33.3821L81.1918 30.1558L79.7857 61.6463L0.538232 64.8726L1.94441 33.3821Z" fill="white"/>
</mask>
<g mask="url(#mask1_863_1442)">
<path d="M79.385 56.0295C73.6757 56.0843 61.6795 59.4712 54.9535 61.3738C53.6685 61.7374 52.5762 62.0466 51.7701 62.2629C49.1527 62.9661 46.4515 63.0862 43.6678 62.9409C40.6841 62.7842 37.7308 61.7762 34.8844 59.6564C34.0617 59.0437 33.1972 58.3061 32.6929 57.28C30.419 52.6548 22.9584 45.183 20.6252 44.4379C18.682 43.8178 16.5852 44.0683 14.1119 44.3755C13.3815 44.4659 12.6191 44.5602 11.8361 44.6321C10.3365 44.7705 8.32188 45.753 6.50779 46.6472C5.30712 47.2386 4.08238 47.8543 3.34672 47.9217C3.23524 47.9314 3.11777 47.9323 2.99988 47.9138C2.61851 47.8505 2.33036 47.5857 2.28855 47.1493L2.28598 47.121L1.79206 37.1012C1.78246 36.8871 1.89016 36.6759 2.07316 36.5509C3.84681 35.3327 8.18139 33.389 15.1516 33.1382C19.1391 32.9956 24.2587 34.8008 30.46 38.8828C31.3727 39.484 32.081 40.2008 32.7174 40.843C32.9983 41.1262 33.2622 41.392 33.5307 41.6395C35.0181 43.0056 36.6596 45.6369 37.8107 47.4754C38.4052 48.4255 38.8521 49.1374 39.1104 49.4422L39.0689 49.4C41.097 51.2933 43.1936 52.592 45.3399 53.3512C47.4422 54.0953 49.4228 54.3599 51.3108 54.1281C52.3273 54.0028 54.883 53.3382 62.4986 51.2367C64.1088 50.7914 65.5749 50.9476 66.8372 51.377C67.1302 51.4763 67.2662 51.8041 67.1429 52.1089C67.0194 52.415 66.6827 52.5811 66.391 52.4819C65.2933 52.1091 64.0569 51.9849 62.7116 52.3561C55.1606 54.4408 52.482 55.1427 51.3525 55.2816C49.2566 55.5399 47.1027 55.2397 44.8811 54.4526C42.5802 53.639 40.3659 52.2585 38.2521 50.2847C38.2374 50.271 38.224 50.2561 38.212 50.2411C37.8931 49.8638 37.3939 49.0636 36.8243 48.1551C35.6435 46.2687 34.0823 43.7814 32.7201 42.5291C32.4307 42.2631 32.151 41.9811 31.8725 41.7004C31.2288 41.0508 30.5899 40.4074 29.7789 39.8744C23.6383 35.8326 18.7434 34.1695 15.0946 34.3009C8.30346 34.5444 4.20479 36.4359 2.66028 37.4962L2.94015 36.9447L3.43407 46.9645L3.43145 46.9375C3.42369 46.8538 3.33026 46.7737 3.27579 46.7642C3.27702 46.7655 3.29608 46.7673 3.33962 46.7642C3.79338 46.7212 4.74289 46.2666 6.07798 45.6089C7.81373 44.7541 10.0615 43.6369 11.829 43.4746C12.5916 43.4036 13.3373 43.3113 14.0689 43.2208C16.4909 42.9209 18.8439 42.6211 21.0526 43.3261C23.7709 44.1938 31.3987 51.9521 33.7299 56.6939C34.1197 57.4856 34.8121 58.101 35.6151 58.7002C38.307 60.7048 41.0647 61.6343 43.8242 61.7793C46.5444 61.9208 49.1128 61.7997 51.5661 61.1405C52.3619 60.926 53.4465 60.6197 54.7328 60.256C61.3722 58.3776 73.5666 54.9233 79.4713 54.8669C79.788 54.8631 80.0254 55.1209 80.0009 55.4424C79.9776 55.7638 79.7017 56.0256 79.385 56.0295Z" fill="#F3EADB"/>
</g>
<path d="M74.8058 56.9531C75.0032 56.9337 75.262 56.9311 75.5811 56.9467L75.5988 56.9475C78.3682 57.1712 79.871 57.2788 80.1048 57.2663C80.1035 57.2663 80.1023 57.2664 80.0997 57.2664C80.1277 57.2642 80.1556 57.2647 80.1834 57.2665C80.5174 57.291 81.6459 57.2658 83.5677 57.1922L83.5728 57.192C85.127 57.147 86.4508 56.886 87.5444 56.4076L87.5173 56.4205C91.1103 54.635 93.2031 53.4526 93.7956 52.8733L93.7996 52.8692C95.6323 51.1136 97.4214 49.1683 99.1694 47.0346C99.382 46.7756 99.7426 46.7325 99.9746 46.9391C100.208 47.1457 100.223 47.5234 100.01 47.7824C98.2302 49.9572 96.4042 51.9396 94.5359 53.7324L94.5398 53.7282C93.8512 54.4 91.6529 55.6564 87.9448 57.5002L87.9189 57.513C86.6887 58.0504 85.2242 58.3438 83.5265 58.3918L83.5316 58.3916C81.5691 58.4679 80.4 58.4917 80.0269 58.4644L80.1093 58.4645C80.0992 58.4648 80.0902 58.4664 80.0801 58.4667C79.7992 58.4807 78.2508 58.3732 75.4334 58.1443L75.4511 58.1464C75.1865 58.1332 74.9822 58.1341 74.8383 58.1492C74.5238 58.1815 74.2615 57.9397 74.2523 57.61C74.2431 57.279 74.4913 56.9855 74.8058 56.9531Z" fill="#F3EADB"/>
<path d="M13.8404 32.4421C13.8019 34.24 13.7978 35.8507 13.8255 37.2755L13.8247 37.2576L14.0304 41.4806C14.047 41.8073 14.0775 42.2287 14.1234 42.745C14.1529 43.0837 13.9119 43.4007 13.5831 43.4524C13.2542 43.5054 12.9632 43.2731 12.9337 42.9344C12.8858 42.4016 12.8544 41.9636 12.8371 41.6204L12.8372 41.619L12.6315 37.3974L12.6308 37.3795C12.6024 35.9367 12.6072 34.3067 12.645 32.4909C12.6529 32.1484 12.926 31.8609 13.2562 31.8465C13.5864 31.8334 13.847 32.0997 13.8404 32.4421Z" fill="#F3EADB"/>
<path d="M23.9599 34.6784L23.0489 37.7403L23.0579 37.7084L21.8066 42.8556C21.7249 43.1906 21.4044 43.412 21.0906 43.3486C20.7768 43.2853 20.5889 42.9626 20.6693 42.6276L21.9207 37.479L21.9297 37.4471L22.8408 34.3839C22.938 34.0525 23.2696 33.8501 23.5775 33.9315C23.8868 34.0114 24.0585 34.347 23.9599 34.6784Z" fill="#F3EADB"/>
<path d="M31.7581 39.8802C31.6555 40.131 31.4873 40.4742 31.2548 40.9096L31.2423 40.9319C30.4427 42.3113 29.6355 43.7852 28.8235 45.3523L28.8207 45.3579L28.8194 45.3579L28.8207 45.3565C28.3302 46.287 27.9378 47.0858 27.6435 47.753C27.5048 48.0678 27.1579 48.2225 26.8682 48.0964C26.5798 47.9716 26.4579 47.6145 26.598 47.2983C26.905 46.6034 27.3102 45.7754 27.8159 44.817L27.816 44.8157L27.8132 44.8199C28.6363 43.2346 29.4532 41.7426 30.264 40.3437L30.2528 40.3646C30.4644 39.9681 30.613 39.6653 30.6998 39.456C30.8309 39.1373 31.1743 38.9745 31.4669 39.091C31.7595 39.2088 31.8905 39.5615 31.7581 39.8802Z" fill="#F3EADB"/>
<path d="M37.071 47.2025C34.9056 49.8563 33.2799 52.0825 32.1938 53.8769C32.0166 54.1715 31.658 54.2731 31.3921 54.1059C31.1275 53.9374 31.0572 53.5636 31.2344 53.2703C32.3534 51.4203 34.0146 49.1439 36.2204 46.4398C36.4363 46.1752 36.8016 46.1307 37.0363 46.3411C37.2723 46.5528 37.2869 46.938 37.071 47.2025Z" fill="#F3EADB"/>
<path d="M42.9345 54.1088C43.0155 54.0735 43.0803 54.0264 43.1288 53.9703C42.9794 54.1428 42.2355 55.23 40.8957 57.2319C40.8876 57.2431 40.8794 57.2556 40.8712 57.2668C38.988 59.7252 37.9811 61.0648 37.8493 61.2831C37.8686 61.2497 37.8868 61.2096 37.9016 61.1601C37.8027 61.489 37.4775 61.6904 37.1734 61.6089C36.8694 61.5288 36.7023 61.1962 36.8012 60.8673C36.819 60.8067 36.8485 60.7431 36.887 60.6778C37.0449 60.4164 38.0805 59.035 39.9948 56.536L39.969 56.5709C41.3387 54.5258 42.1152 53.3953 42.2995 53.1822C42.3777 53.0897 42.4637 53.0242 42.5553 52.9831C42.8561 52.8493 43.186 52.9926 43.2909 53.3041C43.3945 53.6142 43.2353 53.975 42.9345 54.1088Z" fill="#F3EADB"/>
<path d="M48.1667 56.1192C48.0923 56.3671 48.0067 56.6359 47.9072 56.927L47.9086 56.9256C46.9575 59.7606 46.249 61.8514 45.7858 63.1992C45.672 63.5265 45.3359 63.7139 45.034 63.6177C44.7308 63.5201 44.576 63.1778 44.6885 62.8506C45.1529 61.5068 45.8586 59.4189 46.8083 56.5867L46.8097 56.5853C46.9033 56.3093 46.9845 56.0544 47.0544 55.8218C47.1541 55.4908 47.4828 55.2899 47.7905 55.3722C48.0982 55.4532 48.2663 55.7882 48.1667 56.1192Z" fill="#F3EADB"/>
<path d="M54.244 55.2916C54.2306 55.5923 54.2056 55.8824 54.1706 56.1604L54.1704 56.1659C54.1079 56.6196 54.0627 56.9626 54.0332 57.1949L53.5371 61.1291L53.5373 61.1236C53.507 61.3821 53.4761 61.7261 53.4449 62.1569C53.4194 62.4993 53.1338 62.7734 52.8081 62.7689C52.4811 62.7644 52.2365 62.4848 52.262 62.1423C52.2953 61.6922 52.3281 61.3289 52.3605 61.051L52.362 61.0455L52.8581 57.1113L52.858 57.1126C52.8876 56.8762 52.9331 56.529 52.9957 56.0698L52.9955 56.0753C53.0254 55.8319 53.0477 55.5778 53.0599 55.3115C53.0748 54.9694 53.3527 54.6886 53.6801 54.6821C54.0075 54.6769 54.2602 54.9494 54.244 55.2916Z" fill="#F3EADB"/>
<path d="M59.3552 53.6672L59.3553 53.6658C59.3674 53.6901 59.3806 53.7172 59.3926 53.7456C59.5429 54.1031 60.0178 56.0599 60.8185 59.6159C60.892 59.9415 60.6969 60.2864 60.3823 60.3867C60.0677 60.487 59.7534 60.3033 59.6798 59.9777C58.8947 56.4913 58.4407 54.6025 58.3178 54.3099C58.3202 54.3153 58.3238 54.3221 58.3286 54.3315C58.173 54.0441 58.2785 53.6622 58.5612 53.4792C58.8451 53.2961 59.1996 53.3798 59.3552 53.6672Z" fill="#F3EADB"/>
<path d="M63.9254 52.7004C64.2538 53.1889 64.512 53.5965 64.7 53.9218L64.7036 53.9285L65.97 56.1976L65.9567 56.1748C66.1867 56.5465 66.4731 56.9573 66.8145 57.4071C67.0078 57.6613 66.9581 58.0475 66.7038 58.2712C66.4495 58.4949 66.0864 58.4698 65.8931 58.2156C65.5308 57.7392 65.225 57.3004 64.9769 56.898L64.9636 56.8766L63.6972 54.6075L63.7008 54.6142C63.5248 54.3103 63.2811 53.9254 62.9675 53.4569C62.7887 53.19 62.8577 52.8045 63.123 52.5955C63.3884 52.3864 63.748 52.4334 63.9254 52.7004Z" fill="#F3EADB"/>
<path d="M59.2023 14.4329C58.908 14.4415 58.6158 14.6098 58.4489 14.9009C57.1131 17.2259 56.0319 19.9809 55.2038 23.1688L55.1977 23.191C54.1444 27.6557 53.7163 31.1716 53.9162 33.7375L53.9183 33.7526C54.158 36.3049 55.0013 39.039 56.4481 41.9561L56.4468 41.9562C57.1743 43.6259 58.7124 45.8798 61.0584 48.7168C61.2193 48.9102 61.448 49.0053 61.6832 48.9983C61.8829 48.9924 62.0866 48.9121 62.2537 48.7572C62.6164 48.4218 62.6698 47.8588 62.3733 47.5001C60.1064 44.7599 58.6427 42.6248 57.9849 41.0948C57.9788 41.0813 57.9728 41.0677 57.9654 41.0541C56.6164 38.3336 55.8311 35.807 55.6094 33.4757C55.4246 31.1075 55.8348 27.7916 56.8401 23.5293C57.6239 20.5105 58.6403 17.9156 59.8878 15.7433C60.1373 15.3107 60.0166 14.7707 59.6196 14.5389C59.4886 14.463 59.3455 14.4286 59.2023 14.4329Z" fill="#F3EADB"/>
</svg>
