<svg width="112" height="105" viewBox="0 0 112 105" fill="none" xmlns="http://www.w3.org/2000/svg">
<path d="M90.272 36.3486C89.3979 39.1108 88.2276 42.8946 86.9895 46.6532C86.66 47.6524 86.1895 48.6135 85.6732 49.5213C84.2032 52.1034 81.6478 53.0276 78.9676 51.7803C77.0247 50.8774 75.2547 49.7182 73.8938 47.7905C70.9101 43.5676 68.7546 38.8728 66.5628 34.2092C65.8514 32.6909 65.6131 30.8089 65.5822 29.0925C65.5367 26.6153 67.2907 25.431 69.3053 26.6475C74.048 29.516 78.7547 28.6457 83.5126 27.1972C84.8358 26.7948 86.1299 26.2866 87.4493 25.8653C88.0621 25.6708 88.7 25.4843 89.335 25.4511C91.2862 25.351 92.5484 26.7819 92.155 28.8107C91.7285 31.0039 91.0867 33.1444 90.2734 36.3475L90.272 36.3486ZM77.837 36.5103C77.8387 36.3371 77.8403 36.1651 77.842 35.9919C77.7686 36.0407 77.6417 36.0784 77.6341 36.139C77.6093 36.3072 77.6345 36.4847 77.6401 36.6591C77.7062 36.6092 77.7721 36.5605 77.8382 36.5105L77.837 36.5103ZM76.3171 46.5574C76.4371 46.6645 76.5501 46.7876 76.6854 46.8722C76.7249 46.8956 76.8259 46.8051 76.8979 46.7679C76.7795 46.6584 76.6692 46.5331 76.5374 46.4504C76.4957 46.4254 76.3919 46.518 76.3171 46.5574Z" fill="#B9CBD6"/>
<path d="M62.296 25.4621C63.3335 29.6065 64.2113 33.8047 65.4632 37.8801C66.3529 40.7721 67.6546 43.5498 68.9527 46.2861C69.9384 48.3617 71.588 49.9551 73.5067 51.0327C75.7491 52.2911 77.3265 54.0209 78.576 56.364C80.1441 59.3081 81.9774 62.079 82.1386 65.6673C82.2323 64.6895 82.2555 63.6939 82.4322 62.7345C83.0759 59.2606 84.066 55.9155 85.7876 52.8605C87.0531 50.6112 88.425 48.4143 89.5238 46.0738C91.2163 42.4704 92.2838 38.6478 92.5141 34.5579C92.809 29.302 93.233 24.0574 93.6154 18.624C91.633 19.7856 89.9801 20.9519 88.1777 21.7684C84.3805 23.4858 80.3199 23.8613 76.1939 23.8171C72.6709 23.7775 69.1498 23.882 65.6286 23.8176C64.5332 23.7984 63.4036 23.552 62.3511 23.2004C60.2893 22.5132 59.9082 21.4997 60.7297 19.37C61.8415 16.4851 65.3152 14.2056 68.5314 14.1913C69.3411 14.1876 70.191 14.1534 70.9504 13.9002C75.3964 12.4123 79.9818 11.7637 84.631 11.4367C86.7143 11.2917 88.647 11.7379 90.5231 12.7653C93.2703 14.27 94.8386 16.6425 94.9052 19.8146C94.9935 24.0157 94.7954 28.219 94.6879 32.4195C94.5976 35.993 93.616 39.3606 92.6896 42.7475C92.1399 44.7513 91.3049 46.5686 90.0992 48.1899C87.6309 51.5067 85.7818 55.2291 84.5975 59.2127C83.8971 61.5675 83.9446 64.2217 83.872 66.7526C83.6341 75.0073 85.4812 82.9326 87.9687 90.7243C88.3686 91.9784 89.1444 93.1059 89.7419 94.2844C86.9866 93.9255 86.3162 93.3982 85.7041 90.7244C85.2207 88.615 84.8987 86.469 84.4891 84.3422C84.2907 83.3022 84.0566 82.2672 83.695 81.2383C83.2303 83.4338 83.248 85.645 83.5086 87.8604C83.8276 90.5603 82.6204 92.485 80.5755 94.6359C80.6431 93.8163 80.5705 93.4445 80.7074 93.2127C82.1914 90.6719 82.3078 87.8615 82.0116 84.9897C81.2947 78.0567 80.4966 71.1307 79.833 64.193C79.7269 63.0872 79.5905 62.3739 79.1094 61.367C78.588 60.2719 78.0663 59.1794 77.5449 58.0842C77.3828 57.7457 77.2221 57.4061 77.0286 57.0876C76.2345 55.7764 75.3539 54.293 74.0154 53.5409C68.1215 50.2346 65.6357 44.3624 63.9014 38.1091C62.9619 34.7234 62.5907 31.1691 62.0228 27.6813C61.9031 26.9548 62.0383 26.1869 62.058 25.4389C62.1374 25.4462 62.2166 25.4548 62.2958 25.4634L62.296 25.4621ZM62.3563 21.237C64.1712 22.0223 66.1178 21.7461 68.022 21.7192C70.1522 21.6899 72.2931 21.2861 74.4044 21.4676C77.607 21.7416 80.7134 21.3918 83.8047 20.7426C86.749 20.1242 89.423 18.8901 91.8139 16.6409C90.0218 14.7425 88.2409 13.3262 85.6679 13.5745C79.6732 14.1555 73.6705 14.6706 67.6801 15.2774C65.9135 15.4581 64.6678 16.7285 63.5129 17.9948C62.768 18.8127 61.9547 19.6962 62.3577 21.2359L62.3563 21.237ZM82.0445 67.4595C82.115 67.4074 82.2398 67.3625 82.2473 67.3029C82.266 67.1237 82.2376 66.9397 82.2278 66.7573C82.1545 66.8117 82.0271 66.8575 82.0205 66.9198C82.0023 67.0951 82.0344 67.2797 82.0457 67.4597L82.0445 67.4595ZM83.6578 79.523C83.5877 79.5713 83.4648 79.6112 83.456 79.6718C83.4304 79.846 83.4503 80.0273 83.4532 80.2047C83.5258 80.1555 83.654 80.1138 83.663 80.0518C83.6871 79.8801 83.6619 79.7005 83.6564 79.5241L83.6578 79.523ZM83.3816 76.4114L83.2724 76.2516L83.1974 76.4496L83.3812 76.414L83.3816 76.4114ZM82.9554 75.0265L83.0374 75.153L83.0993 75.0097L82.9553 75.0278L82.9554 75.0265Z" fill="#B9CBD6"/>
<path d="M90.0536 86.8572C92.3962 85.6769 94.7622 85.1434 97.2836 85.2228C99.2865 85.2853 100.63 86.2759 101.419 88.1001C102.221 89.9512 102.041 91.7552 100.594 93.1598C97.224 96.4319 93.8598 99.7233 88.8745 100.067C87.6925 100.147 86.5443 100.593 85.3672 100.802C81.2335 101.539 77.1181 101.218 73.0925 99.9719C70.4353 99.1509 68.9238 96.9142 69.0406 94.3473C69.0735 93.6192 69.3319 92.8171 69.721 92.2213C70.232 91.4462 70.8836 90.6894 71.6356 90.1929C74.1236 88.5573 76.9675 87.859 79.7792 86.9126C80.3858 88.3288 79.3756 88.6746 78.7798 89.035C77.5959 89.7558 76.2904 90.2561 75.0654 90.9076C74.2504 91.3418 73.4194 91.7944 72.713 92.3935C71.1918 93.683 71.2199 95.4612 72.6495 96.8549C73.6672 97.8462 74.8765 98.2025 76.1974 98.3021C77.8447 98.4258 79.5166 98.8189 81.1337 98.6673C86.0588 98.2008 91.049 97.8283 95.1584 94.4616C96.24 93.5756 97.3772 92.7428 98.3453 91.7316C100.033 89.9653 99.6194 88.3691 97.2512 87.7808C95.5641 87.3605 93.7978 87.3237 92.0671 87.1122C91.3951 87.0306 90.7242 86.9399 90.0539 86.8546L90.0536 86.8572Z" fill="#B9CBD6"/>
<path d="M24.4592 45.4432C24.4591 47.6756 24.5112 49.911 24.4488 52.1401C24.3228 56.5573 22.7998 60.4824 20.8679 64.3097C19.315 67.383 18.0836 70.6405 16.6414 73.7802C15.7421 75.7368 14.5097 77.4122 12.1435 78.4434C12.5519 77.6545 12.7842 77.1306 13.0799 76.651C15.7351 72.321 18.1598 67.8806 19.5189 62.8436C20.1246 60.599 21.1442 58.4822 21.6842 56.2219C22.2014 54.0636 22.5033 51.8038 22.585 49.5712C22.6373 48.1532 22.2926 46.6327 21.8094 45.2775C20.9595 42.8984 20.7377 40.5767 21.0329 38.0599C21.9027 30.6363 23.5885 23.4306 25.5343 16.2807C25.6379 15.9039 25.7427 15.5274 25.8533 15.1544C26.166 14.0983 26.2222 12.6598 27.2084 12.2595C28.5368 11.7195 30.1008 11.3791 31.5078 11.5521C33.9882 11.8598 36.4307 12.5903 38.8799 13.1965C42.816 14.1691 46.5005 15.9595 50.0662 17.8775C53.1096 19.5134 54.8512 22.5973 55.6751 26.0846C55.8482 26.814 55.539 27.8218 55.1479 28.5026C53.3907 31.5659 51.4576 34.5129 49.7157 37.5839C46.8244 42.6774 42.9311 46.4666 37.6316 48.6448C35.3103 49.5987 33.0696 50.779 30.8356 51.946C29.2159 52.7908 28.1309 54.1096 27.4638 55.9934C25.7546 60.8245 23.4626 65.3757 21.3526 70.0152C20.1408 72.6755 19.8549 75.8284 19.192 78.7697C18.9606 79.7965 18.8465 80.8577 18.6308 82.1996C17.265 80.6372 17.1867 79.0612 17.5329 77.5777C18.1513 74.9222 18.8353 72.2626 19.7795 69.7274C21.53 65.0269 23.5217 60.432 25.3436 55.7614C26.5825 52.5841 28.7974 50.5289 31.7162 49.2278C33.1628 48.5838 34.6267 47.9729 36.1144 47.441C41.6953 45.4473 45.8686 41.6642 48.9147 36.4146C50.1949 34.2084 51.5031 32.0185 52.9094 29.6358C51.4119 29.1845 50.0963 28.5325 48.7535 28.4369C45.5245 28.2031 42.5571 27.2311 39.7119 25.6042C38.4035 24.8544 36.9745 24.3467 35.6356 23.6501C33.2614 22.4145 31.1372 20.8242 29.5425 18.5275C28.9351 17.654 28.2835 16.8131 27.6333 15.9315C26.1877 18.8081 24.6031 26.7661 23.7094 36.9328C24.4992 33.819 25.229 30.6837 26.1106 27.5976C26.4514 26.4075 27.0017 25.2255 27.7009 24.236C28.5769 22.9949 30.0267 22.796 31.1748 23.7751C34.9921 27.0365 39.4878 28.6138 44.0686 30.0213C44.608 30.1873 45.1717 30.3097 45.6686 30.5745C47.0459 31.3049 47.438 32.4464 46.7913 33.9878C44.1216 40.3435 39.5778 44.713 33.63 47.4757C30.8063 48.7879 28.179 47.4819 25.6251 46.1506C25.2156 45.9379 24.8186 45.6955 24.4177 45.4643C24.2775 45.223 24.1376 44.9792 23.9987 44.7381C23.9949 44.6478 24.0066 44.5547 23.9821 44.4703C23.9672 44.4191 23.8997 44.3873 23.855 44.3446C23.931 44.4582 24.0069 44.5719 24.0829 44.6855C24.2056 44.9372 24.328 45.1902 24.4517 45.4433L24.4592 45.4432ZM53.9257 27.0447C53.9564 26.8596 54.0665 26.6409 54.0084 26.4944C52.7724 23.3456 50.8509 20.9376 47.6365 19.9264C46.9227 19.7023 46.1771 19.5313 45.5151 19.1835C42.8883 17.8037 40.1128 17.151 37.235 16.7143C34.769 16.3416 32.2716 15.8795 30.1063 14.2972C29.6678 13.9756 29.0011 14.0057 28.0101 13.7733C29.7721 16.8447 31.5588 19.2893 34.1451 20.7023C37.1103 22.3218 40.2124 23.7493 43.3843 24.8092C46.6452 25.8991 50.0617 26.4476 53.4118 27.2152C53.5666 27.2503 53.7549 27.1073 53.9271 27.0436L53.9257 27.0447Z" fill="#F3EADB"/>
<path d="M21.4136 76.9064C23.5665 78.1731 25.7469 79.3892 27.863 80.7218C29.4759 81.7384 30.2865 83.525 29.9192 85.1851C29.4366 87.3779 27.9719 88.7349 25.9935 89.1959C24.5013 89.5446 22.8302 89.7043 21.3487 89.3639C18.4592 88.7001 15.6114 87.7439 12.8187 86.6854C10.9152 85.9649 9.05968 85.0012 7.31931 83.9018C4.80449 82.3115 2.68144 80.2819 2.03516 77.0368C1.62365 74.9701 1.92791 73.9907 3.59433 72.8379C4.19552 72.4226 4.8777 72.0945 5.56847 71.8762C7.35828 71.3044 10.988 71.9496 13.2694 73.2915C12.6683 73.4287 12.3065 73.5594 11.9347 73.5828C11.5728 73.6051 11.2043 73.5128 10.8391 73.4824C10.0176 73.4163 9.19501 73.2991 8.37422 73.3062C5.3916 73.3353 4.90445 73.6734 3.47139 76.5801C4.36703 79.2536 6.47236 80.7908 8.73517 81.8946C13.1239 84.0349 17.6972 85.7044 22.4278 86.7433C23.545 86.9881 24.7993 86.7833 25.9373 86.5352C26.9515 86.3133 27.7397 85.5855 27.9233 84.3794C28.1309 83.0126 27.0996 82.4693 26.2757 81.9171C22.8592 79.6318 22.846 79.6584 21.4154 76.912L21.4136 76.9064Z" fill="#B9CBD6"/>
</svg>
