<svg width="117" height="90" viewBox="0 0 117 90" fill="none" xmlns="http://www.w3.org/2000/svg">
<path d="M2.17985 36.9667C3.24605 36.3388 3.54805 35.6679 2.34715 34.2527C2.26492 35.5958 2.22238 36.2806 2.17985 36.9667ZM59.9491 60.7732C60.1745 60.796 60.4 60.8188 60.6254 60.8403C61.245 59.2871 61.3726 57.7884 59.7322 55.9947C59.8186 57.9086 59.8839 59.3415 59.9491 60.7732ZM82.6584 11.1905C85.9123 10.4196 88.928 9.15505 91.6389 7.40313C94.897 5.29805 98.6911 4.43222 102.454 3.53222C103.683 3.23981 105.121 3.42462 106.421 3.61829C109.92 4.13855 112.309 6.10439 114.294 9.1715C114.221 5.88287 112.749 4.08159 109.94 2.84107C106.797 1.45372 103.76 1.55499 100.534 2.46765C93.9428 4.33096 88.436 7.96263 82.6584 11.1905ZM27.8878 31.6097C30.179 31.6198 32.1682 31.6717 34.1546 31.6261C37.0456 31.559 39.9351 31.459 42.8189 31.2881C43.6186 31.2413 44.3956 30.8932 45.2051 30.678C44.1318 28.1679 44.068 28.0236 41.9356 28.1666C37.8367 28.4413 33.7477 28.8299 29.6601 29.2172C28.2267 29.3527 27.5022 30.0527 27.8878 31.6097ZM56.009 11.0323C56.0359 10.9386 56.0628 10.8437 56.0884 10.7487C54.9314 10.5285 53.7716 10.3095 52.6147 10.0854C47.3461 9.06264 42.1923 9.30821 37.1122 11.0234C34.709 11.8335 32.2179 12.4374 29.7565 13.1082C22.0053 15.2209 15.16 18.7361 9.58373 23.9818C7.53497 25.9096 6.05476 28.3223 4.3718 30.5476C4.11801 30.8831 4.17756 31.4084 4.09108 31.8451C7.50378 28.597 9.98213 24.7868 14.1108 22.2805C18.2736 19.7539 22.269 16.9425 27.0116 15.3336C31.5983 13.7766 36.2176 11.9905 41.0041 11.293C45.8914 10.5804 50.9984 11.069 56.009 11.0323ZM37.9615 76.0442C40.756 76.1366 43.1209 75.6708 45.3186 74.5315C50.7361 71.7277 53.3902 67.2429 54.8549 62.0504C55.0406 61.3935 55.0264 60.6479 54.9059 59.9707C53.6057 52.7364 49.9917 47.0705 42.0094 44.0224C38.1103 42.5338 34.4538 42.6287 30.6625 43.9288C24.3518 46.0921 20.9802 50.5655 19.2079 56.0554C17.2627 62.0859 18.438 67.5011 24.0555 71.7834C28.1615 74.9126 32.768 76.5986 37.9615 76.0442ZM7.12522 81.1037C5.77261 83.4278 5.84209 84.0658 7.44565 85.6987C8.94712 87.2253 10.8073 87.9987 13.0815 87.8772C15.9838 87.7215 18.9073 87.6646 21.7784 87.2949C28.0778 86.4861 34.3418 85.4506 40.6383 84.6076C49.0347 83.4822 57.4495 82.4531 65.8557 81.381C66.8525 81.2531 67.8464 81.1101 68.8431 80.9772C74.4293 80.2316 79.2216 78.0164 84.0847 74.4758C78.1143 76.6379 78.1143 76.6391 71.6121 75.6556C71.1712 75.5898 70.7387 75.448 70.2978 75.4277C69.647 75.3961 68.9579 75.3303 68.3384 75.467C60.3801 77.2354 52.1723 77.4062 44.0936 78.2822C32.1186 79.5822 20.0303 80.043 7.99009 80.8683C7.77458 80.8822 7.56616 80.9797 7.12522 81.1037ZM67.8634 31.335C68.405 33.7198 69.0884 35.7388 69.2883 37.7945C69.8625 43.6617 70.2255 49.5453 70.6962 55.4212C71.1882 61.5593 71.7099 67.6948 72.2246 73.9024C73.5177 74.1505 74.703 74.405 75.9025 74.5948C76.4483 74.6822 77.0211 74.6758 77.5797 74.6556C80.896 74.5379 82.7803 73.091 82.9703 70.1163C83.2638 65.5378 83.3999 60.9479 83.4566 56.3605C83.5162 51.4719 83.4807 46.5807 83.346 41.6933C83.2482 38.1097 82.8781 34.5388 81.2335 30.9628C76.8425 30.3628 72.5153 29.4451 67.8634 31.335ZM69.9093 73.2138C69.9915 72.3872 70.1702 71.6986 70.1121 71.0264C69.7151 66.3555 69.2373 61.6909 68.8445 57.0213C68.3072 50.6465 67.835 44.2693 67.2991 37.8945C67.1842 36.5249 67.1842 35.0856 65.8614 33.9552C65.3198 33.9109 64.7711 33.8185 64.2238 33.8287C54.8208 33.9958 45.4107 34.0097 36.0205 34.4021C26.867 34.7831 17.6738 35.0553 8.71602 37.1211C6.88135 37.5439 4.92476 37.6388 3.68416 39.2388C3.7508 40.7186 3.6714 42.2287 3.91101 43.6958C5.0552 50.7136 6.34116 57.7111 7.45132 64.7327C7.79302 66.8897 7.72071 69.0986 7.85682 71.2834C8.00994 73.7429 7.58176 76.2556 8.48917 78.5683C11.4567 79.5733 24.5205 78.8113 27.0811 77.5581C26.9152 77.4341 26.7706 77.2721 26.5806 77.1923C18.8421 73.891 15.7555 67.9467 15.2763 60.7643C14.9785 56.2808 16.7211 52.1655 19.1994 48.249C20.7491 45.7984 22.8163 43.9313 25.4761 42.5705C28.1147 41.2173 30.9617 40.3439 34.0284 40.0882C37.4071 39.8047 40.6724 40.2097 44.0142 40.7667C47.5814 41.3616 50.0328 43.0338 52.4091 45.2705C55.4886 48.1718 57.5303 51.7832 60.9118 54.4934C63.0215 56.1858 63.3051 58.6327 62.6841 61.177C62.1538 63.3454 60.1703 63.4137 58.2349 63.8352C57.2481 69.0973 53.7149 72.8416 49.1212 76.0759C55.9834 74.8771 63.1094 76.105 69.9093 73.2138ZM25.9766 28.6552C27.3987 28.3198 28.7442 27.9096 30.1294 27.697C31.9995 27.4096 33.8937 27.2299 35.7865 27.0818C38.9937 26.8324 42.2036 26.2704 45.5539 26.8754C46.6159 28.7198 47.6679 30.5413 48.7157 32.3578C54.3841 32.3223 59.7336 32.2894 64.3869 32.259C66.1436 31.0021 67.1913 29.8134 68.5383 29.3945C70.4793 28.7907 72.2303 28.1527 73.0753 26.8248C76.1732 25.6324 77.1657 28.859 79.6639 28.7869C80.4069 26.1881 82.6782 25.4678 85.1452 25.1147C87.7909 24.7362 90.4763 24.5716 93.1191 24.1818C94.5383 23.9729 96.0355 23.6982 97.2719 23.0906C100.7 21.407 104.016 19.5399 107.368 17.7311C109.464 16.5981 110.727 14.8855 111.729 12.9234C112.691 11.0348 112.282 9.431 110.913 7.91453C108.814 5.59046 104.725 4.47906 101.521 5.41324C97.8007 6.49806 94.1669 7.68541 90.8846 9.72974C85.8825 12.8424 80.3388 14.4677 74.1046 13.7627C71.7794 13.4994 69.4173 13.4791 67.0694 13.3741C61.262 13.112 55.4404 13.0044 49.6486 12.5715C44.8748 12.2158 40.2938 12.607 35.7468 13.9374C28.3458 16.1019 21.4537 19.0994 15.2153 23.2969C11.2851 25.9413 8.32895 29.2691 6.05476 33.1122C5.61382 33.8578 4.91909 34.6755 5.88321 35.678C9.24203 36.0844 12.3499 34.6072 15.6478 34.278C18.9456 33.9489 22.2945 33.8793 25.6264 32.8514C25.7342 31.5679 25.8306 30.3957 25.9766 28.6552ZM84.3938 28.9729C84.3328 30.5451 84.1428 32.1261 84.2336 33.6945C84.4746 37.8781 84.9496 42.0528 85.1197 46.2389C85.3168 51.1225 85.3338 56.0124 85.3437 60.8985C85.3494 63.6909 85.1438 66.4821 85.1211 69.2758C85.1126 70.3593 85.2601 71.4606 85.4926 72.5277C86.6396 77.7999 82.5336 82.2303 76.5192 81.8886C74.2294 81.7569 72.0899 82.0215 69.8937 82.4202C68.1484 82.7367 66.3633 82.886 64.5925 83.0784C62.3707 83.3215 60.1405 83.4911 57.923 83.7633C50.3859 84.6861 42.853 85.6329 35.3215 86.5899C33.4372 86.8291 31.5118 86.9835 29.6956 87.4532C24.9147 88.6899 19.9906 88.9241 15.0891 89.3443C11.4411 89.6582 8.19568 88.9392 5.71732 86.3063C4.22577 84.7202 3.52962 83.1114 4.89498 81.1404C6.17528 79.2898 6.19229 77.2151 6.25751 75.0796C6.49003 67.3264 4.95028 59.7542 3.65722 52.1516C3.38784 50.5706 3.11845 48.987 2.95965 47.3971C2.67892 44.5933 2.18836 41.8414 0.780456 39.2857C-0.406262 37.13 -0.165232 35.0198 1.00164 32.9438C4.58022 26.5805 9.32568 21.0425 16.195 17.2931C19.8956 15.2741 23.908 13.6639 27.9148 12.1576C30.8936 11.0386 34.1504 10.5183 37.1803 9.49302C43.7845 7.2563 50.3717 7.78288 56.9986 9.26138C59.4954 9.81834 62.0149 10.3057 64.4819 10.9551C71.7737 12.8703 78.4404 11.4703 84.7015 7.98668C89.0797 5.55249 93.4551 3.12335 98.3225 1.52967C99.7899 1.04865 101.299 0.654977 102.813 0.305608C106.729 -0.598197 110.156 0.600547 113.204 2.61575C116.266 4.63855 117.143 8.78163 115.705 12.4741C114.073 16.6652 110.884 19.6108 106.614 21.7058C102.463 23.7425 97.9709 24.9754 93.4353 26.1147C90.5514 26.8387 87.4932 27.1489 84.3938 28.9729Z" fill="#F3EADB"/>
<path d="M39.8399 60.5846C39.2983 59.4213 39.2983 59.4213 37.8479 59.6669C38.5426 59.9871 39.0856 60.2365 39.8399 60.5846ZM25.5454 55.7466C25.6092 55.4757 25.6291 55.3947 25.6475 55.3124C25.5497 55.2947 25.4348 55.239 25.3554 55.2656C24.7387 55.482 24.1191 55.6972 23.5222 55.9542C23.3903 56.0112 23.3478 56.2352 23.1139 56.6453C24.1163 56.2744 24.8876 55.9896 25.5454 55.7466ZM33.05 65.1467C32.9124 65.3087 32.7735 65.4695 32.636 65.6302C32.9649 66.0847 33.2938 66.5378 33.8879 67.3568C34.5103 66.8657 34.8804 66.5733 35.4688 66.11C34.2027 65.6049 33.6256 65.3771 33.05 65.1467ZM35.6871 68.4682C36.5251 68.8227 37.1673 69.0923 37.9741 69.4328C37.8153 67.3201 37.8153 67.3201 35.6871 68.4682ZM32.0632 62.9201C33.498 62.4302 34.1474 61.6555 34.3373 60.5276C33.5816 61.2201 31.6506 61.0061 32.0632 62.9201ZM32.2262 69.2897C31.557 67.4404 30.7091 65.31 30.0243 63.1403C29.4614 61.3568 28.6065 59.8099 26.8271 58.7567C25.7297 58.1086 24.5955 57.8491 23.3691 58.4302C22.2447 58.9643 22.0207 59.8795 21.9314 60.9365C21.5925 64.991 23.4754 67.9416 27.0838 70.3619C31.8476 73.5619 36.1834 73.8936 41.6207 70.8214C38.3484 71.7163 35.5 70.6809 32.2262 69.2897ZM47.9385 64.2922C49.888 62.6517 50.0199 62.4264 50.1277 60.7011C50.458 55.3567 45.9281 49.5529 40.3163 47.6946C37.2708 46.6858 34.6961 47.7503 32.0674 48.6111C30.8523 49.0098 30.4823 50.2719 30.59 51.4136C30.7261 52.8466 31.3401 54.1795 32.7522 54.9605C34.1573 55.7377 35.6488 56.4441 37.1957 56.9517C41.0479 58.215 44.557 59.7884 46.4924 63.2922C46.7405 63.7391 47.4636 63.9758 47.9385 64.2922ZM34.0453 45.4364C41.435 44.8997 46.3917 48.1491 50.1929 53.3896C53.1788 57.5086 52.4614 65.3188 48.6077 69.1682C46.2939 71.4809 43.0612 72.8328 39.6797 73.6822C32.3793 75.5176 26.579 73.7353 21.9881 68.2619C21.4607 67.634 20.9347 66.9138 20.7418 66.1669C19.1624 60.0416 19.9549 54.2529 24.2339 49.0934C26.6627 46.1655 30.3561 45.6832 34.0453 45.4364Z" fill="#F3EADB"/>
</svg>
