<svg width="286" height="76" viewBox="0 0 286 76" fill="none" xmlns="http://www.w3.org/2000/svg">
<path d="M34.9692 12.8379C34.9692 15.3864 34.4478 17.5483 33.4087 19.3275C32.377 21.0994 31.0353 22.5614 29.3837 23.7171C27.7285 24.8655 25.9639 25.7806 24.09 26.4587C22.2233 27.1296 20.4296 27.6546 18.7087 28.0338C16.9952 28.4129 15.566 28.7046 14.4212 28.9088V38.2275C14.4212 39.2192 14.7749 40.065 15.4858 40.765C16.204 41.4577 17.0608 41.8004 18.0525 41.8004V42.165H0.319153V41.8004C1.31082 41.8004 2.15665 41.4577 2.85665 40.765C3.55665 40.065 3.90665 39.2192 3.90665 38.2275V4.29208C3.90665 3.30042 3.55665 2.45458 2.85665 1.75458C2.15665 1.05458 1.31082 0.704584 0.319153 0.704584V0.354584H23.0692C25.2639 0.354584 27.2582 0.916043 29.0483 2.03167C30.8348 3.14 32.2712 4.64208 33.3504 6.53792C34.4296 8.42646 34.9692 10.5265 34.9692 12.8379ZM16.9879 0.704584H14.4212V28.3108C17.841 26.7942 20.2582 24.716 21.6692 22.0692C23.0874 19.415 23.7983 16.3379 23.7983 12.8379C23.7983 10.603 23.4848 8.57229 22.865 6.74208C22.2525 4.91552 21.4358 3.45354 20.415 2.3525C19.4014 1.2551 18.2603 0.704584 16.9879 0.704584Z" fill="#F3EADB"/>
<path d="M37.2851 38.8838V17.6213C37.2851 16.8629 37.0445 16.2176 36.5705 15.6817C36.0929 15.1384 35.5132 14.8067 34.8351 14.69V14.3254L45.058 12.8379C45.0945 12.8379 45.1236 12.8379 45.1455 12.8379C45.1637 12.8379 45.1929 12.8379 45.233 12.8379C45.9111 12.8379 46.2538 13.1733 46.2538 13.8442V38.8838C46.2538 39.5947 46.4908 40.2327 46.9684 40.7942C47.4424 41.3483 48.0221 41.6838 48.7038 41.8004V42.165H34.8351V41.8004C35.5132 41.6838 36.0929 41.3483 36.5705 40.7942C37.0445 40.2327 37.2851 39.5947 37.2851 38.8838ZM46.4288 5.00667C46.4288 6.2426 45.9695 7.32177 45.058 8.24417C44.1429 9.15927 43.0491 9.615 41.7767 9.615C40.4934 9.615 39.4033 9.15927 38.5101 8.24417C37.6132 7.32177 37.1684 6.2426 37.1684 5.00667C37.1684 3.73427 37.6132 2.64052 38.5101 1.72542C39.4033 0.813958 40.4934 0.354584 41.7767 0.354584C43.0491 0.354584 44.1429 0.813958 45.058 1.72542C45.9695 2.64052 46.4288 3.73427 46.4288 5.00667Z" fill="#F3EADB"/>
<path d="M67.3345 21.3838C67.8486 21.7848 68.3845 22.5614 68.9387 23.7171C69.5002 24.8655 70.0689 26.2254 70.6449 27.8004C71.2283 29.3754 71.8262 30.9796 72.4387 32.6129C73.0585 34.2463 73.7074 35.7702 74.3783 37.1775C75.0564 38.5884 75.7783 39.6931 76.5366 40.4879C77.3314 41.3629 78.2866 41.8004 79.3949 41.8004V42.165H68.5304C68.0528 42.165 67.6153 41.9864 67.2179 41.6254C66.8168 41.2681 66.4012 40.6483 65.9637 39.7733C65.446 38.7051 64.9173 37.4473 64.3741 35.9963C63.8382 34.5379 63.2986 33.0869 62.7554 31.6358C62.2194 30.1775 61.6944 28.8905 61.1804 27.7712C60.6627 26.6556 60.1668 25.8973 59.6929 25.4963C59.6929 25.7405 59.6929 26.4405 59.6929 27.5963C59.6929 28.7447 59.6929 30.0754 59.6929 31.5921C59.6929 33.1087 59.6929 34.5343 59.6929 35.865C59.6929 37.1994 59.6929 38.2056 59.6929 38.8838C59.6929 39.5947 59.9298 40.2327 60.4074 40.7942C60.8814 41.3483 61.4611 41.6838 62.1429 41.8004V42.165H48.2741V41.8004C48.9522 41.6838 49.5319 41.3483 50.0095 40.7942C50.4835 40.2327 50.7241 39.5947 50.7241 38.8838V5.12333C50.7241 4.41604 50.4835 3.78167 50.0095 3.2275C49.5319 2.66604 48.9522 2.32333 48.2741 2.20667V1.84208L58.497 0.354584C58.5335 0.354584 58.5627 0.354584 58.5845 0.354584C58.6028 0.354584 58.6319 0.354584 58.672 0.354584C59.3502 0.354584 59.6929 0.715521 59.6929 1.43375C59.6929 6.72386 59.6929 11.3905 59.6929 15.4338C59.6929 19.4806 59.6929 22.7181 59.6929 25.1462C60.6444 25.1462 61.709 24.8072 62.8866 24.1254C64.0606 23.4473 65.1835 22.6671 66.2554 21.7921C67.3345 20.9171 68.1877 20.1843 68.822 19.59C69.6168 18.7952 70.0179 17.8765 70.0179 16.8337C70.0179 15.8822 69.697 15.0619 69.0554 14.3692C68.421 13.6692 67.6481 13.2754 66.7366 13.1879V12.8379H79.3949C79.3949 12.8379 79.3949 12.878 79.3949 12.9546C79.3949 13.0348 79.3949 13.1114 79.3949 13.1879C77.9658 13.3155 76.5694 13.8259 75.2095 14.7192C73.8569 15.616 72.5335 16.6697 71.2429 17.8838C69.9486 19.1015 68.647 20.2681 67.3345 21.3838Z" fill="#F3EADB"/>
<path d="M102.104 34.1004C102.221 35.6572 101.758 37.0718 100.719 38.3442C99.6869 39.6202 98.2906 40.6265 96.5333 41.3629C94.7833 42.0921 92.8729 42.4567 90.802 42.4567C88.7786 42.4567 86.9156 42.1213 85.2166 41.4504C83.525 40.7723 82.1578 39.8463 81.1187 38.6796C80.0869 37.5056 79.5729 36.1785 79.5729 34.6983C79.5729 33.4259 80.0286 32.3431 80.9437 31.4463C81.8661 30.553 82.9453 30.1046 84.1812 30.1046C85.4536 30.1046 86.5474 30.553 87.4625 31.4463C88.3739 32.3431 88.8333 33.4259 88.8333 34.6983C88.8333 35.7775 88.6036 36.6051 88.1479 37.1775C87.6885 37.7535 87.2218 38.2275 86.7479 38.6067C86.2703 38.9858 86.0333 39.4343 86.0333 39.9483C86.0333 40.3968 86.252 40.8197 86.6895 41.2171C87.127 41.6072 87.6411 41.8442 88.2354 41.9317C88.6328 41.9718 89.0119 42.0119 89.3729 42.0483C89.7302 42.0884 90.2078 42.1067 90.802 42.1067C91.8812 42.1067 92.8 41.7275 93.5583 40.9692C94.3166 40.2108 94.6958 39.2994 94.6958 38.2275C94.6958 37.2285 94.3239 36.2588 93.5875 35.3254C92.8474 34.3921 91.9104 33.4588 90.7729 32.5254C89.6427 31.5848 88.4286 30.615 87.127 29.6233C85.8328 28.6244 84.6187 27.5963 83.4812 26.5463C82.351 25.489 81.4177 24.3515 80.6812 23.1338C79.9411 21.9197 79.5729 20.6181 79.5729 19.2254C79.5729 17.6322 80.1125 16.3197 81.1916 15.2879C82.2708 14.2489 83.5833 13.4796 85.1291 12.9838C86.6823 12.4879 88.1989 12.24 89.6791 12.24C91.1083 12.24 92.3078 12.3822 93.2812 12.6629C94.2619 12.9364 95.1369 13.1952 95.9062 13.4358C96.6828 13.6692 97.4958 13.7676 98.3416 13.7275C98.6515 13.691 98.9395 13.6108 99.202 13.4942C99.4645 13.3775 99.6724 13.239 99.8291 13.0713H100.121V22.7546C100.121 22.7546 100.092 22.7546 100.033 22.7546C99.975 22.7546 99.9057 22.7546 99.8291 22.7546C99.5849 21.5588 99.1875 20.228 98.6333 18.7588C98.0791 17.2822 97.2515 15.966 96.1541 14.8067C95.0531 13.6509 93.5328 12.9546 91.5895 12.7213C90.5468 12.5572 89.65 12.7577 88.8916 13.3192C88.1406 13.8733 87.725 14.7884 87.6375 16.0608C87.5573 17.3369 87.9656 18.5108 88.8625 19.59C89.7557 20.6619 90.8968 21.7265 92.2895 22.7838C93.6895 23.8338 95.1114 24.9202 96.5625 26.0358C98.0208 27.1551 99.264 28.3692 100.296 29.6817C101.335 30.9942 101.936 32.4671 102.104 34.1004Z" fill="#F3EADB"/>
<path d="M141.097 21.0775C143.204 21.1577 145.107 21.6864 146.799 22.6671C148.498 23.6405 149.854 24.9056 150.867 26.4587C151.877 28.0046 152.384 29.7364 152.384 31.6504C152.384 33.6046 151.844 35.3692 150.765 36.9442C149.693 38.5119 148.264 39.7733 146.478 40.7358C144.688 41.691 142.693 42.165 140.499 42.165H115.955V41.8004C116.947 41.8004 117.792 41.4577 118.492 40.765C119.192 40.065 119.542 39.2192 119.542 38.2275V4.29208C119.542 3.30042 119.192 2.45458 118.492 1.75458C117.792 1.05458 116.947 0.704584 115.955 0.704584V0.354584H138.413C140.367 0.354584 142.125 0.832188 143.692 1.78375C145.267 2.73896 146.522 4.01135 147.455 5.60458C148.395 7.20146 148.869 8.97333 148.869 10.9275C148.869 13.3593 148.129 15.514 146.653 17.3879C145.183 19.2546 143.331 20.4869 141.097 21.0775ZM130.057 0.704584V21.0775H132.259C133.375 21.0775 134.392 20.6218 135.307 19.7067C136.218 18.7952 136.944 17.5702 137.48 16.0317C138.023 14.4968 138.297 12.7942 138.297 10.9275C138.297 9.01344 138.023 7.2926 137.48 5.765C136.944 4.2301 136.218 3.0051 135.307 2.09C134.392 1.1676 133.375 0.704584 132.259 0.704584H130.057ZM133.455 41.8004C134.727 41.8004 135.89 41.3447 136.94 40.4296C137.998 39.5181 138.836 38.2858 139.449 36.74C140.068 35.1869 140.382 33.4697 140.382 31.5921C140.382 29.7181 140.068 28.0155 139.449 26.4879C138.836 24.953 137.998 23.728 136.94 22.8129C135.89 21.9015 134.727 21.4421 133.455 21.4421H130.057V41.8004H133.455Z" fill="#F3EADB"/>
<path d="M175.26 12.8379H186.62V13.1879C185.541 13.3155 184.462 13.7093 183.383 14.3692C182.311 15.0218 181.341 15.8129 180.466 16.7463C179.591 17.6796 178.909 18.6494 178.425 19.6483L165.766 46.1608C165.212 47.3931 164.964 48.6473 165.022 49.9233C165.081 51.2067 165.423 52.3515 166.058 53.365C166.7 54.3749 167.56 55.1624 168.639 55.7275C169.434 56.0848 170.291 56.2671 171.206 56.2671C171.884 56.2671 172.227 55.9062 172.227 55.1879C172.227 54.6702 171.993 54.1817 171.527 53.715C171.067 53.2556 170.601 52.7306 170.127 52.14C169.649 51.5457 169.412 50.7874 169.412 49.865C169.412 48.589 169.868 47.4952 170.783 46.5838C171.694 45.6687 172.77 45.2129 174.006 45.2129C175.278 45.2129 176.372 45.6687 177.287 46.5838C178.209 47.4952 178.672 48.589 178.672 49.865C178.672 50.9806 178.352 52.027 177.71 53.0004C177.076 53.9812 176.241 54.7869 175.202 55.4213C174.17 56.0629 173.058 56.4494 171.862 56.5879C170.666 56.7338 169.529 56.5442 168.45 56.0192C167.301 55.465 166.397 54.6374 165.737 53.54C165.084 52.4499 164.723 51.2431 164.658 49.9233C164.6 48.6108 164.869 47.3166 165.475 46.0442L167.327 42.165L154.595 15.4629C154.322 14.9088 153.903 14.4056 153.341 13.9463C152.787 13.4905 152.226 13.239 151.664 13.1879V12.8379H161.887C162.915 12.8379 163.63 13.239 164.031 14.0338L172.402 31.5338L178.425 18.8754C178.665 18.314 178.789 17.7343 178.789 17.14C178.789 16.1009 178.446 15.2077 177.768 14.4567C177.097 13.6983 176.259 13.2754 175.26 13.1879V12.8379Z" fill="#F3EADB"/>
<path d="M232.191 4.00042C232.665 4.95563 232.964 6.0275 233.081 7.22333C233.204 8.41917 233.27 9.51292 233.27 10.5046C233.27 13.8515 232.88 17.089 232.103 20.2171C231.323 23.3379 230.237 26.2364 228.837 28.9088C227.444 31.5739 225.84 33.8926 224.024 35.865C222.216 37.841 220.265 39.3869 218.176 40.5025C216.084 41.6108 213.965 42.165 211.818 42.165C208.989 42.165 206.677 41.1952 204.891 39.2483C203.101 37.2942 202.208 34.3848 202.208 30.5129V4.29208C202.208 3.30042 201.858 2.45458 201.158 1.75458C200.458 1.05458 199.612 0.704584 198.62 0.704584V0.354584H211.643C212.361 0.354584 212.722 0.73375 212.722 1.49208V38.1692C212.722 38.9202 213.007 39.5838 213.583 40.1671C214.155 40.7431 214.822 41.0275 215.581 41.0275C215.901 41.0275 216.259 40.9509 216.66 40.7942C220.247 39.3176 223.448 36.5285 226.27 32.4233C227.787 30.2358 229.059 27.8405 230.091 25.2338C231.13 22.6197 231.87 19.9218 232.308 17.14C232.548 15.791 232.53 14.6864 232.249 13.8296C231.965 12.9655 231.272 12.5317 230.164 12.5317C229.482 12.5317 228.895 12.6338 228.399 12.8379C227.903 13.0348 227.254 13.1296 226.46 13.1296C224.699 13.1296 223.193 12.5025 221.939 11.2483C220.685 9.99417 220.058 8.49208 220.058 6.74208C220.058 4.99208 220.685 3.49 221.939 2.23583C223.193 0.981667 224.699 0.354584 226.46 0.354584C227.732 0.354584 228.873 0.697292 229.887 1.37542C230.908 2.04625 231.673 2.92125 232.191 4.00042Z" fill="#B9CBD6"/>
<path d="M235.586 38.8838V17.6213C235.586 16.8629 235.345 16.2176 234.871 15.6817C234.394 15.1384 233.814 14.8067 233.136 14.69V14.3254L243.359 12.8379C243.395 12.8379 243.425 12.8379 243.446 12.8379C243.465 12.8379 243.494 12.8379 243.534 12.8379C244.212 12.8379 244.555 13.1733 244.555 13.8442V38.8838C244.555 39.5947 244.792 40.2327 245.269 40.7942C245.743 41.3483 246.323 41.6838 247.005 41.8004V42.165H233.136V41.8004C233.814 41.6838 234.394 41.3483 234.871 40.7942C235.345 40.2327 235.586 39.5947 235.586 38.8838ZM244.73 5.00667C244.73 6.2426 244.27 7.32177 243.359 8.24417C242.444 9.15927 241.35 9.615 240.078 9.615C238.794 9.615 237.704 9.15927 236.811 8.24417C235.914 7.32177 235.469 6.2426 235.469 5.00667C235.469 3.73427 235.914 2.64052 236.811 1.72542C237.704 0.813958 238.794 0.354584 240.078 0.354584C241.35 0.354584 242.444 0.813958 243.359 1.72542C244.27 2.64052 244.73 3.73427 244.73 5.00667Z" fill="#B9CBD6"/>
<path d="M265.635 21.3838C266.149 21.7848 266.685 22.5614 267.24 23.7171C267.801 24.8655 268.37 26.2254 268.946 27.8004C269.529 29.3754 270.127 30.9796 270.74 32.6129C271.359 34.2463 272.008 35.7702 272.679 37.1775C273.357 38.5884 274.079 39.6931 274.838 40.4879C275.632 41.3629 276.588 41.8004 277.696 41.8004V42.165H266.831C266.354 42.165 265.916 41.9864 265.519 41.6254C265.118 41.2681 264.702 40.6483 264.265 39.7733C263.747 38.7051 263.218 37.4473 262.675 35.9963C262.139 34.5379 261.599 33.0869 261.056 31.6358C260.52 30.1775 259.995 28.8905 259.481 27.7712C258.964 26.6556 258.468 25.8973 257.994 25.4963C257.994 25.7405 257.994 26.4405 257.994 27.5963C257.994 28.7447 257.994 30.0754 257.994 31.5921C257.994 33.1087 257.994 34.5343 257.994 35.865C257.994 37.1994 257.994 38.2056 257.994 38.8838C257.994 39.5947 258.231 40.2327 258.708 40.7942C259.182 41.3483 259.762 41.6838 260.444 41.8004V42.165H246.575V41.8004C247.253 41.6838 247.833 41.3483 248.31 40.7942C248.784 40.2327 249.025 39.5947 249.025 38.8838V5.12333C249.025 4.41604 248.784 3.78167 248.31 3.2275C247.833 2.66604 247.253 2.32333 246.575 2.20667V1.84208L256.798 0.354584C256.834 0.354584 256.864 0.354584 256.885 0.354584C256.904 0.354584 256.933 0.354584 256.973 0.354584C257.651 0.354584 257.994 0.715521 257.994 1.43375C257.994 6.72386 257.994 11.3905 257.994 15.4338C257.994 19.4806 257.994 22.7181 257.994 25.1462C258.945 25.1462 260.01 24.8072 261.188 24.1254C262.361 23.4473 263.484 22.6671 264.556 21.7921C265.635 20.9171 266.489 20.1843 267.123 19.59C267.918 18.7952 268.319 17.8765 268.319 16.8337C268.319 15.8822 267.998 15.0619 267.356 14.3692C266.722 13.6692 265.949 13.2754 265.038 13.1879V12.8379H277.696C277.696 12.8379 277.696 12.878 277.696 12.9546C277.696 13.0348 277.696 13.1114 277.696 13.1879C276.267 13.3155 274.87 13.8259 273.51 14.7192C272.158 15.616 270.834 16.6697 269.544 17.8838C268.249 19.1015 266.948 20.2681 265.635 21.3838Z" fill="#B9CBD6"/>
<path d="M281.578 42.4567C280.546 42.4567 279.671 42.103 278.953 41.3921C278.231 40.6739 277.874 39.7989 277.874 38.7671C277.874 37.728 278.231 36.8384 278.953 36.0983C279.671 35.3619 280.546 34.99 281.578 34.99C282.617 34.99 283.503 35.3619 284.232 36.0983C284.969 36.8384 285.34 37.728 285.34 38.7671C285.34 39.7989 284.969 40.6739 284.232 41.3921C283.503 42.103 282.617 42.4567 281.578 42.4567Z" fill="#B9CBD6"/>
<path d="M5.10955 66.3412C5.91528 66.3412 6.61528 66.4798 7.20955 66.7496C7.81111 67.0121 8.27413 67.3912 8.59497 67.8871C8.9158 68.3829 9.07622 68.9735 9.07622 69.6517C9.07622 70.3225 8.9158 70.9131 8.59497 71.4162C8.27413 71.9121 7.81111 72.2985 7.20955 72.5683C6.61528 72.8308 5.91528 72.9621 5.10955 72.9621H3.27205V75.485H1.14288V66.3412H5.10955ZM4.99288 71.2412C5.62361 71.2412 6.10486 71.1064 6.43663 70.8329C6.76476 70.5522 6.93247 70.1584 6.93247 69.6517C6.93247 69.1485 6.76476 68.7584 6.43663 68.485C6.10486 68.2043 5.62361 68.0621 4.99288 68.0621H3.27205V71.2412H4.99288Z" fill="#F3EADB"/>
<path d="M24.0938 66.3412V75.485H21.9647V71.7371H17.823V75.485H15.6938V66.3412H17.823V69.9433H21.9647V66.3412H24.0938Z" fill="#F3EADB"/>
<path d="M35.6706 75.6454C34.7154 75.6454 33.8623 75.4413 33.1039 75.0329C32.3456 74.6246 31.7477 74.0631 31.3102 73.3413C30.88 72.623 30.6685 71.81 30.6685 70.9058C30.6685 70.0126 30.88 69.2069 31.3102 68.485C31.7477 67.7668 32.3456 67.2017 33.1039 66.7933C33.8623 66.385 34.7154 66.1808 35.6706 66.1808C36.6222 66.1808 37.4789 66.385 38.2373 66.7933C38.9956 67.2017 39.5862 67.7668 40.0164 68.485C40.4539 69.2069 40.6727 70.0126 40.6727 70.9058C40.6727 71.81 40.4539 72.623 40.0164 73.3413C39.5862 74.0631 38.9956 74.6246 38.2373 75.0329C37.4789 75.4413 36.6222 75.6454 35.6706 75.6454ZM35.6706 73.8371C36.2138 73.8371 36.6987 73.7168 37.1289 73.4725C37.5664 73.221 37.9055 72.8746 38.1498 72.4371C38.4013 71.9923 38.5289 71.4819 38.5289 70.9058C38.5289 70.3444 38.4013 69.8413 38.1498 69.4038C37.9055 68.959 37.5664 68.6126 37.1289 68.3683C36.6987 68.1168 36.2138 67.9892 35.6706 67.9892C35.1347 67.9892 34.6498 68.1168 34.2123 68.3683C33.7748 68.6126 33.4284 68.959 33.1769 69.4038C32.9326 69.8413 32.8123 70.3444 32.8123 70.9058C32.8123 71.4819 32.9326 71.9923 33.1769 72.4371C33.4284 72.8746 33.7748 73.221 34.2123 73.4725C34.6498 73.7168 35.1347 73.8371 35.6706 73.8371Z" fill="#F3EADB"/>
<path d="M49.1467 68.0621H46.23V66.3412H54.1925V68.0621H51.2613V75.485H49.1467V68.0621Z" fill="#F3EADB"/>
<path d="M64.7464 75.6454C63.7912 75.6454 62.9381 75.4413 62.1797 75.0329C61.4214 74.6246 60.8235 74.0631 60.386 73.3413C59.9558 72.623 59.7443 71.81 59.7443 70.9058C59.7443 70.0126 59.9558 69.2069 60.386 68.485C60.8235 67.7668 61.4214 67.2017 62.1797 66.7933C62.9381 66.385 63.7912 66.1808 64.7464 66.1808C65.698 66.1808 66.5547 66.385 67.3131 66.7933C68.0714 67.2017 68.662 67.7668 69.0922 68.485C69.5297 69.2069 69.7485 70.0126 69.7485 70.9058C69.7485 71.81 69.5297 72.623 69.0922 73.3413C68.662 74.0631 68.0714 74.6246 67.3131 75.0329C66.5547 75.4413 65.698 75.6454 64.7464 75.6454ZM64.7464 73.8371C65.2896 73.8371 65.7745 73.7168 66.2047 73.4725C66.6422 73.221 66.9813 72.8746 67.2256 72.4371C67.4771 71.9923 67.6047 71.4819 67.6047 70.9058C67.6047 70.3444 67.4771 69.8413 67.2256 69.4038C66.9813 68.959 66.6422 68.6126 66.2047 68.3683C65.7745 68.1168 65.2896 67.9892 64.7464 67.9892C64.2105 67.9892 63.7256 68.1168 63.2881 68.3683C62.8506 68.6126 62.5042 68.959 62.2527 69.4038C62.0084 69.8413 61.8881 70.3444 61.8881 70.9058C61.8881 71.4819 62.0084 71.9923 62.2527 72.4371C62.5042 72.8746 62.8506 73.221 63.2881 73.4725C63.7256 73.7168 64.2105 73.8371 64.7464 73.8371Z" fill="#F3EADB"/>
<path d="M82.51 70.7746H84.4496V74.4788C83.9538 74.8579 83.3741 75.1496 82.7142 75.3538C82.0616 75.547 81.4053 75.6454 80.7454 75.6454C79.8012 75.6454 78.9517 75.4413 78.1934 75.0329C77.435 74.6246 76.8371 74.0668 76.3996 73.3558C75.9694 72.6376 75.7579 71.821 75.7579 70.9058C75.7579 70.0017 75.9694 69.1923 76.3996 68.4704C76.8371 67.7522 77.435 67.1944 78.1934 66.7933C78.959 66.385 79.8267 66.1808 80.7892 66.1808C81.584 66.1808 82.3095 66.3194 82.9621 66.5892C83.622 66.8626 84.1725 67.2527 84.61 67.7558L83.2538 69.01C82.6012 68.3319 81.8137 67.9892 80.8913 67.9892C80.3079 67.9892 79.7866 68.1131 79.3309 68.3538C78.8824 68.598 78.5324 68.9444 78.2809 69.3892C78.0256 69.8267 77.9017 70.3335 77.9017 70.9058C77.9017 71.4819 78.0256 71.9923 78.2809 72.4371C78.5324 72.8746 78.8824 73.221 79.3309 73.4725C79.7756 73.7168 80.2861 73.8371 80.8621 73.8371C81.4746 73.8371 82.0215 73.7058 82.51 73.4433V70.7746Z" fill="#F3EADB"/>
<path d="M97.2202 75.485L95.4557 72.9329H93.5161V75.485H91.3869V66.3412H95.3536C96.1593 66.3412 96.8593 66.4798 97.4536 66.7496C98.0551 67.0121 98.5182 67.3912 98.839 67.8871C99.1598 68.3829 99.3202 68.9735 99.3202 69.6517C99.3202 70.3334 99.1525 70.9204 98.8244 71.4162C98.5036 71.9121 98.0405 72.2876 97.439 72.5392L99.4952 75.485H97.2202ZM97.1765 69.6517C97.1765 69.1485 97.0088 68.7584 96.6807 68.485C96.3489 68.2043 95.8676 68.0621 95.2369 68.0621H93.5161V71.2558H95.2369C95.8676 71.2558 96.3489 71.1173 96.6807 70.8329C97.0088 70.5522 97.1765 70.1584 97.1765 69.6517Z" fill="#F3EADB"/>
<path d="M112 73.5308H107.756L106.954 75.485H104.781L108.85 66.3412H110.95L115.033 75.485H112.817L112 73.5308ZM111.344 71.9121L109.885 68.4121L108.442 71.9121H111.344Z" fill="#F3EADB"/>
<path d="M124.939 66.3412C125.744 66.3412 126.444 66.4798 127.039 66.7496C127.64 67.0121 128.103 67.3912 128.424 67.8871C128.745 68.3829 128.905 68.9735 128.905 69.6517C128.905 70.3225 128.745 70.9131 128.424 71.4162C128.103 71.9121 127.64 72.2985 127.039 72.5683C126.444 72.8308 125.744 72.9621 124.939 72.9621H123.101V75.485H120.972V66.3412H124.939ZM124.822 71.2412C125.453 71.2412 125.934 71.1064 126.266 70.8329C126.594 70.5522 126.762 70.1584 126.762 69.6517C126.762 69.1485 126.594 68.7584 126.266 68.485C125.934 68.2043 125.453 68.0621 124.822 68.0621H123.101V71.2412H124.822Z" fill="#F3EADB"/>
<path d="M143.923 66.3412V75.485H141.794V71.7371H137.652V75.485H135.523V66.3412H137.652V69.9433H141.794V66.3412H143.923Z" fill="#F3EADB"/>
<path d="M155.456 72.2475V75.485H153.341V72.2183L149.798 66.3412H152.058L154.493 70.3954L156.943 66.3412H159.014L155.456 72.2475Z" fill="#F3EADB"/>
</svg>
