<svg xmlns="http://www.w3.org/2000/svg" version="1.1" xmlns:xlink="http://www.w3.org/1999/xlink" width="1000" height="1000"><style>
    #light-icon {
      display: inline;
    }
    #dark-icon {
      display: none;
    }

    @media (prefers-color-scheme: dark) {
      #light-icon {
        display: none;
      }
      #dark-icon {
        display: inline;
      }
    }
  </style><g id="light-icon"><svg xmlns="http://www.w3.org/2000/svg" version="1.1" xmlns:xlink="http://www.w3.org/1999/xlink" width="1000" height="1000"><g clip-path="url(#SvgjsClipPath1095)"><rect width="1000" height="1000" fill="#f3eadb"></rect><g transform="matrix(1.4,0,0,1.4,150,150)"><svg xmlns="http://www.w3.org/2000/svg" version="1.1" xmlns:xlink="http://www.w3.org/1999/xlink" width="500" height="500"><svg xmlns="http://www.w3.org/2000/svg" xmlns:xlink="http://www.w3.org/1999/xlink" width="500" zoomAndPan="magnify" viewBox="0 0 375 374.999991" height="500" preserveAspectRatio="xMidYMid meet" version="1.2"><defs><clipPath id="SvgjsClipPath1095"><rect width="1000" height="1000" x="0" y="0" rx="500" ry="500"></rect></clipPath></defs><g id="b1b64f7de3"><rect x="0" width="375" y="0" height="374.999991" style="fill:#ffffff;fill-opacity:1;stroke:none;"></rect><rect x="0" width="375" y="0" height="374.999991" style="fill:#f3eadb;fill-opacity:1;stroke:none;"></rect><g style="fill:#403528;fill-opacity:1;"><g transform="translate(69.382936, 256.923924)"><path style="stroke:none" d="M 103.734375 -25.328125 C 105.898438 -27.078125 107.789062 -28.765625 109.40625 -30.390625 C 111.03125 -32.015625 112.582031 -33.703125 114.0625 -35.453125 C 115.550781 -37.210938 117.003906 -39.101562 118.421875 -41.125 C 119.835938 -43.15625 121.359375 -45.585938 122.984375 -48.421875 C 124.742188 -51.390625 126.195312 -53.882812 127.34375 -55.90625 C 128.488281 -57.9375 129.734375 -60.300781 131.078125 -63 C 132.429688 -65.707031 134.050781 -69.222656 135.9375 -73.546875 C 137.832031 -77.867188 140.539062 -83.945312 144.0625 -91.78125 C 148.914062 -102.851562 153.773438 -112.335938 158.640625 -120.234375 C 163.503906 -128.140625 168.535156 -134.625 173.734375 -139.6875 C 178.929688 -144.757812 184.398438 -148.441406 190.140625 -150.734375 C 195.890625 -153.035156 202.070312 -154.1875 208.6875 -154.1875 C 216.113281 -154.1875 222.019531 -152.597656 226.40625 -149.421875 C 230.800781 -146.242188 233 -141.957031 233 -136.5625 C 233 -132.238281 231.546875 -128.488281 228.640625 -125.3125 C 225.734375 -122.132812 222.320312 -120.546875 218.40625 -120.546875 C 216.113281 -120.546875 213.617188 -121.019531 210.921875 -121.96875 C 206.460938 -123.457031 203.21875 -124.203125 201.1875 -124.203125 C 199.300781 -124.203125 197.039062 -123.554688 194.40625 -122.265625 C 191.769531 -120.984375 189.304688 -119.265625 187.015625 -117.109375 C 184.441406 -114.679688 181.5 -110.898438 178.1875 -105.765625 C 174.882812 -100.628906 170.9375 -93.738281 166.34375 -85.09375 C 165.257812 -83.070312 164.347656 -81.347656 163.609375 -79.921875 C 162.867188 -78.503906 161.890625 -76.582031 160.671875 -74.15625 C 159.453125 -71.726562 157.796875 -68.421875 155.703125 -64.234375 C 153.609375 -60.046875 150.738281 -54.164062 147.09375 -46.59375 C 145.332031 -43.082031 143.203125 -39.46875 140.703125 -35.75 C 138.210938 -32.039062 135.476562 -28.429688 132.5 -24.921875 C 129.53125 -21.410156 126.492188 -18.132812 123.390625 -15.09375 C 120.285156 -12.050781 117.242188 -9.519531 114.265625 -7.5 C 109.140625 -3.851562 103.671875 -0.953125 97.859375 1.203125 C 92.046875 3.367188 86.847656 4.453125 82.265625 4.453125 C 79.015625 4.453125 76.207031 3.539062 73.84375 1.71875 C 71.488281 -0.101562 70.3125 -2.226562 70.3125 -4.65625 C 70.3125 -5.195312 70.375 -5.738281 70.5 -6.28125 C 70.632812 -6.820312 70.972656 -7.765625 71.515625 -9.109375 C 72.054688 -10.460938 72.9375 -12.390625 74.15625 -14.890625 C 75.375 -17.390625 77.128906 -20.9375 79.421875 -25.53125 C 81.179688 -28.90625 82.769531 -32.550781 84.1875 -36.46875 C 85.601562 -40.382812 86.816406 -44.265625 87.828125 -48.109375 C 88.835938 -51.960938 89.613281 -55.710938 90.15625 -59.359375 C 90.695312 -63.003906 90.96875 -66.382812 90.96875 -69.5 C 90.96875 -75.976562 89.785156 -81.109375 87.421875 -84.890625 C 85.054688 -88.671875 81.914062 -90.5625 78 -90.5625 C 75.4375 -90.5625 73.273438 -89.71875 71.515625 -88.03125 C 69.765625 -86.34375 68.890625 -84.351562 68.890625 -82.0625 C 68.890625 -80.164062 69.425781 -78.675781 70.5 -77.59375 C 71.582031 -76.519531 72.9375 -75.984375 74.5625 -75.984375 C 75.375 -75.984375 76.382812 -76.1875 77.59375 -76.59375 C 78.539062 -76.988281 79.285156 -77.1875 79.828125 -77.1875 C 80.503906 -77.1875 81.144531 -76.847656 81.75 -76.171875 C 82.363281 -75.503906 82.671875 -74.765625 82.671875 -73.953125 C 82.671875 -72.328125 82.023438 -70.429688 80.734375 -68.265625 C 79.453125 -66.109375 77.664062 -64.019531 75.375 -62 C 68.476562 -55.914062 60.507812 -52.875 51.46875 -52.875 C 47.007812 -52.875 42.851562 -53.753906 39 -55.515625 C 35.15625 -57.273438 31.8125 -59.707031 28.96875 -62.8125 C 26.132812 -65.914062 23.90625 -69.5625 22.28125 -73.75 C 20.664062 -77.9375 19.859375 -82.460938 19.859375 -87.328125 C 19.859375 -94.347656 21.476562 -101.066406 24.71875 -107.484375 C 27.957031 -113.898438 32.28125 -119.539062 37.6875 -124.40625 C 43.09375 -129.269531 49.335938 -133.148438 56.421875 -136.046875 C 63.515625 -138.953125 70.976562 -140.40625 78.8125 -140.40625 C 85.695312 -140.40625 91.976562 -139.253906 97.65625 -136.953125 C 103.332031 -134.660156 108.195312 -131.382812 112.25 -127.125 C 116.300781 -122.875 119.441406 -117.773438 121.671875 -111.828125 C 123.898438 -105.890625 125.015625 -99.273438 125.015625 -91.984375 C 125.015625 -87.117188 124.609375 -82.222656 123.796875 -77.296875 C 122.984375 -72.367188 121.734375 -67.203125 120.046875 -61.796875 C 118.359375 -56.390625 116.160156 -50.710938 113.453125 -44.765625 C 110.753906 -38.828125 107.515625 -32.347656 103.734375 -25.328125 Z M 103.734375 -25.328125 "></path></g></g></g></svg></svg></g></g></svg></g><g id="dark-icon"><svg xmlns="http://www.w3.org/2000/svg" version="1.1" xmlns:xlink="http://www.w3.org/1999/xlink" width="1000" height="1000"><g clip-path="url(#SvgjsClipPath1096)"><rect width="1000" height="1000" fill="#1e1e1e"></rect><g transform="matrix(1.4,0,0,1.4,150,150)"><svg xmlns="http://www.w3.org/2000/svg" version="1.1" xmlns:xlink="http://www.w3.org/1999/xlink" width="500" height="500"><svg xmlns="http://www.w3.org/2000/svg" xmlns:xlink="http://www.w3.org/1999/xlink" width="500" zoomAndPan="magnify" viewBox="0 0 375 374.999991" height="500" preserveAspectRatio="xMidYMid meet" version="1.2"><defs><clipPath id="SvgjsClipPath1096"><rect width="1000" height="1000" x="0" y="0" rx="500" ry="500"></rect></clipPath></defs><g id="53457ef725"><g style="fill:#b9cbd6;fill-opacity:1;"><g transform="translate(81.917757, 256.923924)"><path style="stroke:none" d="M 103.734375 -25.328125 C 105.898438 -27.078125 107.789062 -28.765625 109.40625 -30.390625 C 111.03125 -32.015625 112.582031 -33.703125 114.0625 -35.453125 C 115.550781 -37.210938 117.003906 -39.101562 118.421875 -41.125 C 119.835938 -43.15625 121.359375 -45.585938 122.984375 -48.421875 C 124.742188 -51.390625 126.195312 -53.882812 127.34375 -55.90625 C 128.488281 -57.9375 129.734375 -60.300781 131.078125 -63 C 132.429688 -65.707031 134.050781 -69.222656 135.9375 -73.546875 C 137.832031 -77.867188 140.539062 -83.945312 144.0625 -91.78125 C 148.914062 -102.851562 153.773438 -112.335938 158.640625 -120.234375 C 163.503906 -128.140625 168.535156 -134.625 173.734375 -139.6875 C 178.929688 -144.757812 184.398438 -148.441406 190.140625 -150.734375 C 195.890625 -153.035156 202.070312 -154.1875 208.6875 -154.1875 C 216.113281 -154.1875 222.019531 -152.597656 226.40625 -149.421875 C 230.800781 -146.242188 233 -141.957031 233 -136.5625 C 233 -132.238281 231.546875 -128.488281 228.640625 -125.3125 C 225.734375 -122.132812 222.320312 -120.546875 218.40625 -120.546875 C 216.113281 -120.546875 213.617188 -121.019531 210.921875 -121.96875 C 206.460938 -123.457031 203.21875 -124.203125 201.1875 -124.203125 C 199.300781 -124.203125 197.039062 -123.554688 194.40625 -122.265625 C 191.769531 -120.984375 189.304688 -119.265625 187.015625 -117.109375 C 184.441406 -114.679688 181.5 -110.898438 178.1875 -105.765625 C 174.882812 -100.628906 170.9375 -93.738281 166.34375 -85.09375 C 165.257812 -83.070312 164.347656 -81.347656 163.609375 -79.921875 C 162.867188 -78.503906 161.890625 -76.582031 160.671875 -74.15625 C 159.453125 -71.726562 157.796875 -68.421875 155.703125 -64.234375 C 153.609375 -60.046875 150.738281 -54.164062 147.09375 -46.59375 C 145.332031 -43.082031 143.203125 -39.46875 140.703125 -35.75 C 138.210938 -32.039062 135.476562 -28.429688 132.5 -24.921875 C 129.53125 -21.410156 126.492188 -18.132812 123.390625 -15.09375 C 120.285156 -12.050781 117.242188 -9.519531 114.265625 -7.5 C 109.140625 -3.851562 103.671875 -0.953125 97.859375 1.203125 C 92.046875 3.367188 86.847656 4.453125 82.265625 4.453125 C 79.015625 4.453125 76.207031 3.539062 73.84375 1.71875 C 71.488281 -0.101562 70.3125 -2.226562 70.3125 -4.65625 C 70.3125 -5.195312 70.375 -5.738281 70.5 -6.28125 C 70.632812 -6.820312 70.972656 -7.765625 71.515625 -9.109375 C 72.054688 -10.460938 72.9375 -12.390625 74.15625 -14.890625 C 75.375 -17.390625 77.128906 -20.9375 79.421875 -25.53125 C 81.179688 -28.90625 82.769531 -32.550781 84.1875 -36.46875 C 85.601562 -40.382812 86.816406 -44.265625 87.828125 -48.109375 C 88.835938 -51.960938 89.613281 -55.710938 90.15625 -59.359375 C 90.695312 -63.003906 90.96875 -66.382812 90.96875 -69.5 C 90.96875 -75.976562 89.785156 -81.109375 87.421875 -84.890625 C 85.054688 -88.671875 81.914062 -90.5625 78 -90.5625 C 75.4375 -90.5625 73.273438 -89.71875 71.515625 -88.03125 C 69.765625 -86.34375 68.890625 -84.351562 68.890625 -82.0625 C 68.890625 -80.164062 69.425781 -78.675781 70.5 -77.59375 C 71.582031 -76.519531 72.9375 -75.984375 74.5625 -75.984375 C 75.375 -75.984375 76.382812 -76.1875 77.59375 -76.59375 C 78.539062 -76.988281 79.285156 -77.1875 79.828125 -77.1875 C 80.503906 -77.1875 81.144531 -76.847656 81.75 -76.171875 C 82.363281 -75.503906 82.671875 -74.765625 82.671875 -73.953125 C 82.671875 -72.328125 82.023438 -70.429688 80.734375 -68.265625 C 79.453125 -66.109375 77.664062 -64.019531 75.375 -62 C 68.476562 -55.914062 60.507812 -52.875 51.46875 -52.875 C 47.007812 -52.875 42.851562 -53.753906 39 -55.515625 C 35.15625 -57.273438 31.8125 -59.707031 28.96875 -62.8125 C 26.132812 -65.914062 23.90625 -69.5625 22.28125 -73.75 C 20.664062 -77.9375 19.859375 -82.460938 19.859375 -87.328125 C 19.859375 -94.347656 21.476562 -101.066406 24.71875 -107.484375 C 27.957031 -113.898438 32.28125 -119.539062 37.6875 -124.40625 C 43.09375 -129.269531 49.335938 -133.148438 56.421875 -136.046875 C 63.515625 -138.953125 70.976562 -140.40625 78.8125 -140.40625 C 85.695312 -140.40625 91.976562 -139.253906 97.65625 -136.953125 C 103.332031 -134.660156 108.195312 -131.382812 112.25 -127.125 C 116.300781 -122.875 119.441406 -117.773438 121.671875 -111.828125 C 123.898438 -105.890625 125.015625 -99.273438 125.015625 -91.984375 C 125.015625 -87.117188 124.609375 -82.222656 123.796875 -77.296875 C 122.984375 -72.367188 121.734375 -67.203125 120.046875 -61.796875 C 118.359375 -56.390625 116.160156 -50.710938 113.453125 -44.765625 C 110.753906 -38.828125 107.515625 -32.347656 103.734375 -25.328125 Z M 103.734375 -25.328125 "></path></g></g></g></svg></svg></g></g></svg></g></svg>