<svg width="63" height="99" viewBox="0 0 63 99" fill="none" xmlns="http://www.w3.org/2000/svg">
<mask id="mask0_863_1479" style="mask-type:luminance" maskUnits="userSpaceOnUse" x="0" y="0" width="63" height="99">
<path d="M0 0H63V98.766H0V0Z" fill="white"/>
</mask>
<g mask="url(#mask0_863_1479)">
<path fill-rule="evenodd" clip-rule="evenodd" d="M62.6998 41.1273C63.07 39.5537 63.1448 38.0011 62.627 36.6411C62.2488 35.6499 61.4496 34.9665 60.4569 34.489C59.2346 33.9019 57.7061 33.637 56.5537 33.352C56.404 33.3158 56.2533 33.3225 56.1166 33.3663C55.4102 33.1948 54.7058 33.0099 54.0024 32.8211L59.2715 14.7431C59.5559 13.7033 60.4309 11.8133 60.8041 10.2321C61.0326 9.26191 61.0595 8.38889 60.8051 7.7913C60.6105 7.33192 60.1186 6.93734 59.4431 6.67238C58.5951 6.34071 57.4317 6.18059 56.7891 6.02048L57.1174 4.88154C57.1453 4.83675 57.1812 4.79672 57.1992 4.74525C57.2421 4.6223 57.2381 4.4984 57.2152 4.37927C57.2072 4.05903 56.9947 3.76644 56.6554 3.67494C56.5297 3.64158 56.406 3.6473 56.2873 3.67113L44.6714 0.100884C44.4459 0.024637 44.2135 0.0608541 44.0219 0.167599C43.6238 0.10279 43.2327 0.329623 43.1309 0.70895L42.9453 1.37706C42.2539 1.16643 41.5046 0.903379 40.7672 0.827132C40.2973 0.779478 39.8313 0.802352 39.3834 0.930065C38.8486 1.08256 38.4175 1.39326 38.0703 1.79356C37.6473 2.28249 37.3589 2.91533 37.1424 3.47384L35.1818 9.72892C34.1043 13.3401 32.6825 16.8799 31.4872 20.4663C31.0192 21.8683 30.5952 23.2798 30.229 24.7037C28.3961 23.9603 26.2071 22.9729 24.1507 22.6203C22.8177 22.3916 21.5386 22.4249 20.4181 22.8786C19.0143 23.4476 17.3301 26.2487 15.8314 29.9066C13.2742 36.1464 10.9215 44.8424 10.0704 47.3919L2.47454 70.385C1.89784 72.2625 0.662625 74.5395 0.262527 76.7153C0.0619791 77.8057 0.0639747 78.8741 0.395228 79.871C0.920045 81.4398 2.21014 82.6206 3.81751 83.528C5.10561 84.2542 6.59625 84.8051 7.98013 85.2778C7.71972 86.1823 7.43536 87.1573 7.31962 88.1275C7.21785 88.9825 7.24679 89.8307 7.50321 90.6294C8.05696 92.3526 9.09861 92.5518 10.0365 92.2296C11.0911 91.8665 12.2236 90.4016 12.5438 89.3751L13.2523 87.1306C16.1517 88.1437 19.0721 89.0816 22.0125 89.9565C24.7523 90.7704 27.5161 91.5138 30.2899 92.2287C30.0304 92.9883 29.782 93.8327 29.6992 94.6695C29.6283 95.3986 29.6822 96.1182 29.9307 96.7777C30.2719 97.6822 30.9833 98.3103 31.7735 98.5438C32.6266 98.7954 33.5954 98.6191 34.3697 97.788C34.7219 97.4096 34.9903 96.9693 35.2018 96.4927C35.5749 95.654 35.7645 94.7019 36.01 93.8479L38.651 94.7124C40.5697 95.1003 42.2519 93.9166 43.5869 91.8884C45.7819 88.5555 47.1409 82.9494 47.8962 80.9232L51.4172 71.8975C52.7662 68.6227 54.0413 65.3241 55.2715 62.0102C57.1164 57.0466 58.8605 52.0496 60.6015 47.0488C61.1902 45.357 62.2059 43.2212 62.6998 41.1273ZM43.8453 3.99232L44.5008 1.622L55.4591 4.99019L54.7537 7.44057L43.8453 3.99232ZM39.1519 2.91248C39.3255 2.66849 39.535 2.45118 39.8343 2.36541C40.1746 2.26819 40.5338 2.29488 40.892 2.35969C41.4557 2.46357 42.0184 2.66277 42.5442 2.82575L42.1581 4.22106C42.0444 4.6204 42.2918 5.03308 42.7099 5.14173C42.7797 5.15984 42.8485 5.15508 42.9174 5.15508C43.0162 5.26278 43.1379 5.35427 43.2935 5.39525L55.0071 9.09702C55.2426 9.15993 55.4771 9.1037 55.6627 8.97789C55.8592 8.88449 56.0169 8.72056 56.0757 8.50135L56.3751 7.46058C56.9138 7.58925 57.7749 7.71792 58.5212 7.94665C58.8884 8.06007 59.2536 8.12583 59.3514 8.35457C59.512 8.73295 59.4182 9.28669 59.2725 9.90238C58.9034 11.4654 58.0343 13.3354 57.752 14.3647L52.4968 32.4008C50.8286 31.9243 49.1673 31.4068 47.512 30.8597C47.8573 29.858 48.4419 28.6571 48.5776 27.5277C48.6624 26.8234 48.5826 26.1477 48.2534 25.5406C48.0837 25.2279 47.8303 24.9868 47.521 24.8038C47.0411 24.5188 46.3965 24.3978 45.9007 24.2491C44.7962 23.9194 42.8795 23.134 41.2831 23.0311C40.3272 22.9691 39.4722 23.1474 38.8506 23.6439C38.4205 23.987 38.1182 24.4712 37.9147 25.0345C37.6572 25.7483 37.5704 26.5985 37.4816 27.3247C35.549 26.6233 33.6203 25.9265 31.6977 25.2632C32.0668 23.8031 32.5029 22.3582 32.9818 20.92C34.1821 17.3193 35.6089 13.7662 36.6914 10.1406L38.6141 3.99232C38.7508 3.64063 38.9154 3.24701 39.1519 2.91248ZM38.9863 27.8689C39.0641 27.2618 39.1209 26.5289 39.2946 25.8636C39.4053 25.4376 39.552 25.0383 39.8583 24.7933C40.3163 24.4264 41.0167 24.4731 41.752 24.5941C43.091 24.8162 44.5407 25.4138 45.4317 25.6807C45.732 25.7693 46.1002 25.8389 46.4345 25.9609C46.6041 26.0219 46.7787 26.08 46.8605 26.2296C47.1159 26.7014 47.068 27.2485 46.9373 27.8041C46.7328 28.6876 46.3137 29.5835 46.0304 30.3651C43.6717 29.5635 41.325 28.7181 38.9863 27.8689ZM17.2931 30.4527C18.5862 27.2942 19.8185 24.7504 21.0317 24.2587C22.1672 23.7983 23.5151 23.9556 24.888 24.3197C27.0911 24.9029 29.348 26.0466 31.0481 26.6318C35.9421 28.3178 40.864 30.2126 45.8388 31.8928C49.1853 33.0251 52.5557 34.0611 55.957 34.875C56.1077 34.9103 56.2573 34.9027 56.394 34.8588C57.4197 35.099 58.7088 35.3277 59.7505 35.8281C60.377 36.1293 60.9138 36.5286 61.1513 37.1529C61.5723 38.2575 61.4696 39.5194 61.1683 40.7984C60.6873 42.8428 59.6866 44.9243 59.1109 46.576C57.3738 51.5683 55.6327 56.5548 53.7929 61.5089C52.5676 64.8075 51.2995 68.0899 49.9575 71.3495L46.4175 80.4209C46.0793 81.3292 45.6203 82.9828 45.0167 84.8156L30.4016 80.1197L13.6643 75.4925L8.6586 73.9323C7.44634 73.4663 6.265 72.8982 5.04176 72.4484C4.55685 72.2692 4.06296 72.1139 3.56109 71.9823C3.71874 71.5782 3.86441 71.1836 3.98015 70.8081L11.5661 47.8474C12.4121 45.3113 14.7489 36.6602 17.2931 30.4527ZM11.0392 88.9462C10.8656 89.5047 10.3518 90.2729 9.78506 90.6675C9.47077 90.8867 9.1924 90.7743 9.00383 90.1891C8.80926 89.5858 8.80228 88.9434 8.87911 88.2972C8.98088 87.4423 9.22832 86.5835 9.46179 85.7791C9.79903 85.8935 10.1263 86.0069 10.4256 86.1165C10.8756 86.2824 11.3286 86.4406 11.7806 86.6026L11.0392 88.9462ZM33.8987 95.554C33.7321 96.0105 33.5216 96.4432 33.1963 96.792C32.906 97.1027 32.5557 97.2057 32.2355 97.1113C31.8703 97.0036 31.566 96.6881 31.4073 96.2697C31.2357 95.8132 31.2128 95.3138 31.2627 94.8096C31.3365 94.0548 31.572 93.2952 31.8074 92.6156C32.4749 92.7833 33.1384 92.9635 33.8089 93.1265L34.5233 93.3609C34.3198 94.0624 34.1611 94.8363 33.8987 95.554ZM38.9773 93.2456L34.196 91.674C30.2569 90.7161 26.3507 89.6753 22.4785 88.525C18.6132 87.3756 14.7828 86.1165 10.9913 84.7184C9.22433 84.0674 6.65213 83.386 4.61671 82.2375C3.35855 81.5275 2.30093 80.643 1.89185 79.4154C1.54763 78.3832 1.6923 77.2548 2.00859 76.1168C2.26302 75.198 2.63019 74.2754 2.99537 73.3853C3.49923 73.5092 3.99112 73.6674 4.47603 73.8466C5.69229 74.2945 6.86664 74.8597 8.07193 75.3229L13.2054 76.926L29.9147 81.5456L44.5268 86.2395C43.9052 87.9655 43.1569 89.7249 42.2579 91.0907C41.335 92.4946 40.3053 93.5144 38.9773 93.2456Z" fill="#F3EADB"/>
</g>
<path fill-rule="evenodd" clip-rule="evenodd" d="M36.1042 75.5495C36.5243 75.6496 36.9513 75.4056 37.0561 75.0044C37.2756 74.1638 37.533 73.3336 37.8114 72.5102C38.4719 70.5535 39.2511 68.6311 39.9356 66.684L47.312 45.7829C47.4407 45.3874 47.2092 44.967 46.7951 44.846C46.3811 44.7231 45.942 44.9442 45.8133 45.3397L38.4469 66.2065C37.7605 68.1603 36.9812 70.0874 36.3177 72.0498C36.0284 72.9057 35.762 73.7682 35.5325 74.6413C35.4287 75.0425 35.6842 75.4495 36.1042 75.5495Z" fill="#F3EADB"/>
<path fill-rule="evenodd" clip-rule="evenodd" d="M25.8698 71.781C25.7451 72.1775 25.9806 72.5949 26.3946 72.7141C26.8097 72.8332 27.2477 72.6083 27.3724 72.2127C28.2984 69.2715 29.2322 66.3303 30.218 63.4063C30.8735 61.4591 31.554 59.5215 32.2694 57.5953L37.9795 42.4756C38.1132 42.0811 37.8867 41.6588 37.4747 41.5311C37.0626 41.4044 36.6196 41.6207 36.4859 42.0134L30.7897 57.094C30.0694 59.0335 29.3849 60.9864 28.7234 62.9469C27.7346 65.8805 26.7987 68.8312 25.8698 71.781Z" fill="#F3EADB"/>
<path fill-rule="evenodd" clip-rule="evenodd" d="M18.1676 62.8622L16.0085 69.6129C15.9077 70.0151 16.1671 70.4192 16.5892 70.5164C17.0102 70.6126 17.4343 70.3639 17.535 69.9617L19.6702 63.2968C21.5061 57.5144 23.5864 51.8112 25.4951 46.0546C26.3152 43.5775 27.1055 41.0909 27.8308 38.5843C27.9466 38.1859 27.7021 37.7723 27.2841 37.6617C26.866 37.5521 26.434 37.7866 26.3182 38.185C25.5979 40.6735 24.8136 43.1429 23.9985 45.6019C22.0878 51.3642 20.0065 57.0741 18.1676 62.8622Z" fill="#F3EADB"/>
<path fill-rule="evenodd" clip-rule="evenodd" d="M18.6153 69.8023C18.6093 69.8194 18.6182 69.8385 18.6362 69.8452C18.6542 69.8518 18.6741 69.8423 18.6801 69.8251C19.9343 66.8935 21.1865 63.9665 22.3379 60.9977C23.1041 59.0191 23.8425 57.03 24.5239 55.0238C25.376 52.5143 26.1403 49.981 26.8936 47.4439C27.6469 44.9059 28.3443 42.3573 29.0477 39.8059C28.1577 42.303 27.2378 44.7839 26.3378 47.2771C25.4369 49.7675 24.5169 52.2474 23.6429 54.7455C22.9435 56.7431 22.276 58.7503 21.6085 60.7575C20.6068 63.7731 19.6499 66.7962 18.6153 69.8023Z" fill="#F3EADB"/>
<path fill-rule="evenodd" clip-rule="evenodd" d="M34.0682 55.1825C34.0871 55.1882 34.1061 55.1787 34.1111 55.1606C34.7137 53.7433 35.5239 52.3366 36.2712 50.865C36.5126 50.3885 36.7421 49.9034 36.9547 49.4135C37.1692 48.9188 37.3637 48.4185 37.5403 47.9162C38.1579 46.1559 38.584 44.3965 38.7257 42.7009C38.3076 44.4146 37.4884 46.1139 36.6483 47.8628C36.4348 48.3089 36.2203 48.7568 36.0228 49.2124C35.7254 49.9005 35.451 50.5972 35.1966 51.2949C34.7227 52.592 34.3435 53.8825 34.0462 55.1415C34.0402 55.1587 34.0512 55.1768 34.0682 55.1825Z" fill="#F3EADB"/>
<path fill-rule="evenodd" clip-rule="evenodd" d="M28.3368 72.3985C28.8017 71.1967 29.2996 70.0177 29.7765 68.8206C30.2525 67.6283 30.7454 66.4455 31.1834 65.2399C31.5336 64.2773 31.8449 63.3013 32.1472 62.3235C32.6012 60.849 32.9863 59.367 33.4163 57.884C33.4223 57.8659 33.4133 57.8468 33.3944 57.8411C33.3774 57.8354 33.3575 57.844 33.3515 57.8611C32.7 59.2717 32.0205 60.6556 31.4178 62.0814C31.0177 63.0307 30.6356 63.9856 30.3034 64.9568C29.8873 66.1749 29.5501 67.411 29.2208 68.6519C28.8905 69.8957 28.6152 71.1414 28.3368 72.3985Z" fill="#F3EADB"/>
<path fill-rule="evenodd" clip-rule="evenodd" d="M38.3127 75.1176C38.7687 73.8137 39.3364 72.529 39.8732 71.2033C40.2214 70.3417 40.5736 69.4782 40.8929 68.6042C41.1074 68.0171 41.284 67.4233 41.4746 66.8334C41.766 65.927 42.0344 65.0378 42.3357 64.1581C42.3437 64.1409 42.3357 64.1219 42.3177 64.1142C42.3008 64.1076 42.2798 64.1152 42.2728 64.1314C41.6772 65.1397 41.0665 66.1529 40.5397 67.2318C40.1955 67.937 39.8762 68.6585 39.6138 69.3991C39.2846 70.3293 39.0441 71.2805 38.8276 72.2316C38.6051 73.2009 38.4524 74.1616 38.3127 75.1176Z" fill="#F3EADB"/>
<path fill-rule="evenodd" clip-rule="evenodd" d="M42.9923 64.0761C42.5064 65.7401 42.1222 67.4166 41.8738 69.1055C42.1841 67.8655 42.5852 66.6456 43.0232 65.4266C43.6308 63.7358 44.3332 62.0689 44.9997 60.3953C45.4487 59.2659 45.8698 58.1326 46.2699 57.0042C46.4944 56.2951 46.7189 55.587 46.9154 54.8693C47.6987 52.0148 48.2973 49.1222 49.2232 46.303C49.2302 46.2849 49.2202 46.2677 49.2033 46.2611C49.1843 46.2553 49.1653 46.2639 49.1594 46.2801C48.5567 47.6468 48.009 49.025 47.5141 50.4289C46.7767 52.5228 46.1392 54.6463 45.3709 56.7307C44.6316 59.1639 43.7146 61.599 42.9923 64.0761Z" fill="#F3EADB"/>
<path fill-rule="evenodd" clip-rule="evenodd" d="M11.3632 83.593C10.4922 83.124 9.62915 82.6361 8.78405 82.1309C8.22033 81.7945 7.66458 81.4533 7.12579 81.0978C6.30265 80.5536 5.51143 79.9913 4.815 79.3394C4.15649 78.7456 3.72147 77.6686 3.79231 76.705C3.84319 76.0264 4.13553 75.4069 4.78507 75.0286C3.86215 75.4146 3.47203 76.2828 3.43711 77.2054C3.40219 78.1518 3.76936 79.144 4.3281 79.7787C4.99958 80.5155 5.75189 81.1988 6.592 81.804C7.13377 82.1957 7.71147 82.556 8.31012 82.8858C9.19214 83.3699 10.12 83.7912 11.0589 84.1782C12.4907 84.7691 13.9424 85.2551 15.3113 85.7584C15.3283 85.7669 15.3483 85.7593 15.3562 85.7431C15.3642 85.7269 15.3572 85.7069 15.3403 85.6993C14.0592 85.0264 12.7162 84.323 11.3632 83.593Z" fill="#F3EADB"/>
<path fill-rule="evenodd" clip-rule="evenodd" d="M16.57 35.8414C16.563 35.8595 16.572 35.8786 16.59 35.8843C16.6069 35.891 16.6279 35.8833 16.6339 35.8671C17.1826 34.8235 17.6665 33.7294 18.1624 32.6324C18.4857 31.9176 18.8229 31.2161 19.1881 30.5327C19.4894 29.9704 19.8097 29.4233 20.1829 28.9049C20.549 28.3978 20.9441 27.907 21.438 27.4705C22.1305 26.8329 22.9337 26.2582 23.8127 26.0618C24.4083 25.9303 25.0289 25.9656 25.6755 26.2753C25.0549 25.8474 24.4093 25.713 23.7638 25.7635C22.782 25.8398 21.8252 26.3592 20.9801 26.952C20.3934 27.3818 19.8815 27.8612 19.4525 28.3988C19.0205 28.9401 18.6603 29.531 18.3659 30.1534C18.0227 30.8777 17.7633 31.6421 17.5338 32.4179C17.1906 33.5664 16.9362 34.7291 16.57 35.8414Z" fill="#F3EADB"/>
<path fill-rule="evenodd" clip-rule="evenodd" d="M12.6616 50.1212C13.2144 48.1293 13.9178 46.1593 14.4745 44.1588C14.715 43.2943 14.9215 42.4289 15.0872 41.5549C14.8347 42.407 14.5344 43.2438 14.2171 44.0816C13.4788 46.0316 12.6347 47.9558 11.9193 49.903C11.4154 51.3841 10.8766 52.8575 10.3947 54.3491C9.94475 55.7397 9.53268 57.1416 9.11362 58.5398C8.48304 60.6452 7.88439 62.7505 7.22488 64.8425C7.21889 64.8587 7.22787 64.8778 7.24483 64.8835C7.26379 64.8892 7.28275 64.8807 7.28973 64.8645C8.31143 62.4513 9.32215 60.0342 10.2371 57.5743C10.6931 56.3487 11.1301 55.1144 11.5322 53.8716C11.9363 52.6278 12.2875 51.3707 12.6616 50.1212Z" fill="#F3EADB"/>
</svg>
