<svg xmlns="http://www.w3.org/2000/svg" width="162" height="28" fill="none" viewBox="0 0 162 28">
  <path fill="#8B7D6B" fill-rule="evenodd" d="M166.328 1.885c.095-.338-.315-.054-.22-.395.27-.035.21.333.585.166.117.298-.199.195-.365.229Zm-1.141.08c-.141-.322.301-.098.163-.422.214.029.351.157.405.382l-.568.04Zm-.57.04c-.332-.056-.451.09-.353.437-.358.076-.512-.106-.597-.371.607.123.574-.355.921-.475l.029.408Zm-1.491.516-.382.027c-.035-.288.31-.223.148-.627.335-.124.161.394.234.6Zm-.744.259c-.27.038-.21-.333-.587-.166l-.029-.41.573-.04c-.026.178.086.19.202.192.142.324-.301.1-.159.424Zm-1.129.285c-.335.121-.159-.396-.231-.603.337-.121.158.394.231.603Zm-1.124.282-.043-.613c-.563.178-.594-.303-1.154-.126l-.029-.408c.478.445.933-.095 1.52-.106.007.358-.025.77.422.587-.142.311-.241.663-.716.666Zm-9.586-.562c.361-.077.512.105.597.368-.166-.165-.54-.068-.597-.368Zm-1.663 2.171c-.442-.153-.557-.715-1.102-.745l-.057-.819c.267-.035.21.336.584.166-.015.538.018 1.016.628.778-.043.185.157.595-.053.62Zm-1.276-.527-.761.054c.222-.285.188-.771-.072-1.024.27 0 .162-.357.556-.246.033.479.362.589.277 1.216Zm-4.049-.54c.192-.075.672.12.556-.244.254.055.443.194.422.59-.371-.298-.628.222-.978-.345Zm-.892.886a126.3 126.3 0 0 1-.043-.613c-.161.049-.187-.069-.205-.192.525-.29.979.895.248.805Zm.334 2.034c-.502.046-.42-.301-.761.054l-.029-.411.57-.04c-.094.34.315.057.22.397Zm-.981-.344c-.616-.081-.285.438-.148.63-.295.145-.093-.328-.391-.18-.09-.53.012-.877.511-.858l.028.408Zm-4.564-1.12c-.331.382.229.598.167 1.018-.55-.176-.811-.158-1.331.093.227-.296.188-.77-.246-.806.024-.232.143-.379.351-.437-.095.34.314.057.22.398.269-.003.159-.36.553-.245-.073-.389.095-.55.339-.64-.086.546.391.401.436.792-.288.096-.14-.346-.489-.172Zm-2.202 2.622c-.323.104-.458-.025-.41-.38l.382-.028.028.408Zm-1.097.696-.379.027c.099-.425-.232-.31-.234-.603.163.027.172-.093.176-.219.331.034.454.324.437.795Zm-6.168-.804c.023-.474-.082-.787-.26-1.01.126-.01.252-.018.38-.027-.072.317.276 1.023-.12 1.037Zm-1.539 2.576-.379.026c-.035-.288.308-.222.146-.626.337-.122.163.393.233.6Zm-4.234-.527-.029-.408.38-.026c-.027.23-.143.376-.351.434Zm-.747.259c.049-.275.174-.477.542-.45-.049.274-.174.476-.542.45Zm.086 1.229c-.602-.048-1.229-.715-1.52.106-.007-.36.024-.775-.422-.59l-.029-.407c.713.078 1.23.402 1.942.48l.029.41Zm-.172-2.459.043.616c-.284-.02-.25-.433-.422-.59l.379-.026Zm-4.242 2.149c-.267.037-.207-.333-.585-.166l-.028-.408.57-.04.043.614Zm-.513.86c-.394-.115-.283.24-.553.243l-.029-.408c.167-.036.482.07.365-.232.277-.125.182.216.217.398Zm-1.095.694-.028-.411c.214.031.349.158.408.384l-.38.027Zm-5.819 1.435-.382.027c-.159-.407.184-.338.148-.63.338-.12.162.394.234.604Zm-1.548-.304c-.423-.011-.189.586-.527.656.022-.477-.086-.787-.263-1.013.506.092.345-.44.527-.653.391-.041.151.706.263 1.01Zm-1.384.716c-.3.04-.421-.144-.503-.378.441.03.728-.083.935-.271-.031.32-.31.41-.432.649Zm-1.124.282c-.382.241-.398-.531-.233-.6.381-.241.395.532.233.6Zm-.737-.977-.029-.408c.428-.09.713.004.788.355l-.759.053Zm-1.243 1.322-.191.013c.06-.265-.247-.87.134-.832l.057.819Zm-.966-.139c-.338.122-.159-.393-.234-.6.337-.121.161.393.234.6Zm-.83-.97c-.24-.074-.371-.284-.776-.153.005.293.336.178.234.603-.412-.159-.611-.58-1.183-.537l-.029-.407c.41-.026.629.18.883.348.126-.039.062-.262.067-.415.419.074.519-.15.746-.258l.058.818Zm-2.794 1.02c.26.12.385.41.436.79-.33-.035-.454-.322-.436-.79Zm-.656-1.19c-.37.089-.15-.554-.246-.805.304-.092.675.702.246.806Zm-.413 2.29c.049-.271.176-.473.541-.45-.049.275-.173.477-.541.45Zm-.422-.586c-.217-.03-.352-.157-.408-.381.208-.061.326-.208.35-.438.453.015.116.674.058.82Zm-7.41.518c-.354.069-.079-.646-.597-.368.1-.425-.231-.312-.234-.603l.38-.026c-.086.625.535.375.45.997Zm-1.143 2.755-.044-.617c.316.106.05-.334.365-.231-.319.383.12.6.263 1.013-.377.168-.317-.203-.584-.166Zm-.728-2.214c-.003-.258-.231-.233-.315-.388-.208.028-.01.435-.05.62-.36.077-.512-.105-.6-.37l.38-.027c-.053-1.09.803-.352 1.491-.515.123.627-.358.685-.906.68Zm.157 2.253c-.442-.045-.475-.596-.818-.768-.02-.27-.038-.543-.057-.816l.382-.026c.158.466-.293.362-.134.829.225-.105.325-.33.744-.256-.143.369-.548.644-.117 1.037Zm-4.237-.529-.028-.408.379-.026c-.024.232-.143.376-.351.434Zm-3.13 1.66-.029-.407.57-.04c-.049.272-.173.474-.541.448Zm-.191.014c-.254-.055-.442-.191-.422-.587l.38-.026c.013.205.028.408.042.613Zm-1.4-.93c.358-.078.512.107.599.37-.166-.165-.54-.07-.6-.37Zm-.702.87c-.216-.027-.354-.156-.41-.38.27-.003.162-.36.556-.246.038.288-.308.223-.146.627Zm-.673-1.391c-.332-.056-.448.088-.35.434-.348-.163-.53-.53-1.17-.328.06.224.194.353.41.381-.061.263.246.871-.133.835.016-.541-.015-1.02-.627-.781-.184-.748.684-.507.69-1.075.248.02.286.309.677.16.21-.032.012-.439.052-.623.353.138.193.583.585.165.238.372.309.95.482 1.405-.41.061-.615-.128-.616-.573Zm-.63 1.893-.042-.61c.265.184.42.516.627.775-.374.17-.314-.198-.585-.165Zm-.95.066c.096-.338-.313-.054-.219-.394l.57-.04c-.026.232-.142.376-.35.434Zm-.45-.995c-.27.036-.212-.332-.584-.165l-.058-.819c-.367-.025-.492.176-.541.448-.24-.072-.37-.28-.776-.15-.139-.323.301-.099.16-.42.3.27.61.104.544-.451.44-.101.452.327.964.139.103.321-.056.395-.155.524.04.136.245.07.389.076l.057.819Zm-1.649 1.042c-.162-.377.25-.216.156-.524.245.29.582.464.641.981-.477.112-.521-.311-.797-.457Zm-.61-.574c.21-.577.047-.34-.239-.706.403-.128.533.08.77.153-.065.257-.257.395-.13.832-.238.035-.248-.211-.401-.279Zm-1.761-.599-.057-.816c.47.12.379-.287.339-.643.297-.148.093.328.39.18-.192.453-.155 1.126-.672 1.279Zm-.673 1.282c.09-.484-.34-.32-.248-.805.353.138.192.584.585.165-.023.176.086.19.202.193-.02.473.085.784.263 1.008-.385-.044-.42-.517-.802-.56Zm.41-2.29.03.408-.569.04c.014-.305.399-.262.54-.448Zm-1.562-.51c-.282-.02-.248-.433-.422-.586l.379-.027.043.613Zm-2.014-1.504-.028-.408.57-.04c-.05.272-.177.474-.542.448Zm-.339.643-.028-.411.572-.04c-.049.272-.173.474-.544.45Zm-1.655 3.612c.034-.485-.364-.436-.26-1.013.242.292.58.467.642.986l-.382.027Zm-.828-3.645c-.169-.607.478-.446.31-1.05.214.028.352.157.408.38l-.38.027c-.094.34.313.057.218.398-.27 0-.16.358-.556.245Zm-2.963-1.438c-.324.101-.459-.025-.408-.384l.379-.027.029.41Zm-1.055 1.306-.028-.408c.427-.09.712.005.79.355-.293-.213-.502-.198-.762.053Zm-3.125-1.014-.38.027c-.14-.324.301-.1.16-.424.28-.123.184.215.22.397Zm-.048 2.061c-.321.099-.456-.027-.408-.384l.38-.026.028.41Zm-1.463.923-.028-.408c.214.028.352.157.408.381l-.38.027Zm-1.314.298c-.064-.44.113-.657.527-.653.061.438-.113.656-.527.653Zm-3.364 1.058c.27-.035.21.333.584.165l.029.408c-.268.038-.21-.333-.585-.165l-.028-.408Zm-2.93.41c-.128.04-.06.263-.067.416l-.38.026c-.158-.467.29-.365.132-.829.363-.08.513.105.599.368l-.284.02Zm-1.82-.078-.029-.408c.214.028.352.157.41.381l-.381.027Zm-4.839 1.78-.57.04c.047-.275.174-.477.542-.45l.029.41Zm.086 1.227-.19.013c.06-.262-.248-.868.133-.832l.057.819Zm-1.856.748c-.112-.741.645-.672 1.08-.9-.246.405-.363.932-1.08.9Zm-.775-.152c.007-.182-.132-.506.162-.424-.104.425.226.31.231.603-.297.146-.096-.327-.393-.179Zm.234.6c-.2-.048-.65.211-.587-.165.2.048.649-.211.587.165Zm-1.532-2.773c.101-.426-.229-.308-.234-.6.273.181.715.15.804.56l-.57.04Zm.057.818-.029-.408c.215.029.352.158.41.382l-.381.026Zm-1.491.515c-.321.103-.459-.023-.408-.382l.38-.027.028.409Zm4.015-8.095.058.819c-.482.004-.755-.252-.819-.766.295.213.504.199.761-.053Zm1.112-.49c.28-.123.184.215.22.397l-.382.027c-.139-.324.303-.1.162-.424Zm.105-1.243c.214.029.35.158.408.384-.145.312-.244.663-.718.667-.169-.605.479-.444.31-1.051Zm.272 3.89-.043-.613c.298-.148.094.328.394.179-.027.23-.143.377-.351.434Zm.456-1.677.38-.026c-.025.232-.144.376-.352.434l-.028-.408Zm.658-1.487c.27-.035.21.333.585.165.126.437-.066.578-.134.832-.417-.074-.517.153-.744.259.126-.392.261-.774.293-1.256Zm1.071-3.778c.061-.357.376-.477.523-.756-.142-.23-.49-.21-.432-.69.366-.006.297.523.79.358.061.44-.113.657-.527.653-.028.553.707.16.803.56-.465.06-.912.094-1.157-.125Zm.81-2.112.379-.027-.058-.818c.413.131-.06-.569.35-.437-.14.846.042 1.017-.047 2.06-.267.038-.208-.335-.582-.165.154-.364.16-.274-.043-.613Zm.047-2.061.568-.04c-.014.305-.398.264-.54.45l-.028-.41Zm.062 6.373c.095-.34-.312-.057-.217-.398l.57-.04c-.027.236-.145.377-.353.438ZM43.62 8.204l-.029-.408c.214.028.352.157.408.381l-.38.027Zm-2.34 2.015c.103-.65-.632-.255-.628-.779.775-.106.765.213 1.329-.093-.105.412-.542.51-.701.872Zm-.924.475c-.198-.046-.649.213-.582-.164.198.05.647-.213.582.164Zm-.95.066c-.393-.111-.283.245-.555.245-.036-.288.307-.222.148-.627l.379-.026.028.408Zm-1.827 1.157c.062-.45-.148-.56-.248-.806.291.16.62.272.627.78l-.379.026Zm-.513.858c-.482.077-.223-.764-.804-.56-.125-.627.434-.614.704-.872.035.353-.371.29-.337.64.046.393.52.243.437.792Zm-2.681-.12c-.226-.412.49-.422.555-.244.226.413-.49.42-.556.245Zm-.404-.28c-.48.003-.362-.735-.64-.985.375-.167.315.204.583.166l.057.819Zm-4.02 2.545-.382.027c-.035-.291.308-.223.148-.63.338-.118.162.396.234.603Zm-1.331.093-.189.013c.06-.262-.247-.87.132-.832l.057.819Zm-1.434 1.333c.05-.272.174-.474.542-.448-.05.272-.174.474-.542.448Zm-.451-.998c.227-.105.328-.33.747-.255.108.388-.13.454-.243.633-.303.04-.422-.142-.504-.378Zm-2.968 1.237-.028-.408.379-.027c-.027.23-.143.377-.35.435Zm.289 1.421a1.022 1.022 0 0 1-.613-.576l.57-.04.043.616Zm-.761.054c-.361-.07-.513-.402-.976-.345-.032.486.364.436.26 1.01-.303-.106-.31-.577-.62-.678-.18-.647.644-.349.71-.766.354-.071.079.643.597.368l.029.41Zm-.44 1.882-.042-.616c.254.055.442.192.422.59l-.38.026Zm-3.301-.798c.102-.423-.229-.31-.234-.6.27.182.715.15.804.56l-.57.04Zm-.105 1.242c-.126.01-.251.018-.38.027.074-.317-.226-.169-.393-.179l-.029-.41c.386.095.424.575.773.152l.029.41Zm-3.495 1.89c-.265-.247-.422-.579-.773-.152.092-.484-.338-.321-.248-.805.384.301.257-.03.758-.053-.104.572.294.525.263 1.01Zm-1.578-.715-.028-.408.38-.026c-.025.232-.141.376-.352.434Zm-2.085-2.526c-.393.039-.15-.706-.262-1.01.298-.149.096.324.396.176-.06.262.245.868-.133.834Zm.01 2.878-.57.04c.107-.41.469-.582.909-.68.067.383-.6.077-.34.64Zm.29 1.418-.378.027c.01-.183-.132-.504.16-.422-.092-.403-.413-.524-.628-.778l.761-.053c-.104.425.229.31.234.602-.376.14-.382.347-.148.624Zm-1.681.53c-.295.108-.368-.064-.49-.172-.21.029-.009.438-.051.623-.361.074-.513-.105-.6-.37.368.025.493-.177.542-.451l.57-.04.029.41ZM9.1 19.669c-.141-.321.3-.1.16-.42.279-.126.186.214.219.394l-.38.026Zm-.005 2.675-.029-.41.38-.027c-.025.232-.14.376-.351.437Zm1.26-1.115.028.408c-.394-.116-.286.243-.556.243.088-.3.264-.518.528-.65Zm.277 1.214c.072.388-.096.55-.34.64-.047-.173.063-.197.177-.216.074-.318-.224-.17-.393-.18-.015-.204-.03-.41-.043-.615.353-.068.077.643.598.37Zm-2.728 4.716-.028-.41c.506.092.347-.443.527-.654.284.021.25.43.422.587-.58-.095-.34.572-.92.477Zm-1.381-3.403c.251.056.44.195.422.59-.253-.056-.442-.192-.422-.59Zm-.68 3.957-.029-.408c.361-.076.513.106.6.368l-.571.04ZM5.269 22.2c.126-.01.251-.018.38-.027l.028.41c-.217-.03-.352-.157-.408-.383Zm-.594 5.186-.029-.41c.394.113.286-.243.556-.243-.062.45.148.56.248.805-.24-.075-.368-.284-.775-.152Zm-1.548-.304-.029-.408c.394.113.286-.246.556-.245a1.022 1.022 0 0 1-.527.653Zm-.537-2.224c.049-.275.174-.474.541-.45-.046.274-.174.473-.541.45Zm-.02 2.469c-.334.121-.158-.396-.23-.6.334-.121.16.393.23.6Zm11.004-9.205.38-.026c.077.388-.09.552-.337.642l-.043-.616Zm-.129-1.842c.126-.01.254-.018.38-.027-.018.398.17.534.424.59-.027.23-.143.376-.353.434.085-.622-.533-.373-.45-.997Zm2.4-1.195c.398.125.796.58 1.153.123l.043.616c-.584.134-.701-.314-1.344-.112-.095.338.315.057.22.395-.166-.024-.175.093-.177.218-.3.149-.096-.327-.396-.178.151-.37.415-.632.502-1.062Zm.919-.476c.627-.053.612-.706 1.288-.707.067.384-.598.077-.336.64-.607-.123-.576.355-.924.477l-.028-.41Zm1.272 1.762a1.017 1.017 0 0 1-.614-.573c.268-.038.208.333.585.162l.029.411Zm-1.246 1.323-.043-.616c.293.215.501.2.761-.054-.031.418-.476.449-.718.67Zm-1.155-.126c-.14-.321.304-.1.163-.424.214.028.351.157.408.384l-.57.04Zm3.643-2.519.03.41c-.361.077-.513-.105-.6-.37l.57-.04Zm-.348-2.237c.337-.121.164.393.234.6-.36.077-.512-.106-.599-.368.167-.036.485.069.365-.232Zm.353-.438c.27 0 .162-.356.554-.245.014.355.41.235.425.59-.293-.213-.502-.199-.76.053.093-.34-.314-.057-.219-.398Zm1.157 1.565c.052-.303.642-.102.435-.647.394.116.283-.242.553-.245.217.031.352.157.41.384l-.57.04c.082.233.201.417.504.375.256.014-.13-.567.257-.428.157.467-.292.365-.133.832-.298.11-.366-.064-.49-.173-.113.182-.353.245-.24.636-.838-.213-.663.527-1.1.694-.125-.63.54-.516.296-1.256-.512-.095-.37.42-.73.463.128-.294.178-.661.417-.851.288-.14.24.143.391.176Zm-.047-2.052c.216.028.351.157.41.381l-.382.027-.028-.408Zm3.469-2.3c.214.028.352.157.408.384l-.38.026-.028-.41Zm1.591.917c.37-.088.15.554.248.805-.614.019-1.436.293-1.374-.52.536-.097 1.001.495 1.126-.285Zm.644-1.69c.063.506-.247.66-.51.858-.09-.531.011-.88.51-.858Zm.115 1.637-.38.027c-.141-.325.301-.1.16-.424.28-.123.187.217.22.397Zm1.904-2.807c.2-.063.19.133.212.292-.011.275.526-.132.4.281l-.57.04-.043-.613Zm.417-.852c.148-.342.323-.655.198-1.25l.382-.026c.032.18-.06.52.22.397-.02.27-.285.305-.141.73.17.123.23.38.591.268a1.02 1.02 0 0 1-.527.653c-.075-.35-.362-.444-.787-.355-.015-.357-.41-.235-.425-.59.288-.098.143.346.489.173Zm.888-2.324c.332.053.45-.091.353-.437l.567-.04c.077.516-.705.231-.51.858l-.382.027c-.01-.138-.02-.275-.028-.408Zm1.245-1.325.029.41c-.215-.028-.352-.157-.411-.383l.382-.027Zm.258 3.688-.287.02c-.253-.015.128.567-.255.428-.159-.467.29-.365.131-.832l.382-.027.029.411Zm-.673 1.28c.003-.598-.155-.302-.396-.176l-.029-.411.759-.053c.077.388-.093.55-.334.64Zm-.952.066c.095-.338-.315-.057-.22-.394.27-.038.21.33.585.165.12.298-.199.193-.365.23ZM23.136 4.7c-.214-.03-.349-.157-.408-.384.166.027.173-.093.177-.218.335-.119.161.393.231.602Zm-.854.06c-.365-.105-.768-.16-.897-.556.237.073.368.284.773.152.093-.338-.312-.057-.217-.397.27 0 .16-.36.553-.245.077.486.068.893-.212 1.046Zm-1.221.292c-.277.12-.185-.218-.22-.398-.27 0-.159.36-.553.246.352.637.102 1.206-.268 1.663l-.043-.616c-.27.003-.159.362-.555.246.049-.273.176-.474.541-.448-.096-.792.333-1.093.458-1.68.238.076.369.284.773.152-.065.257-.257.396-.133.835Zm8.364-3.262-.028-.41c.216.03.352.16.41.383l-.382.027Zm1.678 2.147c.386.04.124.882.453.997l-.573.04c.144-.249.208-.57.12-1.037Zm.83.97c.038.289-.305.223-.146.627-.216-.028-.351-.157-.408-.384.395.116.284-.242.554-.242Zm-.01-2.879c.338-.121.162.393.234.6-.337.121-.161-.393-.234-.6ZM47.28 5.893c.157-.052.183.066.202.19.315.105.05-.336.365-.23l.029.408-.568.04-.029-.408Zm2.686.222c.466.065.072.777-.337.64-.034-.35.374-.287.337-.64Zm.339-.64c.279-.126.184.215.22.394l-.383.027c-.14-.321.304-.1.163-.421Zm-5.29 9.009c.158-.05.184.068.203.192.318.105.05-.338.367-.232l.03.41-.571.04-.029-.41Zm27.444-.684c.037.35-.371.286-.334.64-.216-.031-.354-.158-.41-.384.419.073.52-.15.744-.256Zm1.64-1.144.042.614c-.254-.056-.442-.192-.422-.587l.38-.027ZM167.732.141c.012.355.408.235.422.59l-.761.053-.043-.616-.379.026c-.093.34.314.057.219.398l-.379.026-.029-.41c-.432.092-.733.021-.966-.136.038.287-.305.22-.148.626.397.114.289-.243.559-.245-.051.321.335.101.224.5-.099.32-.473.383-.928.372-.206-.412-.604-.583-1.184-.534.105.446-.026.675-.226.839-.224-.205-.374-.501-.886-.351-.004.155.062.378-.064.417-.432-.046-.331-.254-.666.047.041-.248-.172-.735.039-.826.121.109.191.28.489.172l-.029-.41c-.377.17-.317-.2-.584-.166-.028.358-.294.49-.733.464-.033-.18.062-.52-.217-.397-.01.182.131.506-.162.424.005.292.335.177.234.6-.694.119-.565-.784-1.375-.52.164.648-.36.367-.555.245-.047.272-.172.473-.54.447.058-.332-.112-.38-.226-.497-.004-.163.235-.098.169-.321-.268-.261-.841-.145-1.346-.113l.029.411c.384-.07.503.193.783.255-.043.152.147.522-.06.517l-.286.02c.104-.423-.229-.31-.234-.6-.417-.074-.517.15-.745.256-.063-.365-.619-.12-.613-.574l-1.329.093c.469.386-.196.831.275 1.217-.708-.092-.071 1.08-.892.885l-.044-.616c-.322.08-.407.384-.324.848-.531-.083-.559.807-1.117.384.266-.1.348-.374.74-.358l-.028-.41c-.718.237-.844-.732-1.346-.113-.096-.4-.829-.007-.804-.56.535-.222.58-.225 1.14-.08l-.057-.818c-.59-.022-.877.528-1.329.093.036.29-.307.222-.148.626-.394-.113-.283.245-.556.245-.184-.288-.331-.623-.801-.56.075.171.428.57.153.812-.234-.122-.262-.492-.697-.364-.179.594.44.2.424.587-.439.104-.452-.327-.963-.137-.125.414.412.007.4.28-.042.152.148.521-.059.52-.365.12-.264-.34-.678-.16.058-.332-.11-.383-.226-.497.099-.132.258-.205.155-.527-.386-.138-.002.446-.256.43-.114-.007-.27.036-.296-.082-.001-.162.238-.098.17-.32-.626.116-.806.647-1.68.53-.027.468-.472.505-.747.255-.026.482-.305.874.086 1.23-.383.07-.503-.19-.782-.255.065-1.523-1.085-1.366-1.868-.796-.175-.362-.876-.14-1.045.073l.043.616c-.395-.116-.284.243-.556.246-.183-.555.218-.564.117-1.038-.129.58-.901.555-.864 1.293.582-.086 1.011.6.752 1.183l-.284.02-.072-1.024-.57.04c.005.293.335.177.231.6-.534.591-1.142-.056-1.722-.083-.123.413.412.006.401.281-.189.269-.46.459-.819.57-.084-.156-.312-.132-.315-.39.368.026.493-.176.542-.448-.533-.082-.565.808-1.116.388.403-.227.714-.544.882-.99-.298.148-.096-.325-.394-.176-.315-.106-.047.334-.365.229l-.028-.408c-.431.09-.733.018-.967-.14.078.601-.62.77-.918.478-.133.449-.422.754-1.097.693.097.346-.019.493-.354.435-.156.467.366.65.153.814-.138-.164-.382-.193-.327-.596-.591-.045-.472.576-.906.682-.217-.03-.352-.157-.408-.384.141-.186.525-.145.541-.45-.451-.104-.295.362-.747.258l-.028-.408c.49.107.488-.246.84-.265.084.155.312.13.315.388.417-.306 1.029-.436.863-1.293l-.382.027c-.101.422.229.307.234.6-.394-.114-.286.243-.556.245.016-.39-.602.007-.422-.587-.241.41-.896.435-1.288.707-.056-.227-.192-.353-.408-.384l.028.41c.145.006.35-.06.387.076-.004.12.038.288-.072.312-.423.117-.34-.391-.694-.361-.27.002-.162.359-.556.245l.043.613c.419.039 1.066-.21 1.336.01-.502.323-.991.661-1.66.836.028.372.408.31.608.473-.659-.076-.062 1.028-.494 1.164l-.057-.819c-.296-.036-.382-.337-.604-.47.446-.344-.253-.594.127-.935-.17-.013-.47.136-.396-.179.432-.166.343.318.773.152-.008-.51-.334-.623-.625-.779-.007.153.061.373-.067.415l-.475.033c.048-.356-.087-.485-.408-.381-.025.474.083.784.26 1.01-.254-.058-.442-.191-.422-.589-.419-.071-.52.153-.747.259l-.043-.614c-.444-.066-.423.304-.634.455-.164-.353-.825-.092-1.251-.12-.101.426.229.31.234.603.315.103.05-.337.365-.231-.004.155.062.375-.066.417-.366.12-.264-.34-.681-.159-.101.423.232.31.234.6l.761-.053c-.095.338.312.057.218.397-.448-.039-.739-.271-1.346-.112-.092.39-.423.56-.606.865-.152-.22-.44-.268-.518-.58-.141-.324.304-.103.162-.424-.005-.29-.335-.177-.233-.6l-.38.027c-.092.484.338.32.246.805-.384.068-.501-.193-.78-.255.076-.217.357-.237.343-.537-.548-.005-1.031.053-.906.68.144.008.349-.06.386.076.004.162-.235.098-.169.321.172.01.47-.136.396.176-.167.036-.482-.07-.368.232l.015.205.382-.026c.004-.155-.062-.376.064-.417.084.157.315.132.315.39-.273.318-.711.482-1.098.693.419-.504-.298-.373-.26-1.01.126-.01.252-.018.38-.027.015-.536-.137-.868-.628-.779-.01.185.132.507-.162.424-.092.338.314.057.219.395-.315-.106-.049.337-.365.232-.23-.158-.533-.23-.963-.14-.126-.286-.313-.501-.439-.791-.27.002-.159.361-.554.245.091.583-.006.703-.353.437-.083.549.394.402.439.792-.27.035-.21-.333-.587-.165-.036.315.185.872-.021 1.03-.345.019-.522-.17-.518-.58-.226.562-.664.315-.931.372.298-.04.039-.603.237-.736.39-.152.428.136.68.159.014-.305.398-.264.539-.45l-.043-.614c-.423.92-2.198-.283-3.025.418-.102.423.228.31.233.6-.409.061-.612-.128-.613-.573-.26.254-.468.269-.758.053-.004.125-.013.245-.177.216-.095.34.312.057.22.397-.126.33-.576.355-.513.858l.758-.053c-.101.423.229.31.234.6-.318-.102-.05.338-.365.232.102-.422-.231-.31-.234-.6-.356-.043-.937.199-1.147-.023l-.022-.308.379-.026c-.1-.243-.31-.356-.245-.806-.318-.105-.05.338-.365.232-.095.34.312.057.217.398-.405.128-.536-.08-.775-.152-.093.34.314.056.219.394-.315-.103-.05.338-.365.232-.3.149-.096-.325-.396-.179-.001.128-.011.245-.174.219.1.245.312.355.245.805.145.01.35-.06.389.076-.038.467-.232.353.051.719-.343-.171-.258-.178-.571.04-.349-.703.11-1.137-.494-1.614.167-.033.483.073.365-.231-.56.177-.417-.52-.978-.342-.125.413.412.006.401.279-.145.089-.12.334-.358.334-.24-.072-.37-.283-.775-.152.106.612-.659.405-.702.872l-.042-.613c-.806.314-.848.119-1.537-.1l.029.411c.544-.116.75.77.56 1.196-.43.158-.868-.251-.61-.576.142.01.105.243.121.404.244-.09.412-.254.339-.642-.491.167-.424-.364-.79-.355-.131.547-.542.83-.768 1.289-.102-.093-.207-.19-.308-.29-.001-.16.238-.096.17-.32l-.571.04c.062.441-.113.657-.527.656l-.043-.616c-.43.166-.34-.318-.773-.152.259.31.404.76.823.868-.006.123.038.29-.074.315-.432-.046-.328-.254-.663.046.014-.202-.145-.193-.212-.294.099-.132.258-.203.155-.524-.746-.377-1.534.153-2.107-.06.005.29.336.178.234.603.397.114.286-.245.556-.245l.029.41c-.593-.175-.454.34-.733.462.104-.423-.226-.31-.231-.6-.328.01-.212.438-.542.448-.082-.233-.201-.42-.503-.375-.148.119-.351.681-.642.352-.004-.163.235-.098.167-.319-.333.04-.707.134-.599-.37-.43.2-.733.523-.988.891-1.11.083-1.446-.8-2.798-.42-.095.34.314.056.22.397-.582-.234-.98-.14-1.318.295.013.507.044.986.277 1.216-.267.035-.21-.335-.584-.165.174.577-.42.436-.315.948-.049.283.442-.104.393.179a7.928 7.928 0 0 1-.262.325c-.3-.22-.687-.335-.907-.656.2-.101.195-.391.141-.73.167-.036.484.07.368-.232-.512-.097-.373.42-.733.464.04-.646-.297-.82-.642-.984-.335.3-.23.092-.665.047-.174.335-.491.596-.843.265.157.369.681.86.387 1.412-.159-.32-.555-.35-.89-.454-.004-.162.236-.095.17-.319-.42-.073-.52.15-.747.26-.243-.293-.235-.897-.816-.766l.021.305c-.048.283.44-.104.391.179-.35.019.066.764-.326.745.106-.654-.337-.623-.454-1-.257.251-.466.266-.76.053.088.398-.512.158-.745.259.115.524-.349.502-.623.662-.29-.474-.654.062-1.045.073.02-.398-.168-.534-.422-.59.077.487.067.892-.212 1.044-.203-.083-.224-.389-.504-.374-.316.212-.23.206-.57.04.083.46 0 .765-.325.842l-.057-.816c-.69-.277-1.028.276-1.548-.304.195.945-.915.672-1.055 1.306.233.049.682-.175.769.052.089.339-.173.346-.251.531-.39.152-.426-.136-.678-.159-.389.212.151 1.29-.279 1.458-.118-.675-.627-1.71.25-1.869-.307-.138-.335-.62-.803-.557.128.82-.452.976-.659 1.485.003.29.336.177.232.6-.491.165-.424-.361-.79-.355-.364.422-1.02.571-1.463.923l-.028-.409c.559.013.281-.16.162-.42l.573-.04-.043-.617c-.248-.118-.198.492-.375.13.157-.11.13-.39.453-.342.3.036.202.567.518.583-.13-.634.286-.756.089-1.445-.329.395-.362-.089-.947.066-.119.44.523-.06.407.382-.374.167-.317-.203-.584-.166.117.302-.198.196-.368.232-.092.338.315.054.22.395l-.38.026c-.035-.179.06-.52-.216-.394-.007.152.059.376-.07.415-.432-.044-.328-.252-.663.046-.035-.18.06-.52-.22-.395-.236.307-1.05.364-1.328.093-.043.182.155.592-.053.62-.249.05.048-.579-.313-.39-.006.154.06.375-.066.417-.182-.357-.459-.096-.666.046.095-.34-.312-.057-.22-.397-.386.497-.747-.01-1.328.093.033.255-.197.263-.258.43-.948-.088-2.042-.655-2.753.193.095-.34-.315-.057-.22-.397.23-.4.053-.26-.05-.716.359-.397.668-.84 1.265-1.014l-.057-.816c.874.05 1.162-.446 2.078-.352.101-.425-.232-.312-.234-.603.188.017.179-.15.27-.225l1.044-.073c-.035-.353.374-.29.34-.64-.818.079-.033-.5-.263-1.01-.142-.007-.35.062-.387-.077.299-.132.106-.73.11-1.137-.174.148-.654.5-.585-.165-.509-.098-.37.42-.73.46-.067-.413.172-.538.227-.838.217.403.465-.244 1.045-.073-.173-.45.257-.333.14-.73-.02-.16-.249-.06-.212-.294-.23.383-1.053.707-1.503.312.108.389-.13.454-.243.633-.203-.08-.226-.386-.506-.375-.061.387-.503.418-.305 1.05l-.573.04-.043-.615c-.685-.05-1.123-.253-1.708.12-.104.425.229.309.231.602-.296-.058-.09.362-.46.239a15.625 15.625 0 0 1-.305-.289c-.166-.379.247-.212.152-.526-.226.298-.915.164-.904.682.17.045.55-.163.575.06.013.333-.177.474-.234.739-.154-.217-.442-.268-.517-.58-.43.128-.453.927-.921.474-.032.45.204 1.148.002 1.442-.112-.012-.268.035-.291-.086-.163-.377.247-.213.155-.524-.327.012-.214.439-.542.45l-.043-.615.57-.04c-.08-1.018-1.558-.882-1.724-.083.586.086 1.001.389 1.035 1.16-.17-.048-.549.163-.577-.063-.143-.421.124-.46.14-.73-.116-.002-.225-.013-.205-.191-.327.012-.211.438-.541.45-.035-.288.31-.222.148-.626-.5.828-1.14.188-1.9.133.131.677.522.24.263 1.01.328-.012.212-.438.54-.45-.014.204.142.194.212.292-.216.056-.1.42-.248.533-.64.237-.546-.437-.9-.553.127.412-.27.82-.535.55.076-.217.36-.237.344-.537-.17-.013-.468.136-.393-.179.334.058.45-.088.35-.437-.5.027-.374.357-.759.053-.233.519-.63.41-1.126.285.086 1.26-.574 1.819-.653 2.926-.224-.133-.383-.342-.344-.798-.315-.106-.05.337-.365.232.036-.679-1.145-.781-1.155-.126.45-.075.829-.063.971.239-.294.045-.036.605-.233.738-.2-.048-.617.171-.673-.056.111-.25.455-.276.329-.742-.328.01-.212.438-.539.45-.048-.542.274-.45-.057-.821.276-.058.184-.464.336-.64l-.38.027c-.042.182.156.591-.052.62-.096-.214-.365-.211-.68-.16.175.485-.209.447-.541.451.4.208.92.856.765 1.386-.223-.205-.206-.708-.531-.783-.33.183-.11.6-.556.242.117.522.603.585.656 1.19l-.382.026-.029-.41-.758.053c-.081.212-.157.429-.244.636l-.474.033c.108-.654-.508-.404-.628-.781.639.18.508-.354.625-.66.39-.153.426.138.678.159-.098-.35.018-.493.35-.435.102-.425-.228-.312-.233-.602-.536.135-.55.76-1.286.708.175.482-.207.441-.542.448.1.346-.019.493-.35.435.062.506-.247.66-.514.86-.17-.606.277-.635.105-1.242l-.57.04c.003.293.333.178.231.6-.394-.113-.283.243-.553.245-.118.44.526-.06.408.384-.614.092-.93-.184-1.007-.755l.759-.052c-.064-.515-.662-.364-1.17-.329l.058.819c-.25.286-.828.753-1.133.18.1-.13.258-.203.155-.524-.327.012-.212.438-.542.45.457.356.708 1.778-.286 1.359l-.021-.308.57-.04c.04-.533-.415-.452-.709-.567-.114.527-.736.58-.878 1.088-.303-.18-.592-.377-.897-.554-.24.283-.191.983.086 1.23-.666.008-.99-.407-1.214-.945.191-.076.672.119.558-.245l-.761.053c.099.474-.3.483-.117 1.037-.452-.039-.402.387-.938.272.015.352.41.232.425.587-.268.133-.464.33-.733.461-.094.34.313.057.218.398l-.568.04c.087-.517-.162-.617-.432-.69a8.43 8.43 0 0 1 .265-.328c.121.108.194.28.489.172.01-.183-.131-.507.16-.421-.003-.293-.333-.178-.232-.603-.477.063-.153.877-.906.682.108.39-.13.452-.244.631-.2-.08-.224-.386-.5-.375.01.556-.29.816-.392 1.263-.303.04-.421-.145-.503-.378.662-.016.55-.758.88-1.088-.589.134-.706-.314-1.345-.112-.065.45.145.56.245.803-.383-.136-.002.445-.255.43-.317-.16-.371-.652-.897-.553.084.624-.64.992-1.09.796.029-.163.293-.108.162-.422-.021-.161-.25-.064-.212-.294-.363.044-.221.558-.733.46-.085-.558.153-.813.2-1.246.285-.017-.082.766.327.594-.102-.447.026-.678.227-.839.205.084.227.389.503.378-.112-.378-.556-.347-.448-.998-.536-.117-.488.308-.938.27-.151-.718.517-.664 1.098-.691-.086.62.533.373.45.995.14-.284.484-.376.52-.756.05-.283-.441.104-.393-.179-.02-.37.153-.559.535-.55.122-.413-.415-.01-.401-.282.148-.146.173-.408.548-.348.03-.48.24-.793.089-1.445.172.045.551-.163.577.06-.391.253.018.474.057.822-.13.416-.856.282-.694.974.381-.149.575-.619.935-.272.142-.314.104-.794.719-.666-.146-.164-.409-.748-.17-1.017.575.18.415-.027 1.06.132l-.058-.819c.392-.464 1.48-.272 1.654-.938-.127-.29-.311-.505-.437-.795l-.57.04c.042-.182-.158-.592.052-.62.151-.002.091.254.298.186.045-.66.69-.76 1.07-1.104.004.29.335.177.23.6.331-.398.486-.061.952-.067-.005-.293-.335-.177-.233-.6.563-.177.712.154 1.154.126l-.043-.616c-.315-.106-.05.337-.365.232.083-.549-.391-.402-.436-.792-.21.058-.327.205-.353.437.144.006.349-.062.389.076-.145.089-.12.334-.36.332-.108-.495-.54-.592-.826-.868-.087-.339.172-.349.25-.53.397.37.734.38 1.25.118l.058.819c.416-.181.312.277.68.156.147-.018.054-.264.27-.223-.398-.382.048-.418.133-.832l-.57.04c-.004.155.059.376-.067.415-.114-.008-.27.038-.294-.083.225-.281.465-.396.141-.729l.57-.04c.102-.425-.228-.31-.233-.6l.381-.026c.033.18-.06.517.22.394.007-.182-.134-.504.16-.421-.005-.293-.336-.177-.232-.603.517-.087.557.423.983.447-.12.237-.312.405-.737.359l.043.616.759-.053c-.162-.649.363-.368.558-.246.092-.34-.314-.056-.22-.397.38-.282.672-.644.878-1.088-.317-.105-.05.335-.367.23-.267-.826.338-.833.282-1.459-.145-.009-.35.062-.39-.076-.182-.587.295-.555.318-.948-.144-.006-.35.062-.39-.076l-.02-.305c.728.204.106-.86.405-1.058.112.009.268-.037.291.083.002.163-.235.095-.167.321l.57-.04-.057-.82c-.26.254-.47.268-.76.052.066.417-.173.542-.227.842-.115-.011-.268.035-.294-.083.004-.413.249-.596.315-.948-.238-.076-.37-.283-.773-.152-.027.23-.143.376-.353.435.005.292.335.177.234.602-.17-.048-.55.16-.578-.063.1-.131.259-.205.155-.526l-.95.066c-.096.713.33.775.292 1.421-.42-.073-.522.15-.747.259.06-.265-.245-.87.131-.832-.2-.344-.194-.25-.043-.616-.294.371-1.06.283-1.424.1-.242.505-.711.799-1.572.729.003.29.335.174.234.6-.482-.1-.57.167-.637.454-.142-.044-.484.153-.482-.07l-.022-.305c.352-.054.621-.184.733-.464l-.573.04c.104-.422-.229-.307-.231-.6.166-.036.482.07.365-.231-.67-.024-.52.723-.783 1.083-.349.174-.203-.268-.489-.172-.027.233-.143.377-.353.437-.093.338.314.057.22.395-.414-.131.062.569-.351.437l-.043-.613-.57.04.021.305c-.048.283.445-.104.396.179-.151.146-.176.408-.551.348-.013-.654-.709-.458-1.007-.752-.118.684-.734.903-.74 1.697l-.853.06c-.105.422.228.306.23.6-.532-.118-.485.308-.934.271-.184-.747.684-.507.69-1.077-.364.115-.425-.144-.593-.268.183-.276.812-.635 1.11-.488.003.16-.236.095-.17.319.3-.146.096.327.397.179-.127-.437.065-.575.133-.832-.116-.006-.228-.014-.205-.192-.407.384-1.028.568-1.873.543l.057.819c-.402.128-.533-.077-.773-.152-.144.249-.207.57-.119 1.037.33-.012.214-.439.544-.45.008.504-.302.664.072 1.023-.389-.138-.005.446-.258.43-.327-.27-.569-1.168-1.088-.542-.195-.627.45-.469.513-.859-.512-.094-.372.42-.73.464-.217-.03-.352-.157-.41-.384-.26.255-.469.27-.762.053-.1.795.51.706.657 1.19-.408.06-.61-.129-.614-.574-.45.279-.692.752-.863 1.293.144.01.349-.06.389.076-.152.147-.176.409-.549.348.102-.425-.229-.31-.234-.603.244-.087.412-.25.336-.64-.21.252-.657.277-1.123.286-.262.33-.284.883-.69 1.077-.107.265.46.218.124.401-.123-.105-.193-.28-.491-.17-.008.183.134.507-.16.422-.048.321.335.101.224.5-.198.16-.242.473-.532.55-.185-.551.216-.56.12-1.037-.644.007-.936.842-1.484.62.073-.217.357-.24.34-.54-.807.008-1.33.283-1.87.543-.095.338.312.055.217.395-.47.066-.91.094-.975-.341-.228.105-.328.332-.747.255-.093.34.312.057.217.398-.345.122-.11.787-.716.666l-.043-.613c-.52.405-.269 1.534-1.228 1.525.014.354.407.235.422.59.27-.003.16-.36.556-.246l.029.41c-.42-.073-.52.151-.745.256a1.028 1.028 0 0 0-.616-.573c-.158.082-.523.455-.751.156-.09-.341.172-.351.248-.533.124.11.194.282.489.172-.003-.29-.335-.178-.231-.6-.664-.111-.718.349-1.317.298-.028.358-.294.488-.733.461-.122.416.415.01.404.282-.092.454-.881.257-1.105.59-.139-.322.303-.097.162-.421-.529.015-.41.636-.909.68-.04.214.203.7-.145.626-.095.34.311.057.217.398-.354.146-.477.508-.606.865-.142-.047-.482.153-.482-.07.76-.02.128-1.345.856-1.396l-.043-.616c-.125.01-.253.018-.379.027.025.568-.413.697-.391 1.263-.297-.593-.43.605-.845.16.135-.35.547-.441.709-.767-.442-.032-.73.08-.936.269-.094.34.312.057.22.397-.71-.089-.8.4-1.508.312-.16.486-.61.705-1.288.706-.059.39-.503.421-.306 1.05-.719-.033-.868.463-1.288.71l-.028-.41c-.739.197-.761.199-1.52.105.263.978-.768.75-.757 1.492-.685-.267.108-1.06-.384-1.412l.38-.027c.107-.265-.46-.217-.124-.403.285.26.53-.14 1.059.132.095-.34-.312-.057-.217-.398.474-.003.573-.355.715-.666-.381-.188-.379.458-.563.143.284-.235.48-.607.127-.935.661.108.79-.28 1.112-.49l.028.41c-.6-.07-.226.735-.746.259-.059.647.391.616.071 1.024.583.002.891-.253 1.005-.687.142.007.102.24.121.402.21-.059.327-.205.354-.435-.168-.165-.543-.073-.602-.37l.761-.054c.043-.185-.155-.595.053-.623.2.049.614-.167.67.057-.004.122.038.29-.072.314-.151 0-.09-.257-.298-.185.203.341.197.25.043.616.958-.06.943-1.03 1.828-1.157-.287-.273-.03-.997.088-1.448-.142-.006-.347.062-.387-.076l-.02-.305c.518-.088.758.17 1.16.225-.121.24-.314.408-.739.362.334.37.012.278.057.818.613.096.461-.524.609-.865.233.12.262.492.694.364.008-.185-.134-.506.16-.424.008-.207-.45-.384-.136-.607.152-.002.094.254.298.183.163-.486.607-.705 1.286-.706.355-.275.544-.7.785-1.084.203.084.224.389.504.378.18-.594-.438-.2-.423-.59l.759-.053c-.003-.29-.336-.177-.234-.6-.167-.01-.465.139-.391-.179.43-.163.34.318.773.152-.015-.351-.41-.234-.425-.586l.573-.04c-.178.628.466.233.606.47.143.425-.124.463-.141.73.451.104.293-.36.744-.256-.269-.89.529-.783.88-1.09-.014-.355-.41-.235-.424-.59.613-.254 1.437-.312 1.859-.746l-.043-.613c.463-.06.567-.415.95-.067 0-.125.01-.245.176-.218-.4-.382-.091-.548.131-.832l-.57.04c-.005.155.061.376-.064.417-.255-.425-.219.13-.666.046.101-.425-.231-.31-.234-.602.3-.146.096.327.396.178.17-.318.366-.614.403-1.057.138.164.38.194.327.596.348-.122.455-.468.921-.477l.029.411-.38.027.043.613c.17.012.468-.136.394.179-.192.076-.672-.122-.556.242.405-.131.535.08.773.152-.064-.622.596-.97.09-1.445.583.098.547-.383 1.13-.285l.028.41c.705.152.261-.775.904-.682.118-.442-.523.061-.408-.381.466-.01.573-.358.923-.477.039-.247-.172-.735.036-.825.233.12.262.492.695.364-.101-.246-.31-.356-.249-.806.603.07.572-.414.952-.066.073-.41.464-.521.811-.676.2.084.225.392.504.378a1.01 1.01 0 0 0 .524-.656c-.358.077-.512-.103-.596-.368.375-.17.315.2.582.165-.156-.47.293-.365.134-.832-.23-.049-.68.175-.766-.05.394-.173.916-.226.694-.976-.586.212-.322-.638-.625-.777.27-.002.162-.358.554-.245L34.92 1.2c-.321.104-.456-.022-.408-.381-.76-.012-1.033.433-1.885.335a1.021 1.021 0 0 1-.527.656L32.028.785l-1.331.093c.066.506-.246.664-.513.859.016-.202-.142-.194-.21-.292-.146-.424.122-.46.139-.73-.539.389-1.256.607-2.25.568l-.029-.408-.38.026c-.061.556.365.51.621.677.165.376-.247.215-.155.524.452.039.402-.39.935-.272-.164.65.603.145.437.792.388.073.584-.527.942-.166-.174.185-.558.177-.532.55.17.01.468-.136.394.176-.452-.036-.4.392-.936.272l-.042-.614c-.566.257-.496-.272-.79-.354-.31.214-.44.747-.117 1.034l-.382.027-.071-1.021c-.568.037-.525-.683-.656-1.19-.264.135-.44.354-.525.653.36-.074.512.108.596.371l-.568.04c.011.556-.286.815-.391 1.26-.142-.045-.481.156-.482-.067-.101-.511.49-.37.315-.948-.17-.048-.55.16-.577-.063.137-.351.55-.443.71-.771-.58-.096-.34.574-.92.477-.092.487.338.32.245.805-.751.191-1.098-.116-1.722-.086-.007.155.059.376-.067.417-.307-.173-.606-.359-.723-.772.268-.037.21.333.585.166-.008-.51-.337-.623-.628-.782.213.838-.812.516-1.08.901-.095.338.31.057.217.395-.815.193-.89-.527-1.563-.507-.102.423.229.31.231.6.431-.084.713.007.79.355-.452-.102-.293.362-.747.258.044-.706-1.224-.253-.639-.981l-.382.027c.176.674-.734.328-.499 1.06.318.106.05-.334.368-.231.01.138.02.275.028.41-.553-.197-.179.469-.541.45-.095.339.312.058.217.398-.315-.105-.047.332-.363.23l-.042-.614c-.273 0-.162.359-.559.245.036.476.362.589.277 1.214.318.105.05-.335.367-.232.115.377.557.346.449.997-.167.036-.482-.07-.363.232.66-.12 1.21-.682 1.79-.331.214-.151.19-.522.637-.455.034-.382-.197-1.012.007-1.236.59.32.94-.375 1.44.106l-.572.04c.162.404-.18.338-.145.626.405-.128.535.08.775.152-.145-.519.03-.737.528-.653-.064-.405.044-1.024-.27-1.113.352-.02-.066-.764.329-.745l.057.821c.51-.076.616.35 1.074.338.15-.022.057-.268.272-.226-.094-.406-.416-.527-.628-.781.397.143.454-.52.755-.153-.102.132-.261.203-.156.524.145.006.347-.063.387.076.031.38-.294.428-.124.934l.284-.02c.065-.29.155-.556.634-.454.233-.39.088-1.13.375-1.468.283.472.326-.21.651-.252-.065.257-.258.396-.134.832-.125.01-.25.018-.376.027.309.738-.479.449-.31 1.05.432-.09.733-.018.963.14.043-.25-.17-.735.038-.826.115.193.22.395.33.593.688.101 1.257-.715 1.534.1l-.573.04c-.202.967-.943 1.529-2.016 1.17-.029.45-.56.432-.506.96-.048.28.442-.104.394.18-.197.1-.195.39-.14.729.247.118.197-.495.374-.13-.382.241.185.56.255.908-.318-.105-.05.335-.367.232.062-.558-.367-.512-.62-.679.456-.333-.2-.54-.08-1.123-.468.005-.916.034-1.125.285l.043.613c-.395-.116-.284.242-.556.245.005.29.335.175.233.6l.57-.04c-.03-.476.277-.633.106-1.242.17.047.549-.161.575.062-.213.501-.376 1.053-.556 1.581l-.857.06c-.063-.511-.75-.254-.816-.765.192-.076.672.121.556-.243l-.76.053c.074.389-.094.55-.337.64.005.29.335.178.233.6-.483.058-.639.422-.906.68.588-.212.617.272.801.563.249.118.198-.495.373-.13-.086.11-.174.22-.263.326l-.854.06c.012.354.408.234.42.59-.346.026-.285.432-.43.646-.114-.009-.27.037-.293-.083.17-.742-.047-.966.055-1.959l-.761.053c-.102.426.231.31.234.603-.56-.113-.281.566-.623.66-.395-.236-.442-.042-1.045.073l-.029-.41a4.268 4.268 0 0 1-1.827 1.156c-.095.34.312.057.217.398-.347.024-.283.435-.432.646-.581.168-.805-.112-1.25-.119.235.793-.5.679-.89.885-.043.185.155.595-.055.623l-.851.06c-.172.318-.37.612-.406 1.057l-.284.02-.043-.616c-.78-.027-.964.502-1.274.911.24.282.255.51.057.822.2.045.65-.211.585.162-.291-.044-.81.19-.957-.036l-.05-.716-.38.027c.236.795-.513.666-.278 1.46-.395-.115-.286.244-.556.243.012.355.41.235.422.59-.27.035-.21-.336-.585-.166-.004.155.062.376-.066.418-.408-.097-.406.194-.65.252-.161-.407.184-.342.146-.63-.327.012-.212.439-.541.45-.401-.172-.783-.363-1.184-.535-.04.25.173.734-.038.828l-.663.046c-.012.628 1.14.922.494 1.61.077.172.428.568.152.81l-.286.02c.04-.64-.32-.784-.465-1.2-.7-.128-.988.422-1.329.093.092.308-.32.147-.155.524.604.514 1.624 1.1 1.577 2.05-.147-.41-.708-.31-1.083-.44.145-.376.29-1.07-.267-1.11-.007.152.059.376-.067.414-.142-.047-.482.156-.482-.066l-.05-.716c-.43.195-1.032.724-1.506.309.133.411-.586.027-.346.54-.046.28.445-.107.396.176-.042.152.148.521-.06.52-.2-.084-.223-.39-.503-.378-.23.679-.865.976-1.434 1.333l-.028-.408c-.21.058-.33.205-.353.435-.093.34.314.056.22.397-.228.108-.329.332-.745.258.035.288-.31.223-.148.627.394.114.286-.243.556-.242-.095.337.312.056.217.394-.276.025-.257.333-.444.441-.693-.16-.713-.05-1.427.1.151.535.609-.067.854-.06.138.164.385.193.33.596-.405.132-.536-.079-.776-.152.038.288-.307.223-.145.63.599-.173.343.39.231.6.198.086.401.172.592.268.165.376-.248.212-.153.523.42.332.597.418 1.153.126.092.529-.015.878-.51.858l.028.408c.58.098.684-.251 1.123-.282.025-.474-.085-.784-.26-1.01.515-.01.76.316 1.177.43-.328.189-.433.427-.754.156l.028.41c1.002.107.652-1.046 1.654-.94.184.291.334.625.801.563.108-.266-.46-.218-.124-.404.203.084.224.389.506.377a2.097 2.097 0 0 0 1.257-1.117c.095-.34-.312-.057-.22-.397.319.105.05-.335.368-.23l.058.82c.156-.365.566-.491.906-.683.093-.338-.314-.057-.22-.395.452.102.296-.362.747-.258.036.18-.06.52.218.397.385.136.004-.445.257-.43.25-.05-.05.579.313.39 0-.385.083-.687.324-.845.093-.34-.314-.057-.22-.397.208-.061.327-.205.351-.438-.17-.01-.467.14-.393-.178.745.157.779-.158 1.343.112.092-.484-.338-.321-.246-.805.582-.128.573.473.816.765-.557.118-.912.422-1.08.901.591-.093.6-.715 1.219-.291.14-.127.213-.311.35-.438.203.084.227.39.506.378-.126-.29-.313-.505-.44-.795.33.075.502.342.884.351.2-.16.333-.393.229-.839-.3-.058-.091.362-.46.236-.034-.293-.524-.015-.504-.375.53-.064.755-.818 1.315-.295.091-.894-.566-1.448-.253-2.247.104.093.207.19.307.285.004.163-.235.098-.169.325.632.623.664 1.992 1.68 2.141.046-.272.174-.471.539-.448l-.058-.818-.379.026c.061.441-.115.657-.527.656.101-.425-.229-.312-.234-.603l.382-.026c.022-.474-.085-.784-.262-1.008l.381-.027c-.095.482.338.319.246.803.327-.01.214-.439.541-.448-.085.549.392.402.437.792-.167.036-.482-.07-.365.232l.761-.053c.093-.34-.314-.057-.22-.398.298-.148.097.328.394.18.039-.316-.182-.873.024-1.031.233.122.262.492.694.361-.235-.228-.264-.71-.276-1.213l-.382.027c-.04.184.16.591-.05.622-.14-.164-.385-.193-.327-.596-.233-.046-.682.178-.768-.05.452-.178-.354-.548.028-.925l.287-.02.043.61c.498.023.603-.326.513-.855.398.143.453-.523.753-.159-.19.242-.461.4-.317.949l-.568.04.029.41c.612-.124 1.534-.949 2.08-.249.004.163-.235.098-.167.321.17.048.55-.163.578.06-.12.24-.315.408-.74.364.02-.397-.168-.534-.422-.589.158.532-.334.455-.322.845.591.263.736-.114 1.152.126.031-.418.476-.449.718-.667.095-.34-.312-.057-.22-.397.27-.133.465-.331.733-.464l-.057-.816c.687.112.91-.5.513-.861.547.098.83-.555 1.321-.196-.004.123.038.291-.07.315-.155-.033-.106-.316-.397-.179-.216.276-.412.572-.403 1.06.144.006.349-.062.389.073-.032.163-.296.108-.163.424.278.21.402.616.986.445-.1-.246-.31-.356-.248-.806.299.055.09-.359.46-.235.084.154.312.127.315.387.225-.108.325-.332.744-.258-.069-.704.305-.99.47-1.472-.1-.245-.31-.355-.245-.805.451.104.295-.363.744-.259.064-.45-.145-.56-.246-.805.3.047.313-.652.547-.348-.074.217-.357.237-.344.538.35.162 1.013-.066.993.55.794-.084.74-.286 1.324-.2-.182.184-.215.504-.332.746l.382-.027c.067-.414.126-.837.198-1.249.17.197.468.236.694.364-.139-.324.301-.1.16-.424-.142-.006-.347.063-.384-.073.304-.233.05-.218-.036-.514.389-.11.574-.417.606-.865.084.266.254.425.51.478l.022.308c-.365-.026-.493.175-.542.45.587-.133.704.312 1.343.11-.058-.438.119-.657.53-.653l.03.41.57-.04-.044-.615c-.172-.048-.549.163-.577-.063-.042-.453.067-.765.315-.948l.057.821c.441.03.729-.083.935-.271-.383-.354-.018-.909-.005-1.442.055.235.39.112.497.275.187.652-.25.724-.098 1.345.315-.217.23-.211.573-.04-.15-.635.299-.67-.072-1.024.588.215.752.103 1.124-.284.002.29.335.177.233.6.365-.17.394-.65.702-.872-.714.259-.794-.048-1.315.298-.035-.18.06-.52-.22-.397-.004.155.06.376-.064.417-.823-.002-.18-.712-.546-.99.851-.245.957.44 1.737.29.108-.265-.46-.217-.124-.404.491.243 1.08.365 1.832.285l.029.408.572-.04-.021-.308c-.128-.173-.554.02-.418-.484-.23-.046-.679.175-.765-.05.006-.122-.038-.29.073-.314.096.216.366.213.678.159l-.029-.408c-.315-.106-.05.334-.365.229.043-.182-.157-.592.053-.62.316-.093.326.189.496.275l.05.715c.214.029.352.158.408.385.27-.003.162-.36.559-.246.07-.507.392-.78.687-1.077.124.437-.069.575-.134.832.298-.148.096.325.394.18.003-.129.013-.246.176-.22.008-.207-.453-.386-.138-.606.608.421.927-.168 1.63.09.15-.37.412-.632.498-1.062-.142-.006-.347.06-.386-.076.004-.122-.038-.29.071-.314.22.307.572.522.87.145.09.407.83.01.979.342-.117-.302.198-.196.365-.23.007-.155-.06-.378.067-.417.151 0 .094.257.3.186.28-.183-.096-.985.514-.859-.1-.245-.31-.356-.249-.805.383-.06.89-.502 1.322-.196l.021.305c-.125.01-.25.018-.379.027l.029.41c.15-.151.692-.428.945-.169l.079 1.127c.142.01.346-.062.384.076-.041.215.164.662-.043.723-.224-.134-.383-.343-.341-.799-.28.123-.138.637-.733.461-.106.651.508.407.627.779-.356-.04-.937.201-1.147-.02-.165-.38.245-.216.152-.527l-.95.067c-.105.653.337.622.454.997-.56.178-.42-.52-.98-.344-.006.21.453.386.138.61-.249.05.048-.582-.313-.392-.034.48-.169.865-.293 1.256.214.029.352.157.408.382-.024.232-.143.376-.35.437-.006-.29-.336-.178-.234-.6-.536-.117-.486.31-.938.269-.03.483-.167.864-.291 1.256.305.103.257.641.441.895a6.314 6.314 0 0 1-.262.327c-.084-.157-.312-.133-.313-.39l.38-.027c-.208-.262-.239-.74-.628-.779l.057.819-.57.04c.23.66-.217.688-.715.669-.065.45.145.56.248.805-.45-.039-.806-.188-1.172-.33.117.3-.198.195-.362.231l.042.613c-.637-.023-.251.917-1.1.696.064.512.738.432.967.139.07.636-.452.724-.282 1.459.238-.036.247.21.404.278-.146.09-.12.337-.36.335-.196-.09-.4-.173-.593-.268-.143-.422.125-.46.141-.73-.394-.113-.286.243-.556.246-.094.34.312.057.218.397-.225.105-.326.33-.745.256l.029.408c.486-.121.666.14.97.244-.329.192-.081.49.051.716-.315-.105-.05.335-.365.23-.065.452.145.56.245.805l.762-.053.043.616c.47.151.286-.308.446-.444.739-.117.69 1.504.212 1.63l.759-.053c.03-.32.312-.41.432-.646.613.576 1.055.11 1.834.284-.064-.663 1.071-.208.988-.892.112.006.268-.037.291.08-.1.132-.258.206-.155.527.386.139.002-.445.258-.43.42-.114.34.394.692.364.272-.003.161-.362.555-.246.055-.802-.635-.457-.794-.457.211-.409.293-.938 1.09-.799.134-.503-.289-.31-.417-.484l-.022-.308c.47.155.287-.305.447-.44.098-.008.19-.014.286-.02-.032.52.062.885.444.894l.02.305-.378.027.057.821c.572-.268.215.62.787.355.04-.25-.17-.735.038-.825.122.108.194.28.492.172.092-.34-.314-.057-.22-.398.482.1.57-.167.637-.457.14.05.48-.153.483.072-.107.537.317.418.252.909.285-.373.761-.564 1.491-.517-.315-.329-.146-.506-.064-.922-.15-.263-.827-.45-.54-.888.316.497.504-.209 1.046-.073-.027.55.708.162.804.56l-.761.053c-.102.423.228.31.233.6.316.106.05-.334.365-.232l.03.411c.416.074.519-.15.746-.258.048-.319-.338-.102-.227-.498.146-.089.12-.334.36-.332.003.29.334.178.232.598.451.107.293-.36.744-.256.104-.423-.226-.31-.231-.6.673.056.813-.388 1.095-.696.101.477-.3.486-.117 1.037.374-.167.315.204.585.166-.006-.293-.336-.178-.234-.6.514-.19.524.24.966.139l-.029-.41c-.317-.106-.05.337-.367.231.095-.34-.312-.057-.217-.397.416-.119.575-.48.907-.68-.428.087-.713-.007-.79-.355l-.95.067c-.137-.409-.326-.415-.584-.166.042-.185-.155-.594.052-.623l.286-.02c.033.183-.062.52.218.398.385.136.001-.445.257-.43.136.164.382.192.327.595.595-.08 1.319-.309 1.9-.132-.142-.324.303-.1.161-.424-.198-.09-.398-.173-.591-.266.2-.163.244-.476.534-.553.05.496.272.777.635.881-.397.21-.339 1.295-.9.783l.029.408c.381.003.734-.518 1.13-.18.005.163-.235.098-.166.319l.57-.04c-.015-.501-.338-.617-.453-.995.468-.06.912-.093 1.157.126-.036-.258.194-.266.255-.43.303.179.592.376.897.553.005-.44.447-.474.921-.475.212-.44.234-1.056.878-1.09l.043.613c.32-.212.526-.528.91-.68.092-.34-.315-.056-.22-.394-.225.105-.326.33-.747.256-.224-.753.348-.758.594-1.07.075.388.875-.122.709.569.315.105.05-.338.365-.232.094-.34-.312-.057-.218-.398.384-.067.503.19.78.253.05.27-.539-.055-.357.337.48-.183.765-.355 1.233-.087.201-.557.716-.443 1.222-.291l-.043-.616c-.442.476-1.138-.065-1.372-.52.49-.165.424.36.787.357.246-.09.412-.254.337-.64-.17-.012-.468.136-.394-.179.44-.101.696-.369 1.317-.298.18-.594-.438-.2-.422-.59.499-.043.42.302.758-.053-.057.333.11.384.227.498-.297.045-.039.605-.236.738-.365.159-.217-.324-.585-.162-.135.373-.095.479-.46.235-.002.125-.01.245-.177.22.082.232.204.417.504.374.14-.124.215-.308.353-.435.644-.132.722.438 1.095.643-.145.089-.12.334-.358.335-.268.035-.21-.336-.585-.166 0 .383-.083.687-.322.845.003.293.336.178.232.6.517.073.47-.385.623-.66l.283-.02c-.101.423.229.31.234.6-.318-.105-.05.338-.365.233.122.404.614.937.384 1.412-.202-.081-.224-.39-.503-.375.035.29-.308.22-.148.627.675.129 1.158.494 1.417 1.133l.95-.066c-.085-.459-.001-.766.322-.843.17.604-.274.636-.105 1.24.36-.074.515.108.601.37l.759-.052c.125-.414-.412-.01-.404-.282-.04-.325.13-.451.346-.54l.029.411.57-.04-.043-.613c-.142-.007-.349.06-.386-.076.245-.248.31-.665.914-.577.078-.212.156-.43.24-.636l.287-.02c-.065.45.145.56.246.808-.27 0-.16.356-.556.242-.062.453.147.56.248.806.33-.01.214-.436.541-.45.087.267.239.447.6.37l.028.41c.17.013.468-.135.394.18.206-.189.496-.304.937-.272.06-.263-.247-.868.131-.835.095-.338-.311-.054-.217-.395.316.106.048-.334.363-.229.025-.474-.083-.787-.26-1.013.23.049.68-.175.768.052l.022.305-.382.027c-.062.45.147.56.248.805-.29.143-.168.672-.317.948.156.068.165.314.403.282.36-.376 1.512-.402 1.725.085.27-.002.162-.359.556-.245-.172-.607.273-.635.102-1.242-.142-.007-.346.062-.386-.074.156-.109.129-.392.453-.341.648.318.018.903.21 1.63.43-.092.733-.018.964.14.083-.902 1.234.177 1.682-.53.04-.183-.158-.593.05-.623.647-.021.707.686 1.47.516-.015-.352-.41-.232-.423-.59.328-.009.212-.435.542-.447l.057.818c.796-.207 1.667-.347 2.033-.965l.043.614c.313-.212.228-.206.567-.04-.159-.404.184-.336.148-.627-.141-.006-.349.063-.386-.073.007-.123-.038-.29.072-.315.246.276.673.393.343.796.55-.09.877-.387.988-.889.114.009.27-.038.291.083l.021.305c-.506-.092-.342.442-.527.654l1.331-.093c.13-.428-.488-.493-.152-.81.233.12.261.49.694.362-.168-.605.479-.444.308-1.05l-.38.026c-.004.155.062.376-.066.417-.2-.048-.614.17-.67-.056-.092-.339.17-.349.247-.533.152 0 .094.256.299.185.087-.302.264-.518.527-.653-.377-.343-.055-.778.01-1.236.114.008.267-.035.293.083-.263.108-.145.566-.127.934.489-.088.523.393.628.779l-.38.026.03.411.379-.026c.004-.155-.062-.376.066-.418l.284-.02c.124.437-.068.575-.133.832.422.014.19-.588.527-.653.126.437-.066.575-.131.832l.95-.066c.003-.155-.062-.376.066-.415.503.006.627.48 1.265.322.085-.3.261-.518.524-.653l.029.407.761-.053c.109-.469-.3-.294-.24-.702.108-.247.452-.276.33-.743l.378-.026c-.083-.462-.001-.769.324-.846l.072 1.022c-.406.194-.428.749-.687 1.08.125-.01.251-.018.377-.027-.16-.632.444-.541.608-.868.121.108.194.28.492.172.004-.152-.062-.376.064-.417.249-.047-.048.581.312.39-.058-.438.116-.656.53-.653.095-.34-.314-.056-.22-.394.433-.169.343.318.776.15-.198-.63.106-.793.308-1.051-.183-.332-1.039-.414-.737-.975.319.16.37.65.897.553.038.476.364.589.276 1.216.491-.09.643.24.628.776a3.077 3.077 0 0 1 1.71-.12c.005-.151-.061-.375.065-.414.804.017.949-.576 1.575-.726.04-.185-.16-.594.05-.622.028.375.412.305.517.582-.478.06-.712.352-.701.87l.38-.027c.006-.153-.06-.376.066-.415.628-.226.499.492 1.073.335l-.042-.61c-.142-.01-.35.06-.387-.08.007-.12-.038-.287.074-.311.101.28.526.161.869.145l.043.614c.449.039.401-.39.935-.272l-.029-.408c-.36.115-.424-.144-.592-.268.066-.29-.263-.946.127-.935.078.643.221 1.206.847 1.176.007-.182-.134-.506.16-.424.092-.34-.312-.057-.217-.397.358-.074.512.108.596.37-.065.258-.258.396-.134.833l.571-.04c.125-.413-.412-.007-.401-.282.221-.267.466-.518.916-.577-.178-.484.206-.443.539-.45.102-.423-.228-.307-.234-.597.563.142.606.14 1.143-.08-.045.182.155.592-.052.617-.152.002-.094-.254-.301-.183.195.627-.59.34-.513.859.331-.398.483-.061.952-.067.04-.184-.16-.591.05-.622.349-.171.203.268.489.172-.114-.364.364-.17.556-.245.007-.153-.059-.376.067-.415.677-.06.769.6 1.644.295l.028.41.382-.026c-.005-.29-.335-.177-.234-.6.435.119.271-.323.652-.252.121.109.191.28.486.173l.029.408c.829-.05 1.469-.283 2.064-.555-.006-.293-.336-.177-.234-.6l.379-.026.043.613c.394.114.286-.245.556-.245-.182-.44-.453-.775-.479-1.406-.269.13-.465.329-.733.462-.02-.57-.594-.448-.642-.982-.327.01-.211.436-.539.448.132-.351.266-.706.403-1.057l.475-.034c-.166.65.601.143.437.793.451.104.295-.36.744-.256.155.551.646.682.67 1.392.439.026.705-.106.733-.464-.361.077-.512-.105-.599-.368.374-.17.317.2.585.163.042-.182-.158-.592.052-.62.163.24.573.177.699.464-.195.391-.66.53-.687 1.077.18.259.522.316.794.46.064-.387.709-.231.516-.858-.582-.098-.344.572-.923.477l-.029-.41c.565-.005.601-.79 1.126-.286-.16-.407.183-.338.148-.626-.363.114-.424-.145-.592-.269.305-.233.051-.215-.035-.51l.379-.027c.062-.56-.367-.512-.621-.679.179-.118.365-.231.549-.345.015.352.408.232.422.587-.199.258-.162.74-.102 1.243.411.131-.06-.57.351-.438-.032.521.062.886.443.895-.007.153-.222.11-.372.13.082.232.201.417.504.377.06-.295.501-.236.839-.265.007-.155-.059-.376.067-.418.152 0 .094.257.301.186.029-.418.473-.449.716-.667-.165-.51.166-1.051.52-.758.003.162-.236.098-.17.321l.382-.026c.102-.423-.229-.31-.234-.6.193.008.353-.484.563-.146-.197.104-.192.396-.141.732 1.588.212 2.205-.1 3.992-.279-.026-.555.855-.548 1.124-.282-.364-.433-.011-2.03.639-1.796.032.38-.293.428-.124.935.47-.063.791.056.978.344.308-.396.501.122 1.138-.08-.015-.246.343-.626.551-.348l.022.308c-.169.034-.485-.072-.368.232.594.046.399-.647 1.112-.49l.029.41c.351-.426.387.055.773.153-.228-.663.216-.694.718-.67.181-.593-.438-.2-.422-.586-.195-.011-.353.48-.563.142.465-.203-.302-.41.042-.725.262.161.376.5.712.57.24-.286.123-.902.088-1.448-.145-.007-.347.062-.387-.076.325-.197-.162-.768-.269-1.111.317.103.049-.337.367-.232-.139.501.284.311.415.484.001.163-.238.098-.169.321.44.122.613.576.833.971-.279.06-.188.464-.339.64.43-.087.712.007.789.358.696-.05 1.395-.098 2.088-.146-.101-.246-.308-.356-.246-.806-.23-.049-.679.175-.766-.052.177-.246.787-.09 1.131-.18.101.246.31.356.248.806.646.639 1.284-.557 1.711-.12.007-.155-.062-.376.067-.417.18.37.889.157.84-.263-.17-.012-.468.136-.394-.179.482.035 1.191-.219 1.527-.006.089.341-.173.352-.251.533-.149.003-.091-.254-.298-.185.038.29-.307.225-.148.63.794-.086 1.275-.467 1.654-.939-.17-.05-.55.16-.578-.065.043-.215-.162-.662.045-.723.72.113.689 1.15 1.511 1.13-.122-.405-.614-.94-.384-1.412l.284-.02c-.018.468.106.758.436.792.299.055.093-.362.461-.239.104.093.207.19.307.286.002.162-.238.098-.169.32.209-.187.496-.3.938-.268.062-.453-.146-.563-.249-.808-.172-.045-.549.163-.577-.06.056-.398.981-.482 1.315-.299-.074.217-.357.237-.344.538.066.437.508.41.981.344.095-.34-.315-.057-.22-.398l.759-.053.029.41c.37.024.492-.177.541-.45-.17-.012-.468.136-.394-.178.44-.102.453.332.964.139-.097-.347.019-.493.351-.435-.042-.39-.52-.246-.437-.792.515-.193.525.24.967.136l-.043-.613c-.491.088-.522-.39-.63-.779l.382-.027.043.614c.382-.48.375.174.868.145.189-.11.168-.416.446-.444.143.164.408.748.167 1.018-.226-.41-.37.08-.556.245-.095-.213-.366-.213-.677-.159l.028.41c.513.177 1.183.162 1.914.073-.218-.585.388-.402.73-.464.004-.125.013-.245.176-.218.039-.315-.184-.872.024-1.03.138.163.382.192.327.595.6-.115 1.024-.009 1.353.213-.122.239-.315.41-.74.36l-.028-.407-.571.04c.064.438-.113.656-.527.653l.029.408c.206-.156.496-.236.637-.455.741.638 1.495.045 2.579.026.03-.322.312-.413.432-.649.202.084.224.389.503.378.145-.312.246-.667.718-.667.095-.34-.314-.06-.219-.397-.266.132-.464.33-.73.463-.015-.354-.41-.234-.425-.589.438.026.704-.103.73-.46-.003-.294-.333-.179-.232-.604l.38-.026.057.818.382-.026c-.173-.447.257-.333.138-.73-.102-.201-.386-.184-.415-.484.424.536.697-.325.945-.169-.111.247-.455.276-.332.743.414-.105.629.035.78.255.004.162-.235.098-.167.318.58-.127.714.466.437.795l.57-.04c.041-.25-.17-.735.038-.828.114.009.268-.035.294.086.163.374-.248.212-.155.524.53.08.562-.808 1.119-.388.143.421-.122.459-.141.73.126-.01.254-.019.379-.027.043-.183-.155-.592.053-.62.268.225.959-.076.899.553.361-.042.221-.558.73-.461.043-.185-.155-.595.053-.623.096.216.366.214.68.16l-.057-.82c-.245.474-.854.603-1.477.72-.108.265.459.22.121.404-.126-.325-.677-.12-1.059-.132l-.072-1.024c.317-.06.593-.652.931-.372-.099.132-.261.203-.155.524l.758-.053c-.002-.293-.335-.177-.231-.6.561-.178.418.52.978.341-.059-.41-.476-.96-.195-1.425.366.436.685.927 1.138 1.256-.143.09-.118.337-.358.335-.006.207.453.386.138.607-.151.002-.093-.255-.298-.183l.043.613c.769-.268.838-.113 1.708-.12-.012-.503-.336-.62-.451-.997-.158.082-.523.455-.754.156.145-.311.098-.802.208-1.147-.015.686.941.168 1.269.428-.106.246-.453.276-.329.742.372.055 1.112-.341.978.342l.57-.04c.041-.25-.172-.732.038-.826l.284-.02c-.178.594.438.2.425.59-.352.052-.621.184-.732.461.738-.2.76-.202 1.522-.106.102-.423-.231-.31-.234-.6.375-.168.314.2.582.165l-.072-1.024 1.711-.12.057.82-.379.026.029.408c.511-.158.761-.561 1.288-.707-.052-.525.48-.506.403-1.057.222.134.38.343.341.799.316-.614 1.282-.915.633-1.896.17.048.549-.16.574.063-.396.253.202.353.065.921.324-.1.459.028.41.384l.38-.026-.029-.41c-.144-.007-.349.062-.386-.077.042-.152-.15-.519.059-.517.124.108.192.28.489.172.123-.413-.414-.01-.403-.281.056-.21.508-.538.747-.259-.029.165-.293.11-.16.424.165.124.229.383.589.266-.01-.505-.041-.986-.276-1.214-.682.254-.585-.458-1.167-.33Z" clip-rule="evenodd"/>
</svg>
